<svg width="55" height="68" viewBox="0 0 55 68" fill="none" xmlns="http://www.w3.org/2000/svg">
<path fill-rule="evenodd" clip-rule="evenodd" d="M38.5409 52.9008C37.9769 52.8608 37.4079 52.8898 36.8409 52.8958C35.7529 52.9088 35.3309 53.3228 35.3279 54.3988C35.3229 56.9938 35.3429 59.5888 35.3199 62.1848C35.3049 63.9308 33.7899 65.0528 32.2169 64.5268C31.2369 64.1998 30.6299 63.3458 30.6249 62.2208C30.6139 59.6688 30.6219 57.1168 30.6199 54.5658C30.6189 53.2698 30.2439 52.8978 28.9359 52.8958C27.6489 52.8938 26.3629 52.8878 25.0769 52.8978C24.0009 52.9048 23.5659 53.3378 23.5629 54.4078C23.5579 57.0248 23.5779 59.6418 23.5539 62.2588C23.5369 64.0278 21.8329 65.1558 20.2709 64.4518C19.2609 63.9968 18.8539 63.1548 18.8549 62.0798C18.8569 59.5718 18.8559 57.0638 18.8549 54.5558C18.8539 53.2608 18.4839 52.8988 17.1689 52.8948C16.5589 52.8938 15.9479 52.9008 15.3379 52.8938C13.2029 52.8678 11.8299 51.5088 11.8009 49.3668C11.7809 47.8618 11.7969 46.3568 11.7969 44.8518V27.8408V27.0798H42.3809V27.8158C42.3809 34.9028 42.3519 41.9918 42.3979 49.0788C42.4139 51.4298 40.8619 53.0658 38.5409 52.9008ZM43.2479 24.6948C32.4759 24.6918 21.7039 24.6918 10.9309 24.6958C9.8879 24.6958 9.4489 25.1258 9.4479 26.1638C9.4419 33.9058 9.4169 41.6498 9.4579 49.3928C9.4759 52.8638 11.9329 55.2188 15.4039 55.2478C15.7469 55.2508 16.0889 55.2478 16.5019 55.2478V56.0188C16.5019 58.0038 16.4509 59.9908 16.5259 61.9728C16.5579 62.7998 16.7369 63.6698 17.0639 64.4268C17.7099 65.9178 19.0279 66.6328 20.5469 67.0148H21.8559C23.4049 66.6378 24.7289 65.9058 25.3809 64.3858C25.6899 63.6658 25.8619 62.8398 25.8899 62.0548C25.9589 60.0508 25.9129 58.0418 25.9129 56.0348V55.2888H28.2669V55.9708V61.3368C28.2669 64.6838 29.1969 65.9848 32.3259 67.0148H33.6349C33.7339 66.9768 33.8319 66.9278 33.9339 66.9018C36.0599 66.3598 37.4189 64.9418 37.5989 62.7518C37.7489 60.9098 37.6639 59.0478 37.6789 57.1958C37.6849 56.5688 37.6799 55.9428 37.6799 55.2478C38.0939 55.2478 38.4369 55.2508 38.7789 55.2478C42.2549 55.2178 44.7009 52.8748 44.7199 49.3908C44.7619 41.6478 44.7359 33.9048 44.7299 26.1618C44.7289 25.1208 44.2939 24.6958 43.2479 24.6948Z" fill="white"/>
<path fill-rule="evenodd" clip-rule="evenodd" d="M5.913 45.1396C5.907 46.2936 5.161 47.0376 4.102 47.0066C3.305 46.9826 2.642 46.4456 2.473 45.6576C2.418 45.4046 2.398 45.1396 2.398 44.8796C2.394 39.6476 2.393 34.4156 2.397 29.1846C2.398 27.8736 3.034 27.0906 4.1 27.0566C5.135 27.0236 5.898 27.7536 5.91 28.8556C5.932 30.8616 5.918 32.8666 5.919 34.8716V37.0306C5.918 39.7336 5.927 42.4366 5.913 45.1396ZM8.238 28.5196C8.181 26.8626 7.038 25.4316 5.467 24.9126C3.861 24.3826 2.107 24.8936 1.027 26.1646C0.407 26.8926 0.188 27.7646 0 28.6596V45.4146C0.041 45.5796 0.099 45.7426 0.121 45.9096C0.363 47.6786 1.965 49.1996 3.736 49.3366C6.309 49.5356 8.248 47.7366 8.265 45.0746C8.288 41.1926 8.273 37.3096 8.27 33.4266C8.268 31.7906 8.294 30.1546 8.238 28.5196Z" fill="white"/>
<path fill-rule="evenodd" clip-rule="evenodd" d="M18.6786 9.62569C23.9896 6.20469 29.5376 6.08069 34.9806 9.29669C39.4126 11.9157 41.7626 15.9617 42.3286 21.1297H11.8596C12.3716 16.2077 14.5576 12.2797 18.6786 9.62569ZM11.1326 23.5187C14.0316 23.5217 16.9316 23.5197 19.8306 23.5197C27.5706 23.5197 35.3096 23.5207 43.0496 23.5187C44.2866 23.5187 44.7746 23.0807 44.7206 21.9717C44.3986 15.3647 41.3896 10.3677 35.7126 6.97769C35.5346 6.87069 35.3596 6.76169 35.1706 6.64569C35.7696 5.64569 36.3326 4.71269 36.8886 3.77669C37.3006 3.08469 37.7356 2.40369 38.1026 1.68769C38.4056 1.09769 38.1836 0.459686 37.6536 0.157686C37.1336 -0.138314 36.5526 -0.0133141 36.1436 0.496686C36.0226 0.647686 35.9246 0.820686 35.8236 0.988686C34.9586 2.42569 34.0846 3.85769 33.2396 5.30669C33.0516 5.62869 32.8726 5.71469 32.5146 5.59569C28.9016 4.39969 25.2826 4.39969 21.6696 5.59469C21.3136 5.71269 21.1326 5.63369 20.9436 5.30869C20.1226 3.89669 19.2736 2.50069 18.4316 1.09969C18.2966 0.876686 18.1646 0.646686 17.9986 0.447686C17.6066 -0.0203141 17.0286 -0.125314 16.5316 0.155686C16.0186 0.446686 15.8166 1.04369 16.0506 1.62669C16.1306 1.82769 16.2436 2.01669 16.3556 2.20269C17.2256 3.66169 18.0986 5.11969 19.0096 6.64269C18.8366 6.75269 18.7136 6.83869 18.5856 6.91369C12.9086 10.2487 9.85359 15.1907 9.47359 21.7737C9.39959 23.0737 9.82059 23.5177 11.1326 23.5187Z" fill="white"/>
<mask id="mask0" mask-type="alpha" maskUnits="userSpaceOnUse" x="45" y="24" width="10" height="26">
<path fill-rule="evenodd" clip-rule="evenodd" d="M45.9027 24.7134H54.156V49.3638H45.9027V24.7134Z" fill="white"/>
</mask>
<g mask="url(#mask0)">
<path fill-rule="evenodd" clip-rule="evenodd" d="M50.078 47.0062C49.043 47.0362 48.281 46.3032 48.27 45.2042C48.252 43.1112 48.264 41.0192 48.264 38.9262C48.263 38.2942 48.264 37.6622 48.264 37.0292C48.265 34.3262 48.256 31.6232 48.268 28.9212C48.273 27.8222 48.959 27.0862 49.95 27.0562C50.839 27.0302 51.556 27.5942 51.724 28.4702C51.768 28.7042 51.784 28.9462 51.784 29.1852C51.787 34.4162 51.789 39.6482 51.785 44.8802C51.784 46.1832 51.139 46.9752 50.078 47.0062ZM54.12 28.9342C54.099 26.6322 52.544 24.9182 50.515 24.7342C47.935 24.4992 45.952 26.2762 45.919 28.9102C45.887 31.6132 45.912 34.3162 45.912 37.0192H45.931C45.931 39.8522 45.899 42.6862 45.944 45.5192C45.967 46.9522 46.709 48.0442 47.923 48.7802C50.45 50.3152 54.096 48.7252 54.124 45.1512C54.167 39.7452 54.168 34.3392 54.12 28.9342Z" fill="white"/>
</g>
<path fill-rule="evenodd" clip-rule="evenodd" d="M20.1761 13.3559C19.4951 13.4559 18.5421 12.9429 18.2211 13.8899C18.0111 14.5089 18.0271 15.3089 18.2261 15.9378C18.4971 16.7898 19.3731 16.3919 20.0031 16.4559C20.4691 16.5029 20.9651 16.4639 21.1431 15.9248C21.2411 15.6258 21.2051 15.2809 21.2261 14.9919C21.2071 14.6069 21.2441 14.2449 21.1581 13.9159C21.0331 13.4399 20.6191 13.2909 20.1761 13.3559Z" fill="white"/>
<path fill-rule="evenodd" clip-rule="evenodd" d="M35.0946 13.3587C34.3786 13.4587 33.4566 12.9367 33.0206 13.9427C32.9076 14.2037 32.9756 14.5447 32.9606 14.8477C32.9726 14.8487 32.9856 14.8487 32.9976 14.8487C32.9976 15.1747 32.9086 15.5327 33.0136 15.8207C33.3836 16.8387 34.2916 16.3717 34.9886 16.4527C35.5076 16.5127 35.9826 16.3477 36.0376 15.7357C36.0886 15.1757 36.0856 14.6037 36.0326 14.0447C35.9826 13.5157 35.5786 13.2917 35.0946 13.3587Z" fill="white"/>
</svg>
