<svg width="131" height="32" viewBox="0 0 131 32" fill="none" xmlns="http://www.w3.org/2000/svg">
<path fill-rule="evenodd" clip-rule="evenodd" d="M27.0735 25.8129L19.187 5.84523C18.8175 4.84546 18.511 4.04712 18.2731 3.45022C18.0315 2.85147 17.7377 2.29337 17.3862 1.77223C17.0383 1.25295 16.5768 0.826057 16.0072 0.495265C15.4358 0.162624 14.7274 0 13.8765 0C13.0383 0 12.3353 0.162624 11.7657 0.495265C11.196 0.826057 10.7364 1.25849 10.3867 1.79256C10.037 2.32848 9.70708 2.99931 9.39703 3.80873C9.09058 4.61816 8.8256 5.31116 8.60568 5.88773L0.885083 25.9829C0.569626 26.7831 0.342497 27.4114 0.205498 27.8605C0.0684993 28.3132 0 28.7457 0 29.167C0 29.9025 0.295629 30.5549 0.885083 31.1314C1.47454 31.708 2.15412 32 2.92384 32C3.82875 32 4.4813 31.7246 4.87787 31.185C5.27805 30.6417 5.75755 29.5976 6.31996 28.0508L6.56872 27.3652L12.4795 10.4819L13.8351 6.60476L14.6967 9.02379L22.1613 29.6235C22.4317 30.2481 22.6805 30.7119 22.9148 31.015C23.1474 31.3181 23.4358 31.5565 23.7783 31.7339C24.1226 31.9094 24.5336 32 25.0149 32C25.8387 32 26.5417 31.6988 27.1257 31.1C27.708 30.5013 28 29.8434 28 29.1282C28 28.4389 27.6918 27.3319 27.0735 25.8129Z" fill="#FFC600"/>
<path fill-rule="evenodd" clip-rule="evenodd" d="M14.0009 18C12.3436 18 11 19.3432 11 21C11 22.6568 12.3436 24 14.0009 24C15.6564 24 17 22.6568 17 21C17 19.3432 15.6564 18 14.0009 18Z" fill="#FFC600"/>
<path fill-rule="evenodd" clip-rule="evenodd" d="M47.379 11.3451L44.9452 5.26273L42.5131 11.3451H47.379ZM48.9465 15.3062H40.9457L39.4609 19H34L42.3531 0H47.6217L56 19H50.433L48.9465 15.3062Z" fill="white"/>
<path fill-rule="evenodd" clip-rule="evenodd" d="M68.7773 9.07754C69.3345 8.59911 69.6122 7.91486 69.6122 7.02661C69.6122 6.14377 69.3345 5.45591 68.7773 4.96484C68.2201 4.47739 67.3941 4.23005 66.2993 4.23005H63.3358V9.79789H66.2993C67.3941 9.79789 68.2201 9.55777 68.7773 9.07754ZM71.0653 0.853953C72.3231 1.42446 73.2943 2.23869 73.9769 3.29485C74.6596 4.35462 75 5.59854 75 7.02661C75 8.46009 74.6596 9.7004 73.9769 10.7475C73.2943 11.7965 72.3231 12.6053 71.0653 13.1758C69.8093 13.7481 68.3294 14.0297 66.6218 14.0297H63.3358V19H58V0H66.6218C68.3294 0 69.8093 0.281642 71.0653 0.853953Z" fill="white"/>
<path fill-rule="evenodd" clip-rule="evenodd" d="M88.7773 9.07754C89.3345 8.59911 89.6122 7.91486 89.6122 7.02661C89.6122 6.14377 89.3345 5.45591 88.7773 4.96484C88.2201 4.47739 87.3941 4.23005 86.2993 4.23005H83.3358V9.79789H86.2993C87.3941 9.79789 88.2201 9.55777 88.7773 9.07754ZM91.0653 0.853953C92.3231 1.42446 93.2943 2.23869 93.9769 3.29485C94.6596 4.35462 95 5.59854 95 7.02661C95 8.46009 94.6596 9.7004 93.9769 10.7475C93.2943 11.7965 92.3231 12.6053 91.0653 13.1758C89.8093 13.7481 88.3276 14.0297 86.6218 14.0297H83.3358V19H78V0H86.6218C88.3276 0 89.8093 0.281642 91.0653 0.853953Z" fill="white"/>
<mask id="mask0" mask-type="alpha" maskUnits="userSpaceOnUse" x="0" y="0" width="131" height="32">
<path fill-rule="evenodd" clip-rule="evenodd" d="M0 32H131V0H0V32Z" fill="white"/>
</mask>
<g mask="url(#mask0)">
<path fill-rule="evenodd" clip-rule="evenodd" d="M98 19H103V0H98V19Z" fill="white"/>
<path fill-rule="evenodd" clip-rule="evenodd" d="M115.329 12.1034L113.32 14.2464V19H108V0H113.32V7.90042L120.676 0H126.592L118.83 8.41496L127 19H120.756L115.329 12.1034Z" fill="white"/>
<path fill-rule="evenodd" clip-rule="evenodd" d="M40.1761 29.1781V32H38.8362V29.2015L36 24H37.4313L39.5466 27.8996L41.6812 24H43L40.1761 29.1781Z" fill="white"/>
<path fill-rule="evenodd" clip-rule="evenodd" d="M53.337 30.3814C53.7313 30.1483 54.0443 29.8223 54.2705 29.4054C54.4948 28.9884 54.6088 28.5222 54.6088 27.9991C54.6088 27.4854 54.4948 27.0135 54.2705 26.5946C54.0443 26.1758 53.7313 25.8498 53.337 25.6167C52.9408 25.3836 52.4957 25.2661 51.9982 25.2661C51.5043 25.2661 51.0574 25.3836 50.6612 25.6167C50.265 25.8498 49.9557 26.1758 49.7295 26.5946C49.5016 27.0135 49.3894 27.4854 49.3894 27.9991C49.3894 28.5222 49.5016 28.9884 49.7295 29.4054C49.9557 29.8223 50.265 30.1483 50.6612 30.3814C51.0574 30.6202 51.5043 30.7358 51.9982 30.7358C52.4957 30.7358 52.9408 30.6202 53.337 30.3814ZM49.9521 31.4826C49.3442 31.1414 48.8666 30.6638 48.5192 30.0498C48.1737 29.4376 48 28.7553 48 27.9991C48 27.2466 48.1737 26.5605 48.5192 25.9484C48.8666 25.3419 49.3442 24.8643 49.9521 24.5155C50.5617 24.1744 51.242 24 51.9982 24C52.758 24 53.4383 24.1744 54.0479 24.5155C54.6558 24.8643 55.1316 25.3362 55.479 25.9427C55.8263 26.5511 56 27.2409 56 27.9991C56 28.7647 55.8263 29.4489 55.479 30.0554C55.1316 30.6638 54.6558 31.1414 54.0479 31.4826C53.4383 31.8313 52.758 32 51.9982 32C51.242 32 50.5617 31.8313 49.9521 31.4826Z" fill="white"/>
<path fill-rule="evenodd" clip-rule="evenodd" d="M63.9249 31.0855C63.3096 30.4707 63 29.5965 63 28.4515V24H64.4857V28.3977C64.4857 29.9404 65.1633 30.7185 66.5185 30.7185C67.864 30.7185 68.5377 29.9404 68.5377 28.3977V24H70V28.4515C70 29.5965 69.6924 30.4707 69.0809 31.0855C68.4676 31.6964 67.6108 32 66.5068 32C65.4028 32 64.5402 31.6964 63.9249 31.0855Z" fill="white"/>
<path fill-rule="evenodd" clip-rule="evenodd" d="M81.1226 25.6682C80.8283 25.3934 80.397 25.2609 79.8289 25.2609H78.3058V28.4473H79.8289C80.397 28.4473 80.8283 28.3069 81.1226 28.0283C81.4187 27.7476 81.5659 27.3579 81.5659 26.8453C81.5659 26.3386 81.4187 25.9469 81.1226 25.6682ZM81.595 32L80.1609 29.6575C80.101 29.6692 80.0103 29.6692 79.8905 29.6692H78.3058V32H77V24H79.8905C80.498 24 81.0302 24.1169 81.4803 24.3449C81.9321 24.573 82.2795 24.9023 82.5191 25.3272C82.7604 25.752 82.8785 26.2587 82.8785 26.8453C82.8785 27.4475 82.7519 27.9678 82.4952 28.4005C82.235 28.837 81.8688 29.1605 81.3845 29.371L83 32H81.595Z" fill="white"/>
<path fill-rule="evenodd" clip-rule="evenodd" d="M103.375 28.982L101.985 25.4905L100.602 28.982H103.375ZM103.83 30.1491H100.138L99.4098 32H98L101.319 24H102.668L106 32H104.567L103.83 30.1491Z" fill="white"/>
<path fill-rule="evenodd" clip-rule="evenodd" d="M116.208 28.0224C116.51 27.7476 116.661 27.3579 116.661 26.8453C116.661 26.3386 116.51 25.9469 116.208 25.6682C115.908 25.3934 115.468 25.2609 114.888 25.2609H113.334V28.4356H114.888C115.468 28.4356 115.908 28.2972 116.208 28.0224ZM116.573 24.3449C117.033 24.573 117.387 24.9023 117.633 25.3272C117.878 25.752 118 26.2587 118 26.8453C118 27.4241 117.878 27.9328 117.633 28.3635C117.387 28.7922 117.033 29.1196 116.573 29.3515C116.112 29.5795 115.571 29.6906 114.951 29.6906H113.334V32H112V24H114.951C115.571 24 116.112 24.1169 116.573 24.3449Z" fill="white"/>
<path fill-rule="evenodd" clip-rule="evenodd" d="M129.208 28.0224C129.51 27.7476 129.66 27.3579 129.66 26.8453C129.66 26.3386 129.51 25.9469 129.208 25.6682C128.907 25.3934 128.467 25.2609 127.887 25.2609H126.333V28.4356H127.887C128.467 28.4356 128.907 28.2972 129.208 28.0224ZM129.573 24.3449C130.032 24.573 130.389 24.9023 130.633 25.3272C130.878 25.752 131 26.2587 131 26.8453C131 27.4241 130.878 27.9328 130.633 28.3635C130.389 28.7922 130.032 29.1196 129.573 29.3515C129.112 29.5795 128.57 29.6906 127.95 29.6906H126.333V32H125V24H127.95C128.57 24 129.112 24.1169 129.573 24.3449Z" fill="white"/>
</g>
</svg>
