<svg width="56" height="70" viewBox="0 0 56 70" fill="none" xmlns="http://www.w3.org/2000/svg">
<mask id="mask0" mask-type="alpha" maskUnits="userSpaceOnUse" x="0" y="17" width="56" height="53">
<path fill-rule="evenodd" clip-rule="evenodd" d="M0 17.9395H55.101V69.1321H0V17.9395Z" fill="white"/>
</mask>
<g mask="url(#mask0)">
<path fill-rule="evenodd" clip-rule="evenodd" d="M49.005 57.7845C47.88 60.0265 46.575 62.0925 44.825 63.8755C43.986 64.7295 43.115 65.3455 42.207 65.7525C41.298 66.1585 40.35 66.3615 39.317 66.3625C38.573 66.3625 37.785 66.2555 36.946 66.0275C36.046 65.7835 35.198 65.5605 34.452 65.2635C32.38 64.4395 30.282 63.9975 28.179 63.9975C25.89 63.9965 23.604 64.5245 21.367 65.5915C20.163 66.1635 19.078 66.4045 18.065 66.4055C17.054 66.4045 16.098 66.1665 15.14 65.7015C14.185 65.2365 13.234 64.5355 12.301 63.6225C11.414 62.7545 10.59 61.8205 9.925 60.8415C5.216 53.9085 2.731 46.4115 2.727 38.2025C2.727 37.3775 2.752 36.5445 2.804 35.7035C3.024 32.1185 4.252 28.8455 6.399 25.8935C7.602 24.2435 8.953 23.0435 10.434 22.2475C11.916 21.4535 13.537 21.0525 15.341 21.0505C16.359 21.0505 17.435 21.1805 18.567 21.4505C19.982 21.7875 21.376 22.1195 22.726 22.5175C24.324 22.9895 25.931 23.2385 27.534 23.2375C29.58 23.2385 31.616 22.8315 33.608 22.0045C35.693 21.1385 37.802 20.6665 39.947 20.6655C40.718 20.6665 41.494 20.7275 42.279 20.8545C43.939 21.1255 45.376 21.7455 46.731 22.6365C47.699 23.2725 48.62 24.0555 49.521 24.9335C45.441 28.2645 43.359 32.9775 43.365 37.6755C43.355 43.1275 46.163 48.5855 51.621 51.8445C50.773 53.8825 49.954 55.8945 49.005 57.7845ZM53.972 50.0295C48.67 47.3055 46.104 42.5075 46.092 37.6755C46.099 33.3715 48.145 29.0715 52.346 26.2185L53.664 25.3245L52.577 24.1595C51.254 22.7415 49.844 21.4205 48.23 20.3575C46.618 19.2965 44.795 18.4995 42.717 18.1625C41.786 18.0125 40.862 17.9395 39.947 17.9395C37.398 17.9385 34.924 18.5045 32.562 19.4855C30.882 20.1815 29.221 20.5105 27.534 20.5115C26.212 20.5105 24.871 20.3075 23.496 19.9025C22.055 19.4775 20.613 19.1355 19.199 18.7975C17.881 18.4835 16.592 18.3235 15.341 18.3235C13.125 18.3215 11.026 18.8325 9.144 19.8455C7.259 20.8565 5.599 22.3595 4.194 24.2875C1.767 27.6155 0.327997 31.4245 0.0809968 35.5385C0.0269968 36.4335 -3.18313e-06 37.3215 -3.18313e-06 38.2025C-0.00400318 46.9715 2.691 55.0595 7.669 62.3745C8.469 63.5505 9.413 64.6115 10.394 65.5715C11.488 66.6415 12.665 67.5275 13.945 68.1525C15.224 68.7775 16.612 69.1335 18.065 69.1325C19.522 69.1335 21.026 68.7755 22.54 68.0535C24.447 67.1465 26.305 66.7265 28.179 66.7245C29.901 66.7255 31.645 67.0835 33.446 67.7985C34.407 68.1785 35.355 68.4195 36.231 68.6585C37.277 68.9435 38.309 69.0895 39.317 69.0895C40.716 69.0905 42.068 68.8045 43.322 68.2415C44.577 67.6795 45.731 66.8475 46.772 65.7855C48.787 63.7315 50.241 61.4015 51.443 59.0075C52.644 56.6125 53.6 54.1475 54.606 51.7755L55.102 50.6075L53.972 50.0295Z" fill="white"/>
</g>
<mask id="mask1" mask-type="alpha" maskUnits="userSpaceOnUse" x="25" y="1" width="16" height="18">
<path fill-rule="evenodd" clip-rule="evenodd" d="M25.7765 1H40.4495V18.7663H25.7765V1Z" fill="white"/>
</mask>
<g mask="url(#mask1)">
<path fill-rule="evenodd" clip-rule="evenodd" d="M31.4835 8.53827C33.0615 6.73727 35.2055 5.29327 37.7185 4.44427C37.7005 7.47627 36.7415 10.3953 34.9905 12.5083C34.1045 13.5803 33.0215 14.4523 31.7355 15.0653C30.7805 15.5183 29.7095 15.8303 28.5095 15.9633C28.5425 13.2833 29.6125 10.6753 31.4835 8.53827ZM25.9965 18.7663L27.2155 18.7643C29.3305 18.7613 31.2455 18.3193 32.9075 17.5273C35.4035 16.3403 37.3055 14.3793 38.5605 12.0633C39.8185 9.74427 40.4485 7.06527 40.4495 4.34427C40.4495 3.73727 40.4185 3.12927 40.3545 2.52127L40.1965 0.999268L38.7025 1.33227C34.9405 2.16927 31.7215 4.12927 29.4325 6.74127C27.1445 9.35127 25.7765 12.6353 25.7765 16.0883C25.7765 16.5753 25.8035 17.0643 25.8585 17.5543L25.9965 18.7663Z" fill="white"/>
</g>
</svg>
