<svg width="102" height="102" viewBox="0 0 102 102" fill="none" xmlns="http://www.w3.org/2000/svg">
<circle cx="51" cy="51" r="50.5" fill="white" stroke="#E8E8E8"/>
<circle cx="51" cy="51" r="43.5" fill="white" stroke="#2E2F30"/>
<path fill-rule="evenodd" clip-rule="evenodd" d="M83.7656 78.8132L66.1879 74.2305C62.8351 72.8346 61.3 67.4332 60.9684 65.3843C63.5249 63.2598 65.1685 60.2387 65.5636 56.9373C65.5083 56.3744 65.6393 55.8095 65.9423 55.3285C66.4294 55.2078 66.8265 54.8578 67.0128 54.3911C67.9134 52.2133 68.4783 49.9107 68.6891 47.561C68.6891 47.4362 68.6748 47.3072 68.642 47.1844C68.4189 46.2715 67.8806 45.4672 67.1253 44.9084V36.623C67.1253 31.59 65.5882 29.5248 63.9691 28.3275C63.6621 25.902 61.0626 21 51.4997 21C43.0176 21.3418 36.2159 28.1412 35.8741 36.623V44.9084C35.1188 45.4672 34.5845 46.2715 34.3594 47.1844C34.3287 47.3072 34.3123 47.4362 34.3123 47.561C34.5211 49.9107 35.0881 52.2154 35.9866 54.3931C36.1217 54.8353 36.4758 55.175 36.9241 55.2917C37.1001 55.3797 37.4276 55.83 37.4276 56.9373C37.8268 60.2449 39.4786 63.2762 42.0474 65.4007C41.7199 67.4475 40.195 72.8448 36.9343 74.2059L18.2217 78.8132C16.4572 79.4007 31.1543 94.554 51.4997 94.554C71.8451 94.554 85.5545 79.4088 83.7656 78.8132Z" stroke="#2E2F30"/>
</svg>
