<svg width="40" height="40" viewBox="0 0 40 40" fill="none" xmlns="http://www.w3.org/2000/svg">
<circle cx="20" cy="20" r="20" fill="#4E7BCA"/>
<path fill-rule="evenodd" clip-rule="evenodd" d="M19 18.2511H22.0261C22.0465 18.6607 22.0656 19.0364 22.0914 19.5441C23.0326 18.3307 24.2123 17.9076 25.6369 18.0164C27.6494 18.1699 28.8284 19.1126 28.9339 21.0098C29.0621 23.312 28.9644 25.6255 28.9644 28H25.8335C25.8335 26.9067 25.8353 25.8106 25.8335 24.7145C25.8317 23.9517 25.8478 23.1885 25.8179 22.4263C25.7741 21.3093 25.2074 20.6967 24.2398 20.6673C23.1171 20.6335 22.3257 21.2241 22.2556 22.3293C22.1621 23.8006 22.1987 25.2797 22.1819 26.7555C22.1777 27.1476 22.1813 27.5397 22.1813 27.9983H19V18.2511Z" fill="white"/>
<mask id="mask0" mask-type="alpha" maskUnits="userSpaceOnUse" x="11" y="10" width="18" height="18">
<path fill-rule="evenodd" clip-rule="evenodd" d="M11 28H29V10H11V28Z" fill="white"/>
</mask>
<g mask="url(#mask0)">
<path fill-rule="evenodd" clip-rule="evenodd" d="M12 28H16V18H12V28Z" fill="white"/>
<path fill-rule="evenodd" clip-rule="evenodd" d="M13.9529 15.9996C12.2651 15.9746 10.9433 14.5998 11.0019 12.9302C11.0576 11.3115 12.3976 10.0058 14.0067 10C15.6724 9.99521 17.0115 11.3566 16.9999 13.0435C16.9884 14.7621 15.6858 16.0255 13.9529 15.9996Z" fill="white"/>
</g>
</svg>
