<?xml version="1.0" encoding="UTF-8"?>
<svg width="294px" height="601px" viewBox="0 0 294 601" version="1.1" xmlns="http://www.w3.org/2000/svg" xmlns:xlink="http://www.w3.org/1999/xlink">
    <title>Mobile</title>
    <defs>
        <polygon id="path-1" points="0 0.0129454152 293.5541 0.0129454152 293.5541 600.795755 0 600.795755"></polygon>
        <path d="M126.487,1.26953125 C129.262594,5.97980173 131.307943,10.2232913 132.623047,14 C134.595703,19.665063 146.229588,23.8457031 150.6812,21.0957031 C155.132812,18.3457031 159.056641,5.6508974 162.016602,3.46021433 C164.976562,1.26953125 246.635742,1.26953125 253.282227,1.26953125 C259.928711,1.26953125 289.462891,6.23144531 289.462891,33.9882813 C289.462891,61.7451172 289.462891,556.178711 289.462891,563.607422 C289.462891,571.036133 278.342773,597.629883 257.193359,597.629883 C236.043945,597.629883 45.5986328,597.629883 37.2871094,597.629883 C28.9755859,597.629883 7.41210938,591.539063 3.72167969,577.573242 C0.03125,563.607422 0.359375,564.873047 0.359375,558.828125 C0.359375,552.783203 0.359375,40.364183 0.359375,34.0121915 C0.359375,27.6602 10.4714469,3.52611708 31.9365234,1.26953125 C46.2465745,-0.234859307 77.7634,-0.234859307 126.487,1.26953125 Z" id="path-3"></path>
        <polygon id="path-5" points="0 0 294 0 294 600.9997 0 600.9997"></polygon>
        <polygon id="path-7" points="0 0.7583 293.8567 0.7583 293.8567 492.7213 0 492.7213"></polygon>
        <linearGradient x1="96.0467074%" y1="9.69162187%" x2="7.0681771%" y2="86.9340311%" id="linearGradient-9">
            <stop stop-color="#7056E9" offset="0%"></stop>
            <stop stop-color="#2E7CD7" offset="47.9571368%"></stop>
            <stop stop-color="#2B7CCF" offset="100%"></stop>
        </linearGradient>
    </defs>
    <g id="Home" stroke="none" stroke-width="1" fill="none" fill-rule="evenodd">
        <g id="01.-Landing-Page" transform="translate(-457.000000, -3195.000000)">
            <g id="App-Faces" transform="translate(160.000000, 2904.000000)">
                <g id="Mobile-02" transform="translate(297.000000, 291.000000)">
                    <g id="Mobile">
                        <mask id="mask-2" fill="white">
                            <use xlink:href="#path-1"></use>
                        </mask>
                        <g id="Clip-2"></g>
                        <g id="Group-69" mask="url(#mask-2)">
                            <g transform="translate(2.000000, 1.000000)">
                                <mask id="mask-4" fill="white">
                                    <use xlink:href="#path-3"></use>
                                </mask>
                                <use id="Mask" stroke="none" fill="#D8D8D8" fill-rule="evenodd" xlink:href="#path-3"></use>
                                <g id="Group-69" stroke="none" stroke-width="1" fill="none" fill-rule="evenodd" mask="url(#mask-4)">
                                    <g transform="translate(-2.000000, -1.000000)">
                                        <g id="Group-11" stroke-width="1" fill-rule="evenodd">
                                            <g id="Group-3">
                                                <mask id="mask-6" fill="white">
                                                    <use xlink:href="#path-5"></use>
                                                </mask>
                                                <g id="Clip-2"></g>
                                                <path d="M282.722,600.9997 L11.278,600.9997 C5.049,600.9997 0,595.9507 0,589.7227 L0,11.2777 C0,5.0497 5.049,-0.0003 11.278,-0.0003 L282.722,-0.0003 C288.951,-0.0003 294,5.0497 294,11.2777 L294,589.7227 C294,595.9507 288.951,600.9997 282.722,600.9997" id="Fill-1" fill="#FFFFFF" mask="url(#mask-6)"></path>
                                            </g>
                                            <g id="Group-6" transform="translate(0.000000, 94.000000)">
                                                <mask id="mask-8" fill="white">
                                                    <use xlink:href="#path-7"></use>
                                                </mask>
                                                <g id="Clip-5"></g>
                                                <path d="M280.0667,492.7213 L13.7897,492.7213 C6.1737,492.7213 -0.0003,486.5473 -0.0003,478.9313 L-0.0003,14.5483 C-0.0003,6.9323 6.1737,0.7583 13.7897,0.7583 L280.0667,0.7583 C287.6827,0.7583 293.8567,6.9323 293.8567,14.5483 L293.8567,478.9313 C293.8567,486.5473 287.6827,492.7213 280.0667,492.7213" id="Fill-4" fill="#FFFFFF" mask="url(#mask-8)"></path>
                                            </g>
                                            <path d="M283.3338,600.778 L10.8098,600.778 C4.9188,600.778 0.1438,596.003 0.1438,590.112 L0.1438,347.6 C0.1438,341.71 4.9188,336.934 10.8098,336.934 L283.3338,336.934 C289.2248,336.934 293.9998,341.71 293.9998,347.601 L293.9998,590.112 C293.9998,596.003 289.2248,600.778 283.3338,600.778" id="Fill-7" fill="url(#linearGradient-9)"></path>
                                            <path d="M137.0574,191.3483 L59.2034,191.3483 C48.9324,191.3483 40.6064,184.2333 40.6064,175.4553 C40.6064,166.6783 48.9324,159.5623 59.2034,159.5623 L137.0574,159.5623 C147.3284,159.5623 155.6554,166.6783 155.6554,175.4553 C155.6554,184.2333 147.3284,191.3483 137.0574,191.3483" id="Fill-9" fill="#2B7CCF"></path>
                                        </g>
                                        <text id="Mor" font-family="Montserrat-Bold, Montserrat" font-size="8.6334" font-weight="bold">
                                            <tspan x="67.8887" y="176.054904" fill="#FFFFFF">Mor</tspan>
                                        </text>
                                        <text id="e-Stats" font-family="Montserrat-Bold, Montserrat" font-size="8.6334" font-weight="bold">
                                            <tspan x="88.4278957" y="176.054904" fill="#FFFFFF">e Stats</tspan>
                                        </text>
                                        <g id="Group-68" stroke-width="1" fill-rule="evenodd" transform="translate(22.000000, 28.000000)">
                                            <polygon id="Fill-12" fill="#ECEBF2" points="23.148 298.418 46.669 298.418 46.669 181.942 23.148 181.942"></polygon>
                                            <polygon id="Fill-14" fill="#ECEBF2" points="57.645 298.418 81.165 298.418 81.165 181.942 57.645 181.942"></polygon>
                                            <polygon id="Fill-15" fill="#ECEBF2" points="92.141 298.418 115.662 298.418 115.662 181.942 92.141 181.942"></polygon>
                                            <polygon id="Fill-16" fill="#ECEBF2" points="126.638 298.418 150.159 298.418 150.159 181.942 126.638 181.942"></polygon>
                                            <polygon id="Fill-17" fill="#ECEBF2" points="161.135 298.418 184.656 298.418 184.656 181.942 161.135 181.942"></polygon>
                                            <polygon id="Fill-18" fill="#ECEBF2" points="195.631 298.418 219.152 298.418 219.152 181.942 195.631 181.942"></polygon>
                                            <polygon id="Fill-19" fill="#2B7CCF" points="23.148 298.418 46.669 298.418 46.669 238.538 23.148 238.538"></polygon>
                                            <polygon id="Fill-20" fill="#2B7CCF" points="57.645 298.418 81.165 298.418 81.165 247.165 57.645 247.165"></polygon>
                                            <polygon id="Fill-21" fill="#2B7CCF" points="92.141 298.418 115.662 298.418 115.662 233.224 92.141 233.224"></polygon>
                                            <polygon id="Fill-22" fill="#2B7CCF" points="126.638 298.418 150.159 298.418 150.159 223.614 126.638 223.614"></polygon>
                                            <polygon id="Fill-23" fill="#2B7CCF" points="161.135 298.418 184.656 298.418 184.656 205.456 161.135 205.456"></polygon>
                                            <polygon id="Fill-24" fill="#2B7CCF" points="195.631 298.418 219.152 298.418 219.152 225.647 195.631 225.647"></polygon>
                                            <path d="M24.7039,117.5592 C23.4479,117.3052 22.4159,116.9632 21.6099,116.5352 L23.3449,113.1782 C24.1059,113.5552 24.9589,113.8582 25.9019,114.0852 C26.8459,114.3132 27.7519,114.4272 28.6199,114.4272 C29.3649,114.4272 29.8989,114.3652 30.2179,114.2422 C30.5369,114.1182 30.6979,113.9322 30.6979,113.6852 C30.6979,113.3992 30.4879,113.1852 30.0699,113.0412 C29.6509,112.8982 28.9619,112.7432 28.0029,112.5732 C26.7709,112.3522 25.7419,112.1152 24.9199,111.8612 C24.0989,111.6072 23.3819,111.1912 22.7739,110.6122 C22.1649,110.0332 21.8609,109.2492 21.8609,108.2602 C21.8609,107.4022 22.1419,106.6212 22.7049,105.9182 C23.2679,105.2162 24.1099,104.6632 25.2279,104.2602 C26.3479,103.8572 27.7059,103.6552 29.3049,103.6552 C30.4009,103.6552 31.4779,103.7562 32.5359,103.9572 C33.5949,104.1602 34.5259,104.4552 35.3339,104.8452 L33.7119,108.1822 C32.1439,107.5062 30.6599,107.1672 29.2599,107.1672 C27.8729,107.1672 27.1819,107.4542 27.1819,108.0272 C27.1819,108.2992 27.3869,108.5042 27.7979,108.6412 C28.2089,108.7782 28.8859,108.9242 29.8299,109.0802 C31.0479,109.2752 32.0759,109.4992 32.9119,109.7532 C33.7489,110.0072 34.4769,110.4202 35.0939,110.9932 C35.7109,111.5652 36.0189,112.3452 36.0189,113.3332 C36.0189,114.1932 35.7369,114.9702 35.1739,115.6662 C34.6109,116.3622 33.7699,116.9142 32.6509,117.3252 C31.5319,117.7342 30.1729,117.9402 28.5749,117.9402 C27.2499,117.9402 25.9599,117.8132 24.7039,117.5592" id="Fill-25" fill="#342F4C"></path>
                                            <path d="M46.659,117.2565 C45.884,117.6335 44.825,117.8215 43.485,117.8215 C41.735,117.8215 40.387,117.4615 39.443,116.7395 C38.499,116.0175 38.027,114.9345 38.027,113.4895 L38.027,110.7585 L36.315,110.7585 L36.315,107.5385 L38.027,107.5385 L38.027,104.5535 L43.188,104.5535 L43.188,107.5385 L45.746,107.5385 L45.746,110.7585 L43.188,110.7585 L43.188,113.4505 C43.188,113.7765 43.287,114.0295 43.485,114.2125 C43.682,114.3945 43.942,114.4855 44.262,114.4855 C44.703,114.4855 45.091,114.3885 45.426,114.1935 L46.659,117.2565 Z" id="Fill-26" fill="#342F4C"></path>
                                            <path d="M54.514,114.9147 C54.803,114.7457 55.017,114.4917 55.154,114.1537 L55.154,113.4127 L53.876,113.4127 C52.825,113.4127 52.299,113.7117 52.299,114.3107 C52.299,114.5577 52.41,114.7627 52.631,114.9247 C52.851,115.0877 53.153,115.1687 53.533,115.1687 C53.898,115.1687 54.225,115.0837 54.514,114.9147 M58.579,108.0167 C59.737,108.8557 60.315,110.1467 60.315,111.8907 L60.315,117.6277 L55.519,117.6277 L55.519,116.2227 C54.926,117.2887 53.746,117.8217 51.98,117.8217 C50.99,117.8217 50.149,117.6757 49.457,117.3837 C48.764,117.0907 48.238,116.6937 47.881,116.1927 C47.523,115.6917 47.344,115.1297 47.344,114.5057 C47.344,113.4507 47.816,112.6507 48.76,112.1047 C49.704,111.5587 51.135,111.2847 53.053,111.2847 L55.132,111.2847 C54.963,110.4527 54.18,110.0357 52.779,110.0357 C52.216,110.0357 51.645,110.1117 51.067,110.2617 C50.488,110.4107 49.993,110.6157 49.582,110.8757 L47.938,107.9687 C48.653,107.5907 49.517,107.2947 50.53,107.0797 C51.542,106.8657 52.551,106.7577 53.556,106.7577 C55.748,106.7577 57.422,107.1777 58.579,108.0167" id="Fill-27" fill="#342F4C"></path>
                                            <path d="M71.7547,117.2565 C70.9787,117.6335 69.9207,117.8215 68.5807,117.8215 C66.8307,117.8215 65.4827,117.4615 64.5387,116.7395 C63.5947,116.0175 63.1227,114.9345 63.1227,113.4895 L63.1227,110.7585 L61.4107,110.7585 L61.4107,107.5385 L63.1227,107.5385 L63.1227,104.5535 L68.2837,104.5535 L68.2837,107.5385 L70.8417,107.5385 L70.8417,110.7585 L68.2837,110.7585 L68.2837,113.4505 C68.2837,113.7765 68.3827,114.0295 68.5807,114.2125 C68.7777,114.3945 69.0367,114.4855 69.3577,114.4855 C69.7987,114.4855 70.1867,114.3885 70.5217,114.1935 L71.7547,117.2565 Z" id="Fill-28" fill="#342F4C"></path>
                                            <path d="M73.057,117.628 L78.217,117.628 L78.217,106.953 L73.057,106.953 L73.057,117.628 Z M73.387,105.461 C72.817,105.038 72.531,104.501 72.531,103.85 C72.531,103.2 72.817,102.664 73.387,102.241 C73.958,101.818 74.708,101.606 75.637,101.606 C76.581,101.606 77.335,101.808 77.898,102.212 C78.461,102.615 78.742,103.135 78.742,103.772 C78.742,104.449 78.461,105.005 77.898,105.441 C77.335,105.877 76.581,106.094 75.637,106.094 C74.708,106.094 73.958,105.883 73.387,105.461 L73.387,105.461 Z" id="Fill-29" fill="#342F4C"></path>
                                            <path d="M82.2366,117.5299 C81.2006,117.3349 80.3636,117.0809 79.7246,116.7689 L81.1396,113.8609 C81.7186,114.1609 82.4036,114.3939 83.1956,114.5629 C83.9866,114.7329 84.7556,114.8169 85.5026,114.8169 C86.0946,114.8169 86.5096,114.7749 86.7456,114.6899 C86.9826,114.6059 87.1006,114.4789 87.1006,114.3099 C87.1006,114.1409 86.9516,114.0239 86.6546,113.9589 C86.3586,113.8929 85.8746,113.8289 85.2046,113.7629 C84.1846,113.6599 83.3176,113.5259 82.6016,113.3629 C81.8856,113.2009 81.2576,112.8849 80.7176,112.4169 C80.1766,111.9489 79.9066,111.2789 79.9066,110.4069 C79.9066,109.7179 80.1506,109.0999 80.6376,108.5529 C81.1246,108.0079 81.8516,107.5709 82.8186,107.2459 C83.7846,106.9209 84.9456,106.7579 86.3006,106.7579 C87.2446,106.7579 88.1696,106.8329 89.0756,106.9819 C89.9816,107.1329 90.7536,107.3499 91.3936,107.6359 L89.9766,110.5439 C88.8816,110.0239 87.6786,109.7629 86.3696,109.7629 C85.2426,109.7629 84.6796,109.9319 84.6796,110.2699 C84.6796,110.4399 84.8316,110.5599 85.1366,110.6319 C85.4406,110.7039 85.9206,110.7709 86.5746,110.8369 C87.5946,110.9409 88.4596,111.0779 89.1676,111.2469 C89.8746,111.4159 90.4986,111.7339 91.0396,112.2019 C91.5796,112.6709 91.8506,113.3409 91.8506,114.2129 C91.8506,114.8759 91.6066,115.4809 91.1196,116.0269 C90.6316,116.5729 89.9016,117.0089 88.9276,117.3349 C87.9526,117.6599 86.7736,117.8219 85.3866,117.8219 C84.3216,117.8219 83.2706,117.7249 82.2366,117.5299" id="Fill-30" fill="#342F4C"></path>
                                            <path d="M102.6053,117.2565 C101.8303,117.6335 100.7713,117.8215 99.4323,117.8215 C97.6813,117.8215 96.3333,117.4615 95.3903,116.7395 C94.4463,116.0175 93.9733,114.9345 93.9733,113.4895 L93.9733,110.7585 L92.2613,110.7585 L92.2613,107.5385 L93.9733,107.5385 L93.9733,104.5535 L99.1343,104.5535 L99.1343,107.5385 L101.6923,107.5385 L101.6923,110.7585 L99.1343,110.7585 L99.1343,113.4505 C99.1343,113.7765 99.2333,114.0295 99.4323,114.2125 C99.6293,114.3945 99.8883,114.4855 100.2083,114.4855 C100.6493,114.4855 101.0373,114.3885 101.3733,114.1935 L102.6053,117.2565 Z" id="Fill-31" fill="#342F4C"></path>
                                            <path d="M103.907,117.628 L109.067,117.628 L109.067,106.953 L103.907,106.953 L103.907,117.628 Z M104.237,105.461 C103.667,105.038 103.381,104.501 103.381,103.85 C103.381,103.2 103.667,102.664 104.237,102.241 C104.808,101.818 105.557,101.606 106.487,101.606 C107.431,101.606 108.184,101.808 108.747,102.212 C109.31,102.615 109.593,103.135 109.593,103.772 C109.593,104.449 109.31,105.005 108.747,105.441 C108.184,105.877 107.431,106.094 106.487,106.094 C105.557,106.094 104.808,105.883 104.237,105.461 L104.237,105.461 Z" id="Fill-32" fill="#342F4C"></path>
                                            <path d="M114.262,117.1198 C113.143,116.6518 112.267,115.9948 111.636,115.1488 C111.005,114.3038 110.688,113.3478 110.688,112.2808 C110.688,111.2138 111.005,110.2618 111.636,109.4218 C112.267,108.5828 113.143,107.9288 114.262,107.4608 C115.381,106.9928 116.648,106.7578 118.064,106.7578 C119.586,106.7578 120.888,107.0378 121.969,107.5978 C123.05,108.1568 123.796,108.9308 124.207,109.9198 L120.21,111.5978 C119.723,110.6608 119.001,110.1918 118.041,110.1918 C117.432,110.1918 116.926,110.3748 116.523,110.7388 C116.119,111.1028 115.918,111.6168 115.918,112.2808 C115.918,112.9568 116.119,113.4768 116.523,113.8418 C116.926,114.2058 117.432,114.3888 118.041,114.3888 C119.001,114.3888 119.723,113.9198 120.21,112.9828 L124.207,114.6618 C123.796,115.6498 123.05,116.4248 121.969,116.9828 C120.888,117.5428 119.586,117.8218 118.064,117.8218 C116.648,117.8218 115.381,117.5888 114.262,117.1198" id="Fill-33" fill="#342F4C"></path>
                                            <path d="M127.1302,117.5299 C126.0942,117.3349 125.2572,117.0809 124.6182,116.7689 L126.0332,113.8609 C126.6122,114.1609 127.2972,114.3939 128.0882,114.5629 C128.8802,114.7329 129.6492,114.8169 130.3952,114.8169 C130.9882,114.8169 131.4032,114.7749 131.6392,114.6899 C131.8762,114.6059 131.9942,114.4789 131.9942,114.3099 C131.9942,114.1409 131.8442,114.0239 131.5482,113.9589 C131.2512,113.8929 130.7682,113.8289 130.0982,113.7629 C129.0782,113.6599 128.2112,113.5259 127.4942,113.3629 C126.7792,113.2009 126.1512,112.8849 125.6112,112.4169 C125.0702,111.9489 124.8002,111.2789 124.8002,110.4069 C124.8002,109.7179 125.0442,109.0999 125.5312,108.5529 C126.0182,108.0079 126.7452,107.5709 127.7122,107.2459 C128.6782,106.9209 129.8392,106.7579 131.1942,106.7579 C132.1382,106.7579 133.0622,106.8329 133.9692,106.9819 C134.8742,107.1329 135.6472,107.3499 136.2862,107.6359 L134.8702,110.5439 C133.7752,110.0239 132.5722,109.7629 131.2622,109.7629 C130.1362,109.7629 129.5732,109.9319 129.5732,110.2699 C129.5732,110.4399 129.7242,110.5599 130.0292,110.6319 C130.3342,110.7039 130.8132,110.7709 131.4682,110.8369 C132.4882,110.9409 133.3522,111.0779 134.0612,111.2469 C134.7682,111.4159 135.3922,111.7339 135.9332,112.2019 C136.4732,112.6709 136.7442,113.3409 136.7442,114.2129 C136.7442,114.8759 136.5002,115.4809 136.0122,116.0269 C135.5252,116.5729 134.7952,117.0089 133.8212,117.3349 C132.8462,117.6599 131.6662,117.8219 130.2802,117.8219 C129.2152,117.8219 128.1642,117.7249 127.1302,117.5299" id="Fill-34" fill="#342F4C"></path>
                                            <path d="M197.282,88.5905 C197.53,88.4085 197.654,88.1615 197.654,87.8495 C197.654,87.5365 197.53,87.2875 197.282,87.1035 C197.034,86.9175 196.706,86.8245 196.295,86.8245 C195.891,86.8245 195.56,86.9205 195.301,87.1125 C195.042,87.3045 194.913,87.5505 194.913,87.8495 C194.913,88.1485 195.039,88.3925 195.29,88.5805 C195.541,88.7705 195.883,88.8635 196.317,88.8635 C196.713,88.8635 197.034,88.7735 197.282,88.5905 M198.087,85.9075 C198.506,86.0835 198.837,86.3315 199.081,86.6535 C199.324,86.9765 199.446,87.3485 199.446,87.7715 C199.446,88.2275 199.313,88.6265 199.047,88.9715 C198.78,89.3165 198.416,89.5805 197.956,89.7665 C197.496,89.9515 196.983,90.0445 196.42,90.0445 C195.301,90.0445 194.426,89.7515 193.794,89.1665 C193.163,88.5805 192.846,87.7445 192.846,86.6585 C192.846,85.8845 193.017,85.2215 193.36,84.6685 C193.702,84.1155 194.18,83.6955 194.793,83.4095 C195.406,83.1235 196.116,82.9815 196.923,82.9815 C197.348,82.9815 197.758,83.0215 198.15,83.1025 C198.542,83.1845 198.874,83.2995 199.15,83.4485 L198.464,84.6105 C198.068,84.3825 197.569,84.2685 196.968,84.2685 C196.291,84.2685 195.754,84.4375 195.358,84.7765 C194.963,85.1135 194.749,85.6055 194.719,86.2495 C195.191,85.8465 195.849,85.6445 196.694,85.6445 C197.204,85.6445 197.669,85.7325 198.087,85.9075" id="Fill-35" fill="#342F4C"></path>
                                            <path d="M210.1956,85.1803 C210.6486,85.5683 210.8756,86.1493 210.8756,86.9223 L210.8756,89.9273 L209.0936,89.9273 L209.0936,87.1573 C209.0936,86.7403 208.9926,86.4293 208.7916,86.2253 C208.5896,86.0203 208.3016,85.9173 207.9296,85.9173 C207.5106,85.9173 207.1786,86.0333 206.9366,86.2643 C206.6926,86.4943 206.5706,86.8373 206.5706,87.2933 L206.5706,89.9273 L204.7896,89.9273 L204.7896,87.1573 C204.7896,86.3303 204.4016,85.9173 203.6246,85.9173 C203.2136,85.9173 202.8856,86.0333 202.6426,86.2643 C202.3986,86.4943 202.2786,86.8373 202.2786,87.2933 L202.2786,89.9273 L200.4966,89.9273 L200.4966,84.6783 L202.1976,84.6783 L202.1976,85.2833 C202.4256,85.0623 202.7056,84.8933 203.0366,84.7763 C203.3676,84.6593 203.7316,84.6003 204.1276,84.6003 C204.5616,84.6003 204.9526,84.6733 205.3036,84.8203 C205.6536,84.9663 205.9346,85.1793 206.1476,85.4583 C206.3996,85.1853 206.7166,84.9743 207.1016,84.8253 C207.4866,84.6753 207.9056,84.6003 208.3636,84.6003 C209.1326,84.6003 209.7426,84.7933 210.1956,85.1803" id="Fill-36" fill="#342F4C"></path>
                                            <path d="M219.5203,82.6881 L227.1313,82.6881 C228.2223,82.6881 229.1053,83.4431 229.1053,84.3751 L229.1053,89.6551 C229.1053,90.5861 228.2223,91.3411 227.1313,91.3411 L219.5203,91.3411 C218.4303,91.3411 217.5463,90.5861 217.5463,89.6551 L217.5463,84.3751 C217.5463,83.4431 218.4303,82.6881 219.5203,82.6881" id="Fill-37" fill="#342F4C"></path>
                                            <polygon id="Fill-38" fill="#FFFFFF" points="222.7186 89.2741 225.3626 87.0151 225.3626 87.0141 222.7186 84.7551 222.0476 85.3291 224.0196 87.0141 222.0476 88.7001"></polygon>
                                            <path d="M185.2767,91.3415 L177.6657,91.3415 C176.5757,91.3415 175.6917,90.5865 175.6917,89.6545 L175.6917,84.3745 C175.6917,83.4435 176.5757,82.6885 177.6657,82.6885 L185.2767,82.6885 C186.3667,82.6885 187.2507,83.4435 187.2507,84.3745 L187.2507,89.6545 C187.2507,90.5865 186.3667,91.3415 185.2767,91.3415" id="Fill-39" fill="#342F4C"></path>
                                            <polygon id="Fill-40" fill="#FFFFFF" points="182.0784 84.7555 179.4344 87.0145 179.4354 87.0145 179.4344 87.0155 182.0784 89.2745 182.7494 88.6995 180.7774 87.0145 182.7494 85.3285"></polygon>
                                            <path d="M166.9822,529.1715 L79.9492,529.1715 C68.4662,529.1715 59.1582,521.3545 59.1582,511.7095 C59.1582,502.0655 68.4662,494.2475 79.9492,494.2475 L166.9822,494.2475 C178.4642,494.2475 187.7732,502.0655 187.7732,511.7095 C187.7732,521.3545 178.4642,529.1715 166.9822,529.1715" id="Fill-41" fill="#FFFFFF"></path>
                                            <polygon id="Fill-42" fill="#000000" points="90.3621 515.1422 90.3511 511.1582 88.0241 514.4402 87.2001 514.4402 84.8841 511.2432 84.8841 515.1422 83.1681 515.1422 83.1681 508.5012 84.6811 508.5012 87.6401 512.6272 90.5541 508.5012 92.0561 508.5012 92.0791 515.1422"></polygon>
                                            <path d="M97.8333,513.6198 C98.1233,513.3638 98.2683,513.0198 98.2683,512.5908 C98.2683,512.1608 98.1233,511.8178 97.8333,511.5608 C97.5433,511.3048 97.1723,511.1768 96.7213,511.1768 C96.2693,511.1768 95.8963,511.3048 95.6033,511.5608 C95.3093,511.8178 95.1623,512.1608 95.1623,512.5908 C95.1623,513.0198 95.3093,513.3638 95.6033,513.6198 C95.8963,513.8758 96.2693,514.0038 96.7213,514.0038 C97.1723,514.0038 97.5433,513.8758 97.8333,513.6198 M94.9983,514.8818 C94.4903,514.6568 94.0933,514.3458 93.8073,513.9468 C93.5213,513.5488 93.3773,513.0968 93.3773,512.5908 C93.3773,512.0848 93.5213,511.6328 93.8073,511.2338 C94.0933,510.8358 94.4903,510.5238 94.9983,510.2998 C95.5073,510.0748 96.0813,509.9628 96.7213,509.9628 C97.3603,509.9628 97.9333,510.0748 98.4373,510.2998 C98.9413,510.5238 99.3363,510.8358 99.6233,511.2338 C99.9093,511.6328 100.0523,512.0848 100.0523,512.5908 C100.0523,513.0968 99.9093,513.5488 99.6233,513.9468 C99.3363,514.3458 98.9413,514.6568 98.4373,514.8818 C97.9333,515.1058 97.3603,515.2178 96.7213,515.2178 C96.0813,515.2178 95.5073,515.1058 94.9983,514.8818" id="Fill-43" fill="#000000"></path>
                                            <path d="M103.7635,510.153 C104.1205,510.026 104.5335,509.963 104.9995,509.963 L104.9995,511.329 C104.8035,511.316 104.6725,511.309 104.6045,511.309 C104.0995,511.309 103.7045,511.428 103.4185,511.666 C103.1325,511.902 102.9905,512.258 102.9905,512.733 L102.9905,515.142 L101.2275,515.142 L101.2275,510.039 L102.9105,510.039 L102.9105,510.713 C103.1205,510.465 103.4055,510.279 103.7635,510.153" id="Fill-44" fill="#000000"></path>
                                            <path d="M107.7898,511.3669 C107.5188,511.5559 107.3528,511.8159 107.2928,512.1439 L110.2858,512.1439 C110.2258,511.8219 110.0608,511.5649 109.7888,511.3709 C109.5178,511.1789 109.1868,511.0819 108.7948,511.0819 C108.3958,511.0819 108.0608,511.1769 107.7898,511.3669 M111.9118,513.0079 L107.3148,513.0079 C107.3978,513.3239 107.5938,513.5739 107.9028,513.7579 C108.2108,513.9399 108.5958,514.0319 109.0548,514.0319 C109.3708,514.0319 109.6518,513.9929 109.8958,513.9139 C110.1408,513.8349 110.3688,513.7099 110.5798,513.5389 L111.5168,514.3919 C110.9448,514.9429 110.1088,515.2179 109.0098,515.2179 C108.3238,515.2179 107.7188,515.1059 107.1918,514.8819 C106.6648,514.6569 106.2578,514.3459 105.9718,513.9469 C105.6858,513.5489 105.5418,513.0959 105.5418,512.5909 C105.5418,512.0909 105.6838,511.6399 105.9658,511.2389 C106.2478,510.8379 106.6358,510.5239 107.1288,510.2999 C107.6218,510.0749 108.1738,509.9629 108.7838,509.9629 C109.3778,509.9629 109.9168,510.0699 110.3988,510.2849 C110.8808,510.5009 111.2588,510.8089 111.5338,511.2099 C111.8088,511.6119 111.9468,512.0779 111.9468,512.6099 C111.9468,512.6279 111.9348,512.7619 111.9118,513.0079" id="Fill-45" fill="#000000"></path>
                                            <path d="M117.2264,515.0426 C116.6424,514.8996 116.1744,514.7146 115.8194,514.4866 L116.4414,513.3306 C116.7794,513.5386 117.1824,513.7066 117.6494,513.8326 C118.1164,513.9596 118.5824,514.0226 119.0504,514.0226 C119.5704,514.0226 119.9534,513.9586 120.2014,513.8276 C120.4514,513.6986 120.5744,513.5256 120.5744,513.3116 C120.5744,513.1526 120.5014,513.0216 120.3544,512.9176 C120.2074,512.8136 120.0194,512.7296 119.7904,512.6666 C119.5594,512.6036 119.2494,512.5326 118.8584,512.4576 C118.2554,512.3376 117.7624,512.2176 117.3784,512.0966 C116.9944,511.9776 116.6654,511.7846 116.3904,511.5186 C116.1154,511.2536 115.9784,510.8986 115.9784,510.4556 C115.9784,510.0696 116.1014,509.7206 116.3514,509.4076 C116.5994,509.0946 116.9744,508.8476 117.4744,508.6636 C117.9754,508.4806 118.5874,508.3886 119.3104,508.3886 C119.8144,508.3886 120.3074,508.4386 120.7894,508.5396 C121.2714,508.6416 121.6924,508.7856 122.0544,508.9766 L121.4894,510.1426 C120.7594,509.7956 120.0284,509.6216 119.2984,509.6216 C118.7874,509.6216 118.4074,509.6906 118.1634,509.8306 C117.9184,509.9696 117.7964,510.1526 117.7964,510.3806 C117.7964,510.6076 117.9374,510.7766 118.2204,510.8876 C118.5024,510.9986 118.9334,511.1066 119.5134,511.2146 C120.1154,511.3346 120.6084,511.4546 120.9924,511.5756 C121.3764,511.6956 121.7054,511.8856 121.9814,512.1446 C122.2554,512.4036 122.3934,512.7546 122.3934,513.1966 C122.3934,513.5766 122.2674,513.9226 122.0144,514.2356 C121.7624,514.5496 121.3844,514.7976 120.8794,514.9806 C120.3744,515.1646 119.7614,515.2566 119.0384,515.2566 C118.4134,515.2566 117.8094,515.1846 117.2264,515.0426" id="Fill-46" fill="#000000"></path>
                                            <path d="M125.3186,511.3669 C125.0476,511.5559 124.8816,511.8159 124.8206,512.1439 L127.8146,512.1439 C127.7546,511.8219 127.5886,511.5649 127.3176,511.3709 C127.0466,511.1789 126.7146,511.0819 126.3236,511.0819 C125.9246,511.0819 125.5896,511.1769 125.3186,511.3669 M129.4406,513.0079 L124.8436,513.0079 C124.9266,513.3239 125.1226,513.5739 125.4316,513.7579 C125.7396,513.9399 126.1246,514.0319 126.5836,514.0319 C126.8996,514.0319 127.1796,513.9929 127.4246,513.9139 C127.6696,513.8349 127.8976,513.7099 128.1076,513.5389 L129.0456,514.3919 C128.4736,514.9429 127.6376,515.2179 126.5386,515.2179 C125.8526,515.2179 125.2476,515.1059 124.7196,514.8819 C124.1936,514.6569 123.7856,514.3459 123.4996,513.9469 C123.2146,513.5489 123.0706,513.0959 123.0706,512.5909 C123.0706,512.0909 123.2126,511.6399 123.4946,511.2389 C123.7766,510.8379 124.1646,510.5239 124.6576,510.2999 C125.1506,510.0749 125.7026,509.9629 126.3116,509.9629 C126.9066,509.9629 127.4456,510.0699 127.9276,510.2849 C128.4086,510.5009 128.7876,510.8089 129.0626,511.2099 C129.3366,511.6119 129.4746,512.0779 129.4746,512.6099 C129.4746,512.6279 129.4636,512.7619 129.4406,513.0079" id="Fill-47" fill="#000000"></path>
                                            <path d="M134.5682,514.8952 C134.3952,515.0032 134.1822,515.0832 133.9302,515.1372 C133.6772,515.1912 133.4122,515.2172 133.1332,515.2172 C132.4112,515.2172 131.8522,515.0632 131.4572,514.7532 C131.0612,514.4432 130.8632,513.9882 130.8632,513.3872 L130.8632,511.2912 L129.9262,511.2912 L129.9262,510.1532 L130.8632,510.1532 L130.8632,508.9102 L132.6252,508.9102 L132.6252,510.1532 L134.1382,510.1532 L134.1382,511.2912 L132.6252,511.2912 L132.6252,513.3692 C132.6252,513.5832 132.6912,513.7492 132.8232,513.8672 C132.9552,513.9832 133.1412,514.0412 133.3822,514.0412 C133.6602,514.0412 133.8982,513.9782 134.0932,513.8522 L134.5682,514.8952 Z" id="Fill-48" fill="#000000"></path>
                                            <path d="M139.3445,514.8952 C139.1715,515.0032 138.9585,515.0832 138.7065,515.1372 C138.4535,515.1912 138.1885,515.2172 137.9095,515.2172 C137.1875,515.2172 136.6285,515.0632 136.2335,514.7532 C135.8375,514.4432 135.6405,513.9882 135.6405,513.3872 L135.6405,511.2912 L134.7025,511.2912 L134.7025,510.1532 L135.6405,510.1532 L135.6405,508.9102 L137.4015,508.9102 L137.4015,510.1532 L138.9155,510.1532 L138.9155,511.2912 L137.4015,511.2912 L137.4015,513.3692 C137.4015,513.5832 137.4675,513.7492 137.5995,513.8672 C137.7315,513.9832 137.9175,514.0412 138.1585,514.0412 C138.4365,514.0412 138.6745,513.9782 138.8695,513.8522 L139.3445,514.8952 Z" id="Fill-49" fill="#000000"></path>
                                            <path d="M140.338,515.143 L142.101,515.143 L142.101,510.039 L140.338,510.039 L140.338,515.143 Z M140.429,509.09 C140.225,508.932 140.123,508.736 140.123,508.502 C140.123,508.268 140.225,508.072 140.429,507.914 C140.633,507.756 140.895,507.676 141.219,507.676 C141.543,507.676 141.806,507.753 142.01,507.905 C142.214,508.056 142.315,508.246 142.315,508.474 C142.315,508.719 142.214,508.924 142.01,509.086 C141.806,509.247 141.543,509.328 141.219,509.328 C140.895,509.328 140.633,509.248 140.429,509.09 L140.429,509.09 Z" id="Fill-50" fill="#000000"></path>
                                            <path d="M149.2552,510.5319 C149.7182,510.9119 149.9502,511.4739 149.9502,512.2199 L149.9502,515.1419 L148.1872,515.1419 L148.1872,512.4479 C148.1872,512.0439 148.0822,511.7409 147.8722,511.5429 C147.6602,511.3439 147.3552,511.2429 146.9562,511.2429 C146.5122,511.2429 146.1592,511.3589 145.8952,511.5899 C145.6312,511.8209 145.5002,512.1639 145.5002,512.6189 L145.5002,515.1419 L143.7372,515.1419 L143.7372,510.0389 L145.4212,510.0389 L145.4212,510.6359 C145.6532,510.4209 145.9442,510.2559 146.2912,510.1379 C146.6362,510.0209 147.0172,509.9629 147.4312,509.9629 C148.1842,509.9629 148.7922,510.1529 149.2552,510.5319" id="Fill-51" fill="#000000"></path>
                                            <path d="M155.6922,513.3356 C155.9902,513.1046 156.1382,512.8026 156.1382,512.4296 C156.1382,512.0566 155.9902,511.7546 155.6922,511.5236 C155.3952,511.2926 155.0122,511.1766 154.5462,511.1766 C154.0792,511.1766 153.6952,511.2926 153.3942,511.5236 C153.0932,511.7546 152.9422,512.0566 152.9422,512.4296 C152.9422,512.8026 153.0932,513.1046 153.3942,513.3356 C153.6952,513.5656 154.0792,513.6816 154.5462,513.6816 C155.0122,513.6816 155.3952,513.5656 155.6922,513.3356 L155.6922,513.3356 Z M157.8782,510.0386 L157.8782,514.2886 C157.8782,515.2246 157.5882,515.9206 157.0072,516.3746 C156.4282,516.8306 155.5812,517.0586 154.4662,517.0586 C153.8802,517.0586 153.3222,516.9986 152.7952,516.8776 C152.2682,516.7576 151.8312,516.5836 151.4852,516.3566 L152.1852,515.2936 C152.4422,515.4706 152.7652,515.6116 153.1572,515.7156 C153.5472,515.8206 153.9392,515.8726 154.3312,515.8726 C154.9412,515.8726 155.3912,515.7566 155.6812,515.5256 C155.9712,515.2956 156.1162,514.9456 156.1162,514.4786 L156.1162,514.2596 C155.6572,514.6846 155.0162,514.8956 154.1952,514.8956 C153.6392,514.8956 153.1282,514.7926 152.6652,514.5866 C152.2022,514.3816 151.8352,514.0926 151.5642,513.7196 C151.2942,513.3466 151.1572,512.9166 151.1572,512.4296 C151.1572,511.9416 151.2942,511.5126 151.5642,511.1396 C151.8352,510.7656 152.2022,510.4766 152.6652,510.2716 C153.1282,510.0646 153.6392,509.9626 154.1952,509.9626 C155.0762,509.9626 155.7472,510.2066 156.2062,510.6926 L156.2062,510.0386 L157.8782,510.0386 Z" id="Fill-52" fill="#000000"></path>
                                            <path d="M160.0804,515.0612 C159.5984,514.9572 159.2144,514.8262 158.9284,514.6672 L159.5154,513.6052 C159.7864,513.7502 160.1144,513.8702 160.4984,513.9612 C160.8814,514.0532 161.2594,514.0982 161.6274,514.0982 C162.3724,514.0982 162.7464,513.9442 162.7464,513.6332 C162.7464,513.4892 162.6444,513.3832 162.4414,513.3212 C162.2374,513.2572 161.9254,513.2042 161.5034,513.1602 C161.0064,513.0962 160.5954,513.0242 160.2724,512.9412 C159.9484,512.8592 159.6684,512.7132 159.4314,512.5042 C159.1934,512.2962 159.0754,511.9982 159.0754,511.6132 C159.0754,511.2902 159.1864,511.0042 159.4084,510.7542 C159.6304,510.5052 159.9544,510.3112 160.3804,510.1712 C160.8054,510.0322 161.3084,509.9622 161.8874,509.9622 C162.3164,509.9622 162.7434,510.0022 163.1694,510.0822 C163.5944,510.1612 163.9464,510.2702 164.2254,510.4092 L163.6384,511.4612 C163.1034,511.2082 162.5194,511.0822 161.8874,511.0822 C161.5104,511.0822 161.2284,511.1262 161.0404,511.2142 C160.8514,511.3032 160.7584,511.4172 160.7584,511.5562 C160.7584,511.7142 160.8594,511.8252 161.0634,511.8882 C161.2664,511.9522 161.5904,512.0122 162.0344,512.0692 C162.5314,512.1382 162.9374,512.2122 163.2544,512.2912 C163.5704,512.3712 163.8454,512.5142 164.0784,512.7232 C164.3114,512.9322 164.4284,513.2222 164.4284,513.5962 C164.4284,513.9122 164.3154,514.1942 164.0904,514.4402 C163.8644,514.6872 163.5344,514.8782 163.1014,515.0142 C162.6684,515.1502 162.1544,515.2172 161.5594,515.2172 C161.0554,515.2172 160.5624,515.1652 160.0804,515.0612" id="Fill-53" fill="#000000"></path>
                                            <path d="M89.451,398.5495 L57.228,398.5495 C55.116,398.5495 53.404,396.8375 53.404,394.7265 L53.404,368.8865 C53.404,366.7745 55.116,365.0625 57.228,365.0625 L89.451,365.0625 C91.563,365.0625 93.275,366.7745 93.275,368.8865 L93.275,394.7265 C93.275,396.8375 91.563,398.5495 89.451,398.5495" id="Fill-54" fill="#FFFFFF"></path>
                                            <path d="M71.2649,383.3981 L71.3649,383.4811 C71.5309,383.6201 71.7169,383.7401 71.9339,383.8481 C72.1589,383.9561 72.4059,384.0441 72.6089,384.0871 C72.7289,384.1151 72.8299,384.1361 72.9369,384.1451 C73.3399,384.1871 73.7149,384.1691 74.0339,384.0941 C74.3239,384.0341 74.5179,383.9671 74.6869,383.8761 L74.7519,383.8421 C75.1779,383.6421 75.5149,383.3601 75.7549,383.0061 C75.9029,382.8091 75.9839,382.6421 76.0499,382.4211 C76.1209,382.2051 76.1519,382.0101 76.1519,381.8061 C76.1519,381.6041 76.1199,381.3931 76.0619,381.2101 C75.9869,380.9721 75.8959,380.7781 75.7849,380.6231 C75.5869,380.3451 75.3419,380.1121 75.0609,379.9351 C74.9529,379.8651 74.8479,379.8111 74.7489,379.7611 C74.5239,379.6421 74.3319,379.5751 74.1019,379.5281 C73.9739,379.4981 73.9179,379.4901 73.8629,379.4811 C73.8839,379.4841 73.7899,379.4711 73.7099,379.4561 C73.3789,379.4221 72.9399,379.439137 72.6489,379.5081 C72.3889,379.5691 72.1559,379.6511 71.9389,379.7581 C71.5059,379.9671 71.1559,380.2591 70.8889,380.6281 C70.7839,380.7771 70.6949,380.9661 70.6289,381.1861 C70.5589,381.3971 70.5269,381.5981 70.5269,381.8061 C70.5269,382.0071 70.5579,382.2021 70.6189,382.3821 C70.6769,382.5781 70.7439,382.7311 70.8329,382.8711 L71.0709,383.0721 L71.0769,383.1981 C71.1369,383.2681 71.1999,383.3351 71.2649,383.3981 L71.2649,383.3981 Z M73.3549,386.1821 C73.1269,386.1821 72.8959,386.1691 72.6639,386.1451 C72.4549,386.1271 72.2229,386.0861 71.9929,386.0321 C71.5979,385.9471 71.1669,385.7951 70.7309,385.5871 C70.4889,385.4671 70.2669,385.3381 70.0629,385.2001 L69.9919,385.1921 L69.6389,384.8831 C69.3539,384.6351 69.0959,384.3541 68.8699,384.0441 L68.6939,383.7791 C68.5229,383.5021 68.3949,383.2111 68.3039,382.8961 C68.1929,382.5741 68.1309,382.1941 68.1309,381.8061 C68.1309,381.4161 68.1919,381.0341 68.3129,380.6691 C68.4299,380.2821 68.6079,379.9141 68.8349,379.5931 C69.3179,378.9231 69.9549,378.3951 70.7329,378.0191 C71.1249,377.8261 71.5569,377.6731 72.0069,377.5711 C72.5799,377.4321 73.3169,377.3921 73.9949,377.4571 C74.0829,377.4651 74.1669,377.4791 74.2509,377.4961 C74.4679,377.5311 74.5969,377.5541 74.7259,377.5861 C75.1389,377.6681 75.5799,377.8241 76.0039,378.0471 C76.1599,378.1261 76.3489,378.2271 76.5159,378.3361 C77.0299,378.6601 77.4809,379.0861 77.8419,379.5901 C78.0689,379.9111 78.2439,380.2701 78.3779,380.6941 C78.4889,381.0461 78.5479,381.4301 78.5479,381.8061 C78.5479,382.1881 78.4869,382.5671 78.3669,382.9341 C78.2459,383.3361 78.0609,383.7081 77.8079,384.0431 C77.3859,384.6691 76.7529,385.2021 75.9549,385.5831 C75.5679,385.7881 75.1389,385.9371 74.6429,386.0401 C74.2509,386.1331 73.8099,386.1821 73.3549,386.1821 L73.3549,386.1821 Z M72.4759,389.8501 L74.2029,389.8501 L74.7339,386.9151 L75.3969,386.7091 C75.5889,386.6501 75.7719,386.5911 75.9439,386.5161 L76.6089,386.2191 L79.4949,388.0031 L80.7319,386.9811 L78.5979,384.5761 L78.9259,384.0221 C79.0209,383.8611 79.0949,383.7001 79.1689,383.5291 L79.4149,382.9691 L82.9099,382.5341 L82.9099,381.0681 L79.3789,380.6401 L79.1519,380.0401 C79.0879,379.8711 79.0009,379.7111 78.9169,379.5521 L78.6339,379.0151 L80.7339,376.6321 L79.4879,375.6031 L76.6419,377.3611 L75.9989,377.1081 C75.8259,377.0411 75.6429,376.9711 75.4499,376.9191 L74.7389,376.7301 L74.2029,373.7621 L72.4759,373.7621 L71.9479,376.6861 L71.3029,376.8971 C71.0989,376.9641 70.9019,377.0271 70.7059,377.1081 L70.0479,377.3821 L67.1949,375.6001 L65.9499,376.6381 L68.0469,379.0151 L67.7609,379.5531 C67.6769,379.7121 67.5909,379.8721 67.5269,380.0401 L67.2999,380.6401 L63.7689,381.0681 L63.7689,382.5341 L67.2639,382.9691 L67.5089,383.5291 C67.5809,383.6931 67.6479,383.8551 67.7389,384.0001 L68.0929,384.5621 L65.9529,386.9761 L67.1889,388.0061 L70.0229,386.2471 L70.6609,386.4861 C70.8549,386.5571 71.0479,386.6321 71.2419,386.6851 L71.9419,386.8781 L72.4759,389.8501 Z M74.4509,391.8621 L72.2279,391.8621 C71.1909,391.8621 70.2949,391.2141 70.1439,390.3551 L69.8719,388.8421 L68.4199,389.7451 C67.5219,390.2701 66.4269,390.1681 65.7109,389.6081 L64.0909,388.2591 C63.3469,387.6331 63.2609,386.6371 63.8859,385.9371 L64.9679,384.7181 L63.1789,384.4951 C62.1519,384.3721 61.3729,383.6191 61.3729,382.7441 L61.3729,380.8571 C61.3729,379.9831 62.1519,379.2311 63.1839,379.1061 L64.9549,378.8921 L63.8679,377.6601 C63.2539,376.9351 63.3519,375.9721 64.0879,375.3561 L65.6819,374.0261 C66.4379,373.4191 67.5769,373.3491 68.4059,373.8481 L69.8719,374.7641 L70.1449,373.2521 C70.2929,372.3851 71.1699,371.7501 72.2279,371.7501 L74.4509,371.7501 C75.5089,371.7501 76.3859,372.3851 76.5349,373.2611 L76.8069,374.7611 L78.2739,373.8551 C79.1289,373.3421 80.2679,373.4191 80.9979,374.0281 L82.5979,375.3511 C83.3479,376.0051 83.4249,376.9691 82.8069,377.6641 L81.7229,378.8921 L83.4939,379.1061 C84.5269,379.2311 85.3059,379.9831 85.3059,380.8571 L85.3059,382.7441 C85.3059,383.6191 84.5269,384.3721 83.4939,384.4961 L81.7109,384.7181 L82.7959,385.9401 C83.4309,386.6181 83.3569,387.6231 82.6049,388.2551 L80.9929,389.5881 C80.3039,390.1691 79.0679,390.2481 78.2649,389.7411 L76.8079,388.8401 L76.5339,390.3601 C76.3839,391.2141 75.4879,391.8621 74.4509,391.8621 L74.4509,391.8621 Z" id="Fill-55" fill="#2B7CCF"></path>
                                            <text id="Lorem-ipsum-dolor-sit-amet" font-family="Montserrat-Bold, Montserrat" font-size="6.7756" font-weight="bold" letter-spacing="-0.0564704" fill="#FFFFFF">
                                                <tspan x="68.2798" y="416.90068">L</tspan>
                                                <tspan x="72.2886896" y="416.90068">o</tspan>
                                                <tspan x="76.7267076" y="416.90068" letter-spacing="-0.0968064">r</tspan>
                                                <tspan x="79.4892044" y="416.90068">em ipsum dolor sit a</tspan>
                                                <tspan x="151.906817" y="416.90068" letter-spacing="0.0242016">m</tspan>
                                                <tspan x="159.079277" y="416.90068">et</tspan>
                                            </text>
                                            <path d="M138.6438,398.5495 L106.4198,398.5495 C104.3088,398.5495 102.5968,396.8375 102.5968,394.7265 L102.5968,368.8865 C102.5968,366.7745 104.3088,365.0625 106.4198,365.0625 L138.6438,365.0625 C140.7558,365.0625 142.4678,366.7745 142.4678,368.8865 L142.4678,394.7265 C142.4678,396.8375 140.7558,398.5495 138.6438,398.5495" id="Fill-56" fill="#FFFFFF"></path>
                                            <path d="M120.3748,386.4362 L125.4208,386.4362 L124.8248,383.7272 C125.2178,383.3462 125.4398,382.8552 125.4398,382.3362 C125.4398,381.1632 124.3008,380.2072 122.8998,380.2072 C121.4998,380.2072 120.3598,381.1632 120.3598,382.3362 C120.3598,382.8532 120.5808,383.3432 120.9718,383.7242 L120.3748,386.4362 Z" id="Fill-57" fill="#2B7CCF"></path>
                                            <path d="M116.07,387.83 L129.731,387.83 L129.731,379.082 L116.07,379.082 L116.07,387.83 Z M122.899,374.396 C124.697,374.396 126.17,375.581 126.272,377.07 L119.525,377.07 C119.627,375.581 121.101,374.396 122.899,374.396 L122.899,374.396 Z M130.325,377.105 C130.244,373.724 126.944,370.996 122.899,370.996 C118.854,370.996 115.554,373.724 115.472,377.106 C114.448,377.276 113.674,378.035 113.674,378.941 L113.674,387.965 C113.674,389.001 114.676,389.841 115.908,389.841 L129.893,389.841 C131.125,389.841 132.127,389.001 132.127,387.965 L132.127,378.941 C132.127,378.034 131.351,377.275 130.325,377.105 L130.325,377.105 Z" id="Fill-58" fill="#2B7CCF"></path>
                                            <path d="M187.8362,398.5495 L155.6132,398.5495 C153.5012,398.5495 151.7892,396.8375 151.7892,394.7265 L151.7892,368.8865 C151.7892,366.7745 153.5012,365.0625 155.6132,365.0625 L187.8362,365.0625 C189.9482,365.0625 191.6602,366.7745 191.6602,368.8865 L191.6602,394.7265 C191.6602,396.8375 189.9482,398.5495 187.8362,398.5495" id="Fill-59" fill="#FFFFFF"></path>
                                            <path d="M176.8465,376.4899 L177.2115,376.7199 C177.4495,376.8749 177.8395,377.0589 178.3535,377.0589 C179.3905,377.0589 180.2355,376.3499 180.2355,375.4789 C180.2355,374.6079 179.3905,373.8989 178.3535,373.8989 C177.3155,373.8989 176.4715,374.6079 176.4715,375.4789 C176.4715,375.6999 176.5325,375.9209 176.6515,376.1369 L176.8465,376.4899 Z M167.2425,380.6489 C165.1745,380.6489 163.4915,382.0619 163.4915,383.7999 C163.4915,385.5379 165.1745,386.9509 167.2425,386.9509 C168.9885,386.9509 170.4895,385.9609 170.8945,384.5419 L171.0245,384.0879 L170.9965,383.6089 C170.9565,382.9479 170.6475,382.2989 170.1255,381.7799 L169.7375,381.3929 L169.2855,381.1499 C168.6795,380.8219 167.9725,380.6489 167.2425,380.6489 L167.2425,380.6489 Z M178.0985,384.8719 L178.0545,385.4049 C178.0545,386.2469 178.8985,386.9559 179.9355,386.9559 C180.9725,386.9559 181.8155,386.2469 181.8155,385.3759 C181.8155,384.5049 180.9725,383.7959 179.9355,383.7959 C179.2945,383.7959 178.7025,384.0719 178.3515,384.5359 L178.0985,384.8719 Z M179.9355,388.9679 C177.8765,388.9679 176.1525,387.7389 175.7475,386.1089 L172.8885,385.8599 C171.9305,387.7239 169.7385,388.9639 167.2425,388.9639 C163.8535,388.9639 161.0955,386.6469 161.0955,383.7999 C161.0955,380.9529 163.8535,378.6359 167.2425,378.6359 C168.1365,378.6359 169.0085,378.7969 169.8085,379.1029 L174.1675,376.2069 C174.1065,375.9669 174.0755,375.7239 174.0755,375.4789 C174.0755,373.4979 175.9945,371.8859 178.3535,371.8859 C180.7115,371.8859 182.6305,373.4979 182.6305,375.4789 C182.6305,377.4599 180.7115,379.0719 178.3535,379.0719 C177.7315,379.0719 177.1275,378.9579 176.5695,378.7369 L172.6555,381.3409 C172.9205,381.7499 173.1185,382.1859 173.2425,382.6359 L176.8025,382.9389 C177.6055,382.2069 178.7305,381.7829 179.9355,381.7829 C182.2935,381.7829 184.2115,383.3949 184.2115,385.3759 C184.2115,387.3559 182.2935,388.9679 179.9355,388.9679 L179.9355,388.9679 Z" id="Fill-60" fill="#2B7CCF"></path>
                                            <path d="M8.5706,296.3024 L8.5706,272.9724 L72.0966,285.8474 C72.8856,286.0074 73.7196,285.9664 74.4816,285.7284 L136.3296,266.4514 L165.1536,280.8954 C167.1236,281.8824 169.6476,281.3314 170.8226,279.6574 L176.9536,270.9284 L193.2366,280.7344 C194.8676,281.7164 197.0926,281.5684 198.5266,280.3814 L246.9456,240.2814 C248.5946,238.9154 248.6366,236.6664 247.0386,235.2574 C245.4406,233.8484 242.8076,233.8124 241.1586,235.1784 L195.2116,273.2294 L178.0866,262.9154 C177.1406,262.3454 175.9646,262.1394 174.8316,262.3434 C173.6986,262.5474 172.7216,263.1434 172.1256,263.9914 L165.8096,272.9854 L138.8476,259.4754 C137.7836,258.9424 136.4776,258.8414 135.3196,259.2014 L72.8026,278.6874 L5.3716,265.0204 C4.1296,264.7684 2.8356,265.0134 1.8336,265.6904 C0.8316,266.3664 0.2546,267.3864 0.2546,268.4784 L0.2546,296.3024 C0.2546,298.2654 2.1156,299.8564 4.4126,299.8564 C6.7086,299.8564 8.5706,298.2654 8.5706,296.3024" id="Fill-61" fill="#FF9D00"></path>
                                            <path d="M29.7737,45.1891 C29.3997,45.3261 28.8557,45.4711 28.1427,45.6241 C27.4287,45.7771 26.9347,45.8881 26.6607,45.9601 C26.3867,46.0321 26.1247,46.1721 25.8757,46.3801 C25.6267,46.5891 25.5017,46.8801 25.5017,47.2541 C25.5017,47.6411 25.6477,47.9691 25.9407,48.2421 C26.2337,48.5121 26.6167,48.6481 27.0907,48.6481 C27.5957,48.6481 28.0607,48.5381 28.4877,48.3161 C28.9147,48.0951 29.2287,47.8091 29.4277,47.4601 C29.6587,47.0741 29.7737,46.4381 29.7737,45.5531 L29.7737,45.1891 Z M29.9417,48.8811 C29.3247,49.3611 28.7277,49.7211 28.1507,49.9611 C27.5747,50.2011 26.9287,50.3211 26.2117,50.3211 C25.5577,50.3211 24.9827,50.1911 24.4867,49.9331 C23.9917,49.6741 23.6097,49.3241 23.3417,48.8811 C23.0737,48.4391 22.9397,47.9601 22.9397,47.4421 C22.9397,46.7441 23.1617,46.1491 23.6037,45.6561 C24.0457,45.1641 24.6537,44.8341 25.4267,44.6661 C25.5887,44.6271 25.9907,44.5431 26.6327,44.4131 C27.2747,44.2821 27.8247,44.1631 28.2817,44.0531 C28.7407,43.9441 29.2377,43.8111 29.7737,43.6561 C29.7427,42.9831 29.6067,42.4891 29.3667,42.1731 C29.1267,41.8601 28.6297,41.7021 27.8757,41.7021 C27.2277,41.7021 26.7407,41.7931 26.4127,41.9731 C26.0857,42.1541 25.8057,42.4241 25.5707,42.7871 C25.3377,43.1481 25.1717,43.3861 25.0767,43.5021 C24.9797,43.6171 24.7727,43.6741 24.4547,43.6741 C24.1677,43.6741 23.9197,43.5831 23.7117,43.3991 C23.5027,43.2151 23.3987,42.9791 23.3987,42.6931 C23.3987,42.2441 23.5567,41.8081 23.8747,41.3841 C24.1927,40.9601 24.6887,40.6111 25.3607,40.3371 C26.0347,40.0631 26.8727,39.9251 27.8757,39.9251 C28.9977,39.9251 29.8797,40.0581 30.5217,40.3231 C31.1637,40.5881 31.6167,41.0071 31.8817,41.5811 C32.1467,42.1541 32.2787,42.9141 32.2787,43.8621 C32.2787,44.4601 32.2767,44.9671 32.2747,45.3851 C32.2707,45.8021 32.2667,46.2671 32.2597,46.7781 C32.2597,47.2581 32.3387,47.7581 32.4987,48.2791 C32.6567,48.7991 32.7367,49.1331 32.7367,49.2841 C32.7367,49.5451 32.6137,49.7831 32.3677,49.9991 C32.1217,50.2131 31.8427,50.3211 31.5307,50.3211 C31.2697,50.3211 31.0107,50.1981 30.7547,49.9521 C30.4997,49.7061 30.2287,49.3491 29.9417,48.8811 L29.9417,48.8811 Z" id="Fill-62" fill="#000000"></path>
                                            <path d="M41.9729,45.0866 C41.9729,44.4126 41.8699,43.8356 41.6649,43.3516 C41.4589,42.8696 41.1739,42.4986 40.8089,42.2396 C40.4449,41.9816 40.0409,41.8516 39.5979,41.8516 C38.8939,41.8516 38.3009,42.1286 37.8179,42.6836 C37.3339,43.2376 37.0939,44.0546 37.0939,45.1326 C37.0939,46.1486 37.3329,46.9396 37.8129,47.5026 C38.2929,48.0666 38.8879,48.3486 39.5979,48.3486 C40.0219,48.3486 40.4149,48.2266 40.7769,47.9806 C41.1379,47.7336 41.4279,47.3636 41.6459,46.8716 C41.8639,46.3796 41.9729,45.7836 41.9729,45.0866 M36.9719,41.3746 L36.9719,41.6836 C37.4519,41.0916 37.9509,40.6566 38.4679,40.3786 C38.9849,40.1026 39.5709,39.9636 40.2249,39.9636 C41.0099,39.9636 41.7329,40.1656 42.3939,40.5706 C43.0549,40.9766 43.5759,41.5676 43.9599,42.3476 C44.3429,43.1256 44.5349,44.0486 44.5349,45.1136 C44.5349,45.8986 44.4239,46.6206 44.2029,47.2776 C43.9809,47.9366 43.6779,48.4876 43.2909,48.9336 C42.9049,49.3786 42.4479,49.7216 41.9219,49.9616 C41.3949,50.2006 40.8289,50.3206 40.2249,50.3206 C39.4959,50.3206 38.8829,50.1746 38.3889,49.8816 C37.8919,49.5886 37.4209,49.1586 36.9719,48.5916 L36.9719,52.4246 C36.9719,53.5466 36.5639,54.1076 35.7469,54.1076 C35.2669,54.1076 34.9499,53.9626 34.7939,53.6726 C34.6379,53.3836 34.5599,52.9606 34.5599,52.4056 L34.5599,41.3936 C34.5599,40.9076 34.6659,40.5446 34.8779,40.3046 C35.0899,40.0656 35.3799,39.9446 35.7469,39.9446 C36.1089,39.9446 36.4029,40.0676 36.6309,40.3146 C36.8579,40.5606 36.9719,40.9136 36.9719,41.3746" id="Fill-63" fill="#000000"></path>
                                            <path d="M53.9388,45.0866 C53.9388,44.4126 53.8358,43.8356 53.6308,43.3516 C53.4248,42.8696 53.1398,42.4986 52.7748,42.2396 C52.4108,41.9816 52.0068,41.8516 51.5648,41.8516 C50.8598,41.8516 50.2668,42.1286 49.7838,42.6836 C49.3008,43.2376 49.0598,44.0546 49.0598,45.1326 C49.0598,46.1486 49.2988,46.9396 49.7788,47.5026 C50.2588,48.0666 50.8538,48.3486 51.5648,48.3486 C51.9878,48.3486 52.3808,48.2266 52.7428,47.9806 C53.1038,47.7336 53.3938,47.3636 53.6118,46.8716 C53.8298,46.3796 53.9388,45.7836 53.9388,45.0866 M48.9378,41.3746 L48.9378,41.6836 C49.4178,41.0916 49.9168,40.6566 50.4338,40.3786 C50.9508,40.1026 51.5368,39.9636 52.1908,39.9636 C52.9758,39.9636 53.6988,40.1656 54.3598,40.5706 C55.0208,40.9766 55.5418,41.5676 55.9258,42.3476 C56.3088,43.1256 56.5008,44.0486 56.5008,45.1136 C56.5008,45.8986 56.3898,46.6206 56.1688,47.2776 C55.9468,47.9366 55.6438,48.4876 55.2568,48.9336 C54.8708,49.3786 54.4138,49.7216 53.8878,49.9616 C53.3608,50.2006 52.7948,50.3206 52.1908,50.3206 C51.4618,50.3206 50.8488,50.1746 50.3548,49.8816 C49.8578,49.5886 49.3868,49.1586 48.9378,48.5916 L48.9378,52.4246 C48.9378,53.5466 48.5298,54.1076 47.7128,54.1076 C47.2328,54.1076 46.9158,53.9626 46.7598,53.6726 C46.6038,53.3836 46.5258,52.9606 46.5258,52.4056 L46.5258,41.3936 C46.5258,40.9076 46.6318,40.5446 46.8438,40.3046 C47.0558,40.0656 47.3458,39.9446 47.7128,39.9446 C48.0748,39.9446 48.3688,40.0676 48.5968,40.3146 C48.8238,40.5606 48.9378,40.9136 48.9378,41.3746" id="Fill-64" fill="#000000"></path>
                                            <path d="M61.0999,41.3932 L61.0999,48.7692 C61.0999,49.2802 60.9779,49.6662 60.7349,49.9282 C60.4919,50.1902 60.1839,50.3212 59.8099,50.3212 C59.4359,50.3212 59.1319,50.1872 58.8989,49.9192 C58.6639,49.6512 58.5479,49.2682 58.5479,48.7692 L58.5479,41.4682 C58.5479,40.9632 58.6639,40.5832 58.8989,40.3282 C59.1319,40.0722 59.4359,39.9452 59.8099,39.9452 C60.1839,39.9452 60.4919,40.0722 60.7349,40.3282 C60.9779,40.5832 61.0999,40.9382 61.0999,41.3932 M59.8379,38.7572 C59.4829,38.7572 59.1789,38.6482 58.9259,38.4302 C58.6739,38.2112 58.5479,37.9042 58.5479,37.5042 C58.5479,37.1432 58.6769,36.8452 58.9359,36.6122 C59.1939,36.3772 59.4949,36.2612 59.8379,36.2612 C60.1679,36.2612 60.4609,36.3672 60.7169,36.5792 C60.9719,36.7902 61.0999,37.0992 61.0999,37.5042 C61.0999,37.8972 60.9749,38.2052 60.7259,38.4252 C60.4759,38.6472 60.1809,38.7572 59.8379,38.7572" id="Fill-65" fill="#000000"></path>
                                            <path d="M70.0931,49.153 L67.8401,45.451 L66.4561,46.759 L66.4561,48.788 C66.4561,49.28 66.3271,49.659 66.0691,49.924 C65.8091,50.188 65.5121,50.321 65.1761,50.321 C64.7831,50.321 64.4741,50.19 64.2501,49.928 C64.0261,49.667 63.9141,49.28 63.9141,48.769 L63.9141,37.888 C63.9141,37.321 64.0231,36.889 64.2411,36.593 C64.4591,36.298 64.7711,36.149 65.1761,36.149 C65.5681,36.149 65.8801,36.283 66.1111,36.551 C66.3411,36.819 66.4561,37.215 66.4561,37.738 L66.4561,43.927 L69.3261,40.917 C69.6811,40.543 69.9521,40.288 70.1391,40.15 C70.3261,40.013 70.5541,39.945 70.8221,39.945 C71.1401,39.945 71.4051,40.047 71.6161,40.248 C71.8281,40.451 71.9341,40.705 71.9341,41.01 C71.9341,41.384 71.5891,41.882 70.8971,42.506 L69.5411,43.75 L72.1591,47.863 C72.3521,48.168 72.4901,48.4 72.5751,48.559 C72.6581,48.717 72.7011,48.869 72.7011,49.012 C72.7011,49.418 72.5901,49.737 72.3691,49.97 C72.1481,50.205 71.8571,50.321 71.4951,50.321 C71.1831,50.321 70.9441,50.237 70.7751,50.069 C70.6071,49.9 70.3801,49.595 70.0931,49.153" id="Fill-66" fill="#000000"></path>
                                            <path d="M39.7366,29.0182 C38.8316,29.4872 37.8426,29.7222 36.7726,29.7222 C35.7686,29.7222 34.9556,29.4352 34.3336,28.8602 C33.7126,28.2852 33.4016,27.5872 33.4016,26.7682 C33.4016,25.9752 33.6666,25.3572 34.1946,24.9142 C34.7236,24.4712 35.2786,24.1732 35.8606,24.0222 C36.4426,23.8712 37.4886,23.6322 39.0026,23.3082 C40.5166,22.9842 41.6696,22.6762 42.4626,22.3862 L42.4626,23.1602 C42.4626,25.0362 42.2176,26.3842 41.7296,27.2042 C41.3056,27.9452 40.6416,28.5492 39.7366,29.0182 M60.8326,26.9802 C60.6536,26.6432 60.3596,26.1502 59.9496,25.5032 L54.3986,16.7792 L57.2736,14.1422 C58.7406,12.8212 59.4736,11.7632 59.4736,10.9702 C59.4736,10.3232 59.2486,9.7842 58.7996,9.3542 C58.3506,8.9252 57.7886,8.7092 57.1146,8.7092 C56.5466,8.7092 56.0636,8.8552 55.6676,9.1462 C55.2706,9.4362 54.6956,9.9792 53.9426,10.7722 L47.8556,17.1562 L47.8556,4.0312 C47.8556,2.9202 47.6106,2.0812 47.1216,1.5122 C46.6326,0.9452 45.9716,0.6602 45.1396,0.6602 C44.2796,0.6602 43.6196,0.9742 43.1566,1.6022 C42.6936,2.2292 42.4626,3.1452 42.4626,4.3482 L42.4626,11.6032 C41.3356,11.3582 40.0086,11.2242 38.4376,11.2242 C36.3096,11.2242 34.5316,11.5142 33.1046,12.0962 C31.6766,12.6782 30.6266,13.4172 29.9516,14.3172 C29.2786,15.2162 28.9406,16.1412 28.9406,17.0922 C28.9406,17.7002 29.1616,18.2002 29.6056,18.5892 C30.0486,18.9792 30.5736,19.1742 31.1816,19.1742 C31.8556,19.1742 32.2946,19.0522 32.4996,18.8072 C32.7046,18.5632 33.0546,18.0572 33.5506,17.2902 C34.0466,16.5252 34.6406,15.9502 35.3346,15.5662 C36.0286,15.1822 37.0626,14.9912 38.4376,14.9912 C40.0366,14.9912 41.0916,15.3252 41.6006,15.9922 C42.1086,16.6602 42.3966,17.7072 42.4626,19.1342 C41.3256,19.4642 40.2716,19.7472 39.2996,19.9772 C38.3286,20.2082 37.1616,20.4632 35.8006,20.7412 C34.4396,21.0182 33.5876,21.1972 33.2436,21.2762 C31.6046,21.6322 30.3156,22.3332 29.3776,23.3772 C28.4386,24.4212 27.9696,25.6842 27.9696,27.1642 C27.9696,28.2622 28.2536,29.2792 28.8216,30.2172 C29.3896,31.1572 30.1996,31.9002 31.2506,32.4492 C32.3016,32.9972 33.5206,33.2712 34.9086,33.2712 C36.4286,33.2712 37.8006,33.0162 39.0226,32.5072 C40.2446,31.9992 41.5106,31.2362 42.8196,30.2172 C43.4266,31.2092 44.0026,31.9652 44.5446,32.4882 C45.0866,33.0102 45.6346,33.2712 46.1906,33.2712 C46.8516,33.2712 47.4426,33.0432 47.9646,32.5872 C48.4866,32.1312 48.7476,31.6252 48.7476,31.0702 C48.7476,30.7532 48.5796,30.0422 48.2416,28.9392 C48.0636,28.3552 47.9396,27.7852 47.8556,27.2242 L47.8556,23.1642 L50.7896,20.3872 L55.5686,28.2392 C56.1756,29.1782 56.6586,29.8252 57.0156,30.1822 C57.3726,30.5392 57.8816,30.7172 58.5426,30.7172 C59.3086,30.7172 59.9266,30.4692 60.3956,29.9742 C60.8646,29.4782 61.0996,28.8012 61.0996,27.9422 C61.0996,27.6372 61.0106,27.3172 60.8326,26.9802" id="Fill-67" fill="#FFC600"></path>
                                        </g>
                                    </g>
                                </g>
                            </g>
                        </g>
                        <path d="M289.099555,563.61091 C289.099555,572.655374 285.433464,580.825642 279.500009,586.758152 C273.559873,592.686213 265.381327,596.347596 256.323009,596.347596 L37.2306455,596.347596 C28.1723273,596.347596 19.9937818,592.686213 14.0536455,586.758152 C8.12019091,580.825642 4.4541,572.655374 4.4541,563.61091 L4.4541,37.1969005 C4.4541,28.1502128 8.12019091,19.9799438 14.0536455,14.0496588 C19.9937818,8.12159813 28.1723273,4.46021433 37.2306455,4.46021433 L121.192145,4.46021433 C125.475191,4.48245846 127.809373,5.9616931 129.274918,7.3808686 C129.996555,8.09490517 130.477645,8.81339057 130.767191,9.33390321 C130.896373,9.56301775 130.974327,9.73207314 131.032236,9.86553792 C131.299509,18.3294294 138.235236,25.113889 146.776827,25.113889 C155.380782,25.113889 162.361055,18.2315552 162.530327,9.67868723 C162.603827,9.37394265 162.982464,8.09268076 164.223055,6.91819069 C165.488145,5.73257856 167.657509,4.48023404 171.987327,4.46021433 L256.323009,4.46021433 C265.381327,4.46021433 273.559873,8.12159813 279.500009,14.0496588 C285.433464,19.9799438 289.099555,28.1502128 289.099555,37.1969005 L289.099555,563.61091 Z M160.430009,4.46021433 C158.536827,6.65793437 158.164873,8.76445348 158.120327,9.01136333 L158.0936,9.18709195 L158.0936,9.36282058 C158.091373,12.4925697 156.828509,15.3020033 154.777191,17.3551365 C152.723645,19.4038209 149.908373,20.665063 146.776827,20.665063 C143.645282,20.665063 140.830009,19.4038209 138.774236,17.3551365 C136.722918,15.3020033 135.462282,12.4925697 135.462282,9.36282058 L135.462282,9.00469009 L135.348691,8.6643549 C135.277418,8.46193332 134.602555,6.51557194 132.633645,4.46021433 L160.430009,4.46021433 Z M256.323009,0.0113883261 L37.2306455,0.0113883261 C16.6684636,0.0113883261 -0.000445454545,16.6588952 -0.000445454545,37.1969005 L-0.000445454545,563.61091 C-0.000445454545,584.146691 16.6684636,600.796422 37.2306455,600.796422 L256.323009,600.796422 C276.887418,600.796422 293.5541,584.146691 293.5541,563.61091 L293.5541,37.1969005 C293.5541,16.6588952 276.887418,0.0113883261 256.323009,0.0113883261 L256.323009,0.0113883261 Z" id="Fill-1" fill="#BABABA" mask="url(#mask-2)"></path>
                        <path d="M146.001162,15 C148.210863,15 150,13.2085391 150,11.0011618 C150,8.79146094 148.210863,7 146.001162,7 C143.791461,7 142,8.79146094 142,11.0011618 C142,13.2085391 143.791461,15 146.001162,15" id="Fill-4" fill="#BABABA" mask="url(#mask-2)"></path>
                    </g>
                </g>
            </g>
        </g>
    </g>
</svg>