<?xml version="1.0" encoding="UTF-8"?>
<svg width="278px" height="565px" viewBox="0 0 278 565" version="1.1" xmlns="http://www.w3.org/2000/svg" xmlns:xlink="http://www.w3.org/1999/xlink">
    <title>Img</title>
    <defs>
        <path d="M120.962241,1.69493603 C123.621564,6.14120053 125.581232,10.1468467 126.841246,13.7118747 C128.731266,19.0594166 139.877802,23.0057359 144.142934,20.4098707 C148.408067,17.8140055 152.167524,5.83073097 155.003491,3.7628335 C157.839457,1.69493603 236.077896,1.69493603 242.445956,1.69493603 C248.814016,1.69493603 277.110995,6.37873975 277.110995,32.5798326 C277.110995,58.7809255 277.110995,525.502008 277.110995,532.514347 C277.110995,539.526686 266.456705,564.629883 246.193249,564.629883 C225.929794,564.629883 43.4623251,564.629883 35.4989753,564.629883 C27.5356254,564.629883 6.875453,558.880447 3.33961714,545.697397 C-0.196218718,532.514347 0.118160972,533.709035 0.118160972,528.002925 C0.118160972,522.296815 0.118160972,38.5983715 0.118160972,32.6024028 C0.118160972,26.606434 9.80663342,3.82504248 30.3725279,1.69493603 C44.0831242,0.274865072 74.2796951,0.274865072 120.962241,1.69493603 Z" id="path-1"></path>
        <polygon id="path-3" points="0 0.0004 277.9999 0.0004 277.9999 567 0 567"></polygon>
        <polygon id="path-5" points="0 0.0004 67.9999 0.0004 67.9999 567 0 567"></polygon>
        <polygon id="path-7" points="0 567 299.887 567 299.887 0 0 0"></polygon>
        <path d="M12.151,0.205 C5.824,0.205 0.694,5.334 0.694,11.662 L0.694,11.662 L0.694,79.118 C0.694,85.446 5.824,90.575 12.151,90.575 L12.151,90.575 L147.218,90.575 C153.545,90.575 158.675,85.446 158.675,79.118 L158.675,79.118 L158.675,11.662 C158.675,5.334 153.545,0.205 147.218,0.205 L147.218,0.205" id="path-9"></path>
        <polygon id="path-11" points="0 567 299.887 567 299.887 0 0 0"></polygon>
        <polygon id="path-13" points="0 567 299.887 567 299.887 0 0 0"></polygon>
    </defs>
    <g id="Home" stroke="none" stroke-width="1" fill="none" fill-rule="evenodd">
        <g id="01.-Landing-Page" transform="translate(-160.000000, -3229.000000)">
            <g id="App-Faces" transform="translate(160.000000, 2904.000000)">
                <g id="Mobile-01" transform="translate(0.000000, 325.000000)">
                    <g id="Img">
                        <mask id="mask-2" fill="white">
                            <use xlink:href="#path-1"></use>
                        </mask>
                        <use id="Mask" fill="#D8D8D8" xlink:href="#path-1"></use>
                        <g id="Group-120" mask="url(#mask-2)">
                            <g transform="translate(0.000000, -2.000000)">
                                <g id="Group-35" stroke="none" stroke-width="1" fill-rule="evenodd">
                                    <g id="Group-3">
                                        <mask id="mask-4" fill="white">
                                            <use xlink:href="#path-3"></use>
                                        </mask>
                                        <g id="Clip-2"></g>
                                        <path d="M266.7219,567.0004 L11.2779,567.0004 C5.0499,567.0004 -0.0001,561.9504 -0.0001,555.7224 L-0.0001,11.2774 C-0.0001,5.0494 5.0499,0.0004 11.2779,0.0004 L266.7219,0.0004 C272.9509,0.0004 277.9999,5.0494 277.9999,11.2774 L277.9999,555.7224 C277.9999,561.9504 272.9509,567.0004 266.7219,567.0004" id="Fill-1" fill="#FFFFFF" mask="url(#mask-4)"></path>
                                    </g>
                                    <g id="Group-6">
                                        <mask id="mask-6" fill="white">
                                            <use xlink:href="#path-5"></use>
                                        </mask>
                                        <g id="Clip-5"></g>
                                        <path d="M56.7219,567.0004 L11.2779,567.0004 C5.0499,567.0004 -0.0001,561.9504 -0.0001,555.7224 L-0.0001,11.2774 C-0.0001,5.0494 5.0499,0.0004 11.2779,0.0004 L56.7219,0.0004 C62.9509,0.0004 67.9999,5.0494 67.9999,11.2774 L67.9999,555.7224 C67.9999,561.9504 62.9509,567.0004 56.7219,567.0004" id="Fill-4" fill="#F2F2F2" mask="url(#mask-6)"></path>
                                    </g>
                                    <path d="M215.114,28.6547 C215.362,28.4727 215.486,28.2247 215.486,27.9137 C215.486,27.6007 215.362,27.3517 215.114,27.1677 C214.866,26.9817 214.538,26.8887 214.127,26.8887 C213.723,26.8887 213.391,26.9847 213.133,27.1757 C212.874,27.3687 212.745,27.6147 212.745,27.9137 C212.745,28.2127 212.871,28.4567 213.122,28.6447 C213.372,28.8337 213.715,28.9277 214.149,28.9277 C214.545,28.9277 214.866,28.8377 215.114,28.6547 M215.919,25.9707 C216.338,26.1467 216.669,26.3957 216.913,26.7177 C217.156,27.0407 217.278,27.4127 217.278,27.8357 C217.278,28.2907 217.144,28.6907 216.879,29.0357 C216.612,29.3807 216.248,29.6447 215.788,29.8307 C215.327,30.0157 214.815,30.1087 214.252,30.1087 C213.133,30.1087 212.258,29.8157 211.626,29.2307 C210.994,28.6447 210.678,27.8087 210.678,26.7227 C210.678,25.9487 210.849,25.2857 211.192,24.7327 C211.534,24.1787 212.011,23.7597 212.625,23.4737 C213.238,23.1877 213.947,23.0447 214.754,23.0447 C215.18,23.0447 215.589,23.0857 215.982,23.1667 C216.374,23.2477 216.706,23.3627 216.981,23.5127 L216.295,24.6747 C215.9,24.4467 215.401,24.3327 214.8,24.3327 C214.123,24.3327 213.586,24.5017 213.19,24.8397 C212.794,25.1777 212.581,25.6697 212.551,26.3127 C213.023,25.9097 213.68,25.7087 214.526,25.7087 C215.036,25.7087 215.501,25.7967 215.919,25.9707" id="Fill-7" fill="#342F4C"></path>
                                    <path d="M228.0271,25.2445 C228.4811,25.6325 228.7071,26.2125 228.7071,26.9865 L228.7071,29.9915 L226.9251,29.9915 L226.9251,27.2205 C226.9251,26.8045 226.8251,26.4935 226.6231,26.2885 C226.4211,26.0835 226.1331,25.9815 225.7611,25.9815 C225.3421,25.9815 225.0101,26.0975 224.7681,26.3275 C224.5241,26.5585 224.4021,26.9015 224.4021,27.3565 L224.4021,29.9915 L222.6221,29.9915 L222.6221,27.2205 C222.6221,26.3945 222.2331,25.9815 221.4561,25.9815 C221.0451,25.9815 220.7181,26.0975 220.4741,26.3275 C220.2311,26.5585 220.1101,26.9015 220.1101,27.3565 L220.1101,29.9915 L218.3281,29.9915 L218.3281,24.7425 L220.0291,24.7425 L220.0291,25.3475 C220.2571,25.1265 220.5381,24.9565 220.8681,24.8395 C221.1991,24.7235 221.5631,24.6645 221.9591,24.6645 C222.3931,24.6645 222.7851,24.7375 223.1351,24.8835 C223.4851,25.0295 223.7671,25.2435 223.9791,25.5225 C224.2311,25.2495 224.5481,25.0385 224.9331,24.8895 C225.3181,24.7385 225.7381,24.6645 226.1951,24.6645 C226.9641,24.6645 227.5741,24.8575 228.0271,25.2445" id="Fill-9" fill="#342F4C"></path>
                                    <path d="M237.3523,22.7513 L244.9633,22.7513 C246.0543,22.7513 246.9373,23.5063 246.9373,24.4383 L246.9373,29.7193 C246.9373,30.6503 246.0543,31.4053 244.9633,31.4053 L237.3523,31.4053 C236.2623,31.4053 235.3783,30.6503 235.3783,29.7193 L235.3783,24.4383 C235.3783,23.5063 236.2623,22.7513 237.3523,22.7513" id="Fill-11" fill="#342F4C"></path>
                                    <polygon id="Fill-13" fill="#FFFFFF" points="240.5505 29.3373 243.1945 27.0783 240.5505 24.8193 239.8795 25.3933 241.8515 27.0783 239.8795 28.7643"></polygon>
                                    <path d="M203.1086,31.4056 L195.4966,31.4056 C194.4066,31.4056 193.5236,30.6506 193.5236,29.7186 L193.5236,24.4376 C193.5236,23.5066 194.4066,22.7516 195.4966,22.7516 L203.1086,22.7516 C204.1986,22.7516 205.0826,23.5066 205.0826,24.4376 L205.0826,29.7186 C205.0826,30.6506 204.1986,31.4056 203.1086,31.4056" id="Fill-15" fill="#342F4C"></path>
                                    <polygon id="Fill-17" fill="#FFFFFF" points="199.9099 24.8197 197.2669 27.0787 197.2669 27.0787 197.2669 27.0787 199.9099 29.3377 200.5809 28.7637 198.6089 27.0787 200.5809 25.3927"></polygon>
                                    <mask id="mask-8" fill="white">
                                        <use xlink:href="#path-7"></use>
                                    </mask>
                                    <g id="Clip-20"></g>
                                    <polygon id="Fill-19" fill="#ECEBF2" mask="url(#mask-8)" points="116.257 473.707 130.415 473.707 130.415 403.594 116.257 403.594"></polygon>
                                    <polygon id="Fill-21" fill="#ECEBF2" mask="url(#mask-8)" points="137.023 473.707 151.181 473.707 151.181 403.594 137.023 403.594"></polygon>
                                    <polygon id="Fill-22" fill="#ECEBF2" mask="url(#mask-8)" points="157.789 473.707 171.947 473.707 171.947 403.594 157.789 403.594"></polygon>
                                    <polygon id="Fill-23" fill="#ECEBF2" mask="url(#mask-8)" points="178.554 473.707 192.712 473.707 192.712 403.594 178.554 403.594"></polygon>
                                    <polygon id="Fill-24" fill="#ECEBF2" mask="url(#mask-8)" points="199.318 473.707 213.477 473.707 213.477 403.594 199.318 403.594"></polygon>
                                    <polygon id="Fill-25" fill="#ECEBF2" mask="url(#mask-8)" points="220.084 473.707 234.242 473.707 234.242 403.594 220.084 403.594"></polygon>
                                    <polygon id="Fill-26" fill="#2B7CCF" mask="url(#mask-8)" points="116.257 473.707 130.415 473.707 130.415 437.662 116.257 437.662"></polygon>
                                    <polygon id="Fill-27" fill="#2B7CCF" mask="url(#mask-8)" points="137.023 473.707 151.181 473.707 151.181 442.854 137.023 442.854"></polygon>
                                    <polygon id="Fill-28" fill="#2B7CCF" mask="url(#mask-8)" points="157.789 473.707 171.947 473.707 171.947 434.463 157.789 434.463"></polygon>
                                    <polygon id="Fill-29" fill="#2B7CCF" mask="url(#mask-8)" points="178.554 473.707 192.712 473.707 192.712 428.679 178.554 428.679"></polygon>
                                    <polygon id="Fill-30" fill="#2B7CCF" mask="url(#mask-8)" points="199.318 473.707 213.477 473.707 213.477 417.748 199.318 417.748"></polygon>
                                    <polygon id="Fill-31" fill="#2B7CCF" mask="url(#mask-8)" points="220.084 473.707 234.242 473.707 234.242 429.902 220.084 429.902"></polygon>
                                    <path d="M107.4822,472.434 L107.4822,458.39 L145.7222,466.141 C146.1972,466.237 146.6982,466.212 147.1572,466.069 L184.3872,454.465 L201.7382,463.16 C202.9242,463.753 204.4432,463.422 205.1502,462.414 L208.8412,457.16 L218.6422,463.063 C219.6252,463.654 220.9632,463.565 221.8262,462.85 L250.9732,438.712 C251.9662,437.89 251.9912,436.536 251.0282,435.688 C250.0662,434.839 248.4822,434.818 247.4892,435.64 L219.8322,458.545 L209.5232,452.336 C208.9532,451.994 208.2462,451.87 207.5642,451.993 C206.8812,452.116 206.2932,452.474 205.9352,452.985 L202.1332,458.398 L185.9022,450.266 C185.2622,449.945 184.4762,449.884 183.7782,450.101 L146.1472,461.83 L105.5562,453.604 C104.8082,453.452 104.0292,453.599 103.4262,454.007 C102.8232,454.414 102.4762,455.028 102.4762,455.685 L102.4762,472.434 C102.4762,473.616 103.5962,474.574 104.9792,474.574 C106.3612,474.574 107.4822,473.616 107.4822,472.434" id="Fill-32" fill="#FF9D00" mask="url(#mask-8)"></path>
                                    <path d="M244.885,258.8803 L108.331,258.8803 C100.716,258.8803 94.542,252.7063 94.542,245.0903 L94.542,64.5213 C94.542,56.9043 100.716,50.7313 108.331,50.7313 L244.885,50.7313 C252.501,50.7313 258.675,56.9043 258.675,64.5213 L258.675,245.0903 C258.675,252.7063 252.501,258.8803 244.885,258.8803" id="Fill-33" fill="#ECEBF2" mask="url(#mask-8)"></path>
                                    <polyline id="Stroke-34" stroke="#FF6F43" stroke-width="2.083" mask="url(#mask-8)" points="117.217 157.7602 120.458 161.0022 126.655 154.8052"></polyline>
                                </g>
                                <text id="Lorem-ipsum-dolor-sit-amet" stroke="none" font-family="Montserrat-Medium, Montserrat" font-size="6.8638" font-weight="400" letter-spacing="-0.0480466">
                                    <tspan x="132.1631" y="159.735463" fill="#342F4C">L</tspan>
                                    <tspan x="136.144104" y="159.735463" fill="#342F4C">o</tspan>
                                    <tspan x="140.502617" y="159.735463" letter-spacing="-0.0823656" fill="#342F4C">r</tspan>
                                    <tspan x="143.152044" y="159.735463" fill="#342F4C">em ipsum dolor sit a</tspan>
                                    <tspan x="214.357105" y="159.735463" letter-spacing="0.0205914" fill="#342F4C">m</tspan>
                                    <tspan x="221.653324" y="159.735463" fill="#342F4C">et</tspan>
                                </text>
                                <polyline id="Stroke-36" stroke="#FF6F43" stroke-width="2.083" points="117.217 175.1107 120.458 178.3517 126.655 172.1557"></polyline>
                                <text id="Lorem-ipsum-dolor-sit-amet" stroke="none" font-family="Montserrat-Medium, Montserrat" font-size="6.8638" font-weight="400" letter-spacing="-0.0480466">
                                    <tspan x="132.1631" y="177.085063" fill="#342F4C">L</tspan>
                                    <tspan x="136.144104" y="177.085063" fill="#342F4C">o</tspan>
                                    <tspan x="140.502617" y="177.085063" letter-spacing="-0.0823656" fill="#342F4C">r</tspan>
                                    <tspan x="143.152044" y="177.085063" fill="#342F4C">em ipsum dolor sit a</tspan>
                                    <tspan x="214.357105" y="177.085063" letter-spacing="0.0205914" fill="#342F4C">m</tspan>
                                    <tspan x="221.653324" y="177.085063" fill="#342F4C">et</tspan>
                                </text>
                                <polyline id="Stroke-38" stroke="#FF6F43" stroke-width="2.083" points="117.217 192.4613 120.458 195.7023 126.655 189.5063"></polyline>
                                <text id="Lorem-ipsum-dolor-sit-amet" stroke="none" font-family="Montserrat-Medium, Montserrat" font-size="6.8638" font-weight="400" letter-spacing="-0.0480466">
                                    <tspan x="132.1631" y="194.435663" fill="#342F4C">L</tspan>
                                    <tspan x="136.144104" y="194.435663" fill="#342F4C">o</tspan>
                                    <tspan x="140.502617" y="194.435663" letter-spacing="-0.0823656" fill="#342F4C">r</tspan>
                                    <tspan x="143.152044" y="194.435663" fill="#342F4C">em ipsum dolor sit a</tspan>
                                    <tspan x="214.357105" y="194.435663" letter-spacing="0.0205914" fill="#342F4C">m</tspan>
                                    <tspan x="221.653324" y="194.435663" fill="#342F4C">et</tspan>
                                </text>
                                <polyline id="Stroke-40" stroke="#FF6F43" stroke-width="2.083" points="117.217 209.8119 120.458 213.0529 126.655 206.8559"></polyline>
                                <text id="Lorem-ipsum-dolor-sit-amet" stroke="none" font-family="Montserrat-Medium, Montserrat" font-size="6.8638" font-weight="400" letter-spacing="-0.0480466">
                                    <tspan x="132.1631" y="211.786263" fill="#342F4C">L</tspan>
                                    <tspan x="136.144104" y="211.786263" fill="#342F4C">o</tspan>
                                    <tspan x="140.502617" y="211.786263" letter-spacing="-0.0823656" fill="#342F4C">r</tspan>
                                    <tspan x="143.152044" y="211.786263" fill="#342F4C">em ipsum dolor sit a</tspan>
                                    <tspan x="214.357105" y="211.786263" letter-spacing="0.0205914" fill="#342F4C">m</tspan>
                                    <tspan x="221.653324" y="211.786263" fill="#342F4C">et</tspan>
                                </text>
                                <polyline id="Stroke-42" stroke="#FF6F43" stroke-width="2.083" points="117.217 227.1615 120.458 230.4025 126.655 224.2065"></polyline>
                                <text id="Lorem-ipsum-dolor-sit-amet" stroke="none" font-family="Montserrat-Medium, Montserrat" font-size="6.8638" font-weight="400" letter-spacing="-0.0480466">
                                    <tspan x="132.1631" y="229.135863" fill="#342F4C">L</tspan>
                                    <tspan x="136.144104" y="229.135863" fill="#342F4C">o</tspan>
                                    <tspan x="140.502617" y="229.135863" letter-spacing="-0.0823656" fill="#342F4C">r</tspan>
                                    <tspan x="143.152044" y="229.135863" fill="#342F4C">em ipsum dolor sit a</tspan>
                                    <tspan x="214.357105" y="229.135863" letter-spacing="0.0205914" fill="#342F4C">m</tspan>
                                    <tspan x="221.653324" y="229.135863" fill="#342F4C">et</tspan>
                                </text>
                                <text id="03" stroke="none" font-family="Montserrat-Black, Montserrat" font-size="37.7511" font-weight="700" letter-spacing="-0.01">
                                    <tspan x="198.8521" y="83.7769543" fill="#FFFFFF">03</tspan>
                                </text>
                                <text id="Monthly-" stroke="none" font-family="Montserrat-Black, Montserrat" font-size="13.7277" font-weight="700">
                                    <tspan x="115.3623" y="107.828305" fill="#342F4C">Monthly </tspan>
                                </text>
                                <text id="Progress" stroke="none" font-family="Montserrat-Black, Montserrat" font-size="13.7277" font-weight="700">
                                    <tspan x="115.3623" y="124.301545" fill="#342F4C">P</tspan>
                                    <tspan x="125.561981" y="124.301545" letter-spacing="-0.0686385" fill="#342F4C">r</tspan>
                                    <tspan x="131.684535" y="124.301545" fill="#342F4C">og</tspan>
                                    <tspan x="150.752311" y="124.301545" letter-spacing="-0.0686385" fill="#342F4C">r</tspan>
                                    <tspan x="156.874865" y="124.301545" fill="#342F4C">ess</tspan>
                                </text>
                                <g id="Group-47" stroke="none" stroke-width="1" fill-rule="evenodd" transform="translate(100.000000, 90.000000)">
                                    <polygon id="Fill-44" fill="#FF6F43" points="17.217 2.237 45.201 2.237 45.201 0.538 17.217 0.538"></polygon>
                                    <path d="M147.218,278.5756 L12.151,278.5756 C5.823,278.5756 0.694,273.4456 0.694,267.1186 L0.694,199.6626 C0.694,193.3346 5.823,188.2056 12.151,188.2056 L147.218,188.2056 C153.545,188.2056 158.675,193.3346 158.675,199.6626 L158.675,267.1186 C158.675,273.4456 153.545,278.5756 147.218,278.5756" id="Fill-46" fill="#FFC600"></path>
                                </g>
                                <g id="Group-50" stroke="none" stroke-width="1" fill-rule="evenodd" transform="translate(100.000000, 278.000000)">
                                    <mask id="mask-10" fill="white">
                                        <use xlink:href="#path-9"></use>
                                    </mask>
                                    <g id="Clip-49"></g>
                                    <path d="M-33.2488,84.2865 C-33.2488,84.2865 -19.8098,33.5835 28.5252,48.7235 C76.8602,63.8625 121.8792,50.7045 150.2952,19.2825 C178.7112,-12.1385 202.4492,43.9015 199.6642,83.5995 C196.8792,123.2965 100.5342,176.7235 41.0752,149.7335 C-18.3838,122.7455 -39.8558,119.0505 -33.2488,84.2865" id="Fill-48" fill="#FFAF00" mask="url(#mask-10)"></path>
                                </g>
                                <g id="Group-102" stroke="none" stroke-width="1" fill-rule="evenodd">
                                    <polygon id="Fill-51" fill="#FFFFFF" points="168.5266 351.7719 166.6826 351.7719 166.6826 354.1499 162.1446 354.1499 162.1446 351.7719 154.9496 351.7719 154.9496 348.7989 160.8366 340.2769 165.6326 340.2769 160.4006 348.1449 162.2836 348.1449 162.2836 346.0239 166.6826 346.0239 166.6826 348.1449 168.5266 348.1449"></polygon>
                                    <path d="M180.2795,350.5229 L180.2795,354.1499 L169.1605,354.1499 L169.1605,351.2759 L174.1745,346.6379 C174.6105,346.2289 174.9015,345.8779 175.0465,345.5869 C175.1925,345.2969 175.2645,345.0129 175.2645,344.7359 C175.2645,344.3919 175.1495,344.1249 174.9185,343.9329 C174.6865,343.7419 174.3535,343.6459 173.9175,343.6459 C173.4945,343.6459 173.0975,343.7579 172.7275,343.9829 C172.3585,344.2079 172.0735,344.5249 171.8755,344.9339 L168.3475,343.1689 C168.8765,342.1789 169.6495,341.3959 170.6665,340.8219 C171.6835,340.2469 172.9125,339.9599 174.3535,339.9599 C175.4495,339.9599 176.4215,340.1379 177.2665,340.4949 C178.1125,340.8509 178.7725,341.3599 179.2485,342.0209 C179.7245,342.6809 179.9625,343.4409 179.9625,344.2999 C179.9625,345.0659 179.8005,345.7829 179.4765,346.4499 C179.1525,347.1179 178.5215,347.8749 177.5835,348.7199 L175.6015,350.5229 L180.2795,350.5229 Z" id="Fill-53" fill="#FFFFFF"></path>
                                    <path d="M192.3293,350.5229 L192.3293,354.1499 L181.2103,354.1499 L181.2103,351.2759 L186.2253,346.6379 C186.6613,346.2289 186.9513,345.8779 187.0973,345.5869 C187.2423,345.2969 187.3153,345.0129 187.3153,344.7359 C187.3153,344.3919 187.1993,344.1249 186.9683,343.9329 C186.7363,343.7419 186.4033,343.6459 185.9673,343.6459 C185.5443,343.6459 185.1473,343.7579 184.7783,343.9829 C184.4083,344.2079 184.1243,344.5249 183.9253,344.9339 L180.3983,343.1689 C180.9263,342.1789 181.6993,341.3959 182.7163,340.8219 C183.7343,340.2469 184.9623,339.9599 186.4033,339.9599 C187.4993,339.9599 188.4713,340.1379 189.3163,340.4949 C190.1623,340.8509 190.8233,341.3599 191.2983,342.0209 C191.7743,342.6809 192.0123,343.4409 192.0123,344.2999 C192.0123,345.0659 191.8503,345.7829 191.5263,346.4499 C191.2033,347.1179 190.5723,347.8749 189.6333,348.7199 L187.6523,350.5229 L192.3293,350.5229 Z" id="Fill-55" fill="#FFFFFF"></path>
                                    <path d="M203.5373,347.2025 C204.1113,347.8975 204.3993,348.7325 204.3993,349.7105 C204.3993,350.5425 204.1713,351.3195 203.7153,352.0395 C203.2593,352.7605 202.5563,353.3445 201.6043,353.7935 C200.6533,354.2425 199.4703,354.4675 198.0573,354.4675 C197.0793,354.4675 196.1043,354.3605 195.1333,354.1495 C194.1623,353.9395 193.3133,353.6285 192.5863,353.2185 L194.1723,349.7695 C194.7403,350.0995 195.3513,350.3515 196.0053,350.5225 C196.6593,350.6945 197.2903,350.7805 197.8983,350.7805 C198.4403,350.7805 198.8763,350.6875 199.2063,350.5035 C199.5363,350.3185 199.7023,350.0545 199.7023,349.7105 C199.7023,349.0765 199.1533,348.7595 198.0573,348.7595 L196.2133,348.7595 L196.2133,345.8855 L198.2553,343.8055 L193.3003,343.8055 L193.3003,340.2765 L203.6453,340.2765 L203.6453,343.1495 L201.0693,345.7655 C202.1403,346.0305 202.9623,346.5095 203.5373,347.2025" id="Fill-57" fill="#FFFFFF"></path>
                                    <path d="M119.363,335.5492 L111.654,335.5492 C108.805,335.5492 106.496,333.2402 106.496,330.3922 L106.496,324.9152 C106.496,322.0672 108.805,319.7572 111.654,319.7572 L119.363,319.7572 C122.212,319.7572 124.521,322.0672 124.521,324.9152 L124.521,330.3922 C124.521,333.2402 122.212,335.5492 119.363,335.5492" id="Fill-59" fill="#FFFFFF"></path>
                                    <polygon id="Fill-61" fill="#FF6F43" points="116.4553 323.5316 112.3333 327.6536 112.3333 327.6536 112.3333 327.6536 116.4553 331.7756 117.5013 330.7286 114.4263 327.6536 117.5013 324.5776"></polygon>
                                    <path d="M239.3889,319.7572 L247.0979,319.7572 C249.9469,319.7572 252.2559,322.0672 252.2559,324.9152 L252.2559,330.3922 C252.2559,333.2402 249.9469,335.5492 247.0989,335.5492 L239.3889,335.5492 C236.5399,335.5492 234.2309,333.2402 234.2309,330.3922 L234.2309,324.9152 C234.2309,322.0672 236.5399,319.7572 239.3889,319.7572" id="Fill-63" fill="#FFFFFF"></path>
                                    <polygon id="Fill-65" fill="#FF6F43" points="242.2966 331.7758 246.4186 327.6538 246.4186 327.6538 246.4186 327.6538 242.2966 323.5318 241.2506 324.5778 244.3256 327.6538 241.2506 330.7288"></polygon>
                                    <polygon id="Fill-67" fill="#FFFFFF" points="134.135 298.7309 137.254 298.7309 137.254 305.5619 141.428 305.5619 141.428 307.9799 134.135 307.9799"></polygon>
                                    <path d="M146.8591,305.4106 C147.0791,305.1586 147.1901,304.8086 147.1901,304.3596 C147.1901,303.9106 147.0791,303.5626 146.8591,303.3156 C146.6391,303.0686 146.3571,302.9456 146.0131,302.9456 C145.6701,302.9456 145.3881,303.0686 145.1681,303.3156 C144.9471,303.5626 144.8381,303.9106 144.8381,304.3596 C144.8381,304.8086 144.9471,305.1586 145.1681,305.4106 C145.3881,305.6616 145.6701,305.7876 146.0131,305.7876 C146.3571,305.7876 146.6391,305.6616 146.8591,305.4106 M143.8531,307.6296 C143.2141,307.3086 142.7141,306.8636 142.3541,306.2956 C141.9921,305.7276 141.8121,305.0826 141.8121,304.3596 C141.8121,303.6386 141.9921,302.9926 142.3541,302.4246 C142.7141,301.8556 143.2141,301.4136 143.8531,301.0966 C144.4921,300.7796 145.2121,300.6206 146.0131,300.6206 C146.8241,300.6206 147.5481,300.7796 148.1871,301.0966 C148.8261,301.4136 149.3231,301.8556 149.6801,302.4246 C150.0371,302.9926 150.2151,303.6386 150.2151,304.3596 C150.2151,305.0826 150.0371,305.7276 149.6801,306.2956 C149.3231,306.8636 148.8261,307.3086 148.1871,307.6296 C147.5481,307.9526 146.8241,308.1126 146.0131,308.1126 C145.2121,308.1126 144.4921,307.9526 143.8531,307.6296" id="Fill-69" fill="#FFFFFF"></path>
                                    <path d="M156.3332,300.6205 L156.3332,303.2635 C156.0952,303.2275 155.8752,303.2105 155.6722,303.2105 C154.6502,303.2105 154.1392,303.7305 154.1392,304.7695 L154.1392,307.9795 L151.1532,307.9795 L151.1532,300.7525 L153.9942,300.7525 L153.9942,301.5325 C154.5222,300.9255 155.3022,300.6205 156.3332,300.6205" id="Fill-71" fill="#FFFFFF"></path>
                                    <path d="M160.0852,302.9066 C159.8822,303.0736 159.7502,303.3106 159.6892,303.6196 L162.0142,303.6196 C161.9522,303.3206 161.8202,303.0846 161.6182,302.9126 C161.4152,302.7406 161.1602,302.6546 160.8512,302.6546 C160.5432,302.6546 160.2882,302.7396 160.0852,302.9066 M164.7632,305.0606 L159.7422,305.0606 C159.8472,305.3336 160.0232,305.5426 160.2702,305.6876 C160.5172,305.8336 160.8252,305.9056 161.1952,305.9056 C161.5122,305.9056 161.7782,305.8666 161.9952,305.7876 C162.2102,305.7076 162.4452,305.5716 162.7012,305.3776 L164.2602,306.9496 C163.5562,307.7246 162.5032,308.1126 161.1032,308.1126 C160.2312,308.1126 159.4642,307.9526 158.8032,307.6296 C158.1432,307.3086 157.6322,306.8616 157.2712,306.2886 C156.9092,305.7166 156.7292,305.0736 156.7292,304.3596 C156.7292,303.6376 156.9072,302.9926 157.2642,302.4246 C157.6212,301.8556 158.1102,301.4136 158.7312,301.0956 C159.3522,300.7796 160.0502,300.6206 160.8252,300.6206 C161.5562,300.6206 162.2232,300.7656 162.8272,301.0556 C163.4302,301.3466 163.9102,301.7746 164.2672,302.3386 C164.6242,302.9016 164.8022,303.5756 164.8022,304.3596 C164.8022,304.4036 164.7892,304.6366 164.7632,305.0606" id="Fill-73" fill="#FFFFFF"></path>
                                    <path d="M177.4016,301.4262 C177.9256,301.9642 178.1876,302.7742 178.1876,303.8582 L178.1876,307.9802 L175.2016,307.9802 L175.2016,304.3722 C175.2016,303.5452 174.9326,303.1312 174.3956,303.1312 C174.1136,303.1312 173.8866,303.2372 173.7146,303.4482 C173.5436,303.6592 173.4576,303.9942 173.4576,304.4512 L173.4576,307.9802 L170.4716,307.9802 L170.4716,304.3722 C170.4716,303.5452 170.2026,303.1312 169.6656,303.1312 C169.3836,303.1312 169.1566,303.2372 168.9846,303.4482 C168.8126,303.6592 168.7266,303.9942 168.7266,304.4512 L168.7266,307.9802 L165.7406,307.9802 L165.7406,300.7522 L168.5816,300.7522 L168.5816,301.4262 C169.1186,300.8892 169.8016,300.6202 170.6306,300.6202 C171.1136,300.6202 171.5496,300.7102 171.9376,300.8922 C172.3256,301.0722 172.6426,301.3472 172.8896,301.7172 C173.1796,301.3652 173.5316,301.0942 173.9456,300.9052 C174.3596,300.7152 174.8136,300.6202 175.3066,300.6202 C176.1796,300.6202 176.8776,300.8892 177.4016,301.4262" id="Fill-75" fill="#FFFFFF"></path>
                                    <mask id="mask-12" fill="white">
                                        <use xlink:href="#path-11"></use>
                                    </mask>
                                    <g id="Clip-78"></g>
                                    <polygon id="Fill-77" fill="#FFFFFF" mask="url(#mask-12)" points="183.538 307.98 186.657 307.98 186.657 298.731 183.538 298.731"></polygon>
                                    <path d="M193.0251,305.4164 C193.2451,305.1704 193.3561,304.8224 193.3561,304.3724 C193.3561,303.9244 193.2451,303.5734 193.0251,303.3224 C192.8051,303.0714 192.5231,302.9454 192.1791,302.9454 C191.8361,302.9454 191.5541,303.0714 191.3341,303.3224 C191.1141,303.5734 191.0041,303.9244 191.0041,304.3724 C191.0041,304.8224 191.1141,305.1704 191.3341,305.4164 C191.5541,305.6634 191.8361,305.7874 192.1791,305.7874 C192.5231,305.7874 192.8051,305.6634 193.0251,305.4164 M194.6441,301.0754 C195.1771,301.3804 195.6001,301.8184 195.9121,302.3914 C196.2251,302.9644 196.3811,303.6244 196.3811,304.3724 C196.3811,305.1214 196.2251,305.7804 195.9121,306.3484 C195.6001,306.9164 195.1771,307.3534 194.6441,307.6554 C194.1111,307.9604 193.5271,308.1124 192.8931,308.1124 C192.0911,308.1124 191.4791,307.9054 191.0561,307.4914 L191.0561,310.5434 L188.0701,310.5434 L188.0701,300.7524 L190.9111,300.7524 L190.9111,301.3474 C191.3421,300.8624 192.0031,300.6204 192.8931,300.6204 C193.5271,300.6204 194.1111,300.7724 194.6441,301.0754" id="Fill-79" fill="#FFFFFF" mask="url(#mask-12)"></path>
                                    <path d="M198.323,307.9145 C197.724,307.7815 197.24,307.6095 196.869,307.3985 L197.689,305.4305 C198.023,305.6325 198.42,305.7915 198.878,305.9055 C199.336,306.0195 199.781,306.0775 200.212,306.0775 C200.556,306.0775 200.796,306.0495 200.933,305.9915 C201.069,305.9345 201.137,305.8485 201.137,305.7335 C201.137,305.6195 201.052,305.5395 200.88,305.4965 C200.708,305.4525 200.428,305.4085 200.041,305.3635 C199.45,305.2935 198.948,305.2035 198.534,305.0935 C198.12,304.9825 197.757,304.7695 197.445,304.4515 C197.132,304.1355 196.975,303.6825 196.975,303.0915 C196.975,302.6245 197.116,302.2065 197.398,301.8355 C197.68,301.4665 198.1,301.1715 198.66,300.9515 C199.219,300.7305 199.891,300.6205 200.675,300.6205 C201.221,300.6205 201.756,300.6715 202.28,300.7725 C202.804,300.8735 203.252,301.0215 203.621,301.2155 L202.802,303.1845 C202.168,302.8315 201.472,302.6545 200.715,302.6545 C200.063,302.6545 199.737,302.7695 199.737,302.9985 C199.737,303.1135 199.824,303.1945 200.001,303.2435 C200.177,303.2915 200.454,303.3375 200.834,303.3825 C201.424,303.4525 201.924,303.5455 202.333,303.6595 C202.743,303.7735 203.104,303.9895 203.417,304.3075 C203.729,304.6245 203.885,305.0775 203.885,305.6685 C203.885,306.1165 203.745,306.5265 203.463,306.8965 C203.181,307.2675 202.758,307.5615 202.195,307.7815 C201.631,308.0015 200.948,308.1125 200.147,308.1125 C199.53,308.1125 198.922,308.0465 198.323,307.9145" id="Fill-80" fill="#FFFFFF" mask="url(#mask-12)"></path>
                                    <path d="M212.6858,300.7523 L212.6858,307.9803 L209.8448,307.9803 L209.8448,307.2933 C209.5808,307.5653 209.2718,307.7713 208.9198,307.9073 C208.5678,308.0433 208.1928,308.1123 207.7968,308.1123 C206.8808,308.1123 206.1448,307.8333 205.5898,307.2733 C205.0358,306.7133 204.7578,305.8703 204.7578,304.7423 L204.7578,300.7523 L207.7438,300.7523 L207.7438,304.2283 C207.7438,304.7213 207.8238,305.0733 207.9818,305.2843 C208.1408,305.4963 208.3738,305.6023 208.6828,305.6023 C208.9728,305.6023 209.2148,305.4853 209.4088,305.2513 C209.6028,305.0183 209.6998,304.6503 209.6998,304.1483 L209.6998,300.7523 L212.6858,300.7523 Z" id="Fill-81" fill="#FFFFFF" mask="url(#mask-12)"></path>
                                    <path d="M225.6677,301.4262 C226.1917,301.9642 226.4537,302.7742 226.4537,303.8582 L226.4537,307.9802 L223.4677,307.9802 L223.4677,304.3722 C223.4677,303.5452 223.1987,303.1312 222.6617,303.1312 C222.3797,303.1312 222.1527,303.2372 221.9807,303.4482 C221.8097,303.6592 221.7237,303.9942 221.7237,304.4512 L221.7237,307.9802 L218.7377,307.9802 L218.7377,304.3722 C218.7377,303.5452 218.4687,303.1312 217.9317,303.1312 C217.6497,303.1312 217.4227,303.2372 217.2507,303.4482 C217.0797,303.6592 216.9937,303.9942 216.9937,304.4512 L216.9937,307.9802 L214.0067,307.9802 L214.0067,300.7522 L216.8477,300.7522 L216.8477,301.4262 C217.3847,300.8892 218.0677,300.6202 218.8967,300.6202 C219.3797,300.6202 219.8157,300.7102 220.2037,300.8922 C220.5917,301.0722 220.9087,301.3472 221.1557,301.7172 C221.4457,301.3652 221.7977,301.0942 222.2117,300.9052 C222.6267,300.7152 223.0797,300.6202 223.5737,300.6202 C224.4457,300.6202 225.1437,300.8892 225.6677,301.4262" id="Fill-82" fill="#FFFFFF" mask="url(#mask-12)"></path>
                                    <g id="Group-95" mask="url(#mask-12)" fill="#FFFFFF">
                                        <g transform="translate(152.000000, 312.000000)">
                                            <path d="M2.5422,5.5463 C2.9792,5.5463 3.3632,5.4613 3.6942,5.2913 C4.0262,5.1223 4.2812,4.8853 4.4612,4.5783 C4.6412,4.2733 4.7312,3.9193 4.7312,3.5193 C4.7312,3.1183 4.6412,2.7643 4.4612,2.4593 C4.2812,2.1533 4.0262,1.9153 3.6942,1.7463 C3.3632,1.5763 2.9792,1.4913 2.5422,1.4913 L1.0852,1.4913 L1.0852,5.5463 L2.5422,5.5463 Z M0.3142,0.8203 L2.5882,0.8203 C3.1592,0.8203 3.6652,0.9343 4.1072,1.1593 C4.5482,1.3863 4.8922,1.7033 5.1352,2.1123 C5.3802,2.5213 5.5012,2.9893 5.5012,3.5193 C5.5012,4.0483 5.3802,4.5173 5.1352,4.9253 C4.8922,5.3333 4.5482,5.6503 4.1072,5.8773 C3.6652,6.1033 3.1592,6.2163 2.5882,6.2163 L0.3142,6.2163 L0.3142,0.8203 Z" id="Fill-83"></path>
                                            <path d="M9.0281,5.435 C9.2361,5.314 9.3991,5.144 9.5171,4.925 C9.6351,4.707 9.6951,4.456 9.6951,4.174 C9.6951,3.891 9.6351,3.641 9.5171,3.422 C9.3991,3.205 9.2361,3.036 9.0281,2.917 C8.8201,2.799 8.5851,2.741 8.3231,2.741 C8.0611,2.741 7.8251,2.799 7.6181,2.917 C7.4091,3.036 7.2451,3.205 7.1241,3.422 C7.0041,3.641 6.9431,3.891 6.9431,4.174 C6.9431,4.456 7.0041,4.707 7.1241,4.925 C7.2451,5.144 7.4091,5.314 7.6181,5.435 C7.8251,5.555 8.0611,5.616 8.3231,5.616 C8.5851,5.616 8.8201,5.555 9.0281,5.435 M7.2281,5.994 C6.9041,5.813 6.6521,5.565 6.4691,5.249 C6.2871,4.934 6.1951,4.575 6.1951,4.174 C6.1951,3.773 6.2871,3.415 6.4691,3.098 C6.6521,2.783 6.9041,2.537 7.2281,2.359 C7.5521,2.182 7.9171,2.093 8.3231,2.093 C8.7291,2.093 9.0921,2.182 9.4141,2.359 C9.7351,2.537 9.9861,2.783 10.1691,3.098 C10.3511,3.415 10.4431,3.773 10.4431,4.174 C10.4431,4.575 10.3511,4.934 10.1691,5.249 C9.9861,5.565 9.7351,5.813 9.4141,5.994 C9.0921,6.173 8.7291,6.263 8.3231,6.263 C7.9171,6.263 7.5521,6.173 7.2281,5.994" id="Fill-84"></path>
                                            <polygon id="Fill-85" points="11.468 6.216 12.208 6.216 12.208 0.497 11.468 0.497"></polygon>
                                            <path d="M16.0725,5.435 C16.2805,5.314 16.4445,5.144 16.5625,4.925 C16.6805,4.707 16.7395,4.456 16.7395,4.174 C16.7395,3.891 16.6805,3.641 16.5625,3.422 C16.4445,3.205 16.2805,3.036 16.0725,2.917 C15.8645,2.799 15.6295,2.741 15.3675,2.741 C15.1055,2.741 14.8705,2.799 14.6625,2.917 C14.4545,3.036 14.2895,3.205 14.1685,3.422 C14.0485,3.641 13.9885,3.891 13.9885,4.174 C13.9885,4.456 14.0485,4.707 14.1685,4.925 C14.2895,5.144 14.4545,5.314 14.6625,5.435 C14.8705,5.555 15.1055,5.616 15.3675,5.616 C15.6295,5.616 15.8645,5.555 16.0725,5.435 M14.2735,5.994 C13.9495,5.813 13.6965,5.565 13.5135,5.249 C13.3315,4.934 13.2395,4.575 13.2395,4.174 C13.2395,3.773 13.3315,3.415 13.5135,3.098 C13.6965,2.783 13.9495,2.537 14.2735,2.359 C14.5965,2.182 14.9615,2.093 15.3675,2.093 C15.7735,2.093 16.1365,2.182 16.4585,2.359 C16.7795,2.537 17.0305,2.783 17.2135,3.098 C17.3955,3.415 17.4875,3.773 17.4875,4.174 C17.4875,4.575 17.3955,4.934 17.2135,5.249 C17.0305,5.565 16.7795,5.813 16.4585,5.994 C16.1365,6.173 15.7735,6.263 15.3675,6.263 C14.9615,6.263 14.5965,6.173 14.2735,5.994" id="Fill-86"></path>
                                            <path d="M19.7917,2.2777 C20.0427,2.1547 20.3487,2.0927 20.7087,2.0927 L20.7087,2.8097 C20.6677,2.8047 20.6107,2.8017 20.5397,2.8017 C20.1387,2.8017 19.8237,2.9217 19.5947,3.1607 C19.3667,3.3997 19.2517,3.7397 19.2517,4.1807 L19.2517,6.2157 L18.5117,6.2157 L18.5117,2.1317 L19.2217,2.1317 L19.2217,2.8177 C19.3497,2.5817 19.5397,2.4017 19.7917,2.2777" id="Fill-87"></path>
                                            <path d="M24.2497,6.0893 C23.8727,5.9633 23.5757,5.8013 23.3597,5.6003 L23.6457,4.9983 C23.8507,5.1843 24.1137,5.3333 24.4357,5.4493 C24.7557,5.5653 25.0867,5.6233 25.4257,5.6233 C25.8727,5.6233 26.2067,5.5473 26.4277,5.3963 C26.6477,5.2443 26.7587,5.0423 26.7587,4.7903 C26.7587,4.6063 26.6987,4.4543 26.5777,4.3403 C26.4577,4.2243 26.3077,4.1363 26.1307,4.0733 C25.9537,4.0123 25.7037,3.9433 25.3787,3.8653 C24.9737,3.7683 24.6457,3.6703 24.3967,3.5723 C24.1467,3.4753 23.9347,3.3243 23.7567,3.1213 C23.5797,2.9193 23.4907,2.6463 23.4907,2.3013 C23.4907,2.0133 23.5667,1.7533 23.7187,1.5233 C23.8697,1.2913 24.0997,1.1063 24.4087,0.9673 C24.7167,0.8293 25.0997,0.7603 25.5567,0.7603 C25.8747,0.7603 26.1877,0.8003 26.4967,0.8833 C26.8047,0.9653 27.0697,1.0833 27.2907,1.2373 L27.0367,1.8543 C26.8097,1.7103 26.5687,1.6013 26.3117,1.5263 C26.0547,1.4513 25.8027,1.4143 25.5567,1.4143 C25.1197,1.4143 24.7917,1.4943 24.5737,1.6533 C24.3547,1.8133 24.2467,2.0193 24.2467,2.2703 C24.2467,2.4553 24.3077,2.6063 24.4317,2.7213 C24.5547,2.8363 24.7077,2.9263 24.8897,2.9903 C25.0717,3.0553 25.3197,3.1233 25.6337,3.1943 C26.0397,3.2923 26.3657,3.3903 26.6127,3.4873 C26.8587,3.5853 27.0707,3.7353 27.2487,3.9353 C27.4257,4.1363 27.5147,4.4053 27.5147,4.7443 C27.5147,5.0273 27.4377,5.2843 27.2827,5.5193 C27.1287,5.7523 26.8957,5.9383 26.5817,6.0743 C26.2687,6.2103 25.8827,6.2783 25.4257,6.2783 C25.0197,6.2783 24.6277,6.2163 24.2497,6.0893" id="Fill-88"></path>
                                            <path d="M28.531,6.216 L29.271,6.216 L29.271,2.131 L28.531,2.131 L28.531,6.216 Z M28.543,1.206 C28.448,1.115 28.401,1.001 28.401,0.868 C28.401,0.734 28.448,0.62 28.543,0.524 C28.638,0.429 28.758,0.382 28.902,0.382 C29.045,0.382 29.165,0.427 29.26,0.517 C29.355,0.607 29.403,0.718 29.403,0.853 C29.403,0.991 29.355,1.108 29.26,1.203 C29.165,1.298 29.045,1.345 28.902,1.345 C28.758,1.345 28.638,1.299 28.543,1.206 L28.543,1.206 Z" id="Fill-89"></path>
                                            <path d="M32.9787,5.9779 C32.8707,6.0709 32.7377,6.1399 32.5777,6.1889 C32.4187,6.2379 32.2537,6.2629 32.0847,6.2629 C31.6737,6.2629 31.3547,6.1519 31.1287,5.9309 C30.9027,5.7099 30.7897,5.3949 30.7897,4.9829 L30.7897,2.7409 L30.0967,2.7409 L30.0967,2.1309 L30.7897,2.1309 L30.7897,1.2379 L31.5297,1.2379 L31.5297,2.1309 L32.7017,2.1309 L32.7017,2.7409 L31.5297,2.7409 L31.5297,4.9529 C31.5297,5.1729 31.5847,5.3429 31.6957,5.4609 C31.8057,5.5799 31.9637,5.6389 32.1697,5.6389 C32.3957,5.6389 32.5877,5.5749 32.7477,5.4459 L32.9787,5.9779 Z" id="Fill-90"></path>
                                            <path d="M39.2219,4.2504 L38.0579,1.6064 L36.8939,4.2504 L39.2219,4.2504 Z M39.4919,4.8674 L36.6239,4.8674 L36.0309,6.2164 L35.2369,6.2164 L37.6799,0.8204 L38.4439,0.8204 L40.8939,6.2164 L40.0849,6.2164 L39.4919,4.8674 Z" id="Fill-91"></path>
                                            <path d="M47.9197,2.5395 C48.2207,2.8385 48.3707,3.2805 48.3707,3.8655 L48.3707,6.2165 L47.6307,6.2165 L47.6307,3.9505 C47.6307,3.5555 47.5397,3.2575 47.3577,3.0565 C47.1747,2.8555 46.9147,2.7565 46.5747,2.7565 C46.1997,2.7565 45.9017,2.8725 45.6807,3.1065 C45.4597,3.3405 45.3497,3.6755 45.3497,4.1125 L45.3497,6.2165 L44.6097,6.2165 L44.6097,3.9505 C44.6097,3.5555 44.5187,3.2575 44.3357,3.0565 C44.1537,2.8555 43.8927,2.7565 43.5537,2.7565 C43.1787,2.7565 42.8797,2.8725 42.6597,3.1065 C42.4387,3.3405 42.3277,3.6755 42.3277,4.1125 L42.3277,6.2165 L41.5877,6.2165 L41.5877,2.1315 L42.2967,2.1315 L42.2967,2.7405 C42.4457,2.5295 42.6417,2.3695 42.8827,2.2585 C43.1247,2.1485 43.3987,2.0935 43.7077,2.0935 C44.0257,2.0935 44.3087,2.1565 44.5557,2.2855 C44.8017,2.4145 44.9917,2.6015 45.1257,2.8485 C45.2797,2.6125 45.4947,2.4275 45.7697,2.2935 C46.0447,2.1605 46.3547,2.0935 46.6987,2.0935 C47.2117,2.0935 47.6197,2.2415 47.9197,2.5395" id="Fill-92"></path>
                                            <path d="M50.5408,3.0414 C50.3018,3.2574 50.1618,3.5394 50.1208,3.8894 L52.7408,3.8894 C52.6998,3.5454 52.5598,3.2634 52.3208,3.0444 C52.0818,2.8264 51.7848,2.7174 51.4308,2.7174 C51.0768,2.7174 50.7798,2.8244 50.5408,3.0414 M53.4348,4.4214 L50.1208,4.4214 C50.1668,4.7804 50.3248,5.0684 50.5948,5.2874 C50.8648,5.5064 51.1998,5.6154 51.6008,5.6154 C52.0888,5.6154 52.4818,5.4514 52.7798,5.1224 L53.1878,5.6004 C53.0028,5.8154 52.7728,5.9794 52.4988,6.0934 C52.2238,6.2064 51.9158,6.2634 51.5778,6.2634 C51.1458,6.2634 50.7628,6.1744 50.4288,5.9964 C50.0948,5.8194 49.8358,5.5714 49.6538,5.2534 C49.4718,4.9344 49.3808,4.5744 49.3808,4.1744 C49.3808,3.7784 49.4698,3.4214 49.6468,3.1034 C49.8238,2.7844 50.0678,2.5364 50.3788,2.3584 C50.6888,2.1824 51.0408,2.0934 51.4308,2.0934 C51.8208,2.0934 52.1698,2.1824 52.4748,2.3584 C52.7808,2.5364 53.0198,2.7844 53.1918,3.1034 C53.3638,3.4214 53.4498,3.7864 53.4498,4.1964 C53.4498,4.2544 53.4448,4.3284 53.4348,4.4214" id="Fill-93"></path>
                                            <path d="M56.7717,5.9779 C56.6637,6.0709 56.5307,6.1399 56.3707,6.1889 C56.2117,6.2379 56.0467,6.2629 55.8777,6.2629 C55.4667,6.2629 55.1477,6.1519 54.9217,5.9309 C54.6957,5.7099 54.5827,5.3949 54.5827,4.9829 L54.5827,2.7409 L53.8897,2.7409 L53.8897,2.1309 L54.5827,2.1309 L54.5827,1.2379 L55.3227,1.2379 L55.3227,2.1309 L56.4947,2.1309 L56.4947,2.7409 L55.3227,2.7409 L55.3227,4.9529 C55.3227,5.1729 55.3777,5.3429 55.4887,5.4609 C55.5987,5.5799 55.7567,5.6389 55.9627,5.6389 C56.1887,5.6389 56.3807,5.5749 56.5407,5.4459 L56.7717,5.9779 Z" id="Fill-94"></path>
                                        </g>
                                    </g>
                                    <polygon id="Fill-96" fill="#FFFFFF" mask="url(#mask-12)" points="166.563 326.82 193.907 326.82 193.907 325.719 166.563 325.719"></polygon>
                                    <path d="M162.5051,539.933 L123.4211,539.933 C121.9391,539.933 120.7381,538.732 120.7381,537.249 L120.7381,500.307 C120.7381,498.825 121.9391,497.623 123.4221,497.623 L162.5051,497.623 C163.9871,497.623 165.1891,498.825 165.1891,500.307 L165.1891,537.249 C165.1891,538.732 163.9871,539.933 162.5051,539.933" id="Fill-97" fill="#2B7CCF" mask="url(#mask-12)"></path>
                                    <line x1="142.9636" y1="512.6566" x2="142.9636" y2="524.8986" id="Stroke-98" stroke="#ECEBF2" stroke-width="1.249" stroke-linecap="round" stroke-linejoin="round" mask="url(#mask-12)"></line>
                                    <line x1="149.3943" y1="518.7777" x2="136.5323" y2="518.7777" id="Stroke-99" stroke="#ECEBF2" stroke-width="1.249" stroke-linecap="round" stroke-linejoin="round" mask="url(#mask-12)"></line>
                                    <path d="M221.9968,539.933 L182.9128,539.933 C181.4308,539.933 180.2288,538.732 180.2288,537.249 L180.2288,500.307 C180.2288,498.825 181.4308,497.623 182.9128,497.623 L221.9968,497.623 C223.4788,497.623 224.6798,498.825 224.6798,500.307 L224.6798,537.249 C224.6798,538.732 223.4788,539.933 221.9968,539.933" id="Fill-100" fill="#2B7CCF" mask="url(#mask-12)"></path>
                                    <line x1="208.8855" y1="518.7777" x2="196.0235" y2="518.7777" id="Stroke-101" stroke="#ECEBF2" stroke-width="1.249" stroke-linecap="round" stroke-linejoin="round" mask="url(#mask-12)"></line>
                                </g>
                                <text id="Home" stroke="none" font-family="Montserrat-Black, Montserrat" font-size="10.4155" font-weight="700">
                                    <tspan x="17.3022" y="87.0099076" fill="#342F4C">Ho</tspan>
                                    <tspan x="32.737971" y="87.0099076" letter-spacing="0.104155" fill="#342F4C">m</tspan>
                                    <tspan x="43.778401" y="87.0099076" fill="#342F4C">e</tspan>
                                </text>
                                <g id="Group-119" stroke="none" stroke-width="1" fill-rule="evenodd">
                                    <path d="M35.7307,136.3422 L35.9667,136.5212 C36.1197,136.6392 36.3717,136.7802 36.7037,136.7802 C37.3737,136.7802 37.9187,136.2362 37.9187,135.5662 C37.9187,134.8972 37.3737,134.3522 36.7037,134.3522 C36.0337,134.3522 35.4887,134.8972 35.4887,135.5662 C35.4887,135.7362 35.5277,135.9052 35.6057,136.0712 L35.7307,136.3422 Z M29.5307,139.5392 C28.1957,139.5392 27.1097,140.6262 27.1097,141.9612 C27.1097,143.2972 28.1957,144.3832 29.5307,144.3832 C30.6577,144.3832 31.6267,143.6222 31.8887,142.5312 L31.9727,142.1822 L31.9547,141.8152 C31.9287,141.3072 31.7297,140.8082 31.3927,140.4082 L31.1417,140.1122 L30.8507,139.9242 C30.4587,139.6722 30.0017,139.5392 29.5307,139.5392 L29.5307,139.5392 Z M36.5387,142.7852 L36.5107,143.1962 C36.5107,143.8422 37.0557,144.3872 37.7247,144.3872 C38.3947,144.3872 38.9387,143.8422 38.9387,143.1732 C38.9387,142.5032 38.3947,141.9582 37.7247,141.9582 C37.3107,141.9582 36.9287,142.1702 36.7027,142.5272 L36.5387,142.7852 Z M37.7247,145.9332 C36.3957,145.9332 35.2827,144.9892 35.0217,143.7372 L33.1757,143.5452 C32.5577,144.9782 31.1417,145.9302 29.5307,145.9302 C27.3427,145.9302 25.5627,144.1502 25.5627,141.9612 C25.5627,139.7742 27.3427,137.9922 29.5307,137.9922 C30.1077,137.9922 30.6707,138.1152 31.1877,138.3512 L34.0017,136.1252 C33.9617,135.9412 33.9417,135.7542 33.9417,135.5662 C33.9417,134.0432 35.1807,132.8052 36.7037,132.8052 C38.2257,132.8052 39.4647,134.0432 39.4647,135.5662 C39.4647,137.0882 38.2257,138.3272 36.7037,138.3272 C36.3017,138.3272 35.9127,138.2392 35.5517,138.0702 L33.0257,140.0712 C33.1967,140.3852 33.3247,140.7212 33.4047,141.0682 L35.7027,141.3002 C36.2207,140.7372 36.9467,140.4112 37.7247,140.4112 C39.2467,140.4112 40.4857,141.6512 40.4857,143.1732 C40.4857,144.6952 39.2467,145.9332 37.7247,145.9332 L37.7247,145.9332 Z" id="Fill-103" fill="#342F4C"></path>
                                    <path d="M31.6848,221.9613 L31.7498,222.0243 C31.8558,222.1313 31.9768,222.2243 32.1168,222.3083 C32.2618,222.3903 32.4208,222.4573 32.5528,222.4903 C32.6298,222.5123 32.6958,222.5283 32.7648,222.5353 C33.0238,222.5673 33.2668,222.5543 33.4728,222.4963 C33.6598,222.4493 33.7848,222.3983 33.8938,222.3273 L33.9358,222.3033 C34.2108,222.1483 34.4288,221.9323 34.5828,221.6603 C34.6788,221.5083 34.7308,221.3803 34.7738,221.2113 C34.8198,221.0443 34.8398,220.8953 34.8398,220.7373 C34.8398,220.5823 34.8188,220.4203 34.7818,220.2793 C34.7328,220.0963 34.6748,219.9473 34.6028,219.8283 C34.4748,219.6143 34.3168,219.4363 34.1358,219.2993 C34.0658,219.2453 33.9978,219.2043 33.9348,219.1663 C33.7888,219.0743 33.6648,219.0233 33.5168,218.9863 C33.4338,218.9633 33.3978,218.9573 33.3618,218.9503 C33.3748,218.9533 33.3148,218.9423 33.2638,218.9313 C33.0498,218.9053 32.7658,218.9183 32.5788,218.9723 C32.4108,219.0183 32.2598,219.0813 32.1208,219.1633 C31.8408,219.3243 31.6148,219.5493 31.4418,219.8323 C31.3748,219.9463 31.3168,220.0923 31.2738,220.2613 C31.2288,220.4233 31.2078,220.5783 31.2078,220.7373 C31.2078,220.8923 31.2288,221.0413 31.2678,221.1813 C31.3048,221.3313 31.3488,221.4483 31.4058,221.5563 L31.5598,221.7103 L31.5628,221.8083 C31.6018,221.8613 31.6428,221.9123 31.6848,221.9613 L31.6848,221.9613 Z M33.0348,224.1013 C32.8868,224.1013 32.7378,224.0913 32.5888,224.0723 C32.4528,224.0593 32.3038,224.0263 32.1548,223.9853 C31.8998,223.9203 31.6218,223.8043 31.3398,223.6443 C31.1838,223.5523 31.0408,223.4523 30.9088,223.3463 L30.8628,223.3403 L30.6348,223.1033 C30.4518,222.9123 30.2848,222.6953 30.1388,222.4573 L30.0248,222.2543 C29.9148,222.0413 29.8318,221.8173 29.7728,221.5753 C29.7018,221.3283 29.6618,221.0353 29.6618,220.7373 C29.6618,220.4383 29.7018,220.1443 29.7798,219.8623 C29.8548,219.5653 29.9698,219.2823 30.1158,219.0363 C30.4278,218.5223 30.8398,218.1163 31.3418,217.8273 C31.5948,217.6783 31.8728,217.5613 32.1638,217.4823 C32.5338,217.3753 33.0098,217.3453 33.4468,217.3943 C33.5038,217.4003 33.5588,217.4113 33.6128,217.4243 C33.7528,217.4513 33.8358,217.4703 33.9188,217.4943 C34.1858,217.5573 34.4708,217.6773 34.7448,217.8493 C34.8448,217.9083 34.9668,217.9873 35.0748,218.0703 C35.4068,218.3193 35.6978,218.6473 35.9308,219.0343 C36.0768,219.2803 36.1898,219.5573 36.2768,219.8823 C36.3488,220.1533 36.3868,220.4483 36.3868,220.7373 C36.3868,221.0313 36.3468,221.3223 36.2688,221.6053 C36.1918,221.9143 36.0728,222.1983 35.9088,222.4563 C35.6358,222.9393 35.2268,223.3473 34.7128,223.6403 C34.4628,223.7983 34.1848,223.9133 33.8658,223.9913 C33.6128,224.0633 33.3278,224.1013 33.0348,224.1013 L33.0348,224.1013 Z M32.4668,226.9203 L33.5808,226.9203 L33.9238,224.6643 L34.3518,224.5063 C34.4768,224.4603 34.5948,224.4163 34.7058,224.3573 L35.1348,224.1293 L36.9978,225.5013 L37.7958,224.7153 L36.4188,222.8663 L36.6298,222.4403 C36.6918,222.3173 36.7398,222.1933 36.7878,222.0623 L36.9458,221.6313 L39.2028,221.2973 L39.2028,220.1703 L36.9228,219.8423 L36.7758,219.3793 C36.7348,219.2493 36.6798,219.1273 36.6248,219.0053 L36.4418,218.5933 L37.7978,216.7613 L36.9938,215.9703 L35.1568,217.3203 L34.7408,217.1273 C34.6298,217.0743 34.5108,217.0213 34.3868,216.9823 L33.9278,216.8363 L33.5808,214.5553 L32.4668,214.5553 L32.1258,216.8023 L31.7088,216.9653 C31.5788,217.0163 31.4508,217.0653 31.3238,217.1273 L30.8988,217.3373 L29.0578,215.9683 L28.2538,216.7663 L29.6078,218.5933 L29.4228,219.0063 C29.3688,219.1283 29.3128,219.2503 29.2718,219.3793 L29.1248,219.8423 L26.8458,220.1703 L26.8458,221.2973 L29.1018,221.6313 L29.2608,222.0623 C29.3068,222.1883 29.3498,222.3133 29.4088,222.4243 L29.6378,222.8563 L28.2548,224.7113 L29.0538,225.5033 L30.8838,224.1503 L31.2948,224.3343 C31.4198,224.3903 31.5448,224.4463 31.6698,224.4873 L32.1218,224.6363 L32.4668,226.9203 Z M33.7418,228.4673 L32.3068,228.4673 C31.6368,228.4673 31.0588,227.9693 30.9618,227.3083 L30.7858,226.1463 L29.8488,226.8393 C29.2688,227.2433 28.5618,227.1643 28.0998,226.7343 L27.0538,225.6973 C26.5738,225.2163 26.5178,224.4503 26.9208,223.9133 L27.6198,222.9763 L26.4648,222.8043 C25.8018,222.7093 25.2988,222.1313 25.2988,221.4583 L25.2988,220.0083 C25.2988,219.3363 25.8018,218.7583 26.4688,218.6623 L27.6118,218.4973 L26.9098,217.5513 C26.5138,216.9943 26.5768,216.2543 27.0518,215.7793 L28.0808,214.7583 C28.5688,214.2913 29.3038,214.2373 29.8388,214.6213 L30.7858,215.3253 L30.9618,214.1633 C31.0578,213.4963 31.6228,213.0083 32.3068,213.0083 L33.7418,213.0083 C34.4248,213.0083 34.9908,213.4963 35.0868,214.1703 L35.2628,215.3223 L36.2098,214.6263 C36.7608,214.2323 37.4968,214.2903 37.9678,214.7593 L39.0008,215.7753 C39.4848,216.2783 39.5348,217.0203 39.1358,217.5543 L38.4358,218.4973 L39.5798,218.6623 C40.2468,218.7583 40.7488,219.3363 40.7488,220.0083 L40.7488,221.4583 C40.7488,222.1313 40.2468,222.7093 39.5798,222.8053 L38.4288,222.9763 L39.1288,223.9153 C39.5388,224.4363 39.4918,225.2083 39.0058,225.6943 L37.9648,226.7193 C37.5198,227.1643 36.7218,227.2263 36.2038,226.8363 L35.2638,226.1453 L35.0858,227.3123 C34.9898,227.9693 34.4108,228.4673 33.7418,228.4673 L33.7418,228.4673 Z" id="Fill-105" fill="#342F4C"></path>
                                    <path d="M31.3938,181.1049 L34.6508,181.1049 L34.2668,179.0229 C34.5198,178.7299 34.6638,178.3529 34.6638,177.9549 C34.6638,177.0519 33.9278,176.3179 33.0238,176.3179 C32.1208,176.3179 31.3848,177.0519 31.3848,177.9549 C31.3848,178.3519 31.5268,178.7279 31.7788,179.0209 L31.3938,181.1049 Z" id="Fill-107" fill="#342F4C"></path>
                                    <mask id="mask-14" fill="white">
                                        <use xlink:href="#path-13"></use>
                                    </mask>
                                    <g id="Clip-110"></g>
                                    <path d="M28.614,182.176 L37.433,182.176 L37.433,175.452 L28.614,175.452 L28.614,182.176 Z M33.023,171.851 C34.184,171.851 35.135,172.762 35.201,173.907 L30.845,173.907 C30.911,172.762 31.863,171.851 33.023,171.851 L33.023,171.851 Z M37.818,173.933 C37.765,171.334 35.635,169.238 33.023,169.238 C30.412,169.238 28.281,171.335 28.229,173.934 C27.568,174.065 27.068,174.648 27.068,175.345 L27.068,182.282 C27.068,183.077 27.715,183.723 28.51,183.723 L37.538,183.723 C38.333,183.723 38.98,183.077 38.98,182.282 L38.98,175.345 C38.98,174.647 38.479,174.064 37.818,173.933 L37.818,173.933 Z" id="Fill-109" fill="#342F4C" mask="url(#mask-14)"></path>
                                    <path d="M36.821,113.4223 C36.821,114.5853 35.878,115.5283 34.715,115.5283 C33.552,115.5283 32.609,114.5853 32.609,113.4223 C32.609,112.2593 33.552,111.3173 34.715,111.3173 C35.878,111.3173 36.821,112.2593 36.821,113.4223" id="Fill-111" fill="#4655C4" mask="url(#mask-14)"></path>
                                    <path d="M35.8044,327.3148 L35.8044,330.3568 C35.8044,331.3458 35.0024,332.1488 34.0124,332.1488 L28.5934,332.1488 C27.6034,332.1488 26.8014,331.3458 26.8014,330.3568 L26.8014,320.2268 C26.8014,319.2368 27.6034,318.4348 28.5934,318.4348 L34.0124,318.4348 C35.0024,318.4348 35.8044,319.2368 35.8044,320.2268 L35.8044,322.9178" id="Stroke-112" stroke="#342F4C" stroke-width="1.349" mask="url(#mask-14)"></path>
                                    <line x1="32.1086" y1="325.2914" x2="39.2466" y2="325.2914" id="Stroke-113" stroke="#342F4C" stroke-width="1.349" mask="url(#mask-14)"></line>
                                    <polyline id="Stroke-114" stroke="#342F4C" stroke-width="1.349" mask="url(#mask-14)" points="37.2229 323.1 39.2459 325.291 37.2229 327.484"></polyline>
                                    <path d="M37.345,59.3041 L30.433,59.3041 L30.433,54.9061 C30.433,52.9971 31.98,51.4491 33.889,51.4491 C35.798,51.4491 37.345,52.9971 37.345,54.9061 L37.345,59.3041 Z" id="Stroke-115" stroke="#342F4C" stroke-width="1.349" mask="url(#mask-14)"></path>
                                    <path d="M37.5017,61.6283 L30.2757,61.6283 C29.6337,61.6283 29.1137,61.1073 29.1137,60.4663 C29.1137,59.8243 29.6337,59.3043 30.2757,59.3043 L37.5017,59.3043 C38.1437,59.3043 38.6647,59.8243 38.6647,60.4663 C38.6647,61.1073 38.1437,61.6283 37.5017,61.6283 Z" id="Stroke-116" stroke="#342F4C" stroke-width="1.349" mask="url(#mask-14)"></path>
                                    <path d="M33.8889,63.1127 L33.8889,63.1127 C33.4469,63.1127 33.0879,62.7547 33.0879,62.3117 L33.0879,61.6287 L34.6899,61.6287 L34.6899,62.3117 C34.6899,62.7547 34.3309,63.1127 33.8889,63.1127 Z" id="Stroke-117" stroke="#342F4C" stroke-width="1.349" mask="url(#mask-14)"></path>
                                    <path d="M35.6745,54.6742 C35.6745,55.6592 34.8755,56.4592 33.8885,56.4592 C32.9025,56.4592 32.1035,55.6592 32.1035,54.6742 C32.1035,53.6882 32.9025,52.8882 33.8885,52.8882 C34.8755,52.8882 35.6745,53.6882 35.6745,54.6742" id="Fill-118" fill="#FF6F43" mask="url(#mask-14)"></path>
                                </g>
                            </g>
                        </g>
                    </g>
                </g>
            </g>
        </g>
    </g>
</svg>