<svg width="378" height="739" viewBox="0 0 378 739" fill="none" xmlns="http://www.w3.org/2000/svg">
<g id="Mobile 03">
<g id="img">
<rect id="Mask" width="375" height="739" rx="58" fill="url(#paint0_linear)"/>
<mask id="mask0" mask-type="alpha" maskUnits="userSpaceOnUse" x="0" y="0" width="375" height="739">
<rect id="Mask_2" width="375" height="739" rx="58" fill="white"/>
</mask>
<g mask="url(#mask0)">
<g id="img_2">
<g id="Group 3">
<mask id="mask1" mask-type="alpha" maskUnits="userSpaceOnUse" x="0" y="0" width="378" height="739">
<path id="Clip 2" fill-rule="evenodd" clip-rule="evenodd" d="M0.000396729 0H377V739H0.000396729V0Z" fill="white"/>
</mask>
<g mask="url(#mask1)">
<path id="Fill 1" fill-rule="evenodd" clip-rule="evenodd" d="M362.136 739H14.8634C6.6544 739 0.000396729 732.346 0.000396729 724.137V14.8629C0.000396729 6.65391 6.6544 -9.15527e-05 14.8634 -9.15527e-05H362.136C370.345 -9.15527e-05 377 6.65391 377 14.8629V724.137C377 732.346 370.345 739 362.136 739Z" fill="#ECEBF2"/>
</g>
</g>
<path id="Fill 4" fill-rule="evenodd" clip-rule="evenodd" d="M366.709 391.853H11.0417C5.14969 391.853 0.374695 387.078 0.374695 381.187V10.6724C0.374695 4.78241 5.1497 0.00640869 11.0407 0.00640869H366.709C372.6 0.00640869 377.375 4.78241 377.375 10.6734V381.187C377.375 387.078 372.6 391.853 366.709 391.853Z" fill="url(#paint1_linear)"/>
<path id="Fill 6" fill-rule="evenodd" clip-rule="evenodd" d="M139.308 87.0302C137.833 86.2972 136.679 85.2722 135.843 83.9572C135.006 82.6402 134.588 81.1472 134.588 79.4762C134.588 77.8052 135.006 76.3122 135.843 74.9962C136.679 73.6792 137.833 72.6552 139.308 71.9222C140.782 71.1892 142.437 70.8222 144.276 70.8222C145.965 70.8222 147.471 71.1062 148.796 71.6742C150.121 72.2412 151.214 73.0612 152.075 74.1332L148.374 77.2772C147.297 75.9852 146.031 75.3392 144.573 75.3392C143.347 75.3392 142.363 75.7142 141.618 76.4622C140.872 77.2112 140.499 78.2162 140.499 79.4762C140.499 80.7372 140.872 81.7422 141.618 82.4902C142.363 83.2392 143.347 83.6142 144.573 83.6142C146.031 83.6142 147.297 82.9682 148.374 81.6752L152.075 84.8192C151.214 85.8912 150.121 86.7112 148.796 87.2782C147.471 87.8452 145.965 88.1302 144.276 88.1302C142.437 88.1302 140.782 87.7622 139.308 87.0302Z" fill="white"/>
<path id="Fill 8" fill-rule="evenodd" clip-rule="evenodd" d="M161.985 83.1522C162.4 82.7032 162.607 82.0772 162.607 81.2722C162.607 80.4682 162.4 79.8462 161.985 79.4052C161.571 78.9652 161.041 78.7432 160.395 78.7432C159.749 78.7432 159.219 78.9652 158.806 79.4052C158.391 79.8462 158.185 80.4682 158.185 81.2722C158.185 82.0772 158.391 82.7032 158.806 83.1522C159.219 83.6012 159.749 83.8262 160.395 83.8262C161.041 83.8262 161.571 83.6012 161.985 83.1522ZM156.334 87.1252C155.133 86.5492 154.194 85.7532 153.515 84.7372C152.837 83.7192 152.497 82.5652 152.497 81.2722C152.497 79.9802 152.837 78.8262 153.515 77.8092C154.194 76.7932 155.133 76.0012 156.334 75.4332C157.534 74.8662 158.889 74.5822 160.395 74.5822C161.919 74.5822 163.28 74.8662 164.482 75.4332C165.682 76.0012 166.618 76.7932 167.289 77.8092C167.959 78.8262 168.295 79.9802 168.295 81.2722C168.295 82.5652 167.959 83.7192 167.289 84.7372C166.618 85.7532 165.682 86.5492 164.482 87.1252C163.28 87.7002 161.919 87.9882 160.395 87.9882C158.889 87.9882 157.534 87.7002 156.334 87.1252Z" fill="white"/>
<path id="Fill 10" fill-rule="evenodd" clip-rule="evenodd" d="M183.533 76.0243C184.552 76.9863 185.061 78.4353 185.061 80.3753V87.7513H179.448V81.2963C179.448 79.8153 178.892 79.0743 177.783 79.0743C177.153 79.0743 176.644 79.2833 176.256 79.7013C175.866 80.1193 175.672 80.7763 175.672 81.6743V87.7513H170.058V74.8183H175.399V76.0943C175.928 75.5903 176.54 75.2123 177.236 74.9613C177.932 74.7083 178.686 74.5823 179.497 74.5823C181.169 74.5823 182.514 75.0633 183.533 76.0243Z" fill="white"/>
<path id="Fill 12" fill-rule="evenodd" clip-rule="evenodd" d="M197.505 87.3016C196.661 87.7586 195.509 87.9886 194.053 87.9886C192.148 87.9886 190.683 87.5506 189.655 86.6756C188.629 85.8006 188.116 84.4886 188.116 82.7396V79.4286H186.253V75.5286H188.116V71.9096H193.73V75.5286H196.512V79.4286H193.73V82.6916C193.73 83.0856 193.838 83.3936 194.053 83.6136C194.268 83.8346 194.549 83.9446 194.897 83.9446C195.377 83.9446 195.8 83.8256 196.165 83.5896L197.505 87.3016Z" fill="white"/>
<path id="Fill 14" fill-rule="evenodd" clip-rule="evenodd" d="M208.657 74.5819V79.3109C208.21 79.2479 207.796 79.2159 207.415 79.2159C205.494 79.2159 204.534 80.1459 204.534 82.0059V87.7509H198.92V74.8179H204.261V76.2139C205.254 75.1259 206.72 74.5819 208.657 74.5819Z" fill="white"/>
<path id="Fill 16" fill-rule="evenodd" clip-rule="evenodd" d="M218.891 83.1522C219.305 82.7032 219.513 82.0772 219.513 81.2722C219.513 80.4682 219.305 79.8462 218.891 79.4052C218.477 78.9652 217.947 78.7432 217.301 78.7432C216.655 78.7432 216.125 78.9652 215.712 79.4052C215.297 79.8462 215.091 80.4682 215.091 81.2722C215.091 82.0772 215.297 82.7032 215.712 83.1522C216.125 83.6012 216.655 83.8262 217.301 83.8262C217.947 83.8262 218.477 83.6012 218.891 83.1522ZM213.24 87.1252C212.039 86.5492 211.1 85.7532 210.421 84.7372C209.742 83.7192 209.403 82.5652 209.403 81.2722C209.403 79.9802 209.742 78.8262 210.421 77.8092C211.1 76.7932 212.039 76.0012 213.24 75.4332C214.44 74.8662 215.795 74.5822 217.301 74.5822C218.825 74.5822 220.186 74.8662 221.388 75.4332C222.587 76.0012 223.524 76.7932 224.195 77.8092C224.865 78.8262 225.201 79.9802 225.201 81.2722C225.201 82.5652 224.865 83.7192 224.195 84.7372C223.524 85.7532 222.587 86.5492 221.388 87.1252C220.186 87.7002 218.825 87.9882 217.301 87.9882C215.795 87.9882 214.44 87.7002 213.24 87.1252Z" fill="white"/>
<mask id="mask2" mask-type="alpha" maskUnits="userSpaceOnUse" x="0" y="0" width="378" height="739">
<path id="Clip 19" fill-rule="evenodd" clip-rule="evenodd" d="M0 739H377.375V0H0V739Z" fill="white"/>
</mask>
<g mask="url(#mask2)">
<path id="Fill 18" fill-rule="evenodd" clip-rule="evenodd" d="M226.964 87.751H232.578V70.208H226.964V87.751Z" fill="white"/>
<path id="Fill 20" fill-rule="evenodd" clip-rule="evenodd" d="M236.948 87.6327C235.822 87.3967 234.912 87.0887 234.216 86.7107L235.756 83.1877C236.386 83.5507 237.131 83.8347 237.991 84.0387C238.853 84.2437 239.689 84.3467 240.5 84.3467C241.146 84.3467 241.597 84.2957 241.855 84.1937C242.111 84.0907 242.239 83.9367 242.239 83.7317C242.239 83.5277 242.078 83.3857 241.755 83.3067C241.432 83.2277 240.906 83.1497 240.177 83.0707C239.068 82.9447 238.124 82.7817 237.346 82.5847C236.567 82.3887 235.884 82.0057 235.297 81.4387C234.709 80.8707 234.415 80.0597 234.415 79.0037C234.415 78.1677 234.68 77.4187 235.209 76.7567C235.74 76.0947 236.53 75.5677 237.581 75.1727C238.634 74.7787 239.896 74.5817 241.369 74.5817C242.396 74.5817 243.403 74.6727 244.388 74.8547C245.373 75.0357 246.214 75.2997 246.909 75.6467L245.369 79.1687C244.177 78.5387 242.869 78.2237 241.445 78.2237C240.219 78.2237 239.606 78.4287 239.606 78.8377C239.606 79.0427 239.772 79.1887 240.103 79.2757C240.434 79.3617 240.956 79.4447 241.668 79.5237C242.778 79.6507 243.718 79.8157 244.488 80.0197C245.257 80.2257 245.936 80.6117 246.524 81.1787C247.112 81.7457 247.406 82.5577 247.406 83.6137C247.406 84.4167 247.141 85.1507 246.611 85.8127C246.08 86.4747 245.286 87.0027 244.227 87.3967C243.166 87.7897 241.883 87.9877 240.376 87.9877C239.218 87.9877 238.074 87.8687 236.948 87.6327Z" fill="white"/>
<g id="Group 33">
<path id="Fill 21" fill-rule="evenodd" clip-rule="evenodd" d="M142.561 104.869C143.382 104.869 144.104 104.718 144.728 104.414C145.35 104.11 145.831 103.685 146.169 103.138C146.507 102.592 146.676 101.959 146.676 101.241C146.676 100.524 146.507 99.892 146.169 99.346C145.831 98.799 145.35 98.373 144.728 98.069C144.104 97.766 143.382 97.614 142.561 97.614H139.823V104.869H142.561ZM138.374 96.415H142.648C143.72 96.415 144.672 96.617 145.503 97.021C146.333 97.426 146.978 97.994 147.436 98.725C147.896 99.456 148.125 100.295 148.125 101.241C148.125 102.189 147.896 103.027 147.436 103.759C146.978 104.49 146.333 105.057 145.503 105.463C144.672 105.866 143.72 106.069 142.648 106.069H138.374V96.415Z" fill="white"/>
<path id="Fill 22" fill-rule="evenodd" clip-rule="evenodd" d="M154.755 104.669C155.146 104.453 155.453 104.15 155.675 103.759C155.898 103.368 156.008 102.92 156.008 102.414C156.008 101.909 155.898 101.46 155.675 101.069C155.453 100.679 155.146 100.378 154.755 100.166C154.363 99.9538 153.921 99.8488 153.429 99.8488C152.936 99.8488 152.495 99.9538 152.104 100.166C151.712 100.378 151.403 100.679 151.176 101.069C150.949 101.46 150.836 101.909 150.836 102.414C150.836 102.92 150.949 103.368 151.176 103.759C151.403 104.15 151.712 104.453 152.104 104.669C152.495 104.885 152.936 104.993 153.429 104.993C153.921 104.993 154.363 104.885 154.755 104.669ZM151.372 105.669C150.763 105.348 150.287 104.903 149.944 104.339C149.602 103.773 149.43 103.132 149.43 102.414C149.43 101.697 149.602 101.056 149.944 100.49C150.287 99.9248 150.763 99.4828 151.372 99.1658C151.98 98.8488 152.666 98.6898 153.429 98.6898C154.192 98.6898 154.875 98.8488 155.48 99.1658C156.083 99.4828 156.556 99.9248 156.899 100.49C157.242 101.056 157.414 101.697 157.414 102.414C157.414 103.132 157.242 103.773 156.899 104.339C156.556 104.903 156.083 105.348 155.48 105.669C154.875 105.991 154.192 106.152 153.429 106.152C152.666 106.152 151.98 105.991 151.372 105.669Z" fill="white"/>
<path id="Fill 23" fill-rule="evenodd" clip-rule="evenodd" d="M159.341 106.069H160.732V95.836H159.341V106.069Z" fill="white"/>
<path id="Fill 24" fill-rule="evenodd" clip-rule="evenodd" d="M167.998 104.669C168.39 104.453 168.696 104.15 168.918 103.759C169.141 103.368 169.252 102.92 169.252 102.414C169.252 101.909 169.141 101.46 168.918 101.069C168.696 100.679 168.39 100.378 167.998 100.166C167.607 99.9538 167.165 99.8488 166.672 99.8488C166.179 99.8488 165.738 99.9538 165.347 100.166C164.956 100.378 164.646 100.679 164.419 101.069C164.192 101.46 164.079 101.909 164.079 102.414C164.079 102.92 164.192 103.368 164.419 103.759C164.646 104.15 164.956 104.453 165.347 104.669C165.738 104.885 166.179 104.993 166.672 104.993C167.165 104.993 167.607 104.885 167.998 104.669ZM164.615 105.669C164.006 105.348 163.53 104.903 163.187 104.339C162.845 103.773 162.674 103.132 162.674 102.414C162.674 101.697 162.845 101.056 163.187 100.49C163.53 99.9248 164.006 99.4828 164.615 99.1658C165.223 98.8488 165.91 98.6898 166.672 98.6898C167.436 98.6898 168.119 98.8488 168.723 99.1658C169.326 99.4828 169.8 99.9248 170.142 100.49C170.485 101.056 170.658 101.697 170.658 102.414C170.658 103.132 170.485 103.773 170.142 104.339C169.8 104.903 169.326 105.348 168.723 105.669C168.119 105.991 167.436 106.152 166.672 106.152C165.91 106.152 165.223 105.991 164.615 105.669Z" fill="white"/>
<path id="Fill 25" fill-rule="evenodd" clip-rule="evenodd" d="M174.989 99.0214C175.462 98.8004 176.038 98.6904 176.714 98.6904V99.9724C176.636 99.9634 176.53 99.9594 176.394 99.9594C175.642 99.9594 175.049 100.172 174.619 100.6C174.19 101.028 173.975 101.637 173.975 102.427V106.069H172.584V98.7594H173.917V99.9874C174.159 99.5644 174.516 99.2424 174.989 99.0214Z" fill="white"/>
<path id="Fill 26" fill-rule="evenodd" clip-rule="evenodd" d="M183.372 105.842C182.661 105.616 182.104 105.324 181.698 104.966L182.234 103.89C182.621 104.221 183.115 104.49 183.719 104.696C184.322 104.904 184.944 105.007 185.581 105.007C186.421 105.007 187.049 104.871 187.464 104.601C187.88 104.329 188.087 103.968 188.087 103.518C188.087 103.187 187.974 102.918 187.747 102.711C187.52 102.504 187.24 102.346 186.906 102.236C186.574 102.125 186.103 102.001 185.494 101.863C184.731 101.688 184.115 101.513 183.646 101.339C183.179 101.164 182.778 100.896 182.444 100.531C182.111 100.169 181.944 99.6787 181.944 99.0627C181.944 98.5477 182.087 98.0837 182.372 97.6697C182.656 97.2557 183.089 96.9247 183.668 96.6767C184.248 96.4287 184.967 96.3047 185.828 96.3047C186.426 96.3047 187.015 96.3777 187.595 96.5257C188.175 96.6717 188.672 96.8837 189.088 97.1587L188.609 98.2627C188.184 98.0057 187.731 97.8107 187.248 97.6767C186.764 97.5427 186.291 97.4767 185.828 97.4767C185.007 97.4767 184.391 97.6187 183.979 97.9047C183.57 98.1897 183.364 98.5577 183.364 99.0077C183.364 99.3387 183.48 99.6077 183.712 99.8147C183.944 100.022 184.231 100.182 184.574 100.297C184.916 100.412 185.383 100.534 185.972 100.662C186.735 100.838 187.349 101.013 187.813 101.187C188.276 101.362 188.674 101.628 189.008 101.987C189.341 102.346 189.508 102.828 189.508 103.435C189.508 103.941 189.363 104.403 189.073 104.821C188.783 105.239 188.343 105.571 187.755 105.814C187.166 106.058 186.441 106.18 185.581 106.18C184.818 106.18 184.081 106.067 183.372 105.842Z" fill="white"/>
<path id="Fill 27" fill-rule="evenodd" clip-rule="evenodd" d="M191.421 106.07H192.812V98.76H191.421V106.07ZM191.443 97.104C191.263 96.939 191.174 96.736 191.174 96.498C191.174 96.259 191.263 96.054 191.443 95.884C191.621 95.714 191.845 95.629 192.116 95.629C192.386 95.629 192.611 95.709 192.79 95.87C192.968 96.031 193.058 96.231 193.058 96.47C193.058 96.718 192.968 96.928 192.79 97.098C192.611 97.267 192.386 97.352 192.116 97.352C191.845 97.352 191.621 97.269 191.443 97.104Z" fill="white"/>
<path id="Fill 28" fill-rule="evenodd" clip-rule="evenodd" d="M199.781 105.641C199.578 105.807 199.327 105.933 199.029 106.02C198.728 106.108 198.419 106.152 198.101 106.152C197.327 106.152 196.729 105.953 196.304 105.558C195.879 105.163 195.666 104.597 195.666 103.862V99.8485H194.363V98.7595H195.666V97.1595H197.058V98.7595H199.26V99.8485H197.058V103.806C197.058 104.203 197.161 104.505 197.369 104.717C197.576 104.929 197.874 105.035 198.26 105.035C198.684 105.035 199.047 104.919 199.347 104.689L199.781 105.641Z" fill="white"/>
<path id="Fill 29" fill-rule="evenodd" clip-rule="evenodd" d="M211.518 102.553L209.33 97.8216L207.142 102.553H211.518ZM212.025 103.656H206.635L205.519 106.07H204.026L208.62 96.4146H210.055L214.663 106.07H213.141L212.025 103.656Z" fill="white"/>
<path id="Fill 30" fill-rule="evenodd" clip-rule="evenodd" d="M227.869 99.4901C228.434 100.023 228.717 100.814 228.717 101.863V106.069H227.326V102.014C227.326 101.305 227.155 100.773 226.812 100.414C226.468 100.055 225.978 99.8771 225.341 99.8771C224.636 99.8771 224.075 100.086 223.661 100.504C223.245 100.923 223.036 101.522 223.036 102.303V106.069H221.646V102.014C221.646 101.305 221.475 100.773 221.132 100.414C220.788 100.055 220.299 99.8771 219.661 99.8771C218.955 99.8771 218.395 100.086 217.981 100.504C217.565 100.923 217.357 101.522 217.357 102.303V106.069H215.966V98.7601H217.299V99.8481C217.579 99.4711 217.946 99.1841 218.4 98.9871C218.855 98.7901 219.371 98.6901 219.952 98.6901C220.55 98.6901 221.081 98.8051 221.544 99.0351C222.009 99.2641 222.365 99.6001 222.617 100.042C222.907 99.6191 223.31 99.2881 223.827 99.0491C224.344 98.8101 224.926 98.6901 225.573 98.6901C226.539 98.6901 227.304 98.9571 227.869 99.4901Z" fill="white"/>
<path id="Fill 31" fill-rule="evenodd" clip-rule="evenodd" d="M232.795 100.387C232.346 100.774 232.083 101.279 232.005 101.904H236.932C236.854 101.288 236.591 100.785 236.142 100.394C235.693 100.003 235.135 99.8076 234.469 99.8076C233.802 99.8076 233.244 99.9996 232.795 100.387ZM238.236 102.856H232.005C232.092 103.499 232.39 104.017 232.897 104.408C233.404 104.798 234.034 104.993 234.788 104.993C235.706 104.993 236.444 104.699 237.004 104.111L237.772 104.966C237.425 105.352 236.992 105.647 236.476 105.848C235.959 106.051 235.381 106.153 234.745 106.153C233.933 106.153 233.213 105.993 232.586 105.676C231.957 105.359 231.472 104.915 231.129 104.345C230.786 103.776 230.615 103.132 230.615 102.414C230.615 101.706 230.782 101.068 231.114 100.497C231.447 99.9266 231.906 99.4836 232.491 99.1656C233.075 98.8486 233.735 98.6906 234.469 98.6906C235.203 98.6906 235.858 98.8486 236.433 99.1656C237.007 99.4836 237.456 99.9266 237.779 100.497C238.104 101.068 238.265 101.72 238.265 102.455C238.265 102.557 238.255 102.691 238.236 102.856Z" fill="white"/>
<path id="Fill 32" fill-rule="evenodd" clip-rule="evenodd" d="M244.509 105.641C244.306 105.807 244.055 105.933 243.756 106.02C243.456 106.108 243.147 106.152 242.829 106.152C242.055 106.152 241.457 105.953 241.032 105.558C240.607 105.163 240.394 104.597 240.394 103.862V99.8485H239.091V98.7595H240.394V97.1595H241.786V98.7595H243.988V99.8485H241.786V103.806C241.786 104.203 241.889 104.505 242.097 104.717C242.304 104.929 242.602 105.035 242.988 105.035C243.412 105.035 243.775 104.919 244.075 104.689L244.509 105.641Z" fill="white"/>
</g>
<path id="Fill 34" fill-rule="evenodd" clip-rule="evenodd" d="M259.943 345.777H121.781C114.369 345.777 108.36 339.768 108.36 332.356V308.422C108.36 301.008 114.369 295 121.781 295H259.943C267.356 295 273.365 301.008 273.365 308.422V332.356C273.365 339.768 267.356 345.777 259.943 345.777Z" fill="url(#paint2_linear)"/>
<path id="Fill 35" fill-rule="evenodd" clip-rule="evenodd" d="M148.345 323.587V325.38H140.492V315.726H148.157V317.52H142.825V319.615H147.533V321.353H142.825V323.587H148.345Z" fill="#342F4C"/>
<path id="Fill 36" fill-rule="evenodd" clip-rule="evenodd" d="M155.156 323.167C155.532 322.795 155.721 322.296 155.721 321.67C155.721 321.046 155.532 320.547 155.156 320.173C154.779 319.801 154.305 319.615 153.736 319.615C153.156 319.615 152.677 319.801 152.301 320.173C151.925 320.547 151.736 321.046 151.736 321.67C151.736 322.296 151.925 322.795 152.301 323.167C152.677 323.539 153.156 323.726 153.736 323.726C154.305 323.726 154.779 323.539 155.156 323.167ZM157.938 315.146V325.38H155.779V324.524C155.218 325.168 154.407 325.49 153.344 325.49C152.61 325.49 151.946 325.334 151.352 325.021C150.758 324.708 150.292 324.264 149.954 323.684C149.615 323.104 149.448 322.434 149.448 321.67C149.448 320.907 149.615 320.236 149.954 319.656C150.292 319.078 150.758 318.632 151.352 318.318C151.946 318.006 152.61 317.85 153.344 317.85C154.339 317.85 155.117 318.148 155.677 318.746V315.146H157.938Z" fill="#342F4C"/>
<path id="Fill 37" fill-rule="evenodd" clip-rule="evenodd" d="M160.024 325.38H162.285V317.96H160.024V325.38ZM160.139 316.581C159.879 316.35 159.748 316.066 159.748 315.725C159.748 315.386 159.879 315.1 160.139 314.871C160.401 314.641 160.738 314.525 161.154 314.525C161.57 314.525 161.907 314.637 162.168 314.857C162.429 315.077 162.559 315.353 162.559 315.684C162.559 316.043 162.429 316.34 162.168 316.574C161.907 316.808 161.57 316.926 161.154 316.926C160.738 316.926 160.401 316.81 160.139 316.581Z" fill="#342F4C"/>
<path id="Fill 38" fill-rule="evenodd" clip-rule="evenodd" d="M169.413 325.021C169.19 325.177 168.917 325.294 168.594 325.373C168.27 325.45 167.93 325.49 167.572 325.49C166.646 325.49 165.928 325.265 165.421 324.814C164.914 324.364 164.66 323.703 164.66 322.828V319.78H163.457V318.125H164.66V316.318H166.92V318.125H168.862V319.78H166.92V322.8C166.92 323.114 167.005 323.355 167.174 323.525C167.343 323.695 167.582 323.78 167.892 323.78C168.248 323.78 168.553 323.688 168.804 323.503L169.413 325.021Z" fill="#342F4C"/>
<path id="Fill 39" fill-rule="evenodd" clip-rule="evenodd" d="M175.956 325.235C175.206 325.028 174.606 324.758 174.151 324.427L174.949 322.746C175.383 323.048 175.899 323.294 176.499 323.476C177.097 323.661 177.696 323.753 178.295 323.753C178.962 323.753 179.455 323.659 179.773 323.469C180.092 323.281 180.251 323.031 180.251 322.718C180.251 322.488 180.157 322.297 179.969 322.145C179.781 321.994 179.539 321.873 179.245 321.781C178.95 321.689 178.551 321.587 178.049 321.477C177.276 321.301 176.643 321.127 176.151 320.952C175.658 320.778 175.236 320.498 174.883 320.111C174.531 319.725 174.354 319.211 174.354 318.566C174.354 318.006 174.513 317.498 174.833 317.043C175.151 316.588 175.632 316.227 176.274 315.961C176.917 315.694 177.702 315.56 178.629 315.56C179.276 315.56 179.908 315.634 180.527 315.781C181.145 315.928 181.685 316.138 182.15 316.416L181.425 318.111C180.488 317.606 179.551 317.353 178.614 317.353C177.957 317.353 177.471 317.454 177.158 317.657C176.844 317.859 176.687 318.126 176.687 318.457C176.687 318.787 176.868 319.034 177.23 319.194C177.593 319.355 178.145 319.513 178.89 319.67C179.662 319.844 180.295 320.019 180.787 320.194C181.28 320.369 181.703 320.645 182.056 321.021C182.408 321.398 182.584 321.909 182.584 322.552C182.584 323.103 182.423 323.607 182.099 324.062C181.775 324.517 181.289 324.879 180.643 325.145C179.995 325.412 179.208 325.546 178.281 325.546C177.479 325.546 176.704 325.441 175.956 325.235Z" fill="#342F4C"/>
<path id="Fill 40" fill-rule="evenodd" clip-rule="evenodd" d="M186.337 319.89C185.99 320.165 185.776 320.543 185.699 321.021H189.539C189.462 320.553 189.25 320.178 188.901 319.897C188.554 319.617 188.129 319.476 187.627 319.476C187.115 319.476 186.684 319.615 186.337 319.89ZM191.626 322.276H185.728C185.835 322.736 186.086 323.099 186.482 323.366C186.878 323.632 187.371 323.766 187.96 323.766C188.365 323.766 188.725 323.708 189.039 323.593C189.353 323.479 189.646 323.297 189.916 323.048L191.118 324.289C190.384 325.09 189.313 325.49 187.902 325.49C187.023 325.49 186.246 325.327 185.569 325C184.893 324.674 184.371 324.221 184.004 323.642C183.637 323.062 183.453 322.405 183.453 321.669C183.453 320.943 183.635 320.288 183.997 319.703C184.359 319.12 184.856 318.665 185.489 318.338C186.122 318.012 186.83 317.849 187.611 317.849C188.375 317.849 189.066 318.005 189.684 318.318C190.302 318.631 190.787 319.079 191.14 319.662C191.492 320.246 191.67 320.925 191.67 321.698C191.67 321.724 191.654 321.918 191.626 322.276Z" fill="#342F4C"/>
<path id="Fill 41" fill-rule="evenodd" clip-rule="evenodd" d="M198.204 325.021C197.982 325.177 197.709 325.294 197.386 325.373C197.061 325.45 196.721 325.49 196.363 325.49C195.437 325.49 194.719 325.265 194.212 324.814C193.705 324.364 193.452 323.703 193.452 322.828V319.78H192.249V318.125H193.452V316.318H195.711V318.125H197.653V319.78H195.711V322.8C195.711 323.114 195.796 323.355 195.965 323.525C196.134 323.695 196.374 323.78 196.683 323.78C197.039 323.78 197.344 323.688 197.595 323.503L198.204 325.021Z" fill="#342F4C"/>
<path id="Fill 42" fill-rule="evenodd" clip-rule="evenodd" d="M204.333 325.021C204.111 325.177 203.837 325.294 203.514 325.373C203.19 325.45 202.85 325.49 202.492 325.49C201.566 325.49 200.848 325.265 200.341 324.814C199.834 324.364 199.581 323.703 199.581 322.828V319.78H198.377V318.125H199.581V316.318H201.84V318.125H203.782V319.78H201.84V322.8C201.84 323.114 201.925 323.355 202.094 323.525C202.263 323.695 202.502 323.78 202.812 323.78C203.168 323.78 203.473 323.688 203.724 323.503L204.333 325.021Z" fill="#342F4C"/>
<path id="Fill 43" fill-rule="evenodd" clip-rule="evenodd" d="M205.608 325.38H207.869V317.96H205.608V325.38ZM205.723 316.581C205.463 316.35 205.332 316.066 205.332 315.725C205.332 315.386 205.463 315.1 205.723 314.871C205.985 314.641 206.322 314.525 206.738 314.525C207.154 314.525 207.491 314.637 207.752 314.857C208.013 315.077 208.143 315.353 208.143 315.684C208.143 316.043 208.013 316.34 207.752 316.574C207.491 316.808 207.154 316.926 206.738 316.926C206.322 316.926 205.985 316.81 205.723 316.581Z" fill="#342F4C"/>
<path id="Fill 44" fill-rule="evenodd" clip-rule="evenodd" d="M217.048 318.678C217.642 319.23 217.94 320.048 217.94 321.132V325.38H215.678V321.464C215.678 320.875 215.543 320.436 215.273 320.147C215.002 319.858 214.611 319.711 214.099 319.711C213.529 319.711 213.076 319.879 212.737 320.215C212.399 320.551 212.231 321.05 212.231 321.712V325.38H209.969V317.96H212.129V318.829C212.427 318.516 212.8 318.276 213.245 318.105C213.688 317.936 214.177 317.85 214.708 317.85C215.673 317.85 216.454 318.126 217.048 318.678Z" fill="#342F4C"/>
<path id="Fill 45" fill-rule="evenodd" clip-rule="evenodd" d="M225.306 322.753C225.688 322.417 225.879 321.979 225.879 321.436C225.879 320.893 225.688 320.454 225.306 320.118C224.925 319.783 224.434 319.615 223.835 319.615C223.237 319.615 222.744 319.783 222.358 320.118C221.972 320.454 221.778 320.893 221.778 321.436C221.778 321.979 221.972 322.417 222.358 322.753C222.744 323.088 223.237 323.257 223.835 323.257C224.434 323.257 224.925 323.088 225.306 322.753ZM228.11 317.96V324.139C228.11 325.499 227.738 326.512 226.994 327.173C226.251 327.836 225.163 328.166 223.734 328.166C222.981 328.166 222.265 328.079 221.59 327.904C220.913 327.729 220.353 327.477 219.909 327.145L220.807 325.601C221.136 325.857 221.551 326.063 222.054 326.214C222.555 326.366 223.057 326.441 223.56 326.441C224.343 326.441 224.92 326.274 225.292 325.939C225.663 325.604 225.85 325.096 225.85 324.415V324.098C225.261 324.714 224.439 325.022 223.387 325.022C222.672 325.022 222.017 324.872 221.423 324.573C220.829 324.274 220.358 323.855 220.01 323.312C219.663 322.769 219.488 322.145 219.488 321.436C219.488 320.729 219.663 320.103 220.01 319.56C220.358 319.018 220.829 318.597 221.423 318.299C222.017 317.999 222.672 317.85 223.387 317.85C224.516 317.85 225.376 318.204 225.966 318.912V317.96H228.11Z" fill="#342F4C"/>
<path id="Fill 46" fill-rule="evenodd" clip-rule="evenodd" d="M230.936 325.263C230.318 325.112 229.825 324.92 229.457 324.691L230.211 323.146C230.559 323.358 230.979 323.531 231.472 323.663C231.964 323.797 232.448 323.864 232.92 323.864C233.877 323.864 234.356 323.638 234.356 323.187C234.356 322.977 234.225 322.824 233.965 322.732C233.703 322.64 233.303 322.563 232.762 322.497C232.124 322.406 231.597 322.3 231.183 322.18C230.767 322.062 230.407 321.85 230.103 321.546C229.798 321.243 229.646 320.81 229.646 320.249C229.646 319.781 229.789 319.366 230.074 319.002C230.358 318.639 230.774 318.356 231.32 318.153C231.866 317.951 232.511 317.85 233.254 317.85C233.805 317.85 234.353 317.908 234.899 318.023C235.444 318.137 235.896 318.296 236.254 318.498L235.5 320.029C234.814 319.661 234.065 319.477 233.254 319.477C232.771 319.477 232.409 319.542 232.168 319.67C231.926 319.799 231.806 319.965 231.806 320.166C231.806 320.397 231.935 320.558 232.197 320.65C232.457 320.742 232.873 320.829 233.443 320.912C234.081 321.013 234.602 321.12 235.008 321.237C235.413 321.351 235.766 321.561 236.065 321.864C236.365 322.167 236.514 322.589 236.514 323.132C236.514 323.592 236.37 324.001 236.08 324.36C235.79 324.719 235.367 324.996 234.812 325.195C234.256 325.392 233.597 325.491 232.833 325.491C232.186 325.491 231.554 325.415 230.936 325.263Z" fill="#342F4C"/>
<path id="Fill 47" fill-rule="evenodd" clip-rule="evenodd" d="M146.245 209.388H102.74C100.628 209.388 98.9158 207.676 98.9158 205.564V164.524C98.9158 162.411 100.628 160.7 102.74 160.7H146.245C148.357 160.7 150.069 162.411 150.069 164.524V205.564C150.069 207.676 148.357 209.388 146.245 209.388Z" fill="white"/>
<path id="Fill 48" fill-rule="evenodd" clip-rule="evenodd" d="M121.831 187.357L121.959 187.479C122.171 187.68 122.41 187.854 122.689 188.013C122.977 188.169 123.294 188.297 123.555 188.36C123.709 188.4 123.839 188.431 123.976 188.444C124.493 188.505 124.974 188.479 125.383 188.37C125.755 188.282 126.004 188.186 126.221 188.051L126.305 188.004C126.851 187.712 127.284 187.303 127.591 186.789C127.781 186.502 127.885 186.258 127.97 185.939C128.06 185.623 128.101 185.34 128.101 185.043C128.101 184.751 128.06 184.443 127.985 184.177C127.888 183.831 127.772 183.548 127.63 183.323C127.375 182.919 127.062 182.581 126.701 182.323C126.563 182.22 126.427 182.143 126.301 182.07C126.012 181.897 125.765 181.798 125.47 181.732C125.307 181.687 125.235 181.676 125.164 181.664C125.19 181.668 125.07 181.649 124.968 181.626C124.543 181.578 123.979 181.602 123.607 181.703C123.273 181.791 122.974 181.911 122.696 182.066C122.14 182.371 121.69 182.795 121.348 183.332C121.214 183.547 121.099 183.823 121.015 184.141C120.925 184.449 120.884 184.742 120.884 185.043C120.884 185.336 120.924 185.619 121.002 185.881C121.076 186.166 121.163 186.388 121.276 186.591L121.582 186.883L121.589 187.067C121.666 187.169 121.748 187.265 121.831 187.357ZM124.513 191.406C124.219 191.406 123.923 191.387 123.626 191.351C123.357 191.326 123.06 191.265 122.765 191.187C122.259 191.064 121.706 190.844 121.145 190.542C120.835 190.367 120.551 190.178 120.289 189.977L120.197 189.965L119.744 189.517C119.379 189.157 119.047 188.748 118.758 188.297L118.532 187.912C118.313 187.51 118.149 187.087 118.032 186.628C117.89 186.16 117.81 185.607 117.81 185.043C117.81 184.476 117.889 183.92 118.044 183.389C118.194 182.828 118.422 182.292 118.713 181.826C119.333 180.852 120.151 180.085 121.149 179.538C121.651 179.256 122.205 179.035 122.783 178.886C123.518 178.683 124.463 178.627 125.333 178.719C125.446 178.732 125.554 178.752 125.662 178.776C125.94 178.828 126.105 178.862 126.271 178.909C126.801 179.026 127.367 179.253 127.911 179.579C128.111 179.692 128.353 179.84 128.568 179.999C129.227 180.469 129.806 181.087 130.269 181.822C130.56 182.288 130.784 182.81 130.956 183.425C131.099 183.939 131.174 184.498 131.174 185.043C131.174 185.599 131.096 186.15 130.941 186.683C130.788 187.269 130.55 187.807 130.226 188.294C129.683 189.207 128.871 189.98 127.849 190.534C127.352 190.833 126.8 191.05 126.165 191.199C125.662 191.335 125.096 191.406 124.513 191.406ZM123.385 196.738H125.599L126.281 192.471L127.132 192.171C127.378 192.086 127.613 192.002 127.833 191.891L128.686 191.46L132.39 194.054L133.976 192.567L131.239 189.07L131.659 188.266C131.782 188.032 131.876 187.797 131.972 187.548L132.287 186.734L136.77 186.101V183.97L132.241 183.349L131.949 182.474C131.868 182.229 131.756 181.998 131.647 181.766L131.285 180.986L133.979 177.522L132.381 176.025L128.73 178.581L127.904 178.213C127.683 178.115 127.448 178.013 127.2 177.938L126.288 177.664L125.599 173.348H123.385L122.706 177.599L121.879 177.906C121.619 178.003 121.366 178.094 121.113 178.213L120.269 178.612L116.609 176.02L115.012 177.531L117.702 180.986L117.336 181.767C117.227 181.999 117.117 182.23 117.035 182.474L116.744 183.349L112.214 183.97V186.101L116.697 186.734L117.013 187.548C117.105 187.788 117.19 188.023 117.308 188.233L117.761 189.05L115.015 192.56L116.602 194.058L120.238 191.5L121.057 191.847C121.305 191.952 121.552 192.06 121.801 192.137L122.699 192.419L123.385 196.738ZM125.917 199.664H123.067C121.735 199.664 120.586 198.722 120.393 197.472L120.044 195.274L118.181 196.586C117.029 197.349 115.624 197.2 114.705 196.386L112.626 194.425C111.673 193.515 111.561 192.067 112.364 191.05L113.752 189.277L111.456 188.953C110.139 188.773 109.14 187.678 109.14 186.407V183.663C109.14 182.393 110.139 181.298 111.464 181.118L113.736 180.806L112.341 179.015C111.553 177.961 111.679 176.562 112.623 175.665L114.668 173.732C115.638 172.849 117.099 172.748 118.162 173.473L120.043 174.805L120.394 172.606C120.583 171.346 121.708 170.422 123.067 170.422H125.917C127.276 170.422 128.401 171.346 128.592 172.62L128.94 174.8L130.823 173.483C131.919 172.738 133.382 172.848 134.317 173.735L136.371 175.658C137.332 176.609 137.432 178.01 136.639 179.02L135.248 180.806L137.52 181.118C138.846 181.298 139.844 182.393 139.844 183.663V186.407C139.844 187.678 138.846 188.773 137.52 188.955L135.232 189.277L136.624 191.054C137.439 192.04 137.345 193.5 136.379 194.419L134.31 196.358C133.427 197.201 131.841 197.317 130.811 196.58L128.942 195.271L128.59 197.48C128.398 198.722 127.249 199.664 125.917 199.664Z" fill="#2B7CCF"/>
<g id="Group 71">
<path id="Fill 49" fill-rule="evenodd" clip-rule="evenodd" d="M119.087 231.002H120.122V237.041H124.045V237.898H119.087V231.002Z" fill="white"/>
<path id="Fill 50" fill-rule="evenodd" clip-rule="evenodd" d="M128.314 236.897C128.593 236.743 128.812 236.527 128.97 236.248C129.129 235.968 129.209 235.648 129.209 235.287C129.209 234.925 129.129 234.605 128.97 234.327C128.812 234.047 128.593 233.833 128.314 233.681C128.034 233.53 127.719 233.455 127.367 233.455C127.015 233.455 126.699 233.53 126.42 233.681C126.14 233.833 125.92 234.047 125.758 234.327C125.596 234.605 125.515 234.925 125.515 235.287C125.515 235.648 125.596 235.968 125.758 236.248C125.92 236.527 126.14 236.743 126.42 236.897C126.699 237.052 127.015 237.128 127.367 237.128C127.719 237.128 128.034 237.052 128.314 236.897ZM125.897 237.612C125.462 237.381 125.122 237.065 124.878 236.662C124.632 236.257 124.51 235.799 124.51 235.287C124.51 234.775 124.632 234.316 124.878 233.913C125.122 233.508 125.462 233.193 125.897 232.967C126.332 232.741 126.822 232.627 127.367 232.627C127.912 232.627 128.4 232.741 128.832 232.967C129.262 233.193 129.6 233.508 129.846 233.913C130.09 234.316 130.213 234.775 130.213 235.287C130.213 235.799 130.09 236.257 129.846 236.662C129.6 237.065 129.262 237.381 128.832 237.612C128.4 237.842 127.912 237.957 127.367 237.957C126.822 237.957 126.332 237.842 125.897 237.612Z" fill="white"/>
<path id="Fill 51" fill-rule="evenodd" clip-rule="evenodd" d="M133.307 232.863C133.645 232.706 134.057 232.628 134.539 232.628V233.544C134.485 233.537 134.408 233.533 134.312 233.533C133.774 233.533 133.351 233.686 133.044 233.991C132.737 234.297 132.584 234.732 132.584 235.297V237.897H131.589V232.676H132.542V233.553C132.714 233.252 132.969 233.021 133.307 232.863Z" fill="white"/>
<path id="Fill 52" fill-rule="evenodd" clip-rule="evenodd" d="M136.759 233.839C136.438 234.115 136.249 234.477 136.195 234.923H139.714C139.658 234.483 139.47 234.123 139.15 233.844C138.829 233.565 138.43 233.426 137.954 233.426C137.478 233.426 137.079 233.564 136.759 233.839ZM140.645 235.603H136.195C136.257 236.063 136.469 236.432 136.831 236.711C137.193 236.99 137.643 237.129 138.182 237.129C138.837 237.129 139.365 236.92 139.765 236.499L140.314 237.11C140.065 237.386 139.756 237.596 139.388 237.74C139.019 237.885 138.607 237.957 138.151 237.957C137.571 237.957 137.057 237.844 136.608 237.617C136.16 237.391 135.813 237.073 135.569 236.666C135.323 236.259 135.2 235.8 135.2 235.287C135.2 234.781 135.32 234.325 135.558 233.918C135.796 233.511 136.123 233.193 136.541 232.968C136.959 232.741 137.429 232.628 137.954 232.628C138.478 232.628 138.946 232.741 139.357 232.968C139.767 233.193 140.087 233.511 140.319 233.918C140.551 234.325 140.666 234.791 140.666 235.317C140.666 235.389 140.659 235.485 140.645 235.603Z" fill="white"/>
<path id="Fill 53" fill-rule="evenodd" clip-rule="evenodd" d="M150.544 233.199C150.948 233.579 151.149 234.144 151.149 234.892V237.897H150.156V235.002C150.156 234.496 150.033 234.115 149.789 233.858C149.544 233.602 149.194 233.474 148.738 233.474C148.234 233.474 147.835 233.624 147.537 233.923C147.241 234.221 147.093 234.65 147.093 235.209V237.897H146.099V235.002C146.099 234.496 145.977 234.115 145.731 233.858C145.487 233.602 145.136 233.474 144.681 233.474C144.177 233.474 143.777 233.624 143.481 233.923C143.184 234.221 143.036 234.65 143.036 235.209V237.897H142.042V232.677H142.994V233.455C143.194 233.185 143.456 232.98 143.78 232.84C144.105 232.698 144.474 232.628 144.888 232.628C145.315 232.628 145.695 232.709 146.026 232.874C146.357 233.038 146.613 233.277 146.793 233.593C147 233.291 147.287 233.053 147.657 232.884C148.026 232.713 148.441 232.628 148.903 232.628C149.593 232.628 150.141 232.818 150.544 233.199Z" fill="white"/>
<path id="Fill 54" fill-rule="evenodd" clip-rule="evenodd" d="M155.765 237.898H156.76V232.677H155.765V237.898ZM155.782 231.494C155.654 231.376 155.591 231.231 155.591 231.061C155.591 230.891 155.654 230.744 155.782 230.623C155.909 230.501 156.07 230.44 156.263 230.44C156.456 230.44 156.616 230.498 156.744 230.612C156.871 230.727 156.936 230.871 156.936 231.042C156.936 231.219 156.871 231.368 156.744 231.489C156.616 231.611 156.456 231.672 156.263 231.672C156.07 231.672 155.909 231.613 155.782 231.494Z" fill="white"/>
<path id="Fill 55" fill-rule="evenodd" clip-rule="evenodd" d="M162.426 236.897C162.705 236.743 162.926 236.527 163.088 236.248C163.25 235.968 163.331 235.648 163.331 235.287C163.331 234.925 163.25 234.605 163.088 234.327C162.926 234.047 162.705 233.833 162.426 233.681C162.147 233.53 161.831 233.455 161.479 233.455C161.134 233.455 160.822 233.532 160.543 233.686C160.263 233.84 160.042 234.055 159.88 234.332C159.718 234.607 159.637 234.925 159.637 235.287C159.637 235.648 159.716 235.968 159.874 236.248C160.033 236.527 160.254 236.743 160.537 236.897C160.821 237.052 161.134 237.128 161.479 237.128C161.831 237.128 162.147 237.052 162.426 236.897ZM162.99 232.961C163.411 233.185 163.74 233.498 163.979 233.898C164.217 234.298 164.335 234.761 164.335 235.287C164.335 235.812 164.217 236.277 163.979 236.681C163.74 237.084 163.411 237.398 162.99 237.622C162.57 237.844 162.093 237.957 161.562 237.957C161.169 237.957 160.807 237.884 160.48 237.74C160.152 237.595 159.874 237.385 159.648 237.109V239.808H158.653V232.676H159.606V233.503C159.827 233.214 160.106 232.997 160.444 232.848C160.782 232.701 161.155 232.627 161.562 232.627C162.093 232.627 162.57 232.739 162.99 232.961Z" fill="white"/>
<path id="Fill 56" fill-rule="evenodd" clip-rule="evenodd" d="M165.992 237.784C165.577 237.67 165.253 237.523 165.019 237.346L165.433 236.597C165.675 236.762 165.968 236.893 166.313 236.991C166.658 237.09 167.006 237.139 167.358 237.139C168.228 237.139 168.662 236.902 168.662 236.43C168.662 236.272 168.604 236.147 168.486 236.055C168.369 235.964 168.222 235.896 168.046 235.853C167.87 235.811 167.62 235.763 167.296 235.711C166.855 235.645 166.493 235.569 166.214 235.484C165.935 235.399 165.696 235.255 165.495 235.051C165.295 234.847 165.196 234.561 165.196 234.194C165.196 233.721 165.402 233.342 165.816 233.055C166.229 232.77 166.785 232.628 167.482 232.628C167.848 232.628 168.214 232.67 168.579 232.756C168.946 232.841 169.245 232.956 169.479 233.1L169.055 233.849C168.607 233.573 168.079 233.435 167.471 233.435C167.052 233.435 166.731 233.501 166.51 233.632C166.288 233.763 166.179 233.937 166.179 234.154C166.179 234.325 166.24 234.46 166.365 234.558C166.489 234.657 166.643 234.729 166.825 234.775C167.008 234.821 167.264 234.873 167.596 234.932C168.038 235.005 168.394 235.082 168.668 235.164C168.94 235.246 169.172 235.386 169.366 235.582C169.559 235.78 169.655 236.055 169.655 236.41C169.655 236.883 169.443 237.259 169.019 237.538C168.595 237.817 168.017 237.957 167.285 237.957C166.837 237.957 166.406 237.899 165.992 237.784Z" fill="white"/>
<path id="Fill 57" fill-rule="evenodd" clip-rule="evenodd" d="M176.011 232.677V237.898H175.069V237.11C174.868 237.379 174.605 237.587 174.277 237.736C173.949 237.883 173.593 237.957 173.206 237.957C172.474 237.957 171.899 237.765 171.477 237.38C171.057 236.996 170.846 236.43 170.846 235.682V232.677H171.84V235.573C171.84 236.079 171.967 236.461 172.223 236.721C172.478 236.981 172.844 237.11 173.32 237.11C173.844 237.11 174.259 236.959 174.562 236.656C174.865 236.355 175.017 235.928 175.017 235.376V232.677H176.011Z" fill="white"/>
<path id="Fill 58" fill-rule="evenodd" clip-rule="evenodd" d="M186.406 233.199C186.81 233.579 187.011 234.144 187.011 234.892V237.897H186.018V235.002C186.018 234.496 185.896 234.115 185.651 233.858C185.406 233.602 185.056 233.474 184.6 233.474C184.096 233.474 183.697 233.624 183.4 233.923C183.103 234.221 182.955 234.65 182.955 235.209V237.897H181.962V235.002C181.962 234.496 181.839 234.115 181.594 233.858C181.349 233.602 180.998 233.474 180.543 233.474C180.04 233.474 179.639 233.624 179.343 233.923C179.046 234.221 178.898 234.65 178.898 235.209V237.897H177.904V232.677H178.856V233.455C179.057 233.185 179.319 232.98 179.642 232.84C179.967 232.698 180.336 232.628 180.751 232.628C181.177 232.628 181.557 232.709 181.888 232.874C182.219 233.038 182.475 233.277 182.655 233.593C182.862 233.291 183.149 233.053 183.519 232.884C183.888 232.713 184.303 232.628 184.765 232.628C185.456 232.628 186.003 232.818 186.406 233.199Z" fill="white"/>
<path id="Fill 59" fill-rule="evenodd" clip-rule="evenodd" d="M194.92 236.897C195.204 236.743 195.423 236.527 195.582 236.248C195.741 235.968 195.82 235.648 195.82 235.287C195.82 234.925 195.741 234.605 195.582 234.327C195.423 234.047 195.204 233.833 194.92 233.681C194.637 233.53 194.324 233.455 193.979 233.455C193.627 233.455 193.311 233.53 193.031 233.681C192.752 233.833 192.531 234.047 192.369 234.327C192.207 234.605 192.126 234.925 192.126 235.287C192.126 235.648 192.207 235.968 192.369 236.248C192.531 236.527 192.752 236.743 193.031 236.897C193.311 237.052 193.627 237.128 193.979 237.128C194.324 237.128 194.637 237.052 194.92 236.897ZM196.803 230.587V237.897H195.852V237.07C195.63 237.359 195.352 237.579 195.014 237.73C194.675 237.881 194.303 237.957 193.895 237.957C193.364 237.957 192.888 237.844 192.468 237.622C192.046 237.398 191.716 237.084 191.479 236.681C191.24 236.277 191.121 235.812 191.121 235.287C191.121 234.761 191.24 234.298 191.479 233.898C191.716 233.498 192.046 233.185 192.468 232.961C192.888 232.739 193.364 232.627 193.895 232.627C194.289 232.627 194.651 232.698 194.982 232.839C195.314 232.98 195.589 233.188 195.81 233.464V230.587H196.803Z" fill="white"/>
<path id="Fill 60" fill-rule="evenodd" clip-rule="evenodd" d="M201.984 236.897C202.263 236.743 202.482 236.527 202.64 236.248C202.799 235.968 202.879 235.648 202.879 235.287C202.879 234.925 202.799 234.605 202.64 234.327C202.482 234.047 202.263 233.833 201.984 233.681C201.704 233.53 201.389 233.455 201.037 233.455C200.685 233.455 200.369 233.53 200.09 233.681C199.81 233.833 199.59 234.047 199.428 234.327C199.266 234.605 199.185 234.925 199.185 235.287C199.185 235.648 199.266 235.968 199.428 236.248C199.59 236.527 199.81 236.743 200.09 236.897C200.369 237.052 200.685 237.128 201.037 237.128C201.389 237.128 201.704 237.052 201.984 236.897ZM199.567 237.612C199.132 237.381 198.792 237.065 198.548 236.662C198.302 236.257 198.18 235.799 198.18 235.287C198.18 234.775 198.302 234.316 198.548 233.913C198.792 233.508 199.132 233.193 199.567 232.967C200.002 232.741 200.492 232.627 201.037 232.627C201.582 232.627 202.069 232.741 202.502 232.967C202.932 233.193 203.27 233.508 203.516 233.913C203.76 234.316 203.882 234.775 203.882 235.287C203.882 235.799 203.76 236.257 203.516 236.662C203.27 237.065 202.932 237.381 202.502 237.612C202.069 237.842 201.582 237.957 201.037 237.957C200.492 237.957 200.002 237.842 199.567 237.612Z" fill="white"/>
<path id="Fill 61" fill-rule="evenodd" clip-rule="evenodd" d="M205.259 237.898H206.253V230.588H205.259V237.898Z" fill="white"/>
<path id="Fill 62" fill-rule="evenodd" clip-rule="evenodd" d="M211.444 236.897C211.723 236.743 211.942 236.527 212.1 236.248C212.259 235.968 212.339 235.648 212.339 235.287C212.339 234.925 212.259 234.605 212.1 234.327C211.942 234.047 211.723 233.833 211.444 233.681C211.164 233.53 210.849 233.455 210.497 233.455C210.145 233.455 209.829 233.53 209.55 233.681C209.27 233.833 209.05 234.047 208.888 234.327C208.726 234.605 208.645 234.925 208.645 235.287C208.645 235.648 208.726 235.968 208.888 236.248C209.05 236.527 209.27 236.743 209.55 236.897C209.829 237.052 210.145 237.128 210.497 237.128C210.849 237.128 211.164 237.052 211.444 236.897ZM209.027 237.612C208.592 237.381 208.252 237.065 208.008 236.662C207.762 236.257 207.64 235.799 207.64 235.287C207.64 234.775 207.762 234.316 208.008 233.913C208.252 233.508 208.592 233.193 209.027 232.967C209.462 232.741 209.952 232.627 210.497 232.627C211.042 232.627 211.529 232.741 211.962 232.967C212.392 233.193 212.73 233.508 212.976 233.913C213.22 234.316 213.342 234.775 213.342 235.287C213.342 235.799 213.22 236.257 212.976 236.662C212.73 237.065 212.392 237.381 211.962 237.612C211.529 237.842 211.042 237.957 210.497 237.957C209.952 237.957 209.462 237.842 209.027 237.612Z" fill="white"/>
<path id="Fill 63" fill-rule="evenodd" clip-rule="evenodd" d="M216.437 232.863C216.775 232.706 217.186 232.628 217.669 232.628V233.544C217.615 233.537 217.538 233.533 217.442 233.533C216.904 233.533 216.481 233.686 216.174 233.991C215.866 234.297 215.713 234.732 215.713 235.297V237.897H214.719V232.676H215.672V233.553C215.844 233.252 216.099 233.021 216.437 232.863Z" fill="white"/>
<path id="Fill 64" fill-rule="evenodd" clip-rule="evenodd" d="M222.027 237.784C221.612 237.67 221.288 237.523 221.054 237.346L221.468 236.597C221.71 236.762 222.003 236.893 222.348 236.991C222.693 237.09 223.041 237.139 223.393 237.139C224.262 237.139 224.697 236.902 224.697 236.43C224.697 236.272 224.639 236.147 224.521 236.055C224.404 235.964 224.257 235.896 224.081 235.853C223.905 235.811 223.655 235.763 223.331 235.711C222.889 235.645 222.528 235.569 222.249 235.484C221.97 235.399 221.731 235.255 221.53 235.051C221.33 234.847 221.231 234.561 221.231 234.194C221.231 233.721 221.437 233.342 221.851 233.055C222.264 232.77 222.82 232.628 223.517 232.628C223.883 232.628 224.249 232.67 224.614 232.756C224.98 232.841 225.28 232.956 225.514 233.1L225.09 233.849C224.642 233.573 224.114 233.435 223.506 233.435C223.086 233.435 222.766 233.501 222.545 233.632C222.323 233.763 222.214 233.937 222.214 234.154C222.214 234.325 222.275 234.46 222.4 234.558C222.524 234.657 222.677 234.729 222.86 234.775C223.042 234.821 223.299 234.873 223.631 234.932C224.073 235.005 224.429 235.082 224.702 235.164C224.975 235.246 225.207 235.386 225.401 235.582C225.594 235.78 225.69 236.055 225.69 236.41C225.69 236.883 225.478 237.259 225.054 237.538C224.63 237.817 224.052 237.957 223.32 237.957C222.872 237.957 222.44 237.899 222.027 237.784Z" fill="white"/>
<path id="Fill 65" fill-rule="evenodd" clip-rule="evenodd" d="M226.932 237.898H227.927V232.677H226.932V237.898ZM226.948 231.494C226.821 231.376 226.758 231.231 226.758 231.061C226.758 230.891 226.821 230.744 226.948 230.623C227.076 230.501 227.237 230.44 227.43 230.44C227.622 230.44 227.783 230.498 227.911 230.612C228.038 230.727 228.103 230.871 228.103 231.042C228.103 231.219 228.038 231.368 227.911 231.489C227.783 231.611 227.622 231.672 227.43 231.672C227.237 231.672 227.076 231.613 226.948 231.494Z" fill="white"/>
<path id="Fill 66" fill-rule="evenodd" clip-rule="evenodd" d="M232.904 237.592C232.759 237.711 232.58 237.801 232.367 237.863C232.153 237.926 231.931 237.957 231.703 237.957C231.153 237.957 230.724 237.817 230.421 237.533C230.117 237.251 229.966 236.848 229.966 236.321V233.455H229.034V232.677H229.966V231.534H230.959V232.677H232.532V233.455H230.959V236.282C230.959 236.565 231.033 236.781 231.181 236.933C231.329 237.084 231.541 237.159 231.818 237.159C232.121 237.159 232.381 237.077 232.594 236.913L232.904 237.592Z" fill="white"/>
<path id="Fill 67" fill-rule="evenodd" clip-rule="evenodd" d="M239.642 236.987C239.918 236.826 240.119 236.597 240.243 236.301V235.573H238.711C237.87 235.573 237.448 235.841 237.448 236.381C237.448 236.643 237.556 236.85 237.768 237.001C237.983 237.152 238.279 237.227 238.659 237.227C239.038 237.227 239.366 237.147 239.642 236.987ZM240.631 233.159C241.035 233.513 241.236 234.043 241.236 234.745V237.897H240.295V237.208C240.129 237.451 239.892 237.636 239.585 237.764C239.278 237.892 238.915 237.957 238.494 237.957C237.88 237.957 237.388 237.816 237.018 237.533C236.649 237.251 236.465 236.88 236.465 236.42C236.465 235.96 236.641 235.591 236.993 235.311C237.345 235.032 237.904 234.892 238.669 234.892H240.243V234.706C240.243 234.299 240.119 233.987 239.87 233.77C239.622 233.553 239.256 233.445 238.772 233.445C238.448 233.445 238.131 233.496 237.821 233.597C237.511 233.699 237.247 233.836 237.035 234.007L236.62 233.298C236.903 233.08 237.241 232.915 237.634 232.8C238.028 232.684 238.445 232.628 238.887 232.628C239.645 232.628 240.227 232.804 240.631 233.159Z" fill="white"/>
<path id="Fill 68" fill-rule="evenodd" clip-rule="evenodd" d="M251.581 233.199C251.985 233.579 252.186 234.144 252.186 234.892V237.897H251.193V235.002C251.193 234.496 251.071 234.115 250.826 233.858C250.581 233.602 250.231 233.474 249.775 233.474C249.271 233.474 248.872 233.624 248.574 233.923C248.278 234.221 248.13 234.65 248.13 235.209V237.897H247.137V235.002C247.137 234.496 247.014 234.115 246.769 233.858C246.524 233.602 246.173 233.474 245.718 233.474C245.215 233.474 244.814 233.624 244.518 233.923C244.221 234.221 244.073 234.65 244.073 235.209V237.897H243.079V232.677H244.031V233.455C244.232 233.185 244.493 232.98 244.817 232.84C245.142 232.698 245.511 232.628 245.925 232.628C246.352 232.628 246.732 232.709 247.063 232.874C247.394 233.038 247.65 233.277 247.83 233.593C248.037 233.291 248.324 233.053 248.694 232.884C249.063 232.713 249.478 232.628 249.94 232.628C250.631 232.628 251.178 232.818 251.581 233.199Z" fill="white"/>
<path id="Fill 69" fill-rule="evenodd" clip-rule="evenodd" d="M255.1 233.839C254.779 234.115 254.591 234.477 254.536 234.923H258.055C257.999 234.483 257.811 234.123 257.491 233.844C257.17 233.565 256.772 233.426 256.295 233.426C255.819 233.426 255.421 233.564 255.1 233.839ZM258.987 235.603H254.536C254.598 236.063 254.81 236.432 255.172 236.711C255.534 236.99 255.985 237.129 256.523 237.129C257.178 237.129 257.706 236.92 258.107 236.499L258.656 237.11C258.407 237.386 258.098 237.596 257.729 237.74C257.36 237.885 256.948 237.957 256.492 237.957C255.913 237.957 255.399 237.844 254.95 237.617C254.501 237.391 254.154 237.073 253.91 236.666C253.664 236.259 253.542 235.8 253.542 235.287C253.542 234.781 253.661 234.325 253.899 233.918C254.137 233.511 254.464 233.193 254.882 232.968C255.3 232.741 255.77 232.628 256.295 232.628C256.819 232.628 257.287 232.741 257.698 232.968C258.108 233.193 258.429 233.511 258.66 233.918C258.892 234.325 259.008 234.791 259.008 235.317C259.008 235.389 259 235.485 258.987 235.603Z" fill="white"/>
<path id="Fill 70" fill-rule="evenodd" clip-rule="evenodd" d="M263.467 237.592C263.322 237.711 263.143 237.801 262.93 237.863C262.716 237.926 262.494 237.957 262.266 237.957C261.715 237.957 261.287 237.817 260.984 237.533C260.68 237.251 260.529 236.848 260.529 236.321V233.455H259.596V232.677H260.529V231.534H261.522V232.677H263.095V233.455H261.522V236.282C261.522 236.565 261.596 236.781 261.744 236.933C261.892 237.084 262.104 237.159 262.381 237.159C262.684 237.159 262.944 237.077 263.156 236.913L263.467 237.592Z" fill="white"/>
</g>
<path id="Fill 72" fill-rule="evenodd" clip-rule="evenodd" d="M209.356 209.388H165.852C163.74 209.388 162.028 207.676 162.028 205.564V164.524C162.028 162.411 163.74 160.7 165.852 160.7H209.356C211.468 160.7 213.18 162.411 213.18 164.524V205.564C213.18 207.676 211.468 209.388 209.356 209.388Z" fill="white"/>
<path id="Fill 73" fill-rule="evenodd" clip-rule="evenodd" d="M184.836 191.775H191.31L190.545 187.836C191.049 187.282 191.334 186.568 191.334 185.815C191.334 184.108 189.873 182.718 188.076 182.718C186.279 182.718 184.817 184.108 184.817 185.815C184.817 186.566 185.101 187.279 185.601 187.833L184.836 191.775Z" fill="#2B7CCF"/>
<path id="Fill 74" fill-rule="evenodd" clip-rule="evenodd" d="M179.313 193.801H196.84V181.083H179.313V193.801ZM188.074 174.269C190.381 174.269 192.272 175.992 192.402 178.157H183.745C183.876 175.992 185.768 174.269 188.074 174.269ZM197.602 178.209C197.497 173.293 193.264 169.325 188.074 169.325C182.885 169.325 178.651 173.294 178.546 178.21C177.232 178.457 176.239 179.56 176.239 180.879V194C176.239 195.504 177.525 196.726 179.105 196.726H197.047C198.628 196.726 199.913 195.504 199.913 194V180.879C199.913 179.558 198.918 178.455 197.602 178.209Z" fill="#2B7CCF"/>
<path id="Fill 75" fill-rule="evenodd" clip-rule="evenodd" d="M272.467 209.388H228.963C226.851 209.388 225.139 207.676 225.139 205.564V164.524C225.139 162.411 226.851 160.7 228.963 160.7H272.467C274.579 160.7 276.291 162.411 276.291 164.524V205.564C276.291 207.676 274.579 209.388 272.467 209.388Z" fill="white"/>
<path id="Fill 76" fill-rule="evenodd" clip-rule="evenodd" d="M257.286 177.313L257.754 177.65C258.059 177.874 258.559 178.142 259.219 178.142C260.55 178.142 261.633 177.111 261.633 175.844C261.633 174.578 260.55 173.546 259.219 173.546C257.888 173.546 256.805 174.578 256.805 175.844C256.805 176.165 256.883 176.487 257.036 176.801L257.286 177.313ZM244.965 183.361C242.311 183.361 240.152 185.416 240.152 187.942C240.152 190.468 242.311 192.523 244.965 192.523C247.204 192.523 249.131 191.084 249.65 189.02L249.817 188.36L249.781 187.665C249.729 186.704 249.333 185.759 248.664 185.005L248.165 184.443L247.586 184.088C246.808 183.612 245.902 183.361 244.965 183.361ZM258.892 189.501L258.836 190.276C258.836 191.5 259.918 192.53 261.249 192.53C262.579 192.53 263.661 191.5 263.661 190.234C263.661 188.966 262.579 187.936 261.249 187.936C260.427 187.936 259.667 188.337 259.218 189.012L258.892 189.501ZM261.249 195.456C258.608 195.456 256.395 193.669 255.877 191.299L252.208 190.938C250.979 193.647 248.166 195.449 244.965 195.449C240.617 195.449 237.078 192.082 237.078 187.942C237.078 183.803 240.617 180.435 244.965 180.435C246.111 180.435 247.231 180.667 248.257 181.113L253.848 176.902C253.77 176.553 253.731 176.201 253.731 175.844C253.731 172.964 256.194 170.622 259.219 170.622C262.245 170.622 264.707 172.964 264.707 175.844C264.707 178.724 262.245 181.067 259.219 181.067C258.421 181.067 257.647 180.902 256.931 180.581L251.91 184.367C252.249 184.96 252.504 185.595 252.663 186.251L257.23 186.691C258.26 185.625 259.703 185.01 261.249 185.01C264.274 185.01 266.735 187.353 266.735 190.234C266.735 193.113 264.274 195.456 261.249 195.456Z" fill="#2B7CCF"/>
<path id="Fill 77" fill-rule="evenodd" clip-rule="evenodd" d="M246.691 688.111H135.033C120.302 688.111 108.359 676.745 108.359 662.723C108.359 648.701 120.302 637.334 135.033 637.334H246.691C261.422 637.334 273.365 648.701 273.365 662.723C273.365 676.745 261.422 688.111 246.691 688.111Z" fill="url(#paint3_linear)"/>
<path id="Fill 78" fill-rule="evenodd" clip-rule="evenodd" d="M145.606 667.714L145.592 661.922L142.606 666.693H141.549L138.579 662.045V667.714H136.377V658.06H138.318L142.114 664.059L145.853 658.06H147.779L147.808 667.714H145.606Z" fill="white"/>
<path id="Fill 79" fill-rule="evenodd" clip-rule="evenodd" d="M155.191 665.501C155.563 665.128 155.749 664.63 155.749 664.004C155.749 663.379 155.563 662.88 155.191 662.507C154.819 662.135 154.344 661.948 153.764 661.948C153.184 661.948 152.706 662.135 152.329 662.507C151.953 662.88 151.764 663.379 151.764 664.004C151.764 664.63 151.953 665.128 152.329 665.501C152.706 665.873 153.184 666.059 153.764 666.059C154.344 666.059 154.819 665.873 155.191 665.501ZM151.554 667.335C150.902 667.009 150.392 666.556 150.025 665.976C149.658 665.397 149.474 664.739 149.474 664.004C149.474 663.269 149.658 662.611 150.025 662.031C150.392 661.452 150.902 661 151.554 660.673C152.207 660.347 152.943 660.184 153.764 660.184C154.585 660.184 155.318 660.347 155.966 660.673C156.613 661 157.12 661.452 157.487 662.031C157.854 662.611 158.038 663.269 158.038 664.004C158.038 664.739 157.854 665.397 157.487 665.976C157.12 666.556 156.613 667.009 155.966 667.335C155.318 667.661 154.585 667.824 153.764 667.824C152.943 667.824 152.207 667.661 151.554 667.335Z" fill="white"/>
<path id="Fill 80" fill-rule="evenodd" clip-rule="evenodd" d="M162.799 660.46C163.257 660.275 163.786 660.184 164.385 660.184V662.17C164.134 662.151 163.965 662.142 163.878 662.142C163.231 662.142 162.724 662.314 162.357 662.659C161.989 663.004 161.807 663.522 161.807 664.211V667.714H159.546V660.294H161.705V661.273C161.975 660.915 162.339 660.644 162.799 660.46Z" fill="white"/>
<path id="Fill 81" fill-rule="evenodd" clip-rule="evenodd" d="M167.965 662.224C167.618 662.499 167.405 662.877 167.327 663.355H171.168C171.09 662.886 170.878 662.512 170.529 662.231C170.182 661.951 169.757 661.81 169.255 661.81C168.743 661.81 168.313 661.948 167.965 662.224ZM173.254 664.61H167.356C167.463 665.07 167.714 665.433 168.11 665.7C168.506 665.966 168.999 666.1 169.589 666.1C169.994 666.1 170.354 666.042 170.668 665.927C170.981 665.813 171.274 665.631 171.544 665.382L172.747 666.623C172.013 667.424 170.941 667.824 169.53 667.824C168.651 667.824 167.874 667.661 167.197 667.334C166.522 667.008 165.999 666.555 165.632 665.975C165.265 665.396 165.081 664.739 165.081 664.003C165.081 663.277 165.263 662.621 165.625 662.037C165.988 661.454 166.485 660.999 167.118 660.672C167.75 660.346 168.459 660.183 169.24 660.183C170.003 660.183 170.694 660.339 171.312 660.652C171.93 660.964 172.416 661.413 172.769 661.996C173.121 662.58 173.298 663.259 173.298 664.032C173.298 664.058 173.283 664.252 173.254 664.61Z" fill="white"/>
<path id="Fill 82" fill-rule="evenodd" clip-rule="evenodd" d="M180.071 667.569C179.322 667.361 178.721 667.092 178.266 666.761L179.064 665.08C179.498 665.382 180.014 665.627 180.614 665.809C181.213 665.995 181.811 666.087 182.411 666.087C183.077 666.087 183.57 665.993 183.888 665.803C184.208 665.615 184.366 665.365 184.366 665.051C184.366 664.822 184.272 664.631 184.084 664.479C183.896 664.328 183.654 664.207 183.36 664.115C183.065 664.022 182.667 663.921 182.164 663.81C181.391 663.635 180.758 663.461 180.266 663.286C179.773 663.112 179.351 662.832 178.998 662.445C178.646 662.059 178.47 661.545 178.47 660.9C178.47 660.34 178.628 659.832 178.948 659.377C179.266 658.921 179.747 658.561 180.389 658.295C181.032 658.027 181.817 657.894 182.744 657.894C183.391 657.894 184.024 657.968 184.642 658.115C185.26 658.261 185.8 658.472 186.265 658.75L185.54 660.445C184.603 659.94 183.666 659.687 182.729 659.687C182.072 659.687 181.586 659.788 181.273 659.991C180.959 660.192 180.802 660.46 180.802 660.79C180.802 661.121 180.983 661.368 181.345 661.528C181.708 661.689 182.26 661.847 183.005 662.004C183.777 662.178 184.41 662.353 184.902 662.528C185.395 662.703 185.818 662.978 186.171 663.355C186.523 663.732 186.699 664.242 186.699 664.885C186.699 665.437 186.538 665.941 186.214 666.396C185.89 666.851 185.404 667.213 184.758 667.479C184.11 667.746 183.323 667.88 182.396 667.88C181.594 667.88 180.819 667.775 180.071 667.569Z" fill="white"/>
<path id="Fill 83" fill-rule="evenodd" clip-rule="evenodd" d="M190.453 662.224C190.106 662.499 189.892 662.877 189.815 663.355H193.655C193.578 662.886 193.366 662.512 193.017 662.231C192.67 661.951 192.245 661.81 191.743 661.81C191.231 661.81 190.8 661.948 190.453 662.224ZM195.742 664.61H189.844C189.951 665.07 190.202 665.433 190.598 665.7C190.994 665.966 191.487 666.1 192.076 666.1C192.481 666.1 192.842 666.042 193.155 665.927C193.469 665.813 193.762 665.631 194.032 665.382L195.235 666.623C194.5 667.424 193.429 667.824 192.018 667.824C191.139 667.824 190.362 667.661 189.685 667.334C189.009 667.008 188.487 666.555 188.12 665.975C187.753 665.396 187.569 664.739 187.569 664.003C187.569 663.277 187.751 662.621 188.113 662.037C188.475 661.454 188.972 660.999 189.605 660.672C190.238 660.346 190.946 660.183 191.728 660.183C192.491 660.183 193.182 660.339 193.8 660.652C194.418 660.964 194.903 661.413 195.257 661.996C195.608 662.58 195.786 663.259 195.786 664.032C195.786 664.058 195.77 664.252 195.742 664.61Z" fill="white"/>
<path id="Fill 84" fill-rule="evenodd" clip-rule="evenodd" d="M202.32 667.355C202.097 667.511 201.824 667.628 201.501 667.707C201.177 667.784 200.837 667.824 200.479 667.824C199.553 667.824 198.835 667.599 198.328 667.148C197.821 666.698 197.567 666.036 197.567 665.162V662.114H196.364V660.459H197.567V658.652H199.827V660.459H201.769V662.114H199.827V665.134C199.827 665.448 199.912 665.688 200.081 665.859C200.25 666.028 200.489 666.114 200.799 666.114C201.155 666.114 201.46 666.021 201.711 665.837L202.32 667.355Z" fill="white"/>
<path id="Fill 85" fill-rule="evenodd" clip-rule="evenodd" d="M208.448 667.355C208.225 667.511 207.952 667.628 207.629 667.707C207.305 667.784 206.965 667.824 206.607 667.824C205.681 667.824 204.963 667.599 204.456 667.148C203.949 666.698 203.695 666.036 203.695 665.162V662.114H202.492V660.459H203.695V658.652H205.955V660.459H207.897V662.114H205.955V665.134C205.955 665.448 206.04 665.688 206.209 665.859C206.378 666.028 206.617 666.114 206.927 666.114C207.283 666.114 207.588 666.021 207.839 665.837L208.448 667.355Z" fill="white"/>
<path id="Fill 86" fill-rule="evenodd" clip-rule="evenodd" d="M209.722 667.714H211.983V660.294H209.722V667.714ZM209.838 658.915C209.578 658.684 209.447 658.4 209.447 658.059C209.447 657.72 209.578 657.434 209.838 657.205C210.1 656.975 210.437 656.859 210.852 656.859C211.268 656.859 211.606 656.971 211.866 657.191C212.128 657.411 212.258 657.686 212.258 658.018C212.258 658.376 212.128 658.674 211.866 658.908C211.606 659.142 211.268 659.26 210.852 659.26C210.437 659.26 210.1 659.144 209.838 658.915Z" fill="white"/>
<path id="Fill 87" fill-rule="evenodd" clip-rule="evenodd" d="M221.162 661.012C221.756 661.563 222.053 662.382 222.053 663.466V667.714H219.792V663.798C219.792 663.209 219.657 662.77 219.387 662.481C219.116 662.191 218.725 662.045 218.213 662.045C217.643 662.045 217.19 662.213 216.851 662.549C216.512 662.885 216.345 663.384 216.345 664.045V667.714H214.083V660.294H216.243V661.163C216.541 660.85 216.914 660.609 217.359 660.439C217.802 660.27 218.29 660.184 218.822 660.184C219.787 660.184 220.568 660.46 221.162 661.012Z" fill="white"/>
<path id="Fill 88" fill-rule="evenodd" clip-rule="evenodd" d="M229.421 665.087C229.803 664.751 229.994 664.313 229.994 663.77C229.994 663.227 229.803 662.788 229.421 662.452C229.04 662.117 228.549 661.948 227.95 661.948C227.352 661.948 226.858 662.117 226.473 662.452C226.087 662.788 225.893 663.227 225.893 663.77C225.893 664.313 226.087 664.751 226.473 665.087C226.858 665.422 227.352 665.59 227.95 665.59C228.549 665.59 229.04 665.422 229.421 665.087ZM232.225 660.294V666.473C232.225 667.833 231.853 668.845 231.109 669.507C230.365 670.169 229.278 670.5 227.849 670.5C227.096 670.5 226.38 670.413 225.704 670.237C225.028 670.063 224.468 669.811 224.024 669.479L224.922 667.935C225.251 668.191 225.666 668.397 226.169 668.548C226.67 668.7 227.172 668.775 227.675 668.775C228.458 668.775 229.035 668.608 229.407 668.273C229.778 667.937 229.965 667.429 229.965 666.748V666.432C229.376 667.048 228.554 667.356 227.501 667.356C226.787 667.356 226.131 667.206 225.538 666.906C224.944 666.608 224.473 666.188 224.125 665.646C223.778 665.103 223.603 664.479 223.603 663.77C223.603 663.062 223.778 662.437 224.125 661.894C224.473 661.351 224.944 660.931 225.538 660.632C226.131 660.333 226.787 660.184 227.501 660.184C228.631 660.184 229.491 660.538 230.081 661.246V660.294H232.225Z" fill="white"/>
<path id="Fill 89" fill-rule="evenodd" clip-rule="evenodd" d="M235.051 667.596C234.433 667.445 233.94 667.254 233.572 667.025L234.326 665.48C234.674 665.692 235.094 665.865 235.587 665.997C236.079 666.131 236.563 666.198 237.035 666.198C237.992 666.198 238.471 665.972 238.471 665.521C238.471 665.31 238.34 665.158 238.08 665.066C237.818 664.974 237.417 664.897 236.877 664.831C236.239 664.74 235.712 664.634 235.298 664.514C234.882 664.396 234.522 664.184 234.218 663.879C233.913 663.576 233.761 663.144 233.761 662.583C233.761 662.115 233.904 661.699 234.189 661.335C234.473 660.972 234.889 660.69 235.435 660.487C235.981 660.285 236.626 660.184 237.369 660.184C237.92 660.184 238.468 660.242 239.014 660.357C239.559 660.471 240.011 660.63 240.368 660.832L239.615 662.363C238.929 661.994 238.18 661.811 237.369 661.811C236.886 661.811 236.524 661.876 236.283 662.004C236.041 662.133 235.921 662.299 235.921 662.5C235.921 662.731 236.05 662.892 236.312 662.984C236.572 663.075 236.988 663.163 237.557 663.246C238.196 663.347 238.717 663.454 239.123 663.571C239.528 663.685 239.881 663.894 240.18 664.197C240.48 664.5 240.629 664.923 240.629 665.466C240.629 665.926 240.484 666.335 240.195 666.694C239.905 667.053 239.482 667.33 238.927 667.528C238.371 667.725 237.712 667.825 236.948 667.825C236.301 667.825 235.669 667.749 235.051 667.596Z" fill="white"/>
<path id="Fill 90" fill-rule="evenodd" clip-rule="evenodd" d="M181.07 576.691H146.418C144.936 576.691 143.735 575.49 143.735 574.007V541.284C143.735 539.801 144.936 538.6 146.418 538.6H181.07C182.552 538.6 183.754 539.801 183.754 541.284V574.007C183.754 575.49 182.552 576.691 181.07 576.691Z" fill="#FFC600"/>
<path id="Stroke 91" d="M163.744 552.135V563.157" stroke="#ECEBF2" stroke-width="1.249" stroke-linecap="round" stroke-linejoin="round"/>
<path id="Stroke 92" d="M169.534 557.646H157.954" stroke="#ECEBF2" stroke-width="1.249" stroke-linecap="round" stroke-linejoin="round"/>
<path id="Fill 93" fill-rule="evenodd" clip-rule="evenodd" d="M234.63 576.691H199.978C198.496 576.691 197.295 575.49 197.295 574.007V541.284C197.295 539.801 198.496 538.6 199.978 538.6H234.63C236.112 538.6 237.314 539.801 237.314 541.284V574.007C237.314 575.49 236.112 576.691 234.63 576.691Z" fill="#FFAF00"/>
<path id="Stroke 94" d="M223.093 557.646H211.514" stroke="#ECEBF2" stroke-width="1.249" stroke-linecap="round" stroke-linejoin="round"/>
<path id="Fill 95" fill-rule="evenodd" clip-rule="evenodd" d="M161.255 466.767H166.347V473.764C165.32 474.442 164.127 474.962 162.769 475.326C161.411 475.689 160.079 475.868 158.77 475.868C156.916 475.868 155.252 475.503 153.778 474.77C152.303 474.037 151.149 473.011 150.313 471.696C149.476 470.379 149.058 468.886 149.058 467.215C149.058 465.545 149.476 464.051 150.313 462.735C151.149 461.419 152.316 460.395 153.815 459.661C155.313 458.929 157.007 458.562 158.894 458.562C160.6 458.562 162.128 458.833 163.478 459.377C164.826 459.921 165.949 460.714 166.843 461.753L163.092 464.898C161.999 463.686 160.699 463.078 159.193 463.078C157.901 463.078 156.874 463.45 156.112 464.188C155.35 464.93 154.969 465.939 154.969 467.215C154.969 468.46 155.347 469.462 156.101 470.219C156.853 470.974 157.859 471.354 159.118 471.354C159.863 471.354 160.575 471.219 161.255 470.951V466.767Z" fill="#342F4C"/>
<path id="Fill 96" fill-rule="evenodd" clip-rule="evenodd" d="M168.681 475.49H174.295V457.947H168.681V475.49Z" fill="#342F4C"/>
<path id="Fill 97" fill-rule="evenodd" clip-rule="evenodd" d="M185.546 470.893C185.961 470.444 186.168 469.817 186.168 469.013C186.168 468.208 185.961 467.586 185.546 467.145C185.133 466.705 184.603 466.483 183.957 466.483C183.311 466.483 182.78 466.705 182.367 467.145C181.953 467.586 181.747 468.208 181.747 469.013C181.747 469.817 181.953 470.444 182.367 470.893C182.78 471.341 183.311 471.567 183.957 471.567C184.603 471.567 185.133 471.341 185.546 470.893ZM179.895 474.865C178.694 474.289 177.756 473.493 177.076 472.476C176.398 471.46 176.059 470.305 176.059 469.013C176.059 467.721 176.398 466.566 177.076 465.549C177.756 464.533 178.694 463.741 179.895 463.173C181.096 462.606 182.45 462.323 183.957 462.323C185.48 462.323 186.842 462.606 188.044 463.173C189.243 463.741 190.18 464.533 190.85 465.549C191.52 466.566 191.856 467.721 191.856 469.013C191.856 470.305 191.52 471.46 190.85 472.476C190.18 473.493 189.243 474.289 188.044 474.865C186.842 475.441 185.48 475.728 183.957 475.728C182.45 475.728 181.096 475.441 179.895 474.865Z" fill="#342F4C"/>
<path id="Fill 98" fill-rule="evenodd" clip-rule="evenodd" d="M202.933 470.893C203.348 470.444 203.555 469.817 203.555 469.013C203.555 468.208 203.348 467.586 202.933 467.145C202.52 466.705 201.99 466.483 201.344 466.483C200.698 466.483 200.167 466.705 199.754 467.145C199.339 467.586 199.133 468.208 199.133 469.013C199.133 469.817 199.339 470.444 199.754 470.893C200.167 471.341 200.698 471.567 201.344 471.567C201.99 471.567 202.52 471.341 202.933 470.893ZM205.977 463.137C206.978 463.681 207.772 464.461 208.361 465.479C208.949 466.495 209.243 467.673 209.243 469.013C209.243 470.353 208.949 471.536 208.361 472.559C207.772 473.583 206.978 474.368 205.977 474.912C204.974 475.455 203.878 475.728 202.685 475.728C201.013 475.728 199.77 475.293 198.96 474.427V475.491H193.619V457.948H199.233V463.434C200.027 462.693 201.178 462.323 202.685 462.323C203.878 462.323 204.974 462.594 205.977 463.137Z" fill="#342F4C"/>
<path id="Fill 99" fill-rule="evenodd" clip-rule="evenodd" d="M217.787 472.204C218.102 471.999 218.333 471.692 218.483 471.283V470.384H217.092C215.95 470.384 215.378 470.747 215.378 471.471C215.378 471.77 215.498 472.019 215.738 472.216C215.977 472.413 216.305 472.512 216.72 472.512C217.117 472.512 217.472 472.409 217.787 472.204ZM222.208 463.847C223.467 464.862 224.097 466.428 224.097 468.539V475.49H218.88V473.789C218.234 475.081 216.951 475.727 215.031 475.727C213.954 475.727 213.039 475.55 212.286 475.194C211.532 474.841 210.961 474.359 210.572 473.753C210.182 473.146 209.987 472.465 209.987 471.708C209.987 470.431 210.501 469.462 211.528 468.799C212.554 468.138 214.111 467.807 216.198 467.807H218.458C218.276 466.798 217.424 466.293 215.9 466.293C215.287 466.293 214.666 466.384 214.037 466.565C213.407 466.746 212.869 466.995 212.422 467.31L210.633 463.787C211.412 463.33 212.351 462.972 213.453 462.711C214.554 462.452 215.651 462.322 216.744 462.322C219.129 462.322 220.95 462.83 222.208 463.847Z" fill="#342F4C"/>
<path id="Fill 100" fill-rule="evenodd" clip-rule="evenodd" d="M226.532 475.49H232.146V457.947H226.532V475.49Z" fill="#342F4C"/>
<path id="Fill 101" fill-rule="evenodd" clip-rule="evenodd" d="M146.325 494.473C144.85 493.74 143.696 492.715 142.86 491.4C142.023 490.083 141.605 488.59 141.605 486.919C141.605 485.249 142.023 483.755 142.86 482.439C143.696 481.122 144.85 480.098 146.325 479.365C147.799 478.632 149.454 478.266 151.293 478.266C152.982 478.266 154.488 478.55 155.813 479.117C157.138 479.684 158.231 480.504 159.092 481.576L155.391 484.72C154.315 483.428 153.048 482.781 151.59 482.781C150.364 482.781 149.38 483.156 148.635 483.905C147.889 484.654 147.516 485.659 147.516 486.919C147.516 488.18 147.889 489.186 148.635 489.933C149.38 490.682 150.364 491.057 151.59 491.057C153.048 491.057 154.315 490.411 155.391 489.119L159.092 492.262C158.231 493.334 157.138 494.154 155.813 494.721C154.488 495.288 152.982 495.572 151.293 495.572C149.454 495.572 147.799 495.206 146.325 494.473Z" fill="#342F4C"/>
<path id="Fill 102" fill-rule="evenodd" clip-rule="evenodd" d="M169.002 490.596C169.417 490.146 169.624 489.52 169.624 488.715C169.624 487.911 169.417 487.289 169.002 486.848C168.588 486.408 168.058 486.186 167.412 486.186C166.766 486.186 166.236 486.408 165.823 486.848C165.408 487.289 165.202 487.911 165.202 488.715C165.202 489.52 165.408 490.146 165.823 490.596C166.236 491.044 166.766 491.27 167.412 491.27C168.058 491.27 168.588 491.044 169.002 490.596ZM163.351 494.567C162.15 493.992 161.211 493.196 160.532 492.179C159.854 491.163 159.514 490.008 159.514 488.715C159.514 487.424 159.854 486.269 160.532 485.252C161.211 484.236 162.15 483.444 163.351 482.876C164.552 482.309 165.906 482.026 167.412 482.026C168.936 482.026 170.297 482.309 171.499 482.876C172.699 483.444 173.635 484.236 174.306 485.252C174.976 486.269 175.312 487.424 175.312 488.715C175.312 490.008 174.976 491.163 174.306 492.179C173.635 493.196 172.699 493.992 171.499 494.567C170.297 495.144 168.936 495.431 167.412 495.431C165.906 495.431 164.552 495.144 163.351 494.567Z" fill="#342F4C"/>
<path id="Fill 103" fill-rule="evenodd" clip-rule="evenodd" d="M190.55 483.467C191.569 484.428 192.078 485.879 192.078 487.818V495.194H186.465V488.739C186.465 487.258 185.909 486.517 184.8 486.517C184.17 486.517 183.661 486.727 183.273 487.144C182.883 487.562 182.689 488.219 182.689 489.118V495.194H177.075V482.261H182.416V483.537C182.945 483.033 183.557 482.655 184.253 482.404C184.949 482.151 185.703 482.026 186.514 482.026C188.186 482.026 189.531 482.506 190.55 483.467Z" fill="#342F4C"/>
<path id="Fill 104" fill-rule="evenodd" clip-rule="evenodd" d="M204.522 494.744C203.678 495.201 202.526 495.431 201.07 495.431C199.165 495.431 197.7 494.993 196.672 494.118C195.646 493.243 195.133 491.931 195.133 490.182V486.871H193.27V482.971H195.133V479.353H200.747V482.971H203.529V486.871H200.747V490.134C200.747 490.528 200.855 490.836 201.07 491.056C201.285 491.277 201.566 491.387 201.914 491.387C202.394 491.387 202.817 491.269 203.182 491.033L204.522 494.744Z" fill="#342F4C"/>
<path id="Fill 105" fill-rule="evenodd" clip-rule="evenodd" d="M215.675 482.025V486.753C215.228 486.69 214.813 486.659 214.432 486.659C212.511 486.659 211.551 487.588 211.551 489.448V495.193H205.938V482.26H211.279V483.656C212.272 482.569 213.738 482.025 215.675 482.025Z" fill="#342F4C"/>
<path id="Fill 106" fill-rule="evenodd" clip-rule="evenodd" d="M225.908 490.596C226.323 490.146 226.53 489.52 226.53 488.715C226.53 487.911 226.323 487.289 225.908 486.848C225.494 486.408 224.964 486.186 224.318 486.186C223.672 486.186 223.142 486.408 222.729 486.848C222.314 487.289 222.108 487.911 222.108 488.715C222.108 489.52 222.314 490.146 222.729 490.596C223.142 491.044 223.672 491.27 224.318 491.27C224.964 491.27 225.494 491.044 225.908 490.596ZM220.257 494.567C219.056 493.992 218.117 493.196 217.438 492.179C216.76 491.163 216.42 490.008 216.42 488.715C216.42 487.424 216.76 486.269 217.438 485.252C218.117 484.236 219.056 483.444 220.257 482.876C221.457 482.309 222.812 482.026 224.318 482.026C225.842 482.026 227.203 482.309 228.405 482.876C229.605 483.444 230.541 484.236 231.212 485.252C231.882 486.269 232.218 487.424 232.218 488.715C232.218 490.008 231.882 491.163 231.212 492.179C230.541 493.196 229.605 493.992 228.405 494.567C227.203 495.144 225.842 495.431 224.318 495.431C222.812 495.431 221.457 495.144 220.257 494.567Z" fill="#342F4C"/>
<path id="Fill 107" fill-rule="evenodd" clip-rule="evenodd" d="M233.981 495.193H239.595V477.65H233.981V495.193Z" fill="#342F4C"/>
<g id="Group 120">
<path id="Fill 108" fill-rule="evenodd" clip-rule="evenodd" d="M142.561 513.657C143.382 513.657 144.104 513.506 144.728 513.202C145.35 512.898 145.831 512.473 146.169 511.927C146.507 511.38 146.676 510.747 146.676 510.03C146.676 509.313 146.507 508.68 146.169 508.134C145.831 507.588 145.35 507.161 144.728 506.858C144.104 506.554 143.382 506.403 142.561 506.403H139.823V513.657H142.561ZM138.374 505.203H142.648C143.72 505.203 144.672 505.405 145.503 505.81C146.333 506.215 146.978 506.782 147.436 507.513C147.896 508.244 148.125 509.083 148.125 510.03C148.125 510.976 147.896 511.816 147.436 512.548C146.978 513.278 146.333 513.845 145.503 514.251C144.672 514.655 143.72 514.857 142.648 514.857H138.374V505.203Z" fill="#342F4C"/>
<path id="Fill 109" fill-rule="evenodd" clip-rule="evenodd" d="M154.755 513.457C155.146 513.242 155.453 512.937 155.675 512.548C155.898 512.156 156.008 511.708 156.008 511.202C156.008 510.696 155.898 510.249 155.675 509.858C155.453 509.468 155.146 509.166 154.755 508.954C154.363 508.743 153.921 508.637 153.429 508.637C152.936 508.637 152.495 508.743 152.104 508.954C151.712 509.166 151.403 509.468 151.176 509.858C150.949 510.249 150.836 510.696 150.836 511.202C150.836 511.708 150.949 512.156 151.176 512.548C151.403 512.937 151.712 513.242 152.104 513.457C152.495 513.674 152.936 513.782 153.429 513.782C153.921 513.782 154.363 513.674 154.755 513.457ZM151.372 514.457C150.763 514.136 150.287 513.692 149.944 513.126C149.602 512.561 149.43 511.92 149.43 511.202C149.43 510.485 149.602 509.845 149.944 509.278C150.287 508.713 150.763 508.271 151.372 507.954C151.98 507.638 152.666 507.478 153.429 507.478C154.192 507.478 154.875 507.638 155.48 507.954C156.083 508.271 156.556 508.713 156.899 509.278C157.242 509.845 157.414 510.485 157.414 511.202C157.414 511.92 157.242 512.561 156.899 513.126C156.556 513.692 156.083 514.136 155.48 514.457C154.875 514.779 154.192 514.94 153.429 514.94C152.666 514.94 151.98 514.779 151.372 514.457Z" fill="#342F4C"/>
<path id="Fill 110" fill-rule="evenodd" clip-rule="evenodd" d="M159.341 514.857H160.732V504.624H159.341V514.857Z" fill="#342F4C"/>
<path id="Fill 111" fill-rule="evenodd" clip-rule="evenodd" d="M167.998 513.457C168.39 513.242 168.696 512.937 168.918 512.548C169.141 512.156 169.252 511.708 169.252 511.202C169.252 510.696 169.141 510.249 168.918 509.858C168.696 509.468 168.39 509.166 167.998 508.954C167.607 508.743 167.165 508.637 166.672 508.637C166.179 508.637 165.738 508.743 165.347 508.954C164.956 509.166 164.646 509.468 164.419 509.858C164.192 510.249 164.079 510.696 164.079 511.202C164.079 511.708 164.192 512.156 164.419 512.548C164.646 512.937 164.956 513.242 165.347 513.457C165.738 513.674 166.179 513.782 166.672 513.782C167.165 513.782 167.607 513.674 167.998 513.457ZM164.615 514.457C164.006 514.136 163.53 513.692 163.187 513.126C162.845 512.561 162.674 511.92 162.674 511.202C162.674 510.485 162.845 509.845 163.187 509.278C163.53 508.713 164.006 508.271 164.615 507.954C165.223 507.638 165.91 507.478 166.672 507.478C167.436 507.478 168.119 507.638 168.723 507.954C169.326 508.271 169.8 508.713 170.142 509.278C170.485 509.845 170.658 510.485 170.658 511.202C170.658 511.92 170.485 512.561 170.142 513.126C169.8 513.692 169.326 514.136 168.723 514.457C168.119 514.779 167.436 514.94 166.672 514.94C165.91 514.94 165.223 514.779 164.615 514.457Z" fill="#342F4C"/>
<path id="Fill 112" fill-rule="evenodd" clip-rule="evenodd" d="M174.989 507.81C175.462 507.589 176.038 507.479 176.714 507.479V508.762C176.636 508.752 176.53 508.748 176.394 508.748C175.642 508.748 175.049 508.961 174.619 509.39C174.19 509.817 173.975 510.425 173.975 511.217V514.858H172.584V507.548H173.917V508.775C174.159 508.353 174.516 508.031 174.989 507.81Z" fill="#342F4C"/>
<path id="Fill 113" fill-rule="evenodd" clip-rule="evenodd" d="M183.372 514.63C182.661 514.404 182.104 514.113 181.698 513.754L182.234 512.678C182.621 513.01 183.115 513.278 183.719 513.485C184.322 513.693 184.944 513.796 185.581 513.796C186.421 513.796 187.049 513.66 187.464 513.389C187.88 513.117 188.087 512.756 188.087 512.306C188.087 511.975 187.974 511.706 187.747 511.499C187.52 511.292 187.24 511.134 186.906 511.023C186.574 510.913 186.103 510.788 185.494 510.651C184.731 510.477 184.115 510.302 183.646 510.127C183.179 509.952 182.778 509.683 182.444 509.319C182.111 508.956 181.944 508.468 181.944 507.851C181.944 507.336 182.087 506.872 182.372 506.458C182.656 506.045 183.089 505.714 183.668 505.465C184.248 505.217 184.967 505.093 185.828 505.093C186.426 505.093 187.015 505.167 187.595 505.314C188.175 505.461 188.672 505.673 189.088 505.948L188.609 507.052C188.184 506.794 187.731 506.599 187.248 506.465C186.764 506.332 186.291 506.266 185.828 506.266C185.007 506.266 184.391 506.408 183.979 506.693C183.57 506.978 183.364 507.346 183.364 507.796C183.364 508.127 183.48 508.396 183.712 508.604C183.944 508.81 184.231 508.971 184.574 509.085C184.916 509.201 185.383 509.322 185.972 509.451C186.735 509.626 187.349 509.801 187.813 509.976C188.276 510.15 188.674 510.416 189.008 510.776C189.341 511.134 189.508 511.616 189.508 512.224C189.508 512.73 189.363 513.192 189.073 513.609C188.783 514.027 188.343 514.359 187.755 514.602C187.166 514.846 186.441 514.967 185.581 514.967C184.818 514.967 184.081 514.856 183.372 514.63Z" fill="#342F4C"/>
<path id="Fill 114" fill-rule="evenodd" clip-rule="evenodd" d="M191.421 514.858H192.812V507.548H191.421V514.858ZM191.443 505.893C191.263 505.727 191.174 505.525 191.174 505.285C191.174 505.047 191.263 504.843 191.443 504.672C191.621 504.502 191.845 504.417 192.116 504.417C192.386 504.417 192.611 504.497 192.79 504.659C192.968 504.819 193.058 505.019 193.058 505.259C193.058 505.507 192.968 505.716 192.79 505.886C192.611 506.056 192.386 506.141 192.116 506.141C191.845 506.141 191.621 506.058 191.443 505.893Z" fill="#342F4C"/>
<path id="Fill 115" fill-rule="evenodd" clip-rule="evenodd" d="M199.781 514.431C199.578 514.595 199.327 514.722 199.029 514.81C198.728 514.897 198.419 514.941 198.101 514.941C197.327 514.941 196.729 514.743 196.304 514.348C195.879 513.952 195.666 513.387 195.666 512.651V508.637H194.363V507.548H195.666V505.949H197.058V507.548H199.26V508.637H197.058V512.596C197.058 512.991 197.161 513.294 197.369 513.506C197.576 513.717 197.874 513.823 198.26 513.823C198.684 513.823 199.047 513.708 199.347 513.479L199.781 514.431Z" fill="#342F4C"/>
<path id="Fill 116" fill-rule="evenodd" clip-rule="evenodd" d="M211.518 511.34L209.33 506.61L207.142 511.34H211.518ZM212.025 512.444H206.635L205.519 514.858H204.026L208.62 505.203H210.055L214.663 514.858H213.141L212.025 512.444Z" fill="#342F4C"/>
<path id="Fill 117" fill-rule="evenodd" clip-rule="evenodd" d="M227.869 508.279C228.434 508.811 228.717 509.602 228.717 510.65V514.857H227.326V510.802C227.326 510.094 227.155 509.561 226.812 509.203C226.468 508.844 225.978 508.665 225.341 508.665C224.636 508.665 224.075 508.875 223.661 509.293C223.245 509.711 223.036 510.31 223.036 511.092V514.857H221.646V510.802C221.646 510.094 221.475 509.561 221.132 509.203C220.788 508.844 220.299 508.665 219.661 508.665C218.955 508.665 218.395 508.875 217.981 509.293C217.565 509.711 217.357 510.31 217.357 511.092V514.857H215.966V507.548H217.299V508.636C217.579 508.259 217.946 507.973 218.4 507.775C218.855 507.577 219.371 507.478 219.952 507.478C220.55 507.478 221.081 507.593 221.544 507.824C222.009 508.053 222.365 508.388 222.617 508.831C222.907 508.407 223.31 508.076 223.827 507.838C224.344 507.598 224.926 507.478 225.573 507.478C226.539 507.478 227.304 507.745 227.869 508.279Z" fill="#342F4C"/>
<path id="Fill 118" fill-rule="evenodd" clip-rule="evenodd" d="M232.795 509.175C232.346 509.562 232.083 510.068 232.005 510.693H236.932C236.854 510.076 236.591 509.573 236.142 509.182C235.693 508.792 235.135 508.596 234.469 508.596C233.802 508.596 233.244 508.789 232.795 509.175ZM238.236 511.644H232.005C232.092 512.287 232.39 512.805 232.897 513.196C233.404 513.586 234.034 513.782 234.788 513.782C235.706 513.782 236.444 513.487 237.004 512.899L237.772 513.754C237.425 514.14 236.992 514.435 236.476 514.637C235.959 514.84 235.381 514.941 234.745 514.941C233.933 514.941 233.213 514.781 232.586 514.464C231.957 514.148 231.472 513.704 231.129 513.133C230.786 512.564 230.615 511.92 230.615 511.202C230.615 510.495 230.782 509.856 231.114 509.285C231.447 508.716 231.906 508.272 232.491 507.954C233.075 507.638 233.735 507.479 234.469 507.479C235.203 507.479 235.858 507.638 236.433 507.954C237.007 508.272 237.456 508.716 237.779 509.285C238.104 509.856 238.265 510.508 238.265 511.244C238.265 511.346 238.255 511.479 238.236 511.644Z" fill="#342F4C"/>
<path id="Fill 119" fill-rule="evenodd" clip-rule="evenodd" d="M244.509 514.431C244.306 514.595 244.055 514.722 243.756 514.81C243.456 514.897 243.147 514.941 242.829 514.941C242.055 514.941 241.457 514.743 241.032 514.348C240.607 513.952 240.394 513.387 240.394 512.651V508.637H239.091V507.548H240.394V505.949H241.786V507.548H243.988V508.637H241.786V512.596C241.786 512.991 241.889 513.294 242.097 513.506C242.304 513.717 242.602 513.823 242.988 513.823C243.412 513.823 243.775 513.708 244.075 513.479L244.509 514.431Z" fill="#342F4C"/>
</g>
<path id="Fill 121" fill-rule="evenodd" clip-rule="evenodd" d="M132.632 393.496H250.965V391.853H132.632V393.496Z" fill="white"/>
</g>
</g>
</g>
</g>
<g id="Group 8">
<path id="Fill 1_2" fill-rule="evenodd" clip-rule="evenodd" d="M372.576 240.726C370.14 240.726 368.148 236.748 368.148 231.884V128.972C368.148 124.111 370.14 120.131 372.576 120.131C375.012 120.131 377.004 124.111 377.004 128.972V231.884C377.004 236.748 375.012 240.726 372.576 240.726Z" fill="#1B1B1B"/>
<path id="Fill 3" fill-rule="evenodd" clip-rule="evenodd" d="M372.576 371.681C370.14 371.681 368.148 367.703 368.148 362.839V259.927C368.148 255.066 370.14 251.086 372.576 251.086C375.012 251.086 377.004 255.066 377.004 259.927V362.839C377.004 367.703 375.012 371.681 372.576 371.681Z" fill="#1B1B1B"/>
<g id="Group 7">
<mask id="mask3" mask-type="alpha" maskUnits="userSpaceOnUse" x="0" y="0" width="376" height="739">
<path id="Clip 6" fill-rule="evenodd" clip-rule="evenodd" d="M0 0.35849H375.15V738.999H0V0.35849Z" fill="white"/>
</mask>
<g mask="url(#mask3)">
<path id="Fill 5" fill-rule="evenodd" clip-rule="evenodd" d="M365.326 368.76V676.479C365.326 704.47 342.815 727.162 315.045 727.162H292.954H271.915H241.321H204.599H187.576H170.55H133.83H103.235H82.1965H60.1064C32.336 727.162 9.82457 704.47 9.82457 676.479V368.76V61.0425C9.82457 33.0519 32.336 10.3585 60.1064 10.3585H82.1965H103.235H133.83H166.569C170.164 11.1734 173.012 13.8912 174.024 17.4089C174.388 18.8519 174.949 20.2426 175.709 21.5248C178.398 26.065 183.464 29.1286 188.779 29.1286C195.819 29.1286 201.602 23.9379 203.341 17.5342H203.358C204.337 13.9585 207.209 11.1884 210.84 10.3585H241.321H271.915H292.954H315.045C342.815 10.3585 365.326 33.0519 365.326 61.0425V368.76ZM314.884 0.35849H58.1219C26.0229 0.35849 -0.000762939 26.3379 -0.000762939 58.3846V680.973C-0.000762939 713.021 26.0229 738.999 58.1219 738.999H317.027C349.128 738.999 375.15 713.021 375.15 680.973V60.5267C375.15 27.2968 348.168 0.35849 314.884 0.35849Z" fill="#1B1B1B"/>
</g>
</g>
</g>
<g id="Group 11">
<mask id="mask4" mask-type="alpha" maskUnits="userSpaceOnUse" x="182" y="11" width="16" height="16">
<path id="Clip 10" fill-rule="evenodd" clip-rule="evenodd" d="M182.038 19.1493C182.038 23.2987 185.483 26.6622 189.73 26.6622C193.98 26.6622 197.427 23.2987 197.427 19.1493C197.427 14.9982 193.98 11.6347 189.73 11.6347C185.483 11.6347 182.038 14.9982 182.038 19.1493Z" fill="white"/>
</mask>
<g mask="url(#mask4)">
<path id="Fill 9" fill-rule="evenodd" clip-rule="evenodd" d="M182.038 19.1493C182.038 23.2987 185.483 26.6622 189.73 26.6622C193.98 26.6622 197.427 23.2987 197.427 19.1493C197.427 14.9982 193.98 11.6347 189.73 11.6347C185.483 11.6347 182.038 14.9982 182.038 19.1493Z" fill="url(#paint4_radial)"/>
</g>
</g>
<g id="Group 14">
<mask id="mask5" mask-type="alpha" maskUnits="userSpaceOnUse" x="182" y="12" width="14" height="13">
<path id="Clip 13" fill-rule="evenodd" clip-rule="evenodd" d="M182.959 18.656C182.959 22.0676 185.782 24.8329 189.265 24.8329C192.747 24.8329 195.572 22.0676 195.572 18.656C195.572 15.2444 192.747 12.4773 189.265 12.4773C185.782 12.4773 182.959 15.2444 182.959 18.656Z" fill="white"/>
</mask>
<g mask="url(#mask5)">
<path id="Fill 12_2" fill-rule="evenodd" clip-rule="evenodd" d="M182.959 18.656C182.959 22.0676 185.782 24.8329 189.265 24.8329C192.747 24.8329 195.572 22.0676 195.572 18.656C195.572 15.2444 192.747 12.4773 189.265 12.4773C185.782 12.4773 182.959 15.2444 182.959 18.656Z" fill="url(#paint5_radial)"/>
</g>
</g>
<g id="Group 49">
<path id="Fill 15" fill-rule="evenodd" clip-rule="evenodd" d="M177.054 35.3504V46.7709H175.458V36.7704H172.911V35.3504H177.054Z" fill="black"/>
<path id="Fill 17" fill-rule="evenodd" clip-rule="evenodd" d="M189.335 43.9649H187.191V46.7707H185.629V43.9649H179.359V42.8217L185.129 35.3502H186.869L181.34 42.562H185.676V40.0822H187.191V42.562H189.335V43.9649Z" fill="black"/>
<path id="Fill 19" fill-rule="evenodd" clip-rule="evenodd" d="M190.384 45.7432C190.384 45.091 190.882 44.6341 191.477 44.6341C192.06 44.6341 192.543 45.091 192.543 45.7432C192.543 46.3953 192.06 46.8693 191.477 46.8693C190.882 46.8693 190.384 46.3953 190.384 45.7432ZM190.384 39.1514C190.384 38.4992 190.882 38.0423 191.477 38.0423C192.06 38.0423 192.543 38.4992 192.543 39.1514C192.543 39.8035 192.06 40.2775 191.477 40.2775C190.882 40.2775 190.384 39.8035 190.384 39.1514Z" fill="black"/>
<path id="Fill 21_2" fill-rule="evenodd" clip-rule="evenodd" d="M201.794 43.4096C201.794 45.3358 200.392 46.9017 197.523 46.9017C195.91 46.9017 194.332 46.3785 193.38 45.514L194.122 44.2267C194.88 44.9433 196.137 45.4495 197.523 45.4495C199.216 45.4495 200.182 44.6665 200.182 43.4267C200.182 42.219 199.328 41.436 197.393 41.436H196.491V40.2928L199.328 36.7704H193.895V35.3504H201.343V36.4595L198.393 40.1469C200.65 40.3592 201.794 41.6484 201.794 43.4096Z" fill="black"/>
<path id="Fill 23_2" fill-rule="evenodd" clip-rule="evenodd" d="M211.046 43.3448C211.046 45.3183 209.66 46.9013 206.776 46.9013C205.179 46.9013 203.6 46.38 202.634 45.5155L203.374 44.2263C204.132 44.943 205.389 45.4491 206.759 45.4491C208.467 45.4491 209.435 44.6491 209.435 43.4092C209.435 42.1201 208.628 41.3219 206.016 41.3219H203.454L204.051 35.35H210.417V36.77H205.405L205.098 39.9019H206.357C209.724 39.9019 211.046 41.3219 211.046 43.3448Z" fill="black"/>
<path id="Fill 25_2" fill-rule="evenodd" clip-rule="evenodd" d="M261.01 35.6707V46.585H259.485V37.0281H257.051V35.6707H261.01Z" fill="black"/>
<path id="Fill 27_2" fill-rule="evenodd" clip-rule="evenodd" d="M270.625 41.1286C270.625 38.3379 269.455 36.935 267.777 36.935C266.08 36.935 264.91 38.3379 264.91 41.1286C264.91 43.9192 266.08 45.3222 267.777 45.3222C269.455 45.3222 270.625 43.9192 270.625 41.1286ZM263.371 41.1286C263.371 37.5739 265.251 35.5472 267.777 35.5472C270.286 35.5472 272.165 37.5739 272.165 41.1286C272.165 44.6833 270.286 46.7099 267.777 46.7099C265.251 46.7099 263.371 44.6833 263.371 41.1286Z" fill="black"/>
<path id="Fill 29_2" fill-rule="evenodd" clip-rule="evenodd" d="M280.905 41.1286C280.905 38.3379 279.734 36.935 278.056 36.935C276.362 36.935 275.189 38.3379 275.189 41.1286C275.189 43.9192 276.362 45.3222 278.056 45.3222C279.734 45.3222 280.905 43.9192 280.905 41.1286ZM273.65 41.1286C273.65 37.5739 275.53 35.5472 278.056 35.5472C280.566 35.5472 282.444 37.5739 282.444 41.1286C282.444 44.6833 280.566 46.7099 278.056 46.7099C275.53 46.7099 273.65 44.6833 273.65 41.1286Z" fill="black"/>
<path id="Fill 31_2" fill-rule="evenodd" clip-rule="evenodd" d="M294.606 43.7012C294.606 42.4064 294.021 41.612 293.095 41.612C292.156 41.612 291.587 42.3912 291.587 43.7012C291.587 45.0112 292.156 45.7904 293.095 45.7904C294.021 45.7904 294.606 44.9961 294.606 43.7012ZM290.6 43.7012C290.6 41.9248 291.602 40.7229 293.095 40.7229C294.589 40.7229 295.606 41.9248 295.606 43.7012C295.606 45.4776 294.589 46.6796 293.095 46.6796C291.602 46.6796 290.6 45.4776 290.6 43.7012ZM292.772 35.6705H293.958L286.596 46.5848H285.411L292.772 35.6705ZM287.782 38.5559C287.782 37.2459 287.212 36.4667 286.272 36.4667C285.349 36.4667 284.763 37.2611 284.763 38.5559C284.763 39.8489 285.349 40.6451 286.272 40.6451C287.212 40.6451 287.782 39.866 287.782 38.5559ZM283.763 38.5559C283.763 36.7776 284.778 35.5776 286.272 35.5776C287.767 35.5776 288.769 36.7625 288.769 38.5559C288.769 40.3494 287.767 41.5343 286.272 41.5343C284.778 41.5343 283.763 40.3342 283.763 38.5559Z" fill="black"/>
<path id="Fill 33" fill-rule="evenodd" clip-rule="evenodd" d="M37.915 46.7736H35.0254C34.694 46.7736 34.4281 46.5025 34.4281 46.1688V39.977C34.4281 39.6415 34.694 39.3723 35.0254 39.3723H37.915C38.2445 39.3723 38.5123 39.6415 38.5123 39.977V46.1688C38.5123 46.5025 38.2445 46.7736 37.915 46.7736Z" fill="black"/>
<path id="Fill 35_2" fill-rule="evenodd" clip-rule="evenodd" d="M43.5603 46.7736H40.6708C40.3393 46.7736 40.0715 46.5025 40.0715 46.1688V38.5608C40.0715 38.2272 40.3393 37.9561 40.6708 37.9561H43.5603C43.8898 37.9561 44.1576 38.2272 44.1576 38.5608V46.1688C44.1576 46.5025 43.8898 46.7736 43.5603 46.7736Z" fill="black"/>
<path id="Fill 37_2" fill-rule="evenodd" clip-rule="evenodd" d="M66.4675 42.4014C66.4057 42.5531 66.5499 42.7275 66.5499 42.7275L69.4057 46.3637C69.608 46.6196 70.108 46.6196 70.3102 46.3637L73.0593 42.8621C73.0593 42.8621 73.2184 42.6592 73.1604 42.4905C73.0986 42.3142 72.8832 42.2023 72.842 42.1834C71.8252 41.7341 70.8177 41.5824 69.8121 41.5824C68.8533 41.5824 67.7447 41.7208 66.769 42.1739C66.7222 42.1948 66.5162 42.2782 66.4675 42.4014Z" fill="black"/>
<path id="Fill 39_2" fill-rule="evenodd" clip-rule="evenodd" d="M64.442 39.7614C64.3653 39.9415 64.5282 40.1539 64.5282 40.1539L65.1817 40.9843C65.1817 40.9843 65.5432 41.4582 65.7398 41.5511C65.9739 41.6649 66.2154 41.5265 66.4982 41.426C67.5338 41.0563 68.678 40.8307 69.8578 40.8307C71.002 40.8307 72.1237 41.0203 73.1255 41.3975C73.4533 41.5227 73.7978 41.7123 74.0375 41.5378L74.4252 41.1227L75.1031 40.2582C75.1031 40.2582 75.3334 39.9814 75.2791 39.8164C75.2079 39.6022 75.0843 39.5453 74.8652 39.4505C73.3821 38.8097 71.6667 38.3547 69.8465 38.3547C67.9551 38.3547 66.2922 38.8306 64.7716 39.4884C64.6125 39.5586 64.5076 39.6041 64.442 39.7614Z" fill="black"/>
<path id="Fill 41_2" fill-rule="evenodd" clip-rule="evenodd" d="M69.8122 37.6212C71.8703 37.6212 73.7692 38.0819 75.3722 38.8516C75.5295 38.9275 75.6493 38.9749 75.8216 38.9616C75.9508 38.9521 76.1025 38.7815 76.1025 38.7815L77.5894 37.0563C77.5894 37.0563 77.7467 36.8856 77.6999 36.7378C77.6437 36.5539 77.5594 36.516 77.3778 36.4401C75.1287 35.5244 72.5669 34.8002 69.8122 34.8002C67.052 34.8002 64.4845 35.5282 62.2336 36.4496C62.0782 36.5141 62.037 36.5425 61.9827 36.6676C61.9227 36.8117 62.0407 36.9691 62.0407 36.9691L63.4265 38.6488C63.4265 38.6488 63.6418 38.9237 63.7823 38.9521C63.9471 38.9843 64.0857 38.9313 64.2392 38.8573C65.8441 38.0838 67.7486 37.6212 69.8122 37.6212Z" fill="black"/>
<path id="Fill 43_2" fill-rule="evenodd" clip-rule="evenodd" d="M305.6 35.1995C304.735 35.1995 304.031 35.9105 304.031 36.7863V44.9214C304.031 45.7972 304.735 46.5082 305.6 46.5082H332.426C333.293 46.5082 333.995 45.7972 333.995 44.9214V36.7863C333.995 35.9105 333.293 35.1995 332.426 35.1995H305.6ZM332.426 47.0655H305.6C304.432 47.0655 303.48 46.1044 303.48 44.9214V36.7863C303.48 35.6033 304.432 34.6422 305.6 34.6422H332.426C333.597 34.6422 334.546 35.6033 334.546 36.7863V44.9214C334.546 46.1044 333.597 47.0655 332.426 47.0655Z" fill="black"/>
<path id="Fill 45_2" fill-rule="evenodd" clip-rule="evenodd" d="M302.106 38.6469L302.083 42.2187L302.106 42.2395H303.461V38.6469H302.106ZM304.014 42.795H302.106C301.789 42.795 301.532 42.5372 301.532 42.2187V38.6678C301.532 38.3493 301.789 38.0895 302.106 38.0895H304.014V42.795Z" fill="black"/>
<path id="Fill 47_2" fill-rule="evenodd" clip-rule="evenodd" d="M306.213 45.5303H331.814C332.456 45.5303 332.981 44.9976 332.981 44.3473V37.3593C332.981 36.7109 332.456 36.1782 331.814 36.1782H306.213C305.571 36.1782 305.046 36.7109 305.046 37.3593V44.3473C305.046 44.9976 305.571 45.5303 306.213 45.5303Z" fill="black"/>
</g>
</g>
<defs>
<linearGradient id="paint0_linear" x1="0" y1="0" x2="0" y2="739" gradientUnits="userSpaceOnUse">
<stop stop-color="#AB8AF1"/>
<stop offset="1" stop-color="#5B34D9"/>
</linearGradient>
<linearGradient id="paint1_linear" x1="169.642" y1="-144.916" x2="-171.192" y2="208.674" gradientUnits="userSpaceOnUse">
<stop stop-color="#8277E6"/>
<stop offset="0.525937" stop-color="#2986E5"/>
<stop offset="1" stop-color="#2B7CCF"/>
</linearGradient>
<linearGradient id="paint2_linear" x1="209.674" y1="281.19" x2="173.567" y2="371.77" gradientUnits="userSpaceOnUse">
<stop stop-color="#F6F6F6"/>
<stop offset="1" stop-color="#E9E9E9"/>
</linearGradient>
<linearGradient id="paint3_linear" x1="190.862" y1="616.092" x2="170.018" y2="697.049" gradientUnits="userSpaceOnUse">
<stop stop-color="#56B3E9"/>
<stop offset="1" stop-color="#2B7CCF"/>
</linearGradient>
<radialGradient id="paint4_radial" cx="0" cy="0" r="1" gradientUnits="userSpaceOnUse" gradientTransform="translate(182.424 8.32748) rotate(57.5178) scale(19.433 19.6335)">
<stop stop-color="#737376"/>
<stop offset="1" stop-color="#3D3D3A"/>
</radialGradient>
<radialGradient id="paint5_radial" cx="0" cy="0" r="1" gradientUnits="userSpaceOnUse" gradientTransform="translate(183.382 8.87237) rotate(62.2896) scale(15.3344 15.5171)">
<stop stop-color="#737376"/>
<stop offset="1" stop-color="#302D29"/>
</radialGradient>
</defs>
</svg>
