<svg width="40" height="40" viewBox="0 0 40 40" fill="none" xmlns="http://www.w3.org/2000/svg">
<circle cx="20" cy="20" r="20" fill="#4E7BCA"/>
<path fill-rule="evenodd" clip-rule="evenodd" d="M15.735 25.3167C13.5357 24.9913 11.8988 23.732 11.6084 22.1583H13.3639C13.385 22.1222 13.4055 22.0854 13.4259 22.05C11.2771 21.3428 10.0799 19.9092 9.92584 17.6391C10.5721 17.8175 11.1871 17.987 11.802 18.1565C9.92856 16.4084 9.50588 14.4276 10.553 12.0418C13.0476 14.9402 16.1386 16.5351 19.9543 16.8032C19.7853 15.7291 19.8425 14.7353 20.3034 13.7878C21.6233 11.0739 25.1711 10.3612 27.4161 12.3828C27.6649 12.6068 27.881 12.649 28.1571 12.551C28.9418 12.2705 29.7224 11.9819 30.5296 11.6872C30.2283 12.6524 29.5731 13.3855 28.7878 14.0832C29.539 13.8817 30.2896 13.6795 31.0396 13.4781C31.0716 13.5039 31.103 13.5305 31.135 13.557C30.5664 14.1417 30.0435 14.7829 29.4129 15.2921C29.0189 15.6107 28.9466 15.9272 28.9473 16.3737C28.9541 21.7219 25.4254 26.7822 20.4588 28.4601C16.6881 29.7344 13.0326 29.4158 9.54406 27.4574C9.44861 27.4037 9.35726 27.3438 9.13501 27.2083C11.6254 27.369 13.7648 26.7924 15.735 25.3167Z" fill="white"/>
</svg>
