<svg width="106" height="106" viewBox="0 0 106 106" fill="none" xmlns="http://www.w3.org/2000/svg">
<circle cx="53" cy="53" r="53" fill="#4E7BCA"/>
<mask id="mask0" mask-type="alpha" maskUnits="userSpaceOnUse" x="22" y="27" width="61" height="51">
<path fill-rule="evenodd" clip-rule="evenodd" d="M22 27H83V78H22V27Z" fill="white"/>
</mask>
<g mask="url(#mask0)">
<path fill-rule="evenodd" clip-rule="evenodd" d="M33.8708 51.4067C32.5763 50.5978 31.4341 49.8868 30.1932 49.1116C30.11 49.9176 30.0339 50.6431 29.9549 51.4067H33.8708ZM75.0573 51.4082C74.9629 50.5817 74.8769 49.8342 74.7824 49.0179C73.4766 49.8313 72.2724 50.5831 70.9469 51.4082H75.0573ZM63.5057 64.5676C63.3774 65.0532 63.2307 65.4921 63.1602 65.9426C63.1349 66.0962 63.2561 66.3697 63.3859 66.4385C64.9327 67.2679 66.4909 68.0754 68.0576 68.8653C68.1986 68.9355 68.4961 68.915 68.5906 68.8097C69.2576 68.0768 69.8893 67.3089 70.5788 66.4985C68.1718 65.8417 65.8775 65.2156 63.5057 64.5676ZM34.3601 66.4092C35.0172 67.1962 35.6476 67.9349 36.2581 68.6897C36.5091 68.9984 36.708 69.0145 37.0605 68.8082C38.1914 68.1514 39.3364 67.5136 40.5096 66.9432C42.0593 66.1883 42.0734 66.2205 41.4177 64.4813C39.1023 65.1132 36.7883 65.7466 34.3601 66.4092ZM38.1406 70.5446C40.5674 72.5852 43.1437 73.9939 46.0415 74.7896C44.4311 72.9085 43.4201 70.6865 42.5317 68.3006C41.0511 69.0569 39.6509 69.7722 38.1406 70.5446ZM42.9773 61.756C45.2236 60.9369 47.3388 60.1631 49.5879 59.3424C47.0948 58.1868 44.7696 57.1102 42.3075 55.9692C42.5359 57.9411 42.7503 59.793 42.9773 61.756ZM58.9511 74.8964C61.8545 74.0085 64.459 72.613 66.8632 70.5153C65.3219 69.7415 63.9132 69.035 62.4256 68.286C61.4977 70.6923 60.591 73.005 58.9511 74.8964ZM62.6991 55.858C60.1214 57.0502 57.7003 58.1707 55.148 59.3527C57.4972 60.2069 59.6984 61.0056 62.0223 61.8497C62.2507 59.8281 62.4679 57.9103 62.6991 55.858ZM30.9378 40.0451C29.5897 39.9442 28.236 39.8023 26.8795 39.7598C26.2083 39.7394 25.5187 39.8447 24.8602 39.9997C24.1523 40.168 24.0099 40.5278 24.3906 41.1671C25.4919 43.0102 27.1798 44.2082 28.7592 45.4794C29.4924 43.6538 30.1918 41.9087 30.9378 40.0451ZM76.2193 45.4194C77.7196 44.2229 79.2933 43.0804 80.4186 41.4304C81.0757 40.4664 80.891 40.0305 79.7883 39.7803C79.7276 39.7657 79.6628 39.7584 79.5993 39.7481C77.7196 39.4497 75.871 39.7394 74.0378 40.0217C74.764 41.818 75.4761 43.5807 76.2193 45.4194ZM31.0026 65.1088C30.1904 63.0755 29.4684 61.2719 28.7295 59.4214C27.2391 60.5551 25.7373 61.7195 24.6064 63.2935C24.3229 63.6884 24.2327 64.234 24.0522 64.7109C24.5161 64.8938 24.9787 65.2287 25.4426 65.2331C27.2673 65.2492 29.0919 65.16 31.0026 65.1088ZM74.0181 65.0196C74.3255 65.0708 74.6555 65.1381 74.9883 65.1819C76.7199 65.4087 78.4571 65.6339 80.193 65.2405C81.0517 65.0474 81.204 64.708 80.7415 63.9415C80.4059 63.3856 80.0153 62.84 79.5528 62.3968C78.4881 61.3713 77.3657 60.4117 76.2757 59.4346C75.4945 61.3684 74.7739 63.1486 74.0181 65.0196ZM58.9694 30.2224C60.7743 32.3976 61.8968 34.9209 62.764 37.6388C64.3941 36.8152 65.9466 36.0326 67.5823 35.2091C64.968 32.8496 62.1873 31.1366 58.9694 30.2224ZM45.8483 30.1726C42.739 31.1278 39.9371 32.7208 37.3834 35.1388C39.053 36.0268 40.6055 36.8547 42.1609 37.6812C42.732 36.255 43.1719 34.9355 43.7768 33.7068C44.379 32.4839 45.1489 31.3516 45.8483 30.1726ZM43.8967 65.5623C49.6471 63.6694 55.3468 63.6709 61.1099 65.5667C61.2566 64.9713 61.3877 64.4374 61.5048 63.959C58.4857 62.8107 55.5724 61.6946 52.6507 60.6048C52.442 60.5258 52.1529 60.5726 51.9329 60.6531C50.152 61.3201 48.3823 62.0223 46.6013 62.6893C45.5663 63.0784 44.5186 63.4236 43.4384 63.8025C43.5978 64.4154 43.7402 64.9596 43.8967 65.5623ZM42.4104 53.5921C42.5472 53.7092 42.5895 53.7633 42.6431 53.7881C45.7806 55.2188 48.9167 56.6567 52.0655 58.0639C52.277 58.1575 52.6084 58.1005 52.8382 58.001C55.0775 57.0297 57.3111 56.0423 59.5377 55.0403C60.4838 54.6146 61.4089 54.1436 62.3452 53.6916C62.3339 53.6594 62.3226 53.6258 62.3128 53.5921H42.4104ZM29.9662 53.5629C30.1904 57.3984 31.1705 60.8871 32.9796 64.1156C33.0755 64.2852 33.4224 64.4052 33.6353 64.3803C34.1387 64.3218 34.6365 64.1785 35.1315 64.0439C37.0816 63.51 39.0304 62.9658 40.9482 62.4348C40.9721 62.268 40.9947 62.2022 40.9891 62.1393C40.7479 59.8325 40.5124 57.5256 40.2473 55.2202C40.2262 55.0315 40.0344 54.8077 39.8624 54.6966C38.5566 53.8481 37.1648 53.3361 35.5827 53.5512C35.0793 53.6199 34.5604 53.5629 34.0485 53.5629H29.9662ZM75.0291 53.5629C72.9633 53.5629 70.9807 53.6389 69.008 53.5365C67.5838 53.4619 66.3203 53.7823 65.1555 54.5839C64.9736 54.7083 64.7748 54.9525 64.7523 55.1603C64.4998 57.571 64.277 59.9831 64.0359 62.5299C66.5487 63.2218 69.1476 63.9342 71.7337 64.6465C73.7361 61.1812 74.7993 57.549 75.0291 53.5629ZM64.8058 51.5135C65.5786 51.4301 66.3739 51.5588 66.9365 51.2443C69.2985 49.922 71.5857 48.4606 73.9095 47.0666C74.2846 46.8413 74.31 46.5868 74.2 46.1918C73.3694 43.1989 72.0397 40.4781 70.1487 38.0571C69.7765 37.5832 69.3788 37.1283 69.0432 36.7275C67.0818 37.7573 65.2035 38.7417 63.2843 39.7481C64.2249 43.5193 64.6564 47.4191 64.8058 51.5135ZM35.9888 36.745C35.9888 36.745 35.9437 36.7567 35.9169 36.7874C33.4252 39.5273 31.7472 42.7367 30.7502 46.3469C30.6388 46.7462 30.7728 46.9569 31.0858 47.1485C33.1418 48.4006 35.2189 49.6206 37.2325 50.9445C38.1914 51.5735 39.1672 51.395 40.1966 51.4257C40.3291 47.4045 40.7479 43.49 41.7096 39.7496C39.7594 38.7256 37.8854 37.7397 35.9888 36.745ZM44.5298 67.6307C45.3421 69.8644 46.3108 71.9445 47.893 73.6428C50.7216 76.6825 54.4288 76.624 57.1955 73.5199C58.6662 71.8699 59.5743 69.8746 60.4105 67.8355C60.4401 67.7667 60.4147 67.6716 60.4147 67.6C55.3567 65.7422 49.3059 65.83 44.5298 67.6307ZM60.7983 38.357C60.5826 37.7324 60.4006 37.1473 60.1793 36.5782C59.305 34.3211 58.215 32.2045 56.3593 30.629C53.9508 28.5826 50.943 28.5986 48.5924 30.7153C46.3616 32.7252 45.1729 35.4065 44.269 38.2502C44.2591 38.2795 44.2944 38.3278 44.3211 38.4009C49.7839 40.2616 55.2537 40.2601 60.7983 38.357ZM43.5992 40.3742C42.6925 44.0239 42.3667 47.6795 42.2582 51.4009H62.74C62.7259 47.6619 62.2761 44.0268 61.399 40.3757C55.4709 42.3534 49.5823 42.3607 43.5992 40.3742ZM27.0233 37.4603C28.7352 37.6695 30.22 37.8216 31.6936 38.0542C32.1378 38.1244 32.3338 37.9796 32.5665 37.6446C35.4276 33.5385 39.1319 30.5515 43.6824 28.7127C53.9832 24.5511 65.8141 28.1657 72.3048 37.4691C72.6094 37.905 72.8759 38.025 73.4019 37.9313C75.5481 37.5496 77.7055 37.2672 79.8884 37.6168C82.8115 38.0879 83.6844 40.1299 82.0106 42.6518C80.781 44.5023 79.0917 45.8671 77.353 47.1543C76.8172 47.5507 76.6536 47.9004 76.7706 48.6127C77.2078 51.2911 77.1965 53.9871 76.7269 56.6669C76.6592 57.0561 76.7847 57.2491 77.0682 57.4847C78.3965 58.592 79.7446 59.6818 80.9897 60.8842C81.6299 61.5044 82.1699 62.2944 82.5803 63.1033C83.5138 64.9376 82.8553 66.4838 80.9516 67.0997C79.1988 67.6658 77.408 67.521 75.6214 67.3176C74.8599 67.2313 74.0985 67.1216 73.3455 66.9724C72.9069 66.8832 72.6602 67.0192 72.3993 67.3937C69.5861 71.415 65.9523 74.361 61.5062 76.2115C51.1856 80.5048 39.1474 76.8639 32.6666 67.4844C32.3437 67.0178 32.0715 66.8378 31.4849 66.9563C29.4529 67.3703 27.3998 67.6906 25.3241 67.3688C24.6402 67.2635 23.938 67.0719 23.3204 66.7574C22.2247 66.1986 21.7283 64.9742 22.1486 63.785C22.4278 62.9921 22.8085 62.151 23.3739 61.5717C24.7967 60.1192 26.3366 58.7866 27.8637 57.4466C28.2022 57.1497 28.3009 56.9244 28.229 56.4622C27.8116 53.756 27.7961 51.0439 28.2699 48.3407C28.3432 47.9194 28.205 47.7204 27.9103 47.4674C26.5185 46.2679 25.107 45.0859 23.804 43.787C23.2076 43.1931 22.7408 42.3929 22.3996 41.6015C21.7241 40.0392 22.2924 38.6174 23.8534 38.0879C24.9307 37.7222 26.094 37.6344 27.0233 37.4603Z" fill="white"/>
</g>
</svg>
