<svg width="62" height="70" viewBox="0 0 62 70" fill="none" xmlns="http://www.w3.org/2000/svg">
<path fill-rule="evenodd" clip-rule="evenodd" d="M0.000400543 65.6369V4.50391C10.1424 14.6939 20.3944 24.9969 30.5064 35.1579C20.6234 45.0319 10.2994 55.3469 0.000400543 65.6369Z" fill="white"/>
<path fill-rule="evenodd" clip-rule="evenodd" d="M3.5678 69.1864C13.8328 58.9744 24.0968 48.7614 34.2088 38.7004C36.9148 41.3394 39.9608 44.3094 43.2438 47.5094C30.1378 54.8384 17.1308 62.5614 3.8238 69.7424C3.7388 69.5574 3.6538 69.3724 3.5678 69.1864Z" fill="white"/>
<mask id="mask0" mask-type="alpha" maskUnits="userSpaceOnUse" x="3" y="0" width="41" height="32">
<path fill-rule="evenodd" clip-rule="evenodd" d="M3.7067 0.999756H43.4047V31.5527H3.7067V0.999756Z" fill="white"/>
</mask>
<g mask="url(#mask0)">
<path fill-rule="evenodd" clip-rule="evenodd" d="M43.4047 22.8475C40.2447 25.8665 37.2017 28.7745 34.2947 31.5525C24.1437 21.4135 13.8557 11.1365 3.7067 0.999543C5.7217 0.973543 35.1057 16.9905 43.4047 22.8475Z" fill="white"/>
</g>
<path fill-rule="evenodd" clip-rule="evenodd" d="M37.2973 35.3559C40.7423 31.8029 44.0163 28.4259 47.4153 24.9199C51.2783 27.1349 55.2133 29.2319 58.9783 31.5999C62.0563 33.5359 62.0233 36.5219 58.9163 38.4809C55.5023 40.6359 51.9393 42.5619 48.3863 44.4869C47.8953 44.7529 46.8413 44.7089 46.4723 44.3589C43.2963 41.3549 40.2183 38.2479 37.2973 35.3559Z" fill="white"/>
</svg>
