<?xml version="1.0" encoding="UTF-8"?>
<svg width="274px" height="561px" viewBox="0 0 274 561" version="1.1" xmlns="http://www.w3.org/2000/svg" xmlns:xlink="http://www.w3.org/1999/xlink">
    <title>Img</title>
    <defs>
        <path d="M119.542387,1.05938804 C122.172909,5.4820022 124.111353,9.46634178 125.357721,13.0124068 C127.227272,18.3315043 138.253087,22.2568326 142.472027,19.6747752 C146.690966,17.0927177 150.409707,5.17318407 153.21496,3.11628606 C156.020212,1.05938804 233.411303,1.05938804 239.710395,1.05938804 C246.009486,1.05938804 274,5.71827791 274,31.7800033 C274,57.8417286 274,522.080252 274,529.055291 C274,536.030331 263.461099,561 243.417104,561 C223.373108,561 42.8818211,561 35.004717,561 C27.1276128,561 6.69119677,555.281146 3.19365516,542.168219 C-0.303886449,529.055291 0.00708840679,530.243625 0.00708840679,524.567866 C0.00708840679,518.892108 0.00708840679,37.7665286 0.00708840679,31.8024533 C0.00708840679,25.8383781 9.59063155,3.17816413 29.9337907,1.05938804 C43.4958968,-0.353129348 73.365429,-0.353129348 119.542387,1.05938804 Z" id="path-1"></path>
        <path d="M11.957061,0.859957895 C5.55189024,0.859957895 0.360341463,6.04395789 0.360341463,12.4375579 L0.360341463,12.4375579 L0.360341463,83.6887579 C0.360341463,90.0833684 5.55189024,95.2663579 11.957061,95.2663579 L11.957061,95.2663579 L154.073305,95.2663579 C160.478476,95.2663579 165.670024,90.0833684 165.670024,83.6887579 L165.670024,83.6887579 L165.670024,12.4375579 C165.670024,6.04395789 160.478476,0.859957895 154.073305,0.859957895 L154.073305,0.859957895" id="path-3"></path>
        <polygon id="path-5" points="0 588 305.270464 588 305.270464 0.103406897 0 0.103406897"></polygon>
        <polygon id="path-7" points="0 588 305.270464 588 305.270464 0.103406897 0 0.103406897"></polygon>
    </defs>
    <g id="Home" stroke="none" stroke-width="1" fill="none" fill-rule="evenodd">
        <g id="01.-Landing-Page" transform="translate(-1484.000000, -3233.000000)">
            <g id="App-Faces" transform="translate(160.000000, 2904.000000)">
                <g id="Mobile-05" transform="translate(1323.000000, 326.000000)">
                    <g id="Img" transform="translate(1.000000, 3.000000)">
                        <mask id="mask-2" fill="white">
                            <use xlink:href="#path-1"></use>
                        </mask>
                        <use id="Mask" fill="#D8D8D8" xlink:href="#path-1"></use>
                        <g id="Group-108" mask="url(#mask-2)">
                            <g transform="translate(-9.000000, -3.000000)">
                                <g id="Group-5" stroke="none" stroke-width="1" fill="none" fill-rule="evenodd">
                                    <path d="M270.559929,575.090062 L11.4404763,575.090062 C5.12185036,575.090062 0.000202877698,569.968935 0.000202877698,563.653217 L0.000202877698,11.5399775 C0.000202877698,5.22425915 5.12185036,0.104146479 11.4404763,0.104146479 L270.559929,0.104146479 C276.878555,0.104146479 282.000203,5.22425915 282.000203,11.5399775 L282.000203,563.653217 C282.000203,569.968935 276.878555,575.090062 270.559929,575.090062" id="Fill-1" fill="#FFFFFF"></path>
                                    <path d="M250.774891,518.475651 L108.349675,518.475651 C101.931639,518.475651 96.7278259,513.273397 96.7278259,506.857285 L96.7278259,435.354186 C96.7278259,428.938073 101.931639,423.73582 108.349675,423.73582 L250.774891,423.73582 C257.193941,423.73582 262.39674,428.938073 262.39674,435.354186 L262.39674,506.857285 C262.39674,513.273397 257.193941,518.475651 250.774891,518.475651" id="Fill-3" fill="#FFC600"></path>
                                </g>
                                <g id="Group-8" stroke="none" stroke-width="1" fill="none" fill-rule="evenodd" transform="translate(96.000000, 423.000000)">
                                    <mask id="mask-4" fill="white">
                                        <use xlink:href="#path-3"></use>
                                    </mask>
                                    <g id="Clip-7"></g>
                                    <path d="M-35.1573829,88.6965221 C-35.1573829,88.6965221 -21.0949561,35.7287747 29.4824098,51.5445221 C80.0607878,67.36128 127.168349,53.61408 156.902593,20.7891537 C186.636837,-12.0357726 211.477117,46.5080589 208.561995,87.9780379 C205.647885,129.449027 104.832239,185.262417 42.6146293,157.067722 C-19.6029805,128.874038 -42.0706756,125.012817 -35.1573829,88.6965221" id="Fill-6" fill="#FFAF00" mask="url(#mask-4)"></path>
                                </g>
                                <g id="Group-64" stroke="none" stroke-width="1" fill="none" fill-rule="evenodd">
                                    <polygon id="Fill-9" fill="#FFFFFF" points="167.672295 500.715962 165.74105 500.715962 165.74105 503.207866 160.986904 503.207866 160.986904 500.715962 153.451401 500.715962 153.451401 497.600576 159.616997 488.668045 164.640666 488.668045 159.160023 496.914238 161.132811 496.914238 161.132811 494.692003 165.74105 494.692003 165.74105 496.914238 167.672295 496.914238"></polygon>
                                    <path d="M179.983121,499.406141 L179.983121,503.207866 L168.335869,503.207866 L168.335869,500.195886 L173.588531,495.334748 C174.045505,494.906928 174.349478,494.538921 174.501465,494.233769 C174.654465,493.930645 174.730458,493.63259 174.730458,493.341631 C174.730458,492.981734 174.608869,492.700914 174.367717,492.500183 C174.124538,492.299452 173.775981,492.199086 173.319008,492.199086 C172.875207,492.199086 172.460789,492.316686 172.072717,492.551886 C171.685657,492.7881 171.388776,493.120624 171.180048,493.549459 L167.485756,491.699286 C168.037975,490.662176 168.848571,489.83999 169.913491,489.23881 C170.979425,488.636617 172.266246,488.335521 173.775981,488.335521 C174.923988,488.335521 175.941286,488.523072 176.826862,488.897162 C177.712438,489.270238 178.404485,489.803493 178.904015,490.495914 C179.401518,491.188334 179.650776,491.984162 179.650776,492.88441 C179.650776,493.687334 179.481564,494.439569 179.142127,495.138072 C178.80269,495.83759 178.142054,496.63139 177.159207,497.517445 L175.084081,499.406141 L179.983121,499.406141 Z" id="Fill-11" fill="#FFFFFF"></path>
                                    <path d="M192.605114,499.406141 L192.605114,503.207866 L180.958875,503.207866 L180.958875,500.195886 L186.210525,495.334748 C186.667498,494.906928 186.971472,494.538921 187.124472,494.233769 C187.276458,493.930645 187.352452,493.63259 187.352452,493.341631 C187.352452,492.981734 187.231875,492.700914 186.98971,492.500183 C186.747544,492.299452 186.397975,492.199086 185.941001,492.199086 C185.498213,492.199086 185.082783,492.316686 184.69471,492.551886 C184.30765,492.7881 184.01077,493.120624 183.802041,493.549459 L180.10775,491.699286 C180.659968,490.662176 181.470564,489.83999 182.535485,489.23881 C183.601419,488.636617 184.889253,488.335521 186.397975,488.335521 C187.545981,488.335521 188.563279,488.523072 189.449869,488.897162 C190.334432,489.270238 191.027491,489.803493 191.526008,490.495914 C192.023511,491.188334 192.27277,491.984162 192.27277,492.88441 C192.27277,493.687334 192.103558,494.439569 191.764121,495.138072 C191.424683,495.83759 190.764048,496.63139 189.7812,497.517445 L187.706074,499.406141 L192.605114,499.406141 Z" id="Fill-13" fill="#FFFFFF"></path>
                                    <path d="M204.345077,495.927108 C204.946945,496.655011 205.248892,497.530928 205.248892,498.554859 C205.248892,499.426721 205.009766,500.241811 204.532528,500.996073 C204.054276,501.750335 203.317647,502.36368 202.320614,502.833066 C201.324594,503.30448 200.085395,503.540694 198.605044,503.540694 C197.580654,503.540694 196.559303,503.428163 195.542005,503.20817 C194.52572,502.987163 193.636091,502.661735 192.875144,502.231887 L194.535852,498.616701 C195.130627,498.963418 195.770998,499.227004 196.455952,499.406446 C197.140905,499.585887 197.801541,499.676114 198.437859,499.676114 C199.006289,499.676114 199.463263,499.579804 199.808779,499.385156 C200.154296,499.192535 200.327561,498.914756 200.327561,498.554859 C200.327561,497.890825 199.753051,497.558301 198.605044,497.558301 L196.673799,497.558301 L196.673799,494.546321 L198.81276,492.364639 L193.621905,492.364639 L193.621905,488.668349 L204.459574,488.668349 L204.459574,491.679314 L201.760289,494.421625 C202.881952,494.69839 203.74321,495.200218 204.345077,495.927108" id="Fill-15" fill="#FFFFFF"></path>
                                    <path d="M116.351028,483.713131 L107.921843,483.713131 C105.036121,483.713131 102.695525,481.372283 102.695525,478.485 L102.695525,472.39109 C102.695525,469.503807 105.036121,467.162959 107.921843,467.162959 L116.351028,467.162959 C119.23675,467.162959 121.576333,469.503807 121.576333,472.39109 L121.576333,478.485 C121.576333,481.372283 119.23675,483.713131 116.351028,483.713131" id="Fill-17" fill="#FFFFFF"></path>
                                    <polygon id="Fill-19" fill="#FF6F43" points="113.128301 471.117867 108.810864 475.438653 113.128301 479.757412 114.224632 478.660488 111.003526 475.438653 114.224632 472.214791"></polygon>
                                    <path d="M241.722268,467.162756 L250.151454,467.162756 C253.037175,467.162756 255.377772,469.504618 255.377772,472.390887 L255.377772,478.484797 C255.377772,481.373094 253.037175,483.712928 250.151454,483.712928 L241.722268,483.712928 C238.836546,483.712928 236.496964,481.373094 236.496964,478.484797 L236.496964,472.390887 C236.496964,469.504618 238.836546,467.162756 241.722268,467.162756" id="Fill-21" fill="#FFFFFF"></path>
                                    <polygon id="Fill-23" fill="#FF6F43" points="244.945097 479.757919 249.262534 475.438146 249.262534 475.438146 249.262534 475.438146 244.945097 471.118374 243.848766 472.215298 247.070885 475.438146 243.848766 478.660994"></polygon>
                                    <polygon id="Fill-25" fill="#FFFFFF" points="131.647685 445.125631 134.914387 445.125631 134.914387 452.285038 139.287552 452.285038 139.287552 454.820534 131.647685 454.820534"></polygon>
                                    <path d="M144.976214,452.126075 C145.207234,451.862489 145.32173,451.49651 145.32173,451.025096 C145.32173,450.554696 145.207234,450.18973 144.976214,449.931213 C144.745194,449.672696 144.45034,449.54293 144.089625,449.54293 C143.730936,449.54293 143.435068,449.672696 143.204048,449.931213 C142.973028,450.18973 142.858532,450.554696 142.858532,451.025096 C142.858532,451.49651 142.973028,451.862489 143.204048,452.126075 C143.435068,452.389661 143.730936,452.521454 144.089625,452.521454 C144.45034,452.521454 144.745194,452.389661 144.976214,452.126075 M141.827048,454.45273 C141.158307,454.116151 140.634459,453.648792 140.256519,453.053696 C139.878578,452.458599 139.689101,451.782399 139.689101,451.025096 C139.689101,450.268806 139.878578,449.591592 140.256519,448.996496 C140.634459,448.400386 141.158307,447.937082 141.827048,447.604558 C142.49579,447.273048 143.250658,447.106786 144.089625,447.106786 C144.938724,447.106786 145.697644,447.273048 146.367399,447.604558 C147.036141,447.937082 147.556949,448.400386 147.930836,448.996496 C148.304724,449.591592 148.491161,450.268806 148.491161,451.025096 C148.491161,451.782399 148.304724,452.458599 147.930836,453.053696 C147.556949,453.648792 147.036141,454.116151 146.367399,454.45273 C145.697644,454.790323 144.938724,454.958613 144.089625,454.958613 C143.250658,454.958613 142.49579,454.790323 141.827048,454.45273" id="Fill-27" fill="#FFFFFF"></path>
                                    <path d="M154.899834,447.106684 L154.899834,449.875353 C154.650576,449.838857 154.419556,449.820608 154.206775,449.820608 C153.136788,449.820608 152.601795,450.366029 152.601795,451.454843 L152.601795,454.819622 L149.473907,454.819622 L149.473907,447.245574 L152.449808,447.245574 L152.449808,448.061677 C153.00304,447.425015 153.819715,447.106684 154.899834,447.106684" id="Fill-29" fill="#FFFFFF"></path>
                                    <path d="M158.830212,449.501568 C158.618444,449.677968 158.479629,449.926347 158.414781,450.249747 L160.850623,450.249747 C160.785775,449.936485 160.64696,449.689119 160.435192,449.508664 C160.223424,449.328209 159.955927,449.237981 159.632702,449.237981 C159.309477,449.237981 159.04198,449.327195 158.830212,449.501568 M163.729252,451.760299 L158.47051,451.760299 C158.580954,452.046188 158.765364,452.265168 159.023742,452.417237 C159.282119,452.569306 159.605344,452.646354 159.992404,452.646354 C160.324748,452.646354 160.603391,452.604788 160.830358,452.521657 C161.056311,452.437512 161.30253,452.295581 161.57104,452.091809 L163.203377,453.739223 C162.465735,454.551271 161.363325,454.958816 159.896146,454.958816 C158.982199,454.958816 158.179709,454.790526 157.487662,454.452933 C156.795616,454.116354 156.260623,453.647981 155.881669,453.046802 C155.503728,452.446637 155.314252,451.773478 155.314252,451.025299 C155.314252,450.269009 155.501702,449.591795 155.874576,448.996699 C156.248464,448.400588 156.761166,447.937285 157.411669,447.604761 C158.062172,447.27325 158.792722,447.106988 159.605344,447.106988 C160.371358,447.106988 161.069483,447.259057 161.701748,447.563195 C162.334013,447.868347 162.837596,448.31543 163.21047,448.906471 C163.584358,449.497512 163.770795,450.203112 163.770795,451.025299 C163.770795,451.071933 163.757623,451.316257 163.729252,451.760299" id="Fill-31" fill="#FFFFFF"></path>
                                    <path d="M176.968615,447.951174 C177.517794,448.514843 177.79137,449.363388 177.79137,450.49985 L177.79137,454.819622 L174.664496,454.819622 L174.664496,451.039188 C174.664496,450.171381 174.382814,449.737477 173.81945,449.737477 C173.524595,449.737477 173.287496,449.847981 173.107138,450.070001 C172.926781,450.292022 172.837615,450.641781 172.837615,451.122319 L172.837615,454.819622 L169.708715,454.819622 L169.708715,451.039188 C169.708715,450.171381 169.428046,449.737477 168.864681,449.737477 C168.569827,449.737477 168.331715,449.847981 168.15237,450.070001 C167.972013,450.292022 167.881834,450.641781 167.881834,451.122319 L167.881834,454.819622 L164.753946,454.819622 L164.753946,447.245574 L167.729847,447.245574 L167.729847,447.951174 C168.292198,447.387505 169.007549,447.106684 169.8759,447.106684 C170.382523,447.106684 170.839496,447.200967 171.245807,447.390546 C171.651105,447.580126 171.98345,447.868043 172.241827,448.256326 C172.546814,447.887305 172.915635,447.602429 173.349304,447.404739 C173.782973,447.206036 174.258185,447.106684 174.77494,447.106684 C175.687874,447.106684 176.419436,447.387505 176.968615,447.951174" id="Fill-33" fill="#FFFFFF"></path>
                                    <mask id="mask-6" fill="white">
                                        <use xlink:href="#path-5"></use>
                                    </mask>
                                    <g id="Clip-36"></g>
                                    <polygon id="Fill-35" fill="#FFFFFF" mask="url(#mask-6)" points="183.397351 454.820028 186.664053 454.820028 186.664053 445.125124 183.397351 445.125124"></polygon>
                                    <path d="M193.333941,452.13307 C193.564961,451.874553 193.680471,451.510601 193.680471,451.039188 C193.680471,450.568788 193.564961,450.201794 193.333941,449.938208 C193.102921,449.674622 192.808067,449.542829 192.448365,449.542829 C192.088663,449.542829 191.792795,449.674622 191.561775,449.938208 C191.331769,450.201794 191.216259,450.568788 191.216259,451.039188 C191.216259,451.510601 191.331769,451.874553 191.561775,452.13307 C191.792795,452.392601 192.088663,452.521353 192.448365,452.521353 C192.808067,452.521353 193.102921,452.392601 193.333941,452.13307 M195.0291,447.584181 C195.588411,447.902512 196.031199,448.36176 196.358477,448.961926 C196.685756,449.563105 196.849901,450.254512 196.849901,451.039188 C196.849901,451.823863 196.685756,452.514257 196.358477,453.109353 C196.031199,453.70445 195.588411,454.16167 195.0291,454.480001 C194.471815,454.799346 193.859815,454.958512 193.19614,454.958512 C192.35616,454.958512 191.714775,454.74156 191.271987,454.307657 L191.271987,457.506174 L188.1441,457.506174 L188.1441,447.245574 L191.118987,447.245574 L191.118987,447.868043 C191.571908,447.360132 192.263954,447.106684 193.19614,447.106684 C193.859815,447.106684 194.471815,447.26585 195.0291,447.584181" id="Fill-37" fill="#FFFFFF" mask="url(#mask-6)"></path>
                                    <path d="M198.883484,454.750684 C198.255272,454.611794 197.74865,454.432353 197.360577,454.210332 L198.218795,452.147263 C198.569378,452.359146 198.984809,452.525408 199.465087,452.64605 C199.944352,452.765677 200.410444,452.825491 200.862352,452.825491 C201.223067,452.825491 201.474352,452.795077 201.617219,452.735263 C201.760087,452.67545 201.832027,452.585222 201.832027,452.465594 C201.832027,452.344953 201.741848,452.261822 201.561491,452.216201 C201.381133,452.170581 201.088305,452.123946 200.683007,452.077312 C200.064928,452.004319 199.53804,451.909022 199.104372,451.794463 C198.670703,451.678891 198.290736,451.454843 197.963458,451.122319 C197.635166,450.790808 197.471021,450.314326 197.471021,449.695912 C197.471021,449.20625 197.618954,448.768291 197.914822,448.380008 C198.209676,447.992739 198.650438,447.683532 199.236093,447.453401 C199.821749,447.221243 200.525954,447.106684 201.346683,447.106684 C201.919166,447.106684 202.479491,447.159401 203.02867,447.26585 C203.577848,447.371284 204.045968,447.526394 204.43404,447.729153 L203.574809,449.792222 C202.911133,449.424215 202.181597,449.238691 201.388226,449.238691 C200.705299,449.238691 200.364848,449.359332 200.364848,449.598588 C200.364848,449.719229 200.45604,449.804388 200.641464,449.855077 C200.825875,449.905767 201.116676,449.954429 201.512855,450.00005 C202.130934,450.07507 202.654782,450.171381 203.084398,450.292022 C203.513001,450.41165 203.890941,450.637726 204.219232,450.97025 C204.546511,451.302774 204.709643,451.777229 204.709643,452.396657 C204.709643,452.867057 204.562723,453.295891 204.266855,453.68316 C203.972001,454.071443 203.529213,454.381663 202.938491,454.611794 C202.347769,454.841926 201.633431,454.958512 200.793451,454.958512 C200.148014,454.958512 199.510683,454.889574 198.883484,454.750684" id="Fill-38" fill="#FFFFFF" mask="url(#mask-6)"></path>
                                    <path d="M213.928349,447.24527 L213.928349,454.820332 L210.952448,454.820332 L210.952448,454.099525 C210.675832,454.385414 210.352607,454.600339 209.983786,454.743283 C209.614965,454.886228 209.221826,454.958208 208.807409,454.958208 C207.847866,454.958208 207.076786,454.665221 206.496197,454.078235 C205.914594,453.492263 205.623793,452.608235 205.623793,451.427166 L205.623793,447.24527 L208.75168,447.24527 L208.75168,450.887828 C208.75168,451.403849 208.834766,451.773883 209.000938,451.99489 C209.167111,452.215897 209.411303,452.327414 209.734528,452.327414 C210.039515,452.327414 210.292826,452.205759 210.495475,451.959408 C210.698124,451.715083 210.800462,451.329842 210.800462,450.804697 L210.800462,447.24527 L213.928349,447.24527 Z" id="Fill-39" fill="#FFFFFF" mask="url(#mask-6)"></path>
                                    <path d="M227.526503,447.951174 C228.075681,448.514843 228.350271,449.363388 228.350271,450.49985 L228.350271,454.819622 L225.222383,454.819622 L225.222383,451.039188 C225.222383,450.171381 224.940701,449.737477 224.37835,449.737477 C224.082483,449.737477 223.845383,449.847981 223.665026,450.070001 C223.484668,450.292022 223.395503,450.641781 223.395503,451.122319 L223.395503,454.819622 L220.267615,454.819622 L220.267615,451.039188 C220.267615,450.171381 219.985933,449.737477 219.422569,449.737477 C219.127715,449.737477 218.890615,449.847981 218.710258,450.070001 C218.530913,450.292022 218.440734,450.641781 218.440734,451.122319 L218.440734,454.819622 L215.311834,454.819622 L215.311834,447.245574 L218.287734,447.245574 L218.287734,447.951174 C218.850085,447.387505 219.56645,447.106684 220.433787,447.106684 C220.94041,447.106684 221.397383,447.200967 221.803695,447.390546 C222.208993,447.580126 222.54235,447.868043 222.799715,448.256326 C223.104701,447.887305 223.473523,447.602429 223.907191,447.404739 C224.34086,447.206036 224.816072,447.106684 225.332827,447.106684 C226.246774,447.106684 226.977324,447.387505 227.526503,447.951174" id="Fill-40" fill="#FFFFFF" mask="url(#mask-6)"></path>
                                    <g id="Group-53" mask="url(#mask-6)" fill="#FFFFFF">
                                        <g transform="translate(149.960265, 459.248276)">
                                            <path d="M3.06354636,5.59674621 C3.52153311,5.59674621 3.92379139,5.50753241 4.27032119,5.33011862 C4.61786424,5.15270483 4.88536093,4.90331172 5.0738245,4.5829531 C5.26228808,4.26360828 5.35651987,3.89154621 5.35651987,3.47183586 C5.35651987,3.05212552 5.26228808,2.68209103 5.0738245,2.36274621 C4.88536093,2.04137379 4.61786424,1.79198069 4.27032119,1.6135531 C3.92379139,1.43613931 3.52153311,1.34793931 3.06354636,1.34793931 L1.53759934,1.34793931 L1.53759934,5.59674621 L3.06354636,5.59674621 Z M0.730043046,0.644366897 L3.11218212,0.644366897 C3.70999669,0.644366897 4.23992384,0.76298069 4.70297682,1.00020828 C5.1660298,1.23743586 5.52471854,1.56996 5.78005629,1.99778069 C6.03640728,2.42560138 6.16407616,2.91729103 6.16407616,3.47183586 C6.16407616,4.02739448 6.03640728,4.51908414 5.78005629,4.94589103 C5.52471854,5.37371172 5.1660298,5.70623586 4.70297682,5.94447724 C4.23992384,6.18069103 3.70999669,6.29930483 3.11218212,6.29930483 L0.730043046,6.29930483 L0.730043046,0.644366897 Z" id="Fill-41"></path>
                                            <path d="M9.85745563,5.47995724 C10.0753033,5.3532331 10.2465417,5.17581931 10.3701576,4.94670207 C10.4937735,4.71758483 10.5555815,4.45501241 10.5555815,4.15898483 C10.5555815,3.86194345 10.4937735,3.60038483 10.3701576,3.37126759 C10.2465417,3.14215034 10.0753033,2.96676414 9.85745563,2.84105379 C9.63960795,2.71737103 9.3933894,2.65654345 9.1188,2.65654345 C8.8442106,2.65654345 8.59799205,2.71737103 8.38014437,2.84105379 C8.16229669,2.96676414 7.99004503,3.14215034 7.8633894,3.37126759 C7.73673377,3.60038483 7.67391258,3.86194345 7.67391258,4.15898483 C7.67391258,4.45501241 7.73673377,4.71758483 7.8633894,4.94670207 C7.99004503,5.17581931 8.16229669,5.3532331 8.38014437,5.47995724 C8.59799205,5.60668138 8.8442106,5.66953655 9.1188,5.66953655 C9.3933894,5.66953655 9.63960795,5.60668138 9.85745563,5.47995724 M7.97281987,6.06592966 C7.63338278,5.87736414 7.36791258,5.61681931 7.17640927,5.28632276 C6.98591921,4.95481241 6.89067417,4.57869517 6.89067417,4.15898483 C6.89067417,3.73826069 6.98591921,3.36315724 7.17640927,3.0316469 C7.36791258,2.70115034 7.63338278,2.4426331 7.97281987,2.25609517 C8.31124371,2.07158483 8.69425033,1.97831586 9.1188,1.97831586 C9.54334967,1.97831586 9.9243298,2.07158483 10.2607272,2.25609517 C10.5971245,2.4426331 10.8615815,2.70115034 11.0520715,3.0316469 C11.2435748,3.36315724 11.3388199,3.73826069 11.3388199,4.15898483 C11.3388199,4.57869517 11.2435748,4.95481241 11.0520715,5.28632276 C10.8615815,5.61681931 10.5971245,5.87736414 10.2607272,6.06592966 C9.9243298,6.25449517 9.54334967,6.34776414 9.1188,6.34776414 C8.69425033,6.34776414 8.31124371,6.25449517 7.97281987,6.06592966" id="Fill-42"></path>
                                            <polygon id="Fill-43" points="12.4132649 6.29971034 13.1883974 6.29971034 13.1883974 0.306165517 12.4132649 0.306165517"></polygon>
                                            <path d="M17.2366152,5.47995724 C17.4544629,5.3532331 17.6257013,5.17581931 17.7493172,4.94670207 C17.8729331,4.71758483 17.9347411,4.45501241 17.9347411,4.15898483 C17.9347411,3.86194345 17.8729331,3.60038483 17.7493172,3.37126759 C17.6257013,3.14215034 17.4544629,2.96676414 17.2366152,2.84105379 C17.0187675,2.71737103 16.772549,2.65654345 16.4979596,2.65654345 C16.2233702,2.65654345 15.9771517,2.71737103 15.759304,2.84105379 C15.5414563,2.96676414 15.3692046,3.14215034 15.242549,3.37126759 C15.1158934,3.60038483 15.0530722,3.86194345 15.0530722,4.15898483 C15.0530722,4.45501241 15.1158934,4.71758483 15.242549,4.94670207 C15.3692046,5.17581931 15.5414563,5.3532331 15.759304,5.47995724 C15.9771517,5.60668138 16.2233702,5.66953655 16.4979596,5.66953655 C16.772549,5.66953655 17.0187675,5.60668138 17.2366152,5.47995724 M15.3519795,6.06592966 C15.0125424,5.87736414 14.7470722,5.61681931 14.5555689,5.28632276 C14.3650788,4.95481241 14.2698338,4.57869517 14.2698338,4.15898483 C14.2698338,3.73826069 14.3650788,3.36315724 14.5555689,3.0316469 C14.7470722,2.70115034 15.0125424,2.4426331 15.3519795,2.25609517 C15.6904033,2.07158483 16.0734099,1.97831586 16.4979596,1.97831586 C16.9225093,1.97831586 17.3034894,2.07158483 17.6398868,2.25609517 C17.9762841,2.4426331 18.2407411,2.70115034 18.4312311,3.0316469 C18.6227344,3.36315724 18.7179795,3.73826069 18.7179795,4.15898483 C18.7179795,4.57869517 18.6227344,4.95481241 18.4312311,5.28632276 C18.2407411,5.61681931 17.9762841,5.87736414 17.6398868,6.06592966 C17.3034894,6.25449517 16.9225093,6.34776414 16.4979596,6.34776414 C16.0734099,6.34776414 15.6904033,6.25449517 15.3519795,6.06592966" id="Fill-44"></path>
                                            <path d="M21.1322384,2.17124069 C21.3956821,2.04248897 21.7158675,1.97862 22.0927947,1.97862 L22.0927947,2.72984069 C22.0492252,2.72375793 21.990457,2.72071655 21.9144636,2.72071655 C21.4949801,2.72071655 21.1656755,2.8464269 20.9255364,3.09683379 C20.6874238,3.34724069 20.5668477,3.70409586 20.5668477,4.16638552 L20.5668477,6.29940621 L19.7917152,6.29940621 L19.7917152,2.01815793 L20.5344238,2.01815793 L20.5344238,2.73795103 C20.6691854,2.48855793 20.8677815,2.30100621 21.1322384,2.17124069" id="Fill-45"></path>
                                            <path d="M25.8021834,6.16609241 C25.4070179,6.03429931 25.0959517,5.86398207 24.869998,5.6531131 L25.1689053,5.02354759 C25.3837132,5.21718207 25.6593159,5.37432 25.9957132,5.49597517 C26.3321106,5.61661655 26.6786404,5.67845793 27.0332762,5.67845793 C27.5013954,5.67845793 27.8509649,5.59735448 28.082998,5.43920276 C28.3140179,5.28105103 28.4305411,5.06916828 28.4305411,4.80456828 C28.4305411,4.61093379 28.3667066,4.45379586 28.240051,4.33214069 C28.1144086,4.21149931 27.9573556,4.11823034 27.7719318,4.05436138 C27.5865079,3.98947862 27.3240775,3.91648552 26.9846404,3.83538207 C26.5600907,3.73400276 26.2166007,3.63160966 25.9551834,3.52820276 C25.6947795,3.42682345 25.4708523,3.26968552 25.2854285,3.05678897 C25.1000046,2.84389241 25.0067861,2.55698897 25.0067861,2.19607862 C25.0067861,1.89396828 25.0858192,1.62227172 25.2448987,1.37997517 C25.4039781,1.13767862 25.6451305,0.944044138 25.9683556,0.798057931 C26.2905675,0.65409931 26.6918126,0.580092414 27.1710775,0.580092414 C27.5044351,0.580092414 27.8327265,0.622671724 28.1559517,0.709857931 C28.4791768,0.795016552 28.7557927,0.919713103 28.9878258,1.08090621 L28.7213424,1.72770621 C28.4832298,1.57766483 28.2309318,1.46209241 27.9624219,1.38403034 C27.6928987,1.30596828 27.4284417,1.26643034 27.1710775,1.26643034 C26.7130907,1.26643034 26.3706139,1.35057517 26.1416205,1.51683724 C25.9126272,1.6841131 25.7981305,1.90005103 25.7981305,2.16363724 C25.7981305,2.35727172 25.8629781,2.51542345 25.9916603,2.63707862 C26.1213556,2.75772 26.2814483,2.85098897 26.4719384,2.9189131 C26.6634417,2.98683724 26.9228325,3.05780276 27.2521371,3.13282345 C27.6766868,3.23521655 28.0181503,3.33760966 28.2765278,3.44000276 C28.5349053,3.54138207 28.7578192,3.69852 28.943243,3.90837517 C29.1286669,4.11823034 29.2218854,4.40209241 29.2218854,4.75590621 C29.2218854,5.05294759 29.1408258,5.32363034 28.9787066,5.56795448 C28.8176007,5.81329241 28.5723954,6.00794069 28.244104,6.14987172 C27.9158126,6.29281655 27.5125411,6.36479586 27.0332762,6.36479586 C26.6077132,6.36479586 26.1983623,6.29889931 25.8021834,6.16609241" id="Fill-46"></path>
                                            <path d="M30.2869073,6.29971034 L31.0620397,6.29971034 L31.0620397,2.01744828 L30.2869073,2.01744828 L30.2869073,6.29971034 Z M30.2990662,1.04826207 C30.1997682,0.952965517 30.149106,0.833337931 30.149106,0.693434483 C30.149106,0.553531034 30.1997682,0.433903448 30.2990662,0.333537931 C30.3993775,0.234186207 30.5240066,0.185524138 30.6739669,0.185524138 C30.8249404,0.185524138 30.9495695,0.232158621 31.0498808,0.325427586 C31.1491788,0.420724138 31.1998411,0.537310345 31.1998411,0.677213793 C31.1998411,0.8232 31.1491788,0.945868966 31.0498808,1.0442069 C30.9495695,1.14457241 30.8249404,1.19424828 30.6739669,1.19424828 C30.5240066,1.19424828 30.3993775,1.14558621 30.2990662,1.04826207 L30.2990662,1.04826207 Z" id="Fill-47"></path>
                                            <path d="M34.9456053,6.04920207 C34.8321219,6.14652621 34.692294,6.21951931 34.5251086,6.27122276 C34.3589364,6.32292621 34.1866848,6.34827103 34.0093669,6.34827103 C33.5777245,6.34827103 33.2443669,6.23269862 33.0082808,6.00054 C32.7711815,5.76939517 32.6526318,5.43788483 32.6526318,5.00702276 L32.6526318,2.65603655 L31.9261351,2.65603655 L31.9261351,2.0173469 L32.6526318,2.0173469 L32.6526318,1.08161586 L33.4277642,1.08161586 L33.4277642,2.0173469 L34.654804,2.0173469 L34.654804,2.65603655 L33.4277642,2.65603655 L33.4277642,4.97458138 C33.4277642,5.20674 33.4855192,5.38415379 33.6010291,5.50783655 C33.7165391,5.63151931 33.8827113,5.69336069 34.0975192,5.69336069 C34.3346185,5.69336069 34.5362543,5.62645034 34.7034397,5.49161586 L34.9456053,6.04920207 Z" id="Fill-48"></path>
                                            <path d="M41.4846834,4.23948 L40.2657497,1.46878345 L39.0468159,4.23948 L41.4846834,4.23948 Z M41.7673788,4.88628 L38.7641205,4.88628 L38.1419881,6.29950759 L37.3101139,6.29950759 L39.8705841,0.644569655 L40.6690212,0.644569655 L43.2365841,6.29950759 L42.3895113,6.29950759 L41.7673788,4.88628 Z" id="Fill-49"></path>
                                            <path d="M50.5959854,2.44547172 C50.9111046,2.75873379 51.0681576,3.22305103 51.0681576,3.83538207 L51.0681576,6.2999131 L50.2930252,6.2999131 L50.2930252,3.92459586 C50.2930252,3.50995448 50.1967669,3.19770621 50.0062768,2.98683724 C49.8157868,2.77799586 49.5422106,2.67357517 49.1865616,2.67357517 C48.7944358,2.67357517 48.481343,2.79523034 48.2503232,3.04056828 C48.0193033,3.28489241 47.9027801,3.63667862 47.9027801,4.0949131 L47.9027801,6.2999131 L47.1286609,6.2999131 L47.1286609,3.92459586 C47.1286609,3.50995448 47.0324026,3.19770621 46.8419126,2.98683724 C46.6504093,2.77799586 46.3778464,2.67357517 46.0221974,2.67357517 C45.6290583,2.67357517 45.3169788,2.79523034 45.0859589,3.04056828 C44.8539258,3.28489241 44.7384159,3.63667862 44.7384159,4.0949131 L44.7384159,6.2999131 L43.9632834,6.2999131 L43.9632834,2.01765103 L44.7070053,2.01765103 L44.7070053,2.65634069 C44.8620318,2.43533379 45.0667073,2.26704414 45.3200185,2.15147172 C45.5723166,2.0369131 45.8610914,1.9781131 46.1843166,1.9781131 C46.5176742,1.9781131 46.8135417,2.04400966 47.070906,2.17985793 C47.3302967,2.31367862 47.5288927,2.51035448 47.6687205,2.76887172 C47.8308397,2.52252 48.0557801,2.32787172 48.3425285,2.18796828 C48.6313033,2.04806483 48.9555417,1.9781131 49.316257,1.9781131 C49.8542901,1.9781131 50.2808662,2.13322345 50.5959854,2.44547172" id="Fill-50"></path>
                                            <path d="M53.3413728,2.97223862 C53.0911013,3.19831448 52.9441808,3.49434207 52.9006113,3.86032138 L55.6454921,3.86032138 C55.6029358,3.50042483 55.4560152,3.20439724 55.2057437,2.97528 C54.9554722,2.74616276 54.644406,2.63261793 54.2735583,2.63261793 C53.9027106,2.63261793 53.5916444,2.74413517 53.3413728,2.97223862 M56.373002,4.41790759 L52.9006113,4.41790759 C52.949247,4.79503862 53.1154192,5.09714897 53.3971013,5.32525241 C53.6797967,5.55538345 54.0313927,5.66994207 54.4508762,5.66994207 C54.9625649,5.66994207 55.3739424,5.49759724 55.6860219,5.15189379 L56.1136113,5.65372138 C55.9200815,5.87878345 55.6799424,6.05214207 55.3911675,6.17075586 C55.103406,6.28835586 54.7822073,6.34816966 54.4265583,6.34816966 C53.974651,6.34816966 53.573406,6.25490069 53.2238364,6.06937655 C52.8742669,5.88385241 52.6027172,5.62330759 52.4122272,5.28976966 C52.2217371,4.95623172 52.1254788,4.57910069 52.1254788,4.15939034 C52.1254788,3.74474897 52.2186974,3.37065931 52.4051344,3.03509379 C52.589545,2.70256966 52.845896,2.44303862 53.1711477,2.25650069 C53.4974126,2.07097655 53.8642073,1.97872138 54.2735583,1.97872138 C54.6829093,1.97872138 55.0476775,2.07097655 55.3678629,2.25650069 C55.6880483,2.44303862 55.9383199,2.70256966 56.1186775,3.03509379 C56.2980219,3.37065931 56.3882007,3.75285931 56.3882007,4.18270759 C56.3882007,4.24252138 56.3831344,4.32058345 56.373002,4.41790759" id="Fill-51"></path>
                                            <path d="M59.8680894,6.04920207 C59.7556192,6.14652621 59.6147781,6.21951931 59.448606,6.27122276 C59.2814205,6.32292621 59.1091689,6.34827103 58.931851,6.34827103 C58.5012219,6.34827103 58.166851,6.23269862 57.9307649,6.00054 C57.6936656,5.76939517 57.5751159,5.43788483 57.5751159,5.00702276 L57.5751159,2.65603655 L56.8486192,2.65603655 L56.8486192,2.0173469 L57.5751159,2.0173469 L57.5751159,1.08161586 L58.3502483,1.08161586 L58.3502483,2.0173469 L59.5772881,2.0173469 L59.5772881,2.65603655 L58.3502483,2.65603655 L58.3502483,4.97458138 C58.3502483,5.20674 58.4090166,5.38415379 58.5235132,5.50783655 C58.6400364,5.63151931 58.8051954,5.69336069 59.0210166,5.69336069 C59.2571026,5.69336069 59.4587384,5.62645034 59.6259238,5.49161586 L59.8680894,6.04920207 Z" id="Fill-52"></path>
                                        </g>
                                    </g>
                                    <polygon id="Fill-54" fill="#FFFFFF" mask="url(#mask-6)" points="165.615914 474.564662 194.258325 474.564662 194.258325 473.410966 165.615914 473.410966"></polygon>
                                    <path d="M57.4729808,574.924806 L11.4270735,574.924806 C5.11658344,574.924806 -0.00030397351,569.805151 -0.00030397351,563.491248 L-0.00030397351,11.5366614 C-0.00030397351,5.22275793 5.11658344,0.104116552 11.4270735,0.104116552 L57.4729808,0.104116552 C63.7844841,0.104116552 68.9003583,5.22275793 68.9003583,11.5366614 L68.9003583,563.491248 C68.9003583,569.805151 63.7844841,574.924806 57.4729808,574.924806" id="Fill-55" fill="#F2F2F2" mask="url(#mask-6)"></path>
                                    <path d="M217.962989,29.1536483 C218.214274,28.9691379 218.339917,28.7177172 218.339917,28.4024276 C218.339917,28.0851103 218.214274,27.8326759 217.962989,27.6461379 C217.711705,27.4575724 217.37936,27.3632897 216.962917,27.3632897 C216.553566,27.3632897 216.218181,27.4606138 215.955751,27.6542483 C215.693321,27.8499103 215.562612,28.0993034 215.562612,28.4024276 C215.562612,28.7055517 215.690281,28.9529172 215.944605,29.1435103 C216.19893,29.3351172 216.54546,29.4304138 216.985208,29.4304138 C217.386453,29.4304138 217.711705,29.3381586 217.962989,29.1536483 M218.778652,26.4326276 C219.203201,26.6110552 219.538585,26.8634897 219.785817,27.189931 C220.032036,27.5173862 220.155652,27.8945172 220.155652,28.3233517 C220.155652,28.7846276 220.02089,29.1901448 219.751367,29.5399034 C219.48083,29.8896621 219.112009,30.1573034 218.645917,30.345869 C218.178811,30.5334207 217.660029,30.6277034 217.089572,30.6277034 C215.955751,30.6277034 215.069162,30.3306621 214.428791,29.7375931 C213.78842,29.1435103 213.468234,28.2959793 213.468234,27.195 C213.468234,26.4103241 213.641499,25.7381793 213.989042,25.1775517 C214.335572,24.6159103 214.819903,24.191131 215.441023,23.9011862 C216.062142,23.6112414 216.780532,23.466269 217.599234,23.466269 C218.029864,23.466269 218.445294,23.5078345 218.842486,23.5899517 C219.239678,23.672069 219.576075,23.7886552 219.854718,23.9407241 L219.160645,25.1187517 C218.7594,24.8876069 218.253791,24.7720345 217.64483,24.7720345 C216.958864,24.7720345 216.414751,24.9433655 216.013506,25.2860276 C215.613274,25.6286897 215.39644,26.1274759 215.366042,26.7793448 C215.844294,26.3707862 216.511009,26.1670138 217.367201,26.1670138 C217.883956,26.1670138 218.355115,26.2562276 218.778652,26.4326276" id="Fill-56" fill="#342F4C" mask="url(#mask-6)"></path>
                                    <path d="M231.04763,25.696411 C231.50663,26.0897628 231.736637,26.6777628 231.736637,27.4624386 L231.736637,30.5088869 L229.931034,30.5088869 L229.931034,27.6996662 C229.931034,27.2779283 229.828697,26.9626386 229.625034,26.754811 C229.420359,26.5469834 229.128544,26.4435766 228.751617,26.4435766 C228.326054,26.4435766 227.99067,26.5611766 227.745465,26.794349 C227.498233,27.0285352 227.374617,27.3762662 227.374617,27.8375421 L227.374617,30.5088869 L225.570028,30.5088869 L225.570028,27.6996662 C225.570028,26.8622731 225.176889,26.4435766 224.389597,26.4435766 C223.973154,26.4435766 223.640809,26.5611766 223.394591,26.794349 C223.147359,27.0285352 223.024756,27.3762662 223.024756,27.8375421 L223.024756,30.5088869 L221.219154,30.5088869 L221.219154,25.1874869 L222.942683,25.1874869 L222.942683,25.8008317 C223.174717,25.5767834 223.458425,25.4044386 223.793809,25.2858248 C224.129193,25.1682248 224.498015,25.108411 224.89926,25.108411 C225.339008,25.108411 225.735187,25.1824179 226.090836,25.3304317 C226.445472,25.4784455 226.730193,25.6953972 226.946015,25.9782455 C227.201352,25.70148 227.522551,25.4875697 227.91265,25.3365145 C228.30275,25.1834317 228.727299,25.108411 229.191366,25.108411 C229.970551,25.108411 230.58863,25.3040731 231.04763,25.696411" id="Fill-57" fill="#342F4C" mask="url(#mask-6)"></path>
                                    <path d="M240.495836,23.1688221 L248.207644,23.1688221 C249.313095,23.1688221 250.20779,23.9342359 250.20779,24.879091 L250.20779,30.2329324 C250.20779,31.1767738 249.313095,31.9421876 248.207644,31.9421876 L240.495836,31.9421876 C239.391399,31.9421876 238.495691,31.1767738 238.495691,30.2329324 L238.495691,24.879091 C238.495691,23.9342359 239.391399,23.1688221 240.495836,23.1688221" id="Fill-58" fill="#342F4C" mask="url(#mask-6)"></path>
                                    <polygon id="Fill-59" fill="#FFFFFF" mask="url(#mask-6)" points="243.736397 29.8456634 246.415417 27.5555048 243.736397 25.2653462 243.056509 25.8472634 245.054628 27.5555048 243.056509 29.26476"></polygon>
                                    <path d="M205.798577,31.9424917 L198.08677,31.9424917 C196.982332,31.9424917 196.086624,31.1770779 196.086624,30.2322228 L196.086624,24.8783814 C196.086624,23.93454 196.982332,23.1691262 198.08677,23.1691262 L205.798577,23.1691262 C206.903015,23.1691262 207.798723,23.93454 207.798723,24.8783814 L207.798723,30.2322228 C207.798723,31.1770779 206.903015,31.9424917 205.798577,31.9424917" id="Fill-60" fill="#342F4C" mask="url(#mask-6)"></path>
                                    <polygon id="Fill-61" fill="#FFFFFF" mask="url(#mask-6)" points="202.558017 25.2657517 199.878997 27.5559103 199.880011 27.5559103 199.878997 27.5559103 202.558017 29.846069 203.237905 29.2641517 201.239785 27.5559103 203.237905 25.8466552"></polygon>
                                    <path d="M248.128814,409.768583 L109.766152,409.768583 C102.050291,409.768583 95.7945159,403.509424 95.7945159,395.788376 L95.7945159,212.728769 C95.7945159,205.006707 102.050291,198.748562 109.766152,198.748562 L248.128814,198.748562 C255.845688,198.748562 262.101463,205.006707 262.101463,212.728769 L262.101463,395.788376 C262.101463,403.509424 255.845688,409.768583 248.128814,409.768583" id="Fill-62" fill="#ECEBF2" mask="url(#mask-6)"></path>
                                    <polyline id="Stroke-63" stroke="#FF6F43" stroke-width="2.083" mask="url(#mask-6)" points="118.769847 307.254635 122.053774 310.540339 128.332854 304.258877"></polyline>
                                </g>
                                <text id="Lorem-ipsum-dolor-sit-amet" stroke="none" fill="none" font-family="Montserrat-Medium, Montserrat" font-size="6.8638" font-weight="400" letter-spacing="-0.0480466">
                                    <tspan x="134" y="309" fill="#342F4C">L</tspan>
                                    <tspan x="137.981004" y="309" fill="#342F4C">o</tspan>
                                    <tspan x="142.339517" y="309" letter-spacing="-0.0823656" fill="#342F4C">r</tspan>
                                    <tspan x="144.988944" y="309" fill="#342F4C">em ipsum dolor sit a</tspan>
                                    <tspan x="216.194005" y="309" letter-spacing="0.0205914" fill="#342F4C">m</tspan>
                                    <tspan x="223.490224" y="309" fill="#342F4C">et</tspan>
                                </text>
                                <polyline id="Stroke-65" stroke="#FF6F43" stroke-width="2.083" fill="none" points="119 324.861524 122.43399 328 129 322"></polyline>
                                <text id="Lorem-ipsum-dolor-sit-amet" stroke="none" fill="none" font-family="Montserrat-Medium, Montserrat" font-size="6.8638" font-weight="400" letter-spacing="-0.0480466">
                                    <tspan x="134" y="327" fill="#342F4C">L</tspan>
                                    <tspan x="137.981004" y="327" fill="#342F4C">o</tspan>
                                    <tspan x="142.339517" y="327" letter-spacing="-0.0823656" fill="#342F4C">r</tspan>
                                    <tspan x="144.988944" y="327" fill="#342F4C">em ipsum dolor sit a</tspan>
                                    <tspan x="216.194005" y="327" letter-spacing="0.0205914" fill="#342F4C">m</tspan>
                                    <tspan x="223.490224" y="327" fill="#342F4C">et</tspan>
                                </text>
                                <polyline id="Stroke-67" stroke="#FF6F43" stroke-width="2.083" fill="none" points="119 341.861524 122.43505 345 129 339"></polyline>
                                <text id="Lorem-ipsum-dolor-sit-amet" stroke="none" fill="none" font-family="Montserrat-Medium, Montserrat" font-size="6.8638" font-weight="400" letter-spacing="-0.0480466">
                                    <tspan x="134" y="344" fill="#342F4C">L</tspan>
                                    <tspan x="137.981004" y="344" fill="#342F4C">o</tspan>
                                    <tspan x="142.339517" y="344" letter-spacing="-0.0823656" fill="#342F4C">r</tspan>
                                    <tspan x="144.988944" y="344" fill="#342F4C">em ipsum dolor sit a</tspan>
                                    <tspan x="216.194005" y="344" letter-spacing="0.0205914" fill="#342F4C">m</tspan>
                                    <tspan x="223.490224" y="344" fill="#342F4C">et</tspan>
                                </text>
                                <polyline id="Stroke-69" stroke="#FF6F43" stroke-width="2.083" fill="none" points="119 359.861524 122.43505 363 129 357"></polyline>
                                <text id="Lorem-ipsum-dolor-sit-amet" stroke="none" fill="none" font-family="Montserrat-Medium, Montserrat" font-size="6.8638" font-weight="400" letter-spacing="-0.0480466">
                                    <tspan x="134" y="362" fill="#342F4C">L</tspan>
                                    <tspan x="137.981004" y="362" fill="#342F4C">o</tspan>
                                    <tspan x="142.339517" y="362" letter-spacing="-0.0823656" fill="#342F4C">r</tspan>
                                    <tspan x="144.988944" y="362" fill="#342F4C">em ipsum dolor sit a</tspan>
                                    <tspan x="216.194005" y="362" letter-spacing="0.0205914" fill="#342F4C">m</tspan>
                                    <tspan x="223.490224" y="362" fill="#342F4C">et</tspan>
                                </text>
                                <polyline id="Stroke-71" stroke="#FF6F43" stroke-width="2.083" fill="none" points="119 377.862492 122.43505 381 129 375"></polyline>
                                <text id="Lorem-ipsum-dolor-sit-amet" stroke="none" fill="none" font-family="Montserrat-Medium, Montserrat" font-size="6.8638" font-weight="400" letter-spacing="-0.0480466">
                                    <tspan x="134" y="379" fill="#342F4C">L</tspan>
                                    <tspan x="137.981004" y="379" fill="#342F4C">o</tspan>
                                    <tspan x="142.339517" y="379" letter-spacing="-0.0823656" fill="#342F4C">r</tspan>
                                    <tspan x="144.988944" y="379" fill="#342F4C">em ipsum dolor sit a</tspan>
                                    <tspan x="216.194005" y="379" letter-spacing="0.0205914" fill="#342F4C">m</tspan>
                                    <tspan x="223.490224" y="379" fill="#342F4C">et</tspan>
                                </text>
                                <text id="03" stroke="none" fill="none" font-family="Montserrat-Black, Montserrat" font-size="37.7511" font-weight="700" letter-spacing="-0.01">
                                    <tspan x="201" y="232" fill="#FFFFFF">03</tspan>
                                </text>
                                <text id="Monthly-" stroke="none" fill="none" font-family="Montserrat-Black, Montserrat" font-size="13.7277" font-weight="700">
                                    <tspan x="117" y="256" fill="#342F4C">Monthly </tspan>
                                </text>
                                <text id="Progress" stroke="none" fill="none" font-family="Montserrat-Black, Montserrat" font-size="13.7277" font-weight="700">
                                    <tspan x="117" y="273" fill="#342F4C">P</tspan>
                                    <tspan x="127.199681" y="273" letter-spacing="-0.0686385" fill="#342F4C">r</tspan>
                                    <tspan x="133.322235" y="273" fill="#342F4C">og</tspan>
                                    <tspan x="152.390011" y="273" letter-spacing="-0.0686385" fill="#342F4C">r</tspan>
                                    <tspan x="158.512565" y="273" fill="#342F4C">ess</tspan>
                                </text>
                                <polygon id="Fill-73" stroke="none" fill="#FF6F43" fill-rule="evenodd" points="119 241 147 241 147 239 119 239"></polygon>
                                <text id="Home" stroke="none" fill="none" font-family="Montserrat-Black, Montserrat" font-size="10.4155" font-weight="700">
                                    <tspan x="18" y="88" fill="#342F4C">Ho</tspan>
                                    <tspan x="33.435771" y="88" letter-spacing="0.104155" fill="#342F4C">m</tspan>
                                    <tspan x="44.476201" y="88" fill="#342F4C">e</tspan>
                                </text>
                                <g id="Group-107" stroke="none" stroke-width="1" fill="none" fill-rule="evenodd">
                                    <path d="M36.2042583,138.326493 L36.4423709,138.507962 C36.5984106,138.62759 36.8537483,138.770534 37.1901457,138.770534 C37.8680066,138.770534 38.4202252,138.219031 38.4202252,137.53979 C38.4202252,136.861562 37.8680066,136.309045 37.1901457,136.309045 C36.5112715,136.309045 35.959053,136.861562 35.959053,137.53979 C35.959053,137.712134 35.9985695,137.883466 36.0765894,138.051755 L36.2042583,138.326493 Z M29.9221391,141.56759 C28.569457,141.56759 27.4680596,142.669583 27.4680596,144.022997 C27.4680596,145.377424 28.569457,146.478403 29.9221391,146.478403 C31.0640662,146.478403 32.0459007,145.706907 32.3113709,144.600859 L32.3954702,144.247045 L32.3772318,143.874983 C32.3519007,143.359976 32.1492517,142.854093 31.8077881,142.448576 L31.5534636,142.148493 L31.2586093,141.9579 C30.8624305,141.702424 30.3993775,141.56759 29.9221391,141.56759 L29.9221391,141.56759 Z M37.0229603,144.858362 L36.994588,145.275031 C36.9935762,145.929941 37.5457947,146.482459 38.2246689,146.482459 C38.9025298,146.482459 39.4547483,145.929941 39.4547483,145.2507 C39.4547483,144.572472 38.9025298,144.019955 38.2246689,144.019955 C37.8051854,144.019955 37.4181258,144.234879 37.1891325,144.596803 L37.0229603,144.858362 Z M38.2246689,148.049783 C36.8780662,148.049783 35.7503245,147.092762 35.4858675,145.823493 L33.6154172,145.628845 C32.9882185,147.08161 31.5544768,148.046741 29.9221391,148.046741 C27.7051589,148.046741 25.9015828,146.24219 25.9015828,144.022997 C25.9015828,141.804817 27.7051589,139.999252 29.9221391,139.999252 C30.5067815,139.999252 31.0772384,140.123948 31.6010861,140.363203 L34.4513444,138.1065 C34.4118278,137.919962 34.3915629,137.730383 34.3915629,137.53979 C34.3915629,135.995783 35.6469735,134.740707 37.1901457,134.740707 C38.7323046,134.740707 39.9877152,135.995783 39.9877152,137.53979 C39.9877152,139.082783 38.7323046,140.338872 37.1901457,140.338872 C36.7828212,140.338872 36.3886689,140.249659 36.0228874,140.078328 L33.4624172,142.106928 C33.6356821,142.425259 33.7653775,142.765893 33.8464371,143.117679 L36.1758874,143.352879 C36.7007483,142.782114 37.4363642,142.451617 38.2246689,142.451617 C39.7668278,142.451617 41.0212252,143.708721 41.0212252,145.2507 C41.0212252,146.794707 39.7668278,148.049783 38.2246689,148.049783 L38.2246689,148.049783 Z" id="Fill-75" fill="#342F4C"></path>
                                    <path d="M32.1047702,225.126546 L32.1696179,225.190415 C32.2780351,225.298891 32.4006377,225.393174 32.5424921,225.478332 C32.6894126,225.561463 32.8505185,225.629388 32.9832536,225.662843 C33.0622868,225.685146 33.1281477,225.701367 33.1990748,225.708463 C33.4615053,225.740905 33.7077238,225.727726 33.9154391,225.668926 C34.1049159,225.621277 34.2325848,225.569574 34.3430285,225.497594 L34.3855848,225.473263 C34.6642272,225.316126 34.8851146,225.097146 35.0411543,224.821394 C35.1384258,224.667298 35.1911146,224.537532 35.2346841,224.366201 C35.2812934,224.196898 35.3015583,224.045843 35.3015583,223.885663 C35.3015583,223.728526 35.2802801,223.564291 35.2427901,223.421346 C35.1931411,223.235822 35.1333596,223.084767 35.0614192,222.964126 C34.9317238,222.747174 34.7716311,222.566719 34.5872205,222.427829 C34.5173066,222.373084 34.448406,222.331519 34.3835583,222.292994 C34.2366377,222.199726 34.1099821,222.148022 33.9600219,222.110512 C33.8769358,222.087194 33.8394457,222.081112 33.8039821,222.074015 C33.8171543,222.077057 33.7563596,222.065905 33.7046841,222.054753 C33.4878497,222.028394 33.2000881,222.041574 33.0106113,222.096319 C32.8403861,222.142953 32.6873861,222.206822 32.5455318,222.289953 C32.2618232,222.453174 32.0328298,222.681277 31.8585517,222.968181 C31.789651,223.083753 31.731896,223.231767 31.6883265,223.403098 C31.6427305,223.567332 31.6214523,223.72447 31.6214523,223.885663 C31.6214523,224.042801 31.6417172,224.193857 31.682247,224.335788 C31.7197371,224.487857 31.7643199,224.60647 31.8220748,224.71596 L31.9781146,224.872084 L31.9811543,224.971436 C32.0206709,225.025167 32.0622139,225.07687 32.1047702,225.126546 L32.1047702,225.126546 Z M33.4716377,227.296063 C33.3226907,227.296063 33.1717172,227.285926 33.0197305,227.266663 C32.8829424,227.253484 32.7319689,227.220029 32.5809954,227.178463 C32.3226179,227.112567 32.0409358,226.994967 31.7552007,226.83276 C31.5971344,226.739491 31.4522404,226.638112 31.3184921,226.53065 L31.2718828,226.524567 L31.0408629,226.284298 C30.8544258,226.090663 30.6862272,225.87067 30.5382934,225.629388 L30.4227834,225.423588 C30.3113265,225.20765 30.2272272,224.98056 30.1674457,224.735222 C30.0955053,224.484815 30.0549755,224.187774 30.0549755,223.885663 C30.0549755,223.582539 30.0955053,223.284484 30.1745384,222.998594 C30.2505318,222.697498 30.367055,222.410594 30.5149887,222.161201 C30.8311212,221.640112 31.2475649,221.228512 31.7572272,220.935526 C32.0135781,220.78447 32.2952603,220.665857 32.5901146,220.585767 C32.9650152,220.477291 33.4463066,220.446877 33.8901079,220.496553 C33.9478629,220.502636 34.0035914,220.513788 34.0572934,220.526967 C34.1991477,220.554339 34.283247,220.573601 34.3683596,220.597932 C34.6378828,220.661801 34.9276709,220.783457 35.2042868,220.957829 C35.3066245,221.017643 35.4302404,221.097732 35.5396709,221.181877 C35.875055,221.434312 36.1709225,221.766836 36.4070086,222.159174 C36.5549424,222.408567 36.6694391,222.689388 36.7575914,223.01887 C36.830545,223.293608 36.8680351,223.592677 36.8680351,223.885663 C36.8680351,224.183719 36.8285185,224.478732 36.7494854,224.765636 C36.6714656,225.078898 36.5498762,225.366815 36.3847172,225.628374 C36.1081013,226.118036 35.6936841,226.531663 35.1728762,226.828705 C34.9195649,226.988884 34.6378828,227.10547 34.3146576,227.184546 C34.0572934,227.257539 33.7695318,227.296063 33.4716377,227.296063 L33.4716377,227.296063 Z M32.8971278,230.153946 L34.0258828,230.153946 L34.3734258,227.866829 L34.8070947,227.70665 C34.9327371,227.660015 35.0523,227.615408 35.1647702,227.555594 L35.6004656,227.32445 L37.4881411,228.715374 L38.2967106,227.918532 L36.9014722,226.044029 L37.1152669,225.612153 C37.1780881,225.487457 37.2257106,225.361746 37.2753596,225.228939 L37.4354523,224.791994 L39.7213331,224.453388 L39.7213331,223.310843 L37.4121477,222.978319 L37.2632007,222.508932 C37.2216576,222.377139 37.1649159,222.253457 37.1091874,222.129774 L36.9247768,221.712091 L38.2987371,219.854822 L37.4830748,219.052912 L35.6217437,220.421532 L35.201247,220.22587 C35.0877636,220.172139 34.9682007,220.118408 34.8425583,220.077857 L34.3774788,219.930857 L34.0258828,217.618394 L32.8971278,217.618394 L32.550598,219.896388 L32.1290881,220.060622 C31.996353,220.113339 31.8676709,220.162001 31.7389887,220.22587 L31.3083596,220.438767 L29.4429755,219.050884 L28.6283265,219.859891 L29.999247,221.712091 L29.8128099,222.130788 C29.7580947,222.25447 29.701353,222.378153 29.6598099,222.508932 L29.5108629,222.978319 L27.2016775,223.310843 L27.2016775,224.453388 L29.4875583,224.791994 L29.647651,225.228939 C29.6952735,225.356677 29.738843,225.483401 29.7986245,225.595932 L30.0296444,226.033891 L28.6293397,227.914477 L29.4389225,228.717401 L31.2921477,227.345739 L31.7096046,227.532277 C31.8362603,227.588036 31.9629159,227.645822 32.0895715,227.687388 L32.5475583,227.838443 L32.8971278,230.153946 Z M34.188002,231.722284 L32.7350086,231.722284 C32.0561344,231.722284 31.4704788,231.217415 31.3711808,230.547298 L31.1938629,229.36927 L30.2434391,230.071829 C29.655757,230.481401 28.940406,230.401312 28.4722868,229.965381 L27.4124325,228.914077 C26.9260748,228.426443 26.8693331,227.649877 27.2776709,227.10547 L27.9859291,226.155546 L26.8156311,225.981174 C26.1438497,225.884863 25.6341874,225.298891 25.6341874,224.616608 L25.6341874,223.146608 C25.6341874,222.465339 26.1438497,221.879367 26.8196841,221.782043 L27.9778232,221.614767 L27.2665252,220.655719 C26.8652801,220.091036 26.9291146,219.340829 27.410406,218.859277 L28.4530351,217.824194 C28.9474987,217.350753 29.6922338,217.296008 30.2343199,217.685305 L31.1938629,218.399015 L31.372194,217.220988 C31.4684523,216.544788 32.041949,216.050057 32.7350086,216.050057 L34.188002,216.050057 C34.8810616,216.050057 35.4545583,216.544788 35.5518298,217.228084 L35.7291477,218.395974 L36.6886907,217.690374 C37.248002,217.290939 37.9937503,217.349739 38.4709887,217.825208 L39.5176709,218.855222 C40.0080815,219.36516 40.0587437,220.117394 39.6544589,220.65876 L38.9451874,221.614767 L40.1043397,221.782043 C40.7801742,221.879367 41.2888232,222.465339 41.2888232,223.146608 L41.2888232,224.616608 C41.2888232,225.298891 40.7801742,225.884863 40.1043397,225.982188 L38.9370815,226.155546 L39.6473662,227.107498 C40.0627967,227.635684 40.0141609,228.418332 39.5217238,228.911036 L38.4669358,229.950174 C38.0160417,230.401312 37.2084854,230.464167 36.6836245,230.068788 L35.7301609,229.368257 L35.5508166,230.551353 C35.453545,231.217415 34.8668762,231.722284 34.188002,231.722284 L34.188002,231.722284 Z" id="Fill-77" fill="#342F4C"></path>
                                    <path d="M31.8094093,183.70661 L35.1105616,183.70661 L34.7204623,181.595892 C34.9768132,181.298851 35.1227205,180.916651 35.1227205,180.513161 C35.1227205,179.597706 34.3769722,178.853582 33.4609987,178.853582 C32.5460384,178.853582 31.8002901,179.597706 31.8002901,180.513161 C31.8002901,180.915637 31.9441709,181.296823 32.1995086,181.593865 L31.8094093,183.70661 Z" id="Fill-79" fill="#342F4C"></path>
                                    <mask id="mask-8" fill="white">
                                        <use xlink:href="#path-7"></use>
                                    </mask>
                                    <g id="Clip-82"></g>
                                    <path d="M28.9940066,184.792179 L37.9298146,184.792179 L37.9298146,177.975434 L28.9940066,177.975434 L28.9940066,184.792179 Z M33.4603907,174.324766 C34.6367682,174.324766 35.6003642,175.248331 35.6672384,176.409124 L31.253543,176.409124 C31.3204172,175.248331 32.2850265,174.324766 33.4603907,174.324766 L33.4603907,174.324766 Z M38.3178874,176.435483 C38.2651987,173.801648 36.1059735,171.675724 33.4603907,171.675724 C30.8148079,171.675724 28.656596,173.802662 28.602894,176.436497 C27.9321258,176.569303 27.4265166,177.160345 27.4265166,177.866959 L27.4265166,184.898628 C27.4265166,185.705607 28.0820861,186.360517 28.8876159,186.360517 L38.0351921,186.360517 C38.8417351,186.360517 39.4962914,185.705607 39.4962914,184.898628 L39.4962914,177.866959 C39.4962914,177.159331 38.9896689,176.56829 38.3178874,176.435483 L38.3178874,176.435483 Z" id="Fill-81" fill="#342F4C" mask="url(#mask-8)"></path>
                                    <path d="M37.3084927,115.090355 C37.3084927,116.269397 36.3530026,117.225403 35.1745987,117.225403 C33.9961947,117.225403 33.0407046,116.269397 33.0407046,115.090355 C33.0407046,113.911314 33.9961947,112.956321 35.1745987,112.956321 C36.3530026,112.956321 37.3084927,113.911314 37.3084927,115.090355" id="Fill-83" fill="#4655C4" mask="url(#mask-8)"></path>
                                    <path d="M36.2789344,331.933198 L36.2789344,335.017157 C36.2789344,336.019798 35.4663119,336.833874 34.4631993,336.833874 L28.9724245,336.833874 C27.9693119,336.833874 27.1566894,336.019798 27.1566894,335.017157 L27.1566894,324.747432 C27.1566894,323.743777 27.9693119,322.930715 28.9724245,322.930715 L34.4631993,322.930715 C35.4663119,322.930715 36.2789344,323.743777 36.2789344,324.747432 L36.2789344,327.47555" id="Stroke-84" stroke="#342F4C" stroke-width="1.349" mask="url(#mask-8)"></path>
                                    <line x1="32.5336768" y1="329.881889" x2="39.7662199" y2="329.881889" id="Stroke-85" stroke="#342F4C" stroke-width="1.349" mask="url(#mask-8)"></line>
                                    <polyline id="Stroke-86" stroke="#342F4C" stroke-width="1.349" mask="url(#mask-8)" points="37.7162225 327.660263 39.7660172 329.881483 37.7162225 332.104732"></polyline>
                                    <path d="M37.8394331,60.2257986 L30.8358834,60.2257986 L30.8358834,55.7671366 C30.8358834,53.8318055 32.4043868,52.2634676 34.3376583,52.2634676 C36.271943,52.2634676 37.8394331,53.8318055 37.8394331,55.7671366 L37.8394331,60.2257986 Z" id="Stroke-87" stroke="#342F4C" stroke-width="1.349" mask="url(#mask-8)"></path>
                                    <path d="M37.9987152,62.5820566 L30.6770066,62.5820566 C30.0265033,62.5820566 29.4996159,62.0538703 29.4996159,61.404029 C29.4996159,60.7531738 30.0265033,60.2260014 30.6770066,60.2260014 L37.9987152,60.2260014 C38.6492185,60.2260014 39.176106,60.7531738 39.176106,61.404029 C39.176106,62.0538703 38.6492185,62.5820566 37.9987152,62.5820566 Z" id="Stroke-88" stroke="#342F4C" stroke-width="1.349" mask="url(#mask-8)"></path>
                                    <path d="M34.337557,64.086931 L34.337557,64.086931 C33.8897026,64.086931 33.5259477,63.7239931 33.5259477,63.2748828 L33.5259477,62.5824621 L35.1491662,62.5824621 L35.1491662,63.2748828 C35.1491662,63.7239931 34.7864245,64.086931 34.337557,64.086931 Z" id="Stroke-89" stroke="#342F4C" stroke-width="1.349" mask="url(#mask-8)"></path>
                                    <path d="M36.1469086,55.5320379 C36.1469086,56.5306241 35.3373258,57.3416586 34.337253,57.3416586 C33.3392066,57.3416586 32.5286106,56.5306241 32.5286106,55.5320379 C32.5286106,54.5324379 33.3392066,53.7214034 34.337253,53.7214034 C35.3373258,53.7214034 36.1469086,54.5324379 36.1469086,55.5320379" id="Fill-90" fill="#FF6F43" mask="url(#mask-8)"></path>
                                    <polygon id="Fill-91" fill="#2B7CCF" mask="url(#mask-8)" points="95.7942119 31.5563379 155.779331 31.5563379 155.779331 26.3363172 95.7942119 26.3363172"></polygon>
                                    <path d="M245.153926,176.409023 L112.741039,176.409023 C103.381695,176.409023 95.7945159,168.81774 95.7945159,159.452319 L95.7945159,69.7884021 C95.7945159,60.4239952 103.381695,52.8316986 112.741039,52.8316986 L245.153926,52.8316986 C254.513271,52.8316986 262.101463,60.4239952 262.101463,69.7884021 L262.101463,159.452319 C262.101463,168.81774 254.513271,176.409023 245.153926,176.409023" id="Fill-92" fill="#2B7CCF" mask="url(#mask-8)"></path>
                                    <polygon id="Fill-93" fill="#ECEBF2" mask="url(#mask-8)" points="117.797841 144.130966 132.143364 144.130966 132.143364 73.0508897 117.797841 73.0508897"></polygon>
                                    <polygon id="Fill-94" fill="#ECEBF2" mask="url(#mask-8)" points="138.837874 144.130966 153.183397 144.130966 153.183397 73.0508897 138.837874 73.0508897"></polygon>
                                    <polygon id="Fill-95" fill="#ECEBF2" mask="url(#mask-8)" points="159.877907 144.130966 174.22343 144.130966 174.22343 73.0508897 159.877907 73.0508897"></polygon>
                                    <polygon id="Fill-96" fill="#ECEBF2" mask="url(#mask-8)" points="180.91794 144.130966 195.263464 144.130966 195.263464 73.0508897 180.91794 73.0508897"></polygon>
                                    <polygon id="Fill-97" fill="#ECEBF2" mask="url(#mask-8)" points="201.958987 144.130966 216.30451 144.130966 216.30451 73.0508897 201.958987 73.0508897"></polygon>
                                    <polygon id="Fill-98" fill="#ECEBF2" mask="url(#mask-8)" points="223.000033 144.130966 237.345556 144.130966 237.345556 73.0508897 223.000033 73.0508897"></polygon>
                                    <polygon id="Fill-99" fill="#FFAF00" mask="url(#mask-8)" points="117.797841 144.130966 132.143364 144.130966 132.143364 107.588793 117.797841 107.588793"></polygon>
                                    <polygon id="Fill-100" fill="#FFAF00" mask="url(#mask-8)" points="138.837874 144.130966 153.183397 144.130966 153.183397 112.852407 138.837874 112.852407"></polygon>
                                    <polygon id="Fill-101" fill="#FFAF00" mask="url(#mask-8)" points="159.877907 144.130966 174.22343 144.130966 174.22343 104.345669 159.877907 104.345669"></polygon>
                                    <polygon id="Fill-102" fill="#FFAF00" mask="url(#mask-8)" points="180.91794 144.130966 195.263464 144.130966 195.263464 98.4818897 180.91794 98.4818897"></polygon>
                                    <polygon id="Fill-103" fill="#FFAF00" mask="url(#mask-8)" points="201.958987 144.130966 216.30451 144.130966 216.30451 87.4001172 201.958987 87.4001172"></polygon>
                                    <polygon id="Fill-104" fill="#FFAF00" mask="url(#mask-8)" points="223.000033 144.130966 237.345556 144.130966 237.345556 99.7217586 223.000033 99.7217586"></polygon>
                                    <path d="M108.905603,142.840001 L108.905603,128.602291 L147.652093,136.460201 C148.133384,136.557526 148.642033,136.532181 149.106099,136.387208 L186.829212,124.623153 L204.410026,133.438084 C205.611735,134.039263 207.150854,133.703698 207.867219,132.681794 L211.607106,127.355326 L221.538934,133.339746 C222.53394,133.938898 223.889662,133.84867 224.765106,133.123808 L254.297146,108.65287 C255.303298,107.819532 255.328629,106.446857 254.353887,105.58716 C253.378132,104.72645 251.773152,104.70516 250.767,105.538498 L222.743682,128.758415 L212.298139,122.464788 C211.720589,122.11807 211.004225,121.99236 210.313192,122.117057 C209.622159,122.241753 209.026371,122.604691 208.662616,123.122739 L204.810258,128.610401 L188.364278,120.366236 C187.715801,120.040808 186.919391,119.978967 186.213159,120.19896 L148.082722,132.089739 L106.955106,123.749263 C106.197199,123.596181 105.407881,123.745208 104.795881,124.157822 C104.184894,124.57145 103.833298,125.193919 103.833298,125.859981 L103.833298,142.840001 C103.833298,144.038305 104.968132,145.008505 106.36945,145.008505 C107.769755,145.008505 108.905603,144.038305 108.905603,142.840001" id="Fill-105" fill="#FFAF00" mask="url(#mask-8)"></path>
                                    <polygon id="Fill-106" fill="#FFFFFF" mask="url(#mask-8)" points="103.833298 153.084786 237.345556 153.084786 237.345556 150.443855 103.833298 150.443855"></polygon>
                                </g>
                            </g>
                        </g>
                    </g>
                </g>
            </g>
        </g>
    </g>
</svg>