<svg width="338" height="623" viewBox="0 0 338 623" fill="none" xmlns="http://www.w3.org/2000/svg">
<rect x="5" width="316" height="623" rx="58" fill="#2B7CCF"/>
<mask id="mask0" mask-type="alpha" maskUnits="userSpaceOnUse" x="5" y="0" width="316" height="623">
<rect x="5" width="316" height="623" rx="58" fill="white"/>
</mask>
<g mask="url(#mask0)">
</g>
<mask id="mask1" mask-type="alpha" maskUnits="userSpaceOnUse" x="4" y="9" width="319" height="623">
<path fill-rule="evenodd" clip-rule="evenodd" d="M4.86731 9H322.867V632H4.86731V9Z" fill="white"/>
</mask>
<g mask="url(#mask1)">
<path fill-rule="evenodd" clip-rule="evenodd" d="M309.077 632H18.6563C11.0403 632 4.86731 625.826 4.86731 618.211V22.7898C4.86731 15.1738 11.0403 8.99976 18.6563 8.99976H309.077C316.693 8.99976 322.867 15.1738 322.867 22.7898V618.211C322.867 625.826 316.693 632 309.077 632Z" fill="white"/>
</g>
<path fill-rule="evenodd" clip-rule="evenodd" d="M153.185 131.317H68.9352C57.8192 131.317 48.8092 122.306 48.8092 111.191C48.8092 100.075 57.8192 91.0652 68.9352 91.0652H153.185C164.3 91.0652 173.31 100.075 173.31 111.191C173.31 122.306 164.3 131.317 153.185 131.317Z" fill="url(#paint0_linear)"/>
<path d="M86.2053 111.82L86.1943 107.228L83.9421 111.011H83.144L80.9028 107.326V111.82H79.2409V104.166H80.706L83.5704 108.922L86.3911 104.166H87.8452L87.8671 111.82H86.2053ZM92.3614 111.907C91.7419 111.907 91.1843 111.779 90.6886 111.524C90.2003 111.262 89.8176 110.901 89.5407 110.442C89.2637 109.983 89.1252 109.462 89.1252 108.879C89.1252 108.296 89.2637 107.774 89.5407 107.315C89.8176 106.856 90.2003 106.499 90.6886 106.244C91.1843 105.981 91.7419 105.85 92.3614 105.85C92.9809 105.85 93.5349 105.981 94.0232 106.244C94.5115 106.499 94.8942 106.856 95.1712 107.315C95.4481 107.774 95.5866 108.296 95.5866 108.879C95.5866 109.462 95.4481 109.983 95.1712 110.442C94.8942 110.901 94.5115 111.262 94.0232 111.524C93.5349 111.779 92.9809 111.907 92.3614 111.907ZM92.3614 110.508C92.7987 110.508 93.1559 110.362 93.4328 110.07C93.7171 109.771 93.8592 109.374 93.8592 108.879C93.8592 108.383 93.7171 107.989 93.4328 107.698C93.1559 107.399 92.7987 107.25 92.3614 107.25C91.9241 107.25 91.5633 107.399 91.279 107.698C90.9948 107.989 90.8526 108.383 90.8526 108.879C90.8526 109.374 90.9948 109.771 91.279 110.07C91.5633 110.362 91.9241 110.508 92.3614 110.508ZM98.3557 106.714C98.5597 106.43 98.8331 106.215 99.1756 106.069C99.5255 105.923 99.9264 105.85 100.378 105.85V107.425C100.189 107.41 100.061 107.403 99.9956 107.403C99.5073 107.403 99.1246 107.541 98.8476 107.818C98.5707 108.088 98.4322 108.496 98.4322 109.043V111.82H96.7266V105.938H98.3557V106.714Z" fill="white"/>
<path d="M107.109 108.9C107.109 108.922 107.098 109.075 107.076 109.36H102.627C102.707 109.724 102.896 110.012 103.195 110.223C103.494 110.435 103.866 110.54 104.31 110.54C104.616 110.54 104.886 110.497 105.119 110.409C105.36 110.314 105.582 110.169 105.786 109.972L106.694 110.956C106.14 111.59 105.331 111.907 104.267 111.907C103.603 111.907 103.017 111.779 102.506 111.524C101.996 111.262 101.603 110.901 101.326 110.442C101.049 109.983 100.91 109.462 100.91 108.879C100.91 108.303 101.045 107.785 101.315 107.326C101.592 106.86 101.967 106.499 102.441 106.244C102.922 105.981 103.458 105.85 104.048 105.85C104.624 105.85 105.145 105.974 105.611 106.222C106.078 106.47 106.442 106.827 106.705 107.293C106.974 107.753 107.109 108.288 107.109 108.9ZM104.059 107.14C103.673 107.14 103.348 107.25 103.086 107.468C102.823 107.687 102.663 107.986 102.605 108.365H105.502C105.444 107.993 105.283 107.698 105.021 107.479C104.759 107.253 104.438 107.14 104.059 107.14ZM113.976 111.951C113.371 111.951 112.784 111.871 112.216 111.71C111.654 111.543 111.202 111.328 110.86 111.065L111.461 109.731C111.789 109.972 112.179 110.165 112.631 110.311C113.083 110.457 113.535 110.529 113.987 110.529C114.49 110.529 114.861 110.457 115.102 110.311C115.342 110.158 115.463 109.957 115.463 109.71C115.463 109.527 115.39 109.378 115.244 109.261C115.106 109.137 114.923 109.039 114.697 108.966C114.479 108.893 114.18 108.813 113.801 108.726C113.218 108.587 112.74 108.449 112.369 108.31C111.997 108.172 111.676 107.949 111.407 107.643C111.144 107.337 111.013 106.929 111.013 106.419C111.013 105.974 111.133 105.573 111.374 105.216C111.614 104.852 111.975 104.564 112.456 104.352C112.944 104.141 113.538 104.035 114.238 104.035C114.727 104.035 115.204 104.094 115.67 104.21C116.137 104.327 116.545 104.494 116.895 104.713L116.348 106.058C115.641 105.657 114.934 105.457 114.227 105.457C113.732 105.457 113.364 105.537 113.123 105.697C112.89 105.857 112.773 106.069 112.773 106.331C112.773 106.594 112.908 106.79 113.178 106.922C113.455 107.046 113.874 107.169 114.435 107.293C115.018 107.432 115.495 107.57 115.867 107.709C116.239 107.847 116.556 108.066 116.818 108.365C117.088 108.664 117.223 109.068 117.223 109.578C117.223 110.016 117.099 110.417 116.851 110.781C116.611 111.138 116.246 111.422 115.758 111.634C115.27 111.845 114.675 111.951 113.976 111.951ZM122.107 111.535C121.939 111.659 121.731 111.754 121.483 111.82C121.243 111.878 120.988 111.907 120.718 111.907C120.018 111.907 119.475 111.728 119.089 111.371C118.71 111.014 118.521 110.489 118.521 109.797V107.381H117.613V106.069H118.521V104.637H120.226V106.069H121.691V107.381H120.226V109.775C120.226 110.023 120.288 110.216 120.412 110.355C120.543 110.486 120.725 110.551 120.959 110.551C121.228 110.551 121.458 110.478 121.647 110.333L122.107 111.535ZM125.436 105.85C126.348 105.85 127.047 106.069 127.536 106.506C128.024 106.936 128.268 107.589 128.268 108.463V111.82H126.672V111.087C126.351 111.634 125.754 111.907 124.879 111.907C124.427 111.907 124.033 111.831 123.698 111.677C123.37 111.524 123.119 111.313 122.944 111.043C122.769 110.774 122.681 110.468 122.681 110.125C122.681 109.578 122.885 109.148 123.294 108.835C123.709 108.521 124.347 108.365 125.207 108.365H126.563C126.563 107.993 126.45 107.709 126.224 107.512C125.998 107.308 125.659 107.206 125.207 107.206C124.893 107.206 124.584 107.257 124.278 107.359C123.979 107.454 123.724 107.585 123.512 107.753L122.9 106.561C123.221 106.335 123.603 106.16 124.048 106.036C124.5 105.912 124.963 105.85 125.436 105.85ZM125.305 110.759C125.597 110.759 125.856 110.693 126.082 110.562C126.307 110.424 126.468 110.223 126.563 109.961V109.36H125.393C124.693 109.36 124.343 109.589 124.343 110.048C124.343 110.267 124.427 110.442 124.595 110.573C124.77 110.697 125.006 110.759 125.305 110.759ZM133.605 111.535C133.438 111.659 133.23 111.754 132.982 111.82C132.742 111.878 132.487 111.907 132.217 111.907C131.517 111.907 130.974 111.728 130.588 111.371C130.209 111.014 130.019 110.489 130.019 109.797V107.381H129.112V106.069H130.019V104.637H131.725V106.069H133.19V107.381H131.725V109.775C131.725 110.023 131.787 110.216 131.911 110.355C132.042 110.486 132.224 110.551 132.458 110.551C132.727 110.551 132.957 110.478 133.146 110.333L133.605 111.535ZM136.542 111.907C136.053 111.907 135.576 111.849 135.11 111.732C134.643 111.608 134.271 111.455 133.994 111.273L134.563 110.048C134.825 110.216 135.142 110.355 135.514 110.464C135.886 110.566 136.25 110.617 136.607 110.617C137.329 110.617 137.69 110.438 137.69 110.081C137.69 109.914 137.591 109.793 137.395 109.72C137.198 109.648 136.895 109.586 136.487 109.535C136.006 109.462 135.609 109.378 135.295 109.283C134.982 109.188 134.709 109.021 134.475 108.78C134.249 108.54 134.136 108.197 134.136 107.753C134.136 107.381 134.242 107.053 134.454 106.769C134.672 106.477 134.986 106.251 135.394 106.091C135.809 105.93 136.298 105.85 136.859 105.85C137.274 105.85 137.686 105.898 138.094 105.992C138.51 106.08 138.852 106.204 139.122 106.364L138.553 107.578C138.036 107.286 137.471 107.14 136.859 107.14C136.494 107.14 136.221 107.191 136.039 107.293C135.857 107.395 135.766 107.527 135.766 107.687C135.766 107.869 135.864 107.997 136.061 108.07C136.257 108.142 136.571 108.212 137.001 108.277C137.482 108.357 137.876 108.445 138.182 108.54C138.488 108.627 138.754 108.791 138.98 109.032C139.206 109.272 139.319 109.607 139.319 110.038C139.319 110.402 139.209 110.726 138.991 111.011C138.772 111.295 138.451 111.517 138.029 111.677C137.613 111.831 137.118 111.907 136.542 111.907Z" fill="white"/>
<path fill-rule="evenodd" clip-rule="evenodd" d="M53.725 302.362H79.178V154.863H53.725V302.362Z" fill="#ECEBF2"/>
<path fill-rule="evenodd" clip-rule="evenodd" d="M91.055 302.362H116.508V154.863H91.055V302.362Z" fill="#ECEBF2"/>
<path fill-rule="evenodd" clip-rule="evenodd" d="M128.387 302.362H153.84V154.863H128.387V302.362Z" fill="#ECEBF2"/>
<path fill-rule="evenodd" clip-rule="evenodd" d="M165.718 302.362H191.171V154.863H165.718V302.362Z" fill="#ECEBF2"/>
<path fill-rule="evenodd" clip-rule="evenodd" d="M203.049 302.362H228.502V154.863H203.049V302.362Z" fill="#ECEBF2"/>
<path fill-rule="evenodd" clip-rule="evenodd" d="M240.38 302.362H265.833V154.863H240.38V302.362Z" fill="#ECEBF2"/>
<path fill-rule="evenodd" clip-rule="evenodd" d="M53.725 302.362H79.178V226.533H53.725V302.362Z" fill="url(#paint1_linear)"/>
<path fill-rule="evenodd" clip-rule="evenodd" d="M91.055 302.362H116.508V237.458H91.055V302.362Z" fill="url(#paint2_linear)"/>
<path fill-rule="evenodd" clip-rule="evenodd" d="M128.387 302.362H153.84V219.803H128.387V302.362Z" fill="url(#paint3_linear)"/>
<path fill-rule="evenodd" clip-rule="evenodd" d="M165.718 302.362H191.171V207.634H165.718V302.362Z" fill="url(#paint4_linear)"/>
<path fill-rule="evenodd" clip-rule="evenodd" d="M203.049 302.362H228.502V184.64H203.049V302.362Z" fill="url(#paint5_linear)"/>
<path fill-rule="evenodd" clip-rule="evenodd" d="M240.38 302.362H265.833V210.209H240.38V302.362Z" fill="url(#paint6_linear)"/>
<path fill-rule="evenodd" clip-rule="evenodd" d="M55.4079 73.3309C54.0489 73.0099 52.9329 72.5779 52.0599 72.0339L53.9379 67.7839C54.7609 68.2619 55.6839 68.6449 56.7049 68.9329C57.7259 69.2209 58.7059 69.3649 59.6459 69.3649C60.4519 69.3649 61.0299 69.2869 61.3759 69.1299C61.7209 68.9739 61.8939 68.7389 61.8939 68.4259C61.8939 68.0639 61.6679 67.7919 61.2149 67.6099C60.7619 67.4299 60.0159 67.2319 58.9789 67.0179C57.6449 66.7369 56.5319 66.4359 55.6419 66.1159C54.7529 65.7939 53.9779 65.2669 53.3199 64.5339C52.6599 63.8009 52.3309 62.8089 52.3309 61.5559C52.3309 60.4689 52.6359 59.4799 53.2449 58.5909C53.8549 57.7009 54.7649 57.0009 55.9759 56.4899C57.1869 55.9799 58.6569 55.7249 60.3869 55.7249C61.5729 55.7249 62.7389 55.8519 63.8839 56.1069C65.0289 56.3629 66.0369 56.7379 66.9109 57.2319L65.1569 61.4569C63.4599 60.6009 61.8529 60.1729 60.3379 60.1729C58.8379 60.1729 58.0889 60.5349 58.0889 61.2599C58.0889 61.6059 58.3119 61.8649 58.7559 62.0379C59.2009 62.2109 59.9329 62.3959 60.9559 62.5939C62.2739 62.8409 63.3859 63.1249 64.2909 63.4469C65.1969 63.7679 65.9839 64.2909 66.6519 65.0159C67.3189 65.7409 67.6529 66.7289 67.6529 67.9809C67.6529 69.0689 67.3469 70.0529 66.7379 70.9349C66.1289 71.8149 65.2189 72.5159 64.0079 73.0349C62.7969 73.5539 61.3259 73.8129 59.5969 73.8129C58.1629 73.8129 56.7669 73.6529 55.4079 73.3309Z" fill="#342F4C"/>
<path fill-rule="evenodd" clip-rule="evenodd" d="M79.1672 72.9481C78.3282 73.4261 77.1822 73.6641 75.7322 73.6641C73.8382 73.6641 72.3792 73.2081 71.3582 72.2931C70.3372 71.3791 69.8262 70.0081 69.8262 68.1791V64.7191H67.9732V60.6421H69.8262V56.8611H75.4112V60.6421H78.1792V64.7191H75.4112V68.1291C75.4112 68.5411 75.5182 68.8631 75.7322 69.0931C75.9462 69.3241 76.2262 69.4391 76.5732 69.4391C77.0502 69.4391 77.4702 69.3161 77.8332 69.0691L79.1672 72.9481Z" fill="#342F4C"/>
<path fill-rule="evenodd" clip-rule="evenodd" d="M87.6676 69.9826C87.9796 69.7686 88.2116 69.4476 88.3596 69.0196V68.0806H86.9766C85.8396 68.0806 85.2706 68.4596 85.2706 69.2166C85.2706 69.5296 85.3906 69.7896 85.6296 69.9956C85.8676 70.2006 86.1936 70.3036 86.6056 70.3036C87.0006 70.3036 87.3546 70.1966 87.6676 69.9826ZM92.0666 61.2476C93.3186 62.3096 93.9446 63.9446 93.9446 66.1526V73.4176H88.7556V71.6386C88.1136 72.9896 86.8356 73.6646 84.9246 73.6646C83.8536 73.6646 82.9436 73.4796 82.1946 73.1086C81.4446 72.7376 80.8756 72.2356 80.4886 71.6016C80.1026 70.9676 79.9076 70.2546 79.9076 69.4636C79.9076 68.1286 80.4186 67.1156 81.4406 66.4246C82.4616 65.7326 84.0106 65.3866 86.0856 65.3866H88.3356C88.1536 64.3326 87.3056 63.8046 85.7896 63.8046C85.1806 63.8046 84.5626 63.8996 83.9366 64.0886C83.3096 64.2786 82.7746 64.5386 82.3306 64.8676L80.5506 61.1856C81.3246 60.7076 82.2606 60.3326 83.3556 60.0616C84.4506 59.7896 85.5426 59.6526 86.6296 59.6526C89.0026 59.6526 90.8136 60.1846 92.0666 61.2476Z" fill="#342F4C"/>
<path fill-rule="evenodd" clip-rule="evenodd" d="M106.324 72.9481C105.485 73.4261 104.339 73.6641 102.889 73.6641C100.995 73.6641 99.5374 73.2081 98.5154 72.2931C97.4944 71.3791 96.9834 70.0081 96.9834 68.1791V64.7191H95.1304V60.6421H96.9834V56.8611H102.568V60.6421H105.337V64.7191H102.568V68.1291C102.568 68.5411 102.675 68.8631 102.889 69.0931C103.103 69.3241 103.384 69.4391 103.73 69.4391C104.207 69.4391 104.627 69.3161 104.99 69.0691L106.324 72.9481Z" fill="#342F4C"/>
<path fill-rule="evenodd" clip-rule="evenodd" d="M107.734 73.4179H113.318V59.9009H107.734V73.4179ZM108.091 58.0099C107.474 57.4749 107.165 56.7949 107.165 55.9709C107.165 55.1479 107.474 54.4679 108.091 53.9319C108.709 53.3969 109.52 53.1299 110.527 53.1299C111.548 53.1299 112.363 53.3849 112.972 53.8949C113.581 54.4069 113.887 55.0649 113.887 55.8719C113.887 56.7289 113.581 57.4329 112.972 57.9859C112.363 58.5369 111.548 58.8129 110.527 58.8129C109.52 58.8129 108.709 58.5459 108.091 58.0099Z" fill="#342F4C"/>
<path fill-rule="evenodd" clip-rule="evenodd" d="M117.668 73.2938C116.547 73.0468 115.642 72.7258 114.95 72.3308L116.481 68.6488C117.108 69.0268 117.849 69.3238 118.706 69.5378C119.563 69.7518 120.394 69.8588 121.202 69.8588C121.844 69.8588 122.293 69.8058 122.548 69.6988C122.804 69.5918 122.932 69.4308 122.932 69.2168C122.932 69.0028 122.77 68.8548 122.45 68.7718C122.128 68.6898 121.605 68.6078 120.88 68.5248C119.776 68.3928 118.837 68.2248 118.063 68.0178C117.289 67.8128 116.608 67.4128 116.024 66.8198C115.439 66.2268 115.147 65.3778 115.147 64.2748C115.147 63.4018 115.411 62.6188 115.939 61.9268C116.465 61.2348 117.251 60.6828 118.298 60.2718C119.343 59.8598 120.6 59.6528 122.066 59.6528C123.087 59.6528 124.088 59.7488 125.069 59.9378C126.049 60.1268 126.885 60.4028 127.577 60.7658L126.044 64.4468C124.858 63.7888 123.557 63.4588 122.14 63.4588C120.921 63.4588 120.313 63.6738 120.313 64.1018C120.313 64.3158 120.476 64.4678 120.806 64.5588C121.135 64.6498 121.654 64.7358 122.362 64.8178C123.467 64.9508 124.402 65.1228 125.168 65.3368C125.933 65.5518 126.609 65.9548 127.194 66.5478C127.779 67.1408 128.072 67.9898 128.072 69.0928C128.072 69.9328 127.808 70.6998 127.28 71.3918C126.753 72.0828 125.963 72.6358 124.909 73.0468C123.854 73.4588 122.577 73.6648 121.078 73.6648C119.924 73.6648 118.788 73.5418 117.668 73.2938Z" fill="#342F4C"/>
<path fill-rule="evenodd" clip-rule="evenodd" d="M139.71 72.9481C138.871 73.4261 137.725 73.6641 136.275 73.6641C134.381 73.6641 132.923 73.2081 131.901 72.2931C130.88 71.3791 130.369 70.0081 130.369 68.1791V64.7191H128.516V60.6421H130.369V56.8611H135.954V60.6421H138.722V64.7191H135.954V68.1291C135.954 68.5411 136.061 68.8631 136.275 69.0931C136.489 69.3241 136.769 69.4391 137.116 69.4391C137.593 69.4391 138.013 69.3161 138.376 69.0691L139.71 72.9481Z" fill="#342F4C"/>
<path fill-rule="evenodd" clip-rule="evenodd" d="M141.118 73.4179H146.702V59.9009H141.118V73.4179ZM141.476 58.0099C140.859 57.4749 140.549 56.7949 140.549 55.9709C140.549 55.1479 140.859 54.4679 141.476 53.9319C142.094 53.3969 142.905 53.1299 143.911 53.1299C144.932 53.1299 145.747 53.3849 146.357 53.8949C146.966 54.4069 147.271 55.0649 147.271 55.8719C147.271 56.7289 146.966 57.4329 146.357 57.9859C145.747 58.5369 144.932 58.8129 143.911 58.8129C142.905 58.8129 142.094 58.5459 141.476 58.0099Z" fill="#342F4C"/>
<path fill-rule="evenodd" clip-rule="evenodd" d="M152.324 72.7753C151.113 72.1823 150.166 71.3503 149.482 70.2793C148.799 69.2093 148.457 67.9983 148.457 66.6473C148.457 65.2963 148.799 64.0893 149.482 63.0263C150.166 61.9633 151.113 61.1363 152.324 60.5433C153.535 59.9503 154.906 59.6533 156.438 59.6533C158.085 59.6533 159.495 60.0073 160.664 60.7153C161.834 61.4243 162.641 62.4043 163.086 63.6563L158.761 65.7823C158.234 64.5953 157.452 64.0033 156.413 64.0033C155.755 64.0033 155.207 64.2333 154.771 64.6943C154.334 65.1553 154.116 65.8063 154.116 66.6473C154.116 67.5043 154.334 68.1623 154.771 68.6233C155.207 69.0853 155.755 69.3163 156.413 69.3163C157.452 69.3163 158.234 68.7223 158.761 67.5363L163.086 69.6623C162.641 70.9133 161.834 71.8943 160.664 72.6023C159.495 73.3113 158.085 73.6643 156.438 73.6643C154.906 73.6643 153.535 73.3683 152.324 72.7753Z" fill="#342F4C"/>
<path fill-rule="evenodd" clip-rule="evenodd" d="M166.25 73.2938C165.129 73.0468 164.224 72.7258 163.532 72.3308L165.063 68.6488C165.69 69.0268 166.431 69.3238 167.288 69.5378C168.145 69.7518 168.976 69.8588 169.784 69.8588C170.426 69.8588 170.875 69.8058 171.13 69.6988C171.386 69.5918 171.513 69.4308 171.513 69.2168C171.513 69.0028 171.352 68.8548 171.032 68.7718C170.71 68.6898 170.187 68.6078 169.462 68.5248C168.358 68.3928 167.419 68.2248 166.645 68.0178C165.871 67.8128 165.19 67.4128 164.606 66.8198C164.021 66.2268 163.729 65.3778 163.729 64.2748C163.729 63.4018 163.993 62.6188 164.52 61.9268C165.046 61.2348 165.833 60.6828 166.88 60.2718C167.925 59.8598 169.182 59.6528 170.648 59.6528C171.669 59.6528 172.67 59.7488 173.651 59.9378C174.631 60.1268 175.467 60.4028 176.159 60.7658L174.626 64.4468C173.44 63.7888 172.139 63.4588 170.722 63.4588C169.503 63.4588 168.894 63.6738 168.894 64.1018C168.894 64.3158 169.058 64.4678 169.388 64.5588C169.717 64.6498 170.236 64.7358 170.944 64.8178C172.048 64.9508 172.984 65.1228 173.75 65.3368C174.515 65.5518 175.191 65.9548 175.776 66.5478C176.36 67.1408 176.654 67.9898 176.654 69.0928C176.654 69.9328 176.39 70.6998 175.862 71.3918C175.335 72.0828 174.544 72.6358 173.491 73.0468C172.436 73.4588 171.159 73.6648 169.659 73.6648C168.506 73.6648 167.369 73.5418 166.25 73.2938Z" fill="#342F4C"/>
<path fill-rule="evenodd" clip-rule="evenodd" d="M55.075 38.6271H105.45V35.5691H55.075V38.6271Z" fill="#2B7CCF"/>
<path fill-rule="evenodd" clip-rule="evenodd" d="M266.484 458.713H61.976C55.648 458.713 50.519 453.584 50.519 447.256V340.077C50.519 333.75 55.648 328.62 61.976 328.62H266.484C272.812 328.62 277.941 333.75 277.941 340.077V447.256C277.941 453.584 272.812 458.713 266.484 458.713Z" fill="url(#paint7_linear)"/>
<path fill-rule="evenodd" clip-rule="evenodd" d="M148.166 434.522H145.513V437.946H138.979V434.522H128.622V430.243L137.096 417.974H144L136.468 429.3H139.179V426.248H145.513V429.3H148.166V434.522Z" fill="white"/>
<path fill-rule="evenodd" clip-rule="evenodd" d="M165.085 432.724V437.946H149.079V433.809L156.297 427.132C156.925 426.543 157.343 426.038 157.553 425.62C157.762 425.202 157.866 424.792 157.866 424.393C157.866 423.899 157.7 423.514 157.367 423.238C157.034 422.962 156.554 422.824 155.926 422.824C155.317 422.824 154.747 422.986 154.214 423.309C153.682 423.632 153.273 424.089 152.987 424.678L147.909 422.139C148.669 420.712 149.782 419.585 151.247 418.758C152.711 417.931 154.481 417.517 156.554 417.517C158.132 417.517 159.531 417.774 160.748 418.287C161.965 418.801 162.917 419.534 163.601 420.485C164.286 421.436 164.628 422.53 164.628 423.766C164.628 424.869 164.395 425.901 163.929 426.861C163.463 427.822 162.555 428.911 161.205 430.128L158.352 432.724H165.085Z" fill="white"/>
<path fill-rule="evenodd" clip-rule="evenodd" d="M182.432 432.724V437.946H166.426V433.809L173.644 427.132C174.272 426.543 174.69 426.038 174.9 425.62C175.109 425.202 175.213 424.792 175.213 424.393C175.213 423.899 175.047 423.514 174.714 423.238C174.381 422.962 173.901 422.824 173.273 422.824C172.664 422.824 172.094 422.986 171.561 423.309C171.029 423.632 170.62 424.089 170.334 424.678L165.256 422.139C166.016 420.712 167.129 419.585 168.594 418.758C170.058 417.931 171.828 417.517 173.901 417.517C175.479 417.517 176.878 417.774 178.095 418.287C179.312 418.801 180.264 419.534 180.948 420.485C181.633 421.436 181.975 422.53 181.975 423.766C181.975 424.869 181.742 425.901 181.276 426.861C180.81 427.822 179.902 428.911 178.552 430.128L175.699 432.724H182.432Z" fill="white"/>
<path fill-rule="evenodd" clip-rule="evenodd" d="M198.566 427.946C199.394 428.944 199.807 430.147 199.807 431.555C199.807 432.754 199.479 433.871 198.823 434.907C198.167 435.944 197.154 436.786 195.784 437.432C194.415 438.079 192.712 438.402 190.677 438.402C189.27 438.402 187.867 438.25 186.469 437.946C185.071 437.642 183.848 437.195 182.802 436.605L185.085 431.64C185.902 432.116 186.783 432.478 187.724 432.724C188.666 432.972 189.574 433.095 190.449 433.095C191.229 433.095 191.857 432.963 192.332 432.696C192.807 432.43 193.045 432.05 193.045 431.555C193.045 430.642 192.256 430.185 190.677 430.185H188.024V426.049L190.962 423.052H183.83V417.974H198.723V422.111L195.014 425.878C196.555 426.258 197.739 426.947 198.566 427.946Z" fill="white"/>
<path fill-rule="evenodd" clip-rule="evenodd" d="M79.6608 411.17H64.0278C61.1798 411.17 58.8708 408.861 58.8708 406.013V393.595C58.8708 390.746 61.1798 388.438 64.0278 388.438H79.6608C82.5098 388.438 84.8178 390.746 84.8178 393.595V406.013C84.8178 408.861 82.5098 411.17 79.6608 411.17Z" fill="white"/>
<path fill-rule="evenodd" clip-rule="evenodd" d="M73.2077 393.87L67.2737 399.804H67.2747H67.2737L73.2077 405.737L74.7147 404.231L70.2877 399.804L74.7147 395.377L73.2077 393.87Z" fill="#D4AF6C"/>
<path fill-rule="evenodd" clip-rule="evenodd" d="M247.91 388.437H263.543C266.391 388.437 268.701 390.746 268.701 393.594V406.012C268.701 408.861 266.391 411.169 263.543 411.169H247.91C245.062 411.169 242.753 408.861 242.753 406.012V393.594C242.753 390.746 245.062 388.437 247.91 388.437Z" fill="white"/>
<path fill-rule="evenodd" clip-rule="evenodd" d="M254.363 405.737L260.297 399.804V399.803L254.363 393.87L252.857 395.377L257.284 399.803L252.857 404.231L254.363 405.737Z" fill="#D4AF6C"/>
<path fill-rule="evenodd" clip-rule="evenodd" d="M98.6584 358.169H103.147V368.003H109.158V371.483H98.6584V358.169Z" fill="white"/>
<path fill-rule="evenodd" clip-rule="evenodd" d="M116.976 367.784C117.293 367.423 117.452 366.918 117.452 366.271C117.452 365.625 117.293 365.124 116.976 364.768C116.659 364.414 116.253 364.236 115.759 364.236C115.264 364.236 114.858 364.414 114.541 364.768C114.224 365.124 114.066 365.625 114.066 366.271C114.066 366.918 114.224 367.423 114.541 367.784C114.858 368.145 115.264 368.326 115.759 368.326C116.253 368.326 116.659 368.145 116.976 367.784ZM112.649 370.979C111.729 370.516 111.01 369.876 110.49 369.058C109.97 368.24 109.71 367.311 109.71 366.271C109.71 365.232 109.97 364.303 110.49 363.485C111.01 362.667 111.729 362.03 112.649 361.573C113.568 361.117 114.604 360.888 115.759 360.888C116.925 360.888 117.968 361.117 118.888 361.573C119.807 362.03 120.523 362.667 121.037 363.485C121.551 364.303 121.807 365.232 121.807 366.271C121.807 367.311 121.551 368.24 121.037 369.058C120.523 369.876 119.807 370.516 118.888 370.979C117.968 371.442 116.925 371.674 115.759 371.674C114.604 371.674 113.568 371.442 112.649 370.979Z" fill="white"/>
<path fill-rule="evenodd" clip-rule="evenodd" d="M130.613 360.888V364.693C130.271 364.642 129.953 364.617 129.662 364.617C128.191 364.617 127.456 365.365 127.456 366.861V371.483H123.157V361.078H127.246V362.2C128.007 361.325 129.13 360.888 130.613 360.888Z" fill="white"/>
<path fill-rule="evenodd" clip-rule="evenodd" d="M136.016 364.179C135.724 364.419 135.534 364.762 135.445 365.205H138.793C138.704 364.775 138.514 364.436 138.222 364.188C137.931 363.941 137.563 363.818 137.119 363.818C136.675 363.818 136.308 363.938 136.016 364.179ZM142.749 367.279H135.521C135.673 367.672 135.927 367.973 136.282 368.183C136.637 368.392 137.081 368.496 137.614 368.496C138.07 368.496 138.454 368.44 138.765 368.325C139.075 368.211 139.414 368.015 139.782 367.736L142.026 369.999C141.012 371.116 139.496 371.673 137.48 371.673C136.225 371.673 135.122 371.442 134.171 370.979C133.22 370.516 132.484 369.872 131.964 369.048C131.444 368.224 131.184 367.298 131.184 366.271C131.184 365.232 131.441 364.302 131.955 363.485C132.469 362.666 133.172 362.03 134.066 361.573C134.96 361.116 135.965 360.888 137.081 360.888C138.133 360.888 139.094 361.097 139.963 361.516C140.831 361.934 141.522 362.549 142.036 363.361C142.55 364.172 142.807 365.143 142.807 366.271C142.807 366.334 142.787 366.67 142.749 367.279Z" fill="white"/>
<path fill-rule="evenodd" clip-rule="evenodd" d="M160.943 362.049C161.697 362.822 162.074 363.989 162.074 365.549V371.484H157.776V366.291C157.776 365.099 157.389 364.503 156.615 364.503C156.21 364.503 155.883 364.655 155.636 364.959C155.389 365.264 155.265 365.745 155.265 366.405V371.484H150.966V366.291C150.966 365.099 150.579 364.503 149.806 364.503C149.4 364.503 149.074 364.655 148.826 364.959C148.579 365.264 148.456 365.745 148.456 366.405V371.484H144.157V361.079H148.246V362.049C149.02 361.276 150.003 360.889 151.194 360.889C151.892 360.889 152.52 361.019 153.078 361.278C153.635 361.539 154.092 361.935 154.447 362.468C154.865 361.96 155.373 361.57 155.969 361.298C156.565 361.026 157.217 360.889 157.928 360.889C159.183 360.889 160.188 361.276 160.943 362.049Z" fill="white"/>
<mask id="mask2" mask-type="alpha" maskUnits="userSpaceOnUse" x="0" y="9" width="338" height="623">
<path fill-rule="evenodd" clip-rule="evenodd" d="M0 632H337.268V9H0V632Z" fill="white"/>
</mask>
<g mask="url(#mask2)">
<path fill-rule="evenodd" clip-rule="evenodd" d="M169.777 371.483H174.266V358.169H169.777V371.483Z" fill="white"/>
<path fill-rule="evenodd" clip-rule="evenodd" d="M183.435 367.793C183.752 367.439 183.911 366.938 183.911 366.291C183.911 365.644 183.752 365.14 183.435 364.778C183.118 364.417 182.712 364.236 182.218 364.236C181.723 364.236 181.317 364.417 181 364.778C180.683 365.14 180.525 365.644 180.525 366.291C180.525 366.938 180.683 367.439 181 367.793C181.317 368.148 181.723 368.326 182.218 368.326C182.712 368.326 183.118 368.148 183.435 367.793ZM185.765 361.545C186.532 361.982 187.141 362.613 187.591 363.438C188.041 364.262 188.266 365.213 188.266 366.291C188.266 367.368 188.041 368.316 187.591 369.135C187.141 369.952 186.532 370.58 185.765 371.018C184.997 371.455 184.158 371.674 183.245 371.674C182.091 371.674 181.209 371.376 180.601 370.779V375.174H176.302V361.079H180.392V361.935C181.013 361.237 181.964 360.889 183.245 360.889C184.158 360.889 184.997 361.107 185.765 361.545Z" fill="white"/>
<path fill-rule="evenodd" clip-rule="evenodd" d="M191.062 371.388C190.2 371.198 189.502 370.951 188.97 370.646L190.149 367.812C190.631 368.104 191.202 368.331 191.861 368.496C192.52 368.661 193.161 368.743 193.782 368.743C194.277 368.743 194.622 368.702 194.819 368.62C195.015 368.537 195.114 368.414 195.114 368.249C195.114 368.084 194.99 367.97 194.743 367.907C194.496 367.843 194.093 367.781 193.535 367.716C192.685 367.616 191.962 367.486 191.367 367.326C190.77 367.168 190.247 366.861 189.797 366.405C189.347 365.948 189.122 365.294 189.122 364.445C189.122 363.773 189.325 363.17 189.73 362.638C190.136 362.106 190.742 361.681 191.547 361.364C192.353 361.047 193.319 360.888 194.448 360.888C195.234 360.888 196.004 360.961 196.759 361.107C197.513 361.252 198.157 361.465 198.689 361.744L197.51 364.578C196.597 364.071 195.595 363.818 194.505 363.818C193.566 363.818 193.098 363.982 193.098 364.312C193.098 364.477 193.224 364.594 193.478 364.663C193.731 364.734 194.131 364.8 194.676 364.864C195.525 364.965 196.246 365.098 196.835 365.263C197.425 365.428 197.944 365.739 198.395 366.195C198.845 366.652 199.07 367.305 199.07 368.154C199.07 368.801 198.867 369.39 198.461 369.923C198.055 370.455 197.447 370.88 196.635 371.198C195.824 371.514 194.841 371.673 193.687 371.673C192.799 371.673 191.924 371.577 191.062 371.388Z" fill="white"/>
<path fill-rule="evenodd" clip-rule="evenodd" d="M211.737 361.079V371.483H207.648V370.494C207.267 370.888 206.823 371.183 206.316 371.379C205.809 371.575 205.27 371.674 204.699 371.674C203.38 371.674 202.321 371.271 201.523 370.466C200.724 369.661 200.324 368.446 200.324 366.823V361.079H204.623V366.081C204.623 366.792 204.737 367.299 204.966 367.603C205.194 367.907 205.529 368.059 205.973 368.059C206.392 368.059 206.74 367.891 207.02 367.556C207.299 367.22 207.438 366.69 207.438 365.968V361.079H211.737Z" fill="white"/>
<path fill-rule="evenodd" clip-rule="evenodd" d="M230.426 362.049C231.18 362.822 231.557 363.989 231.557 365.549V371.484H227.259V366.291C227.259 365.099 226.872 364.503 226.098 364.503C225.693 364.503 225.366 364.655 225.119 364.959C224.872 365.264 224.748 365.745 224.748 366.405V371.484H220.449V366.291C220.449 365.099 220.062 364.503 219.289 364.503C218.883 364.503 218.557 364.655 218.309 364.959C218.062 365.264 217.939 365.745 217.939 366.405V371.484H213.64V361.079H217.729V362.049C218.503 361.276 219.486 360.889 220.677 360.889C221.375 360.889 222.003 361.019 222.561 361.278C223.118 361.539 223.575 361.935 223.93 362.468C224.348 361.96 224.856 361.57 225.452 361.298C226.048 361.026 226.7 360.889 227.411 360.889C228.666 360.889 229.671 361.276 230.426 362.049Z" fill="white"/>
<path fill-rule="evenodd" clip-rule="evenodd" d="M128.036 385.254C128.665 385.254 129.218 385.132 129.695 384.888C130.172 384.644 130.54 384.301 130.799 383.861C131.057 383.421 131.187 382.912 131.187 382.335C131.187 381.759 131.057 381.25 130.799 380.81C130.54 380.37 130.172 380.027 129.695 379.783C129.218 379.539 128.665 379.417 128.036 379.417H125.939V385.254H128.036ZM124.829 378.452H128.103C128.924 378.452 129.652 378.614 130.288 378.941C130.925 379.266 131.418 379.723 131.77 380.311C132.121 380.899 132.297 381.573 132.297 382.335C132.297 383.098 132.121 383.773 131.77 384.36C131.418 384.948 130.925 385.405 130.288 385.731C129.652 386.056 128.924 386.219 128.103 386.219H124.829V378.452Z" fill="white"/>
<path fill-rule="evenodd" clip-rule="evenodd" d="M137.373 385.092C137.673 384.918 137.908 384.674 138.078 384.36C138.248 384.045 138.333 383.685 138.333 383.278C138.333 382.871 138.248 382.51 138.078 382.196C137.908 381.881 137.673 381.639 137.373 381.469C137.074 381.299 136.735 381.214 136.358 381.214C135.981 381.214 135.642 381.299 135.343 381.469C135.043 381.639 134.806 381.881 134.633 382.196C134.458 382.51 134.372 382.871 134.372 383.278C134.372 383.685 134.458 384.045 134.633 384.36C134.806 384.674 135.043 384.918 135.343 385.092C135.642 385.266 135.981 385.353 136.358 385.353C136.735 385.353 137.074 385.266 137.373 385.092ZM134.782 385.897C134.316 385.637 133.952 385.28 133.689 384.825C133.427 384.37 133.295 383.855 133.295 383.278C133.295 382.7 133.427 382.185 133.689 381.73C133.952 381.275 134.316 380.92 134.782 380.664C135.248 380.409 135.773 380.281 136.358 380.281C136.942 380.281 137.466 380.409 137.928 380.664C138.39 380.92 138.753 381.275 139.016 381.73C139.278 382.185 139.409 382.7 139.409 383.278C139.409 383.855 139.278 384.37 139.016 384.825C138.753 385.28 138.39 385.637 137.928 385.897C137.466 386.155 136.942 386.284 136.358 386.284C135.773 386.284 135.248 386.155 134.782 385.897Z" fill="white"/>
<path fill-rule="evenodd" clip-rule="evenodd" d="M140.884 386.218H141.949V377.985H140.884V386.218Z" fill="white"/>
<path fill-rule="evenodd" clip-rule="evenodd" d="M147.514 385.092C147.814 384.918 148.049 384.674 148.219 384.36C148.389 384.045 148.474 383.685 148.474 383.278C148.474 382.871 148.389 382.51 148.219 382.196C148.049 381.881 147.814 381.639 147.514 381.469C147.215 381.299 146.876 381.214 146.499 381.214C146.122 381.214 145.783 381.299 145.484 381.469C145.184 381.639 144.947 381.881 144.774 382.196C144.599 382.51 144.513 382.871 144.513 383.278C144.513 383.685 144.599 384.045 144.774 384.36C144.947 384.674 145.184 384.918 145.484 385.092C145.783 385.266 146.122 385.353 146.499 385.353C146.876 385.353 147.215 385.266 147.514 385.092ZM144.923 385.897C144.457 385.637 144.093 385.28 143.83 384.825C143.568 384.37 143.436 383.855 143.436 383.278C143.436 382.7 143.568 382.185 143.83 381.73C144.093 381.275 144.457 380.92 144.923 380.664C145.389 380.409 145.914 380.281 146.499 380.281C147.083 380.281 147.607 380.409 148.069 380.664C148.531 380.92 148.894 381.275 149.157 381.73C149.419 382.185 149.55 382.7 149.55 383.278C149.55 383.855 149.419 384.37 149.157 384.825C148.894 385.28 148.531 385.637 148.069 385.897C147.607 386.155 147.083 386.284 146.499 386.284C145.914 386.284 145.389 386.155 144.923 385.897Z" fill="white"/>
<path fill-rule="evenodd" clip-rule="evenodd" d="M152.867 380.548C153.229 380.37 153.67 380.281 154.187 380.281V381.314C154.128 381.307 154.047 381.303 153.943 381.303C153.367 381.303 152.913 381.475 152.584 381.819C152.255 382.162 152.09 382.652 152.09 383.288V386.218H151.025V380.337H152.046V381.324C152.231 380.985 152.505 380.726 152.867 380.548Z" fill="white"/>
<path fill-rule="evenodd" clip-rule="evenodd" d="M159.286 386.036C158.743 385.854 158.315 385.619 158.005 385.331L158.415 384.466C158.711 384.732 159.09 384.948 159.553 385.114C160.015 385.281 160.49 385.364 160.978 385.364C161.622 385.364 162.102 385.255 162.421 385.037C162.739 384.819 162.898 384.528 162.898 384.166C162.898 383.899 162.811 383.683 162.637 383.516C162.463 383.35 162.249 383.223 161.994 383.134C161.738 383.045 161.378 382.945 160.911 382.835C160.327 382.694 159.856 382.554 159.497 382.413C159.138 382.272 158.831 382.057 158.576 381.764C158.321 381.472 158.193 381.078 158.193 380.582C158.193 380.168 158.302 379.794 158.52 379.462C158.739 379.129 159.07 378.862 159.514 378.663C159.957 378.463 160.508 378.363 161.167 378.363C161.625 378.363 162.077 378.422 162.52 378.541C162.964 378.659 163.345 378.829 163.663 379.051L163.297 379.938C162.972 379.731 162.624 379.574 162.254 379.467C161.884 379.36 161.522 379.307 161.167 379.307C160.538 379.307 160.066 379.421 159.752 379.65C159.438 379.88 159.281 380.176 159.281 380.538C159.281 380.804 159.369 381.02 159.547 381.186C159.724 381.353 159.944 381.482 160.207 381.575C160.47 381.668 160.827 381.765 161.278 381.869C161.862 382.01 162.332 382.15 162.687 382.291C163.042 382.432 163.347 382.645 163.602 382.934C163.857 383.223 163.985 383.611 163.985 384.099C163.985 384.507 163.874 384.878 163.652 385.215C163.431 385.552 163.094 385.817 162.642 386.014C162.191 386.21 161.637 386.307 160.978 386.307C160.394 386.307 159.83 386.217 159.286 386.036Z" fill="white"/>
<path fill-rule="evenodd" clip-rule="evenodd" d="M165.449 386.219H166.514V380.338H165.449V386.219ZM165.466 379.007C165.329 378.873 165.261 378.711 165.261 378.518C165.261 378.326 165.329 378.161 165.466 378.024C165.603 377.888 165.775 377.819 165.982 377.819C166.189 377.819 166.361 377.884 166.498 378.013C166.634 378.142 166.703 378.304 166.703 378.496C166.703 378.696 166.634 378.864 166.498 379.001C166.361 379.138 166.189 379.206 165.982 379.206C165.775 379.206 165.603 379.139 165.466 379.007Z" fill="white"/>
<path fill-rule="evenodd" clip-rule="evenodd" d="M171.852 385.875C171.696 386.008 171.504 386.109 171.275 386.18C171.045 386.25 170.809 386.285 170.565 386.285C169.973 386.285 169.514 386.126 169.189 385.809C168.863 385.49 168.701 385.035 168.701 384.443V381.215H167.702V380.338H168.701V379.051H169.766V380.338H171.452V381.215H169.766V384.399C169.766 384.717 169.845 384.961 170.004 385.132C170.164 385.302 170.391 385.387 170.687 385.387C171.012 385.387 171.29 385.294 171.519 385.109L171.852 385.875Z" fill="white"/>
<path fill-rule="evenodd" clip-rule="evenodd" d="M180.839 383.389L179.164 379.583L177.488 383.389H180.839ZM181.228 384.277H177.1L176.246 386.218H175.103L178.62 378.452H179.718L183.247 386.218H182.082L181.228 384.277Z" fill="white"/>
<path fill-rule="evenodd" clip-rule="evenodd" d="M193.36 380.925C193.793 381.355 194.009 381.99 194.009 382.834V386.218H192.944V382.956C192.944 382.386 192.813 381.957 192.55 381.669C192.288 381.38 191.912 381.237 191.424 381.237C190.884 381.237 190.455 381.404 190.137 381.74C189.819 382.077 189.66 382.56 189.66 383.189V386.218H188.595V382.956C188.595 382.386 188.463 381.957 188.201 381.669C187.938 381.38 187.563 381.237 187.074 381.237C186.534 381.237 186.106 381.404 185.787 381.74C185.469 382.077 185.31 382.56 185.31 383.189V386.218H184.245V380.337H185.266V381.214C185.481 380.91 185.761 380.68 186.109 380.521C186.457 380.362 186.853 380.281 187.297 380.281C187.755 380.281 188.162 380.374 188.517 380.559C188.872 380.744 189.146 381.014 189.338 381.369C189.56 381.029 189.869 380.763 190.265 380.571C190.66 380.378 191.106 380.281 191.602 380.281C192.341 380.281 192.927 380.496 193.36 380.925Z" fill="white"/>
<path fill-rule="evenodd" clip-rule="evenodd" d="M197.132 381.647C196.788 381.958 196.587 382.365 196.528 382.868H200.3C200.241 382.372 200.039 381.967 199.695 381.653C199.351 381.338 198.924 381.181 198.414 381.181C197.903 381.181 197.476 381.336 197.132 381.647ZM201.299 383.633H196.528C196.594 384.151 196.821 384.567 197.21 384.881C197.598 385.196 198.081 385.353 198.658 385.353C199.361 385.353 199.926 385.116 200.356 384.643L200.944 385.331C200.677 385.641 200.346 385.878 199.95 386.041C199.555 386.204 199.113 386.285 198.625 386.285C198.003 386.285 197.452 386.158 196.971 385.902C196.49 385.647 196.119 385.291 195.856 384.832C195.593 384.373 195.462 383.855 195.462 383.278C195.462 382.709 195.59 382.195 195.845 381.736C196.1 381.277 196.451 380.92 196.899 380.665C197.347 380.41 197.851 380.282 198.414 380.282C198.976 380.282 199.477 380.41 199.917 380.665C200.357 380.92 200.701 381.277 200.949 381.736C201.197 382.195 201.321 382.719 201.321 383.311C201.321 383.393 201.313 383.5 201.299 383.633Z" fill="white"/>
<path fill-rule="evenodd" clip-rule="evenodd" d="M206.104 385.875C205.948 386.008 205.756 386.109 205.527 386.18C205.297 386.25 205.061 386.285 204.817 386.285C204.225 386.285 203.766 386.126 203.441 385.809C203.115 385.49 202.953 385.035 202.953 384.443V381.215H201.954V380.338H202.953V379.051H204.018V380.338H205.704V381.215H204.018V384.399C204.018 384.717 204.097 384.961 204.256 385.132C204.416 385.302 204.643 385.387 204.939 385.387C205.264 385.387 205.542 385.294 205.771 385.109L206.104 385.875Z" fill="white"/>
<path fill-rule="evenodd" clip-rule="evenodd" d="M145.341 398.603H184.704V397.018H145.341V398.603Z" fill="white"/>
<path fill-rule="evenodd" clip-rule="evenodd" d="M213.795 571.336H119.611C107.186 571.336 97.1121 561.436 97.1121 549.223C97.1121 537.01 107.186 527.109 119.611 527.109H213.795C226.221 527.109 236.294 537.01 236.294 549.223C236.294 561.436 226.221 571.336 213.795 571.336Z" fill="url(#paint8_linear)"/>
</g>
<path d="M128.378 550.926L128.366 545.881L125.892 550.037H125.015L122.552 545.989V550.926H120.727V542.517H122.336L125.483 547.743L128.583 542.517H130.18L130.204 550.926H128.378ZM135.142 551.022C134.462 551.022 133.849 550.882 133.305 550.602C132.768 550.313 132.348 549.917 132.043 549.412C131.739 548.908 131.587 548.335 131.587 547.695C131.587 547.054 131.739 546.481 132.043 545.977C132.348 545.472 132.768 545.08 133.305 544.8C133.849 544.511 134.462 544.367 135.142 544.367C135.823 544.367 136.432 544.511 136.968 544.8C137.505 545.08 137.925 545.472 138.23 545.977C138.534 546.481 138.686 547.054 138.686 547.695C138.686 548.335 138.534 548.908 138.23 549.412C137.925 549.917 137.505 550.313 136.968 550.602C136.432 550.882 135.823 551.022 135.142 551.022ZM135.142 549.485C135.623 549.485 136.015 549.324 136.32 549.004C136.632 548.676 136.788 548.239 136.788 547.695C136.788 547.15 136.632 546.718 136.32 546.397C136.015 546.069 135.623 545.905 135.142 545.905C134.662 545.905 134.266 546.069 133.953 546.397C133.641 546.718 133.485 547.15 133.485 547.695C133.485 548.239 133.641 548.676 133.953 549.004C134.266 549.324 134.662 549.485 135.142 549.485ZM141.729 545.316C141.953 545.004 142.253 544.768 142.63 544.607C143.014 544.447 143.454 544.367 143.951 544.367V546.097C143.743 546.081 143.603 546.073 143.53 546.073C142.994 546.073 142.573 546.225 142.269 546.529C141.965 546.826 141.813 547.274 141.813 547.875V550.926H139.939V544.463H141.729V545.316ZM151.334 547.719C151.334 547.743 151.322 547.911 151.298 548.223H146.409C146.497 548.624 146.705 548.94 147.033 549.172C147.362 549.404 147.77 549.521 148.259 549.521C148.595 549.521 148.891 549.473 149.148 549.376C149.412 549.272 149.656 549.112 149.88 548.896L150.877 549.977C150.269 550.674 149.38 551.022 148.211 551.022C147.482 551.022 146.837 550.882 146.277 550.602C145.716 550.313 145.284 549.917 144.979 549.412C144.675 548.908 144.523 548.335 144.523 547.695C144.523 547.062 144.671 546.493 144.967 545.989C145.272 545.476 145.684 545.08 146.205 544.8C146.733 544.511 147.322 544.367 147.97 544.367C148.603 544.367 149.176 544.503 149.688 544.776C150.201 545.048 150.601 545.44 150.889 545.953C151.186 546.457 151.334 547.046 151.334 547.719ZM147.982 545.785C147.558 545.785 147.202 545.905 146.913 546.145C146.625 546.385 146.449 546.714 146.385 547.13H149.568C149.504 546.722 149.328 546.397 149.04 546.157C148.751 545.909 148.399 545.785 147.982 545.785ZM158.879 551.07C158.214 551.07 157.569 550.982 156.944 550.806C156.328 550.622 155.831 550.385 155.455 550.097L156.116 548.632C156.476 548.896 156.904 549.108 157.401 549.268C157.897 549.428 158.394 549.509 158.891 549.509C159.443 549.509 159.852 549.428 160.116 549.268C160.38 549.1 160.512 548.88 160.512 548.608C160.512 548.407 160.432 548.243 160.272 548.115C160.12 547.979 159.92 547.871 159.671 547.791C159.431 547.711 159.103 547.623 158.686 547.526C158.046 547.374 157.521 547.222 157.113 547.07C156.704 546.918 156.352 546.674 156.056 546.337C155.767 546.001 155.623 545.552 155.623 544.992C155.623 544.503 155.755 544.063 156.02 543.67C156.284 543.27 156.68 542.954 157.209 542.721C157.745 542.489 158.398 542.373 159.167 542.373C159.703 542.373 160.228 542.437 160.74 542.565C161.253 542.693 161.701 542.878 162.086 543.118L161.485 544.595C160.708 544.155 159.932 543.935 159.155 543.935C158.61 543.935 158.206 544.023 157.942 544.199C157.685 544.375 157.557 544.607 157.557 544.896C157.557 545.184 157.705 545.4 158.002 545.544C158.306 545.681 158.766 545.817 159.383 545.953C160.024 546.105 160.548 546.257 160.957 546.409C161.365 546.561 161.713 546.802 162.002 547.13C162.298 547.458 162.446 547.903 162.446 548.463C162.446 548.944 162.31 549.384 162.038 549.785C161.774 550.177 161.373 550.49 160.837 550.722C160.3 550.954 159.647 551.07 158.879 551.07ZM169.974 547.719C169.974 547.743 169.962 547.911 169.938 548.223H165.049C165.137 548.624 165.346 548.94 165.674 549.172C166.002 549.404 166.411 549.521 166.899 549.521C167.236 549.521 167.532 549.473 167.788 549.376C168.052 549.272 168.297 549.112 168.521 548.896L169.518 549.977C168.909 550.674 168.02 551.022 166.851 551.022C166.122 551.022 165.478 550.882 164.917 550.602C164.357 550.313 163.924 549.917 163.62 549.412C163.315 548.908 163.163 548.335 163.163 547.695C163.163 547.062 163.311 546.493 163.608 545.989C163.912 545.476 164.325 545.08 164.845 544.8C165.374 544.511 165.962 544.367 166.611 544.367C167.244 544.367 167.816 544.503 168.329 544.776C168.841 545.048 169.242 545.44 169.53 545.953C169.826 546.457 169.974 547.046 169.974 547.719ZM166.623 545.785C166.198 545.785 165.842 545.905 165.554 546.145C165.265 546.385 165.089 546.714 165.025 547.13H168.209C168.144 546.722 167.968 546.397 167.68 546.157C167.392 545.909 167.039 545.785 166.623 545.785ZM175.39 550.614C175.206 550.75 174.978 550.854 174.706 550.926C174.441 550.99 174.161 551.022 173.865 551.022C173.096 551.022 172.499 550.826 172.075 550.434C171.658 550.041 171.45 549.465 171.45 548.704V546.049H170.453V544.607H171.45V543.034H173.324V544.607H174.934V546.049H173.324V548.68C173.324 548.952 173.392 549.164 173.528 549.316C173.673 549.461 173.873 549.533 174.129 549.533C174.425 549.533 174.678 549.452 174.886 549.292L175.39 550.614ZM180.463 550.614C180.279 550.75 180.05 550.854 179.778 550.926C179.514 550.99 179.233 551.022 178.937 551.022C178.168 551.022 177.572 550.826 177.147 550.434C176.731 550.041 176.523 549.465 176.523 548.704V546.049H175.526V544.607H176.523V543.034H178.397V544.607H180.006V546.049H178.397V548.68C178.397 548.952 178.465 549.164 178.601 549.316C178.745 549.461 178.945 549.533 179.201 549.533C179.498 549.533 179.75 549.452 179.958 549.292L180.463 550.614ZM181.515 544.463H183.389V550.926H181.515V544.463ZM182.452 543.562C182.107 543.562 181.827 543.462 181.611 543.262C181.395 543.062 181.286 542.814 181.286 542.517C181.286 542.221 181.395 541.973 181.611 541.773C181.827 541.572 182.107 541.472 182.452 541.472C182.796 541.472 183.076 541.568 183.293 541.76C183.509 541.953 183.617 542.193 183.617 542.481C183.617 542.794 183.509 543.054 183.293 543.262C183.076 543.462 182.796 543.562 182.452 543.562ZM189.056 544.367C189.857 544.367 190.501 544.607 190.99 545.088C191.486 545.568 191.735 546.281 191.735 547.226V550.926H189.861V547.514C189.861 547.002 189.749 546.622 189.524 546.373C189.3 546.117 188.976 545.989 188.551 545.989C188.079 545.989 187.702 546.137 187.422 546.433C187.142 546.722 187.002 547.154 187.002 547.731V550.926H185.128V544.463H186.918V545.22C187.166 544.948 187.474 544.74 187.843 544.595C188.211 544.443 188.615 544.367 189.056 544.367ZM200.172 544.463V549.845C200.172 551.03 199.864 551.911 199.247 552.488C198.631 553.064 197.73 553.353 196.545 553.353C195.92 553.353 195.327 553.276 194.767 553.124C194.206 552.972 193.742 552.752 193.373 552.464L194.118 551.118C194.39 551.342 194.735 551.519 195.151 551.647C195.568 551.783 195.984 551.851 196.4 551.851C197.049 551.851 197.526 551.703 197.83 551.407C198.142 551.118 198.298 550.678 198.298 550.085V549.809C197.81 550.345 197.129 550.614 196.256 550.614C195.664 550.614 195.119 550.486 194.623 550.229C194.134 549.965 193.746 549.597 193.457 549.124C193.169 548.652 193.025 548.107 193.025 547.49C193.025 546.874 193.169 546.329 193.457 545.857C193.746 545.384 194.134 545.02 194.623 544.764C195.119 544.499 195.664 544.367 196.256 544.367C197.193 544.367 197.906 544.676 198.395 545.292V544.463H200.172ZM196.629 549.076C197.125 549.076 197.53 548.932 197.842 548.644C198.162 548.347 198.322 547.963 198.322 547.49C198.322 547.018 198.162 546.638 197.842 546.349C197.53 546.053 197.125 545.905 196.629 545.905C196.132 545.905 195.724 546.053 195.403 546.349C195.083 546.638 194.923 547.018 194.923 547.49C194.923 547.963 195.083 548.347 195.403 548.644C195.724 548.932 196.132 549.076 196.629 549.076ZM204.091 551.022C203.554 551.022 203.03 550.958 202.517 550.83C202.005 550.694 201.596 550.526 201.292 550.325L201.917 548.98C202.205 549.164 202.553 549.316 202.962 549.436C203.37 549.549 203.77 549.605 204.163 549.605C204.956 549.605 205.352 549.408 205.352 549.016C205.352 548.832 205.244 548.7 205.028 548.62C204.812 548.54 204.479 548.471 204.031 548.415C203.502 548.335 203.066 548.243 202.721 548.139C202.377 548.035 202.077 547.851 201.82 547.587C201.572 547.322 201.448 546.946 201.448 546.457C201.448 546.049 201.564 545.689 201.796 545.376C202.037 545.056 202.381 544.808 202.829 544.631C203.286 544.455 203.823 544.367 204.439 544.367C204.896 544.367 205.348 544.419 205.797 544.523C206.253 544.619 206.629 544.756 206.926 544.932L206.301 546.265C205.732 545.945 205.112 545.785 204.439 545.785C204.039 545.785 203.738 545.841 203.538 545.953C203.338 546.065 203.238 546.209 203.238 546.385C203.238 546.586 203.346 546.726 203.562 546.806C203.778 546.886 204.123 546.962 204.595 547.034C205.124 547.122 205.556 547.218 205.893 547.322C206.229 547.418 206.521 547.599 206.77 547.863C207.018 548.127 207.142 548.495 207.142 548.968C207.142 549.368 207.022 549.725 206.782 550.037C206.541 550.349 206.189 550.594 205.724 550.77C205.268 550.938 204.723 551.022 204.091 551.022Z" fill="white"/>
<path fill-rule="evenodd" clip-rule="evenodd" d="M319.268 202.939C317.214 202.939 315.533 199.586 315.533 195.486V108.728C315.533 104.629 317.214 101.274 319.268 101.274C321.323 101.274 323.003 104.629 323.003 108.728V195.486C323.003 199.586 321.323 202.939 319.268 202.939Z" fill="#1B1B1B"/>
<path fill-rule="evenodd" clip-rule="evenodd" d="M319.268 313.338C317.214 313.338 315.533 309.985 315.533 305.885V219.127C315.533 215.028 317.214 211.674 319.268 211.674C321.323 211.674 323.003 215.028 323.003 219.127V305.885C323.003 309.985 321.323 313.338 319.268 313.338Z" fill="#1B1B1B"/>
<mask id="mask3" mask-type="alpha" maskUnits="userSpaceOnUse" x="5" y="0" width="317" height="623">
<path fill-rule="evenodd" clip-rule="evenodd" d="M5 0.302246H321.439V622.999H5V0.302246Z" fill="white"/>
</mask>
<g mask="url(#mask3)">
<path fill-rule="evenodd" clip-rule="evenodd" d="M313.153 310.876V570.293C313.153 593.89 294.165 613.02 270.741 613.02H252.107H234.36H208.555H177.58H163.22H148.859H117.886H92.0785H74.3329H55.6998C32.2754 613.02 13.287 593.89 13.287 570.293V310.876V51.4608C13.287 27.8638 32.2754 8.73255 55.6998 8.73255H74.3329H92.0785H117.886H145.501C148.534 9.41958 150.936 11.7107 151.79 14.6763C152.096 15.8928 152.57 17.0652 153.211 18.1461C155.479 21.9736 159.752 24.5563 164.236 24.5563C170.173 24.5563 175.052 20.1804 176.519 14.7819H176.533C177.359 11.7675 179.781 9.43219 182.843 8.73255H208.555H234.36H252.107H270.741C294.165 8.73255 313.153 27.8638 313.153 51.4608V310.876ZM270.605 0.302246H54.0259C26.9503 0.302246 4.99936 22.2037 4.99936 49.2201V574.081C4.99936 601.099 26.9503 622.999 54.0259 622.999H272.413C299.49 622.999 321.439 601.099 321.439 574.081V51.0259C321.439 23.0121 298.68 0.302246 270.605 0.302246Z" fill="#1B1B1B"/>
</g>
<mask id="mask4" mask-type="alpha" maskUnits="userSpaceOnUse" x="157" y="9" width="15" height="14">
<path fill-rule="evenodd" clip-rule="evenodd" d="M157.971 16.1308C157.971 19.7614 160.998 22.7045 164.731 22.7045C168.467 22.7045 171.496 19.7614 171.496 16.1308C171.496 12.4985 168.467 9.55542 164.731 9.55542C160.998 9.55542 157.971 12.4985 157.971 16.1308Z" fill="white"/>
</mask>
<g mask="url(#mask4)">
<path fill-rule="evenodd" clip-rule="evenodd" d="M157.971 16.1308C157.971 19.7614 160.998 22.7045 164.731 22.7045C168.467 22.7045 171.496 19.7614 171.496 16.1308C171.496 12.4985 168.467 9.55542 164.731 9.55542C160.998 9.55542 157.971 12.4985 157.971 16.1308Z" fill="url(#paint9_radial)"/>
</g>
<mask id="mask5" mask-type="alpha" maskUnits="userSpaceOnUse" x="158" y="10" width="12" height="11">
<path fill-rule="evenodd" clip-rule="evenodd" d="M158.822 15.632C158.822 18.5187 161.242 20.8585 164.227 20.8585C167.212 20.8585 169.633 18.5187 169.633 15.632C169.633 12.7452 167.212 10.4038 164.227 10.4038C161.242 10.4038 158.822 12.7452 158.822 15.632Z" fill="white"/>
</mask>
<g mask="url(#mask5)">
<path fill-rule="evenodd" clip-rule="evenodd" d="M158.822 15.632C158.822 18.5187 161.242 20.8585 164.227 20.8585C167.212 20.8585 169.633 18.5187 169.633 15.632C169.633 12.7452 167.212 10.4038 164.227 10.4038C161.242 10.4038 158.822 12.7452 158.822 15.632Z" fill="url(#paint10_radial)"/>
</g>
<path fill-rule="evenodd" clip-rule="evenodd" d="M153.716 29.1575V38.9465H152.37V30.3746H150.221V29.1575H153.716Z" fill="black"/>
<path fill-rule="evenodd" clip-rule="evenodd" d="M164.08 36.5415H162.27V38.9465H160.953V36.5415H155.662V35.5616L160.531 29.1575H161.999L157.334 35.339H160.992V33.2135H162.27V35.339H164.08V36.5415Z" fill="black"/>
<path fill-rule="evenodd" clip-rule="evenodd" d="M164.965 38.0656C164.965 37.5066 165.385 37.115 165.888 37.115C166.379 37.115 166.787 37.5066 166.787 38.0656C166.787 38.6246 166.379 39.0308 165.888 39.0308C165.385 39.0308 164.965 38.6246 164.965 38.0656ZM164.965 32.4155C164.965 31.8565 165.385 31.4648 165.888 31.4648C166.379 31.4648 166.787 31.8565 166.787 32.4155C166.787 32.9745 166.379 33.3807 165.888 33.3807C165.385 33.3807 164.965 32.9745 164.965 32.4155Z" fill="black"/>
<path fill-rule="evenodd" clip-rule="evenodd" d="M174.594 36.0653C174.594 37.7163 173.41 39.0586 170.989 39.0586C169.629 39.0586 168.296 38.6101 167.494 37.8691L168.119 36.7657C168.759 37.38 169.82 37.8138 170.989 37.8138C172.418 37.8138 173.233 37.1427 173.233 36.08C173.233 35.0448 172.513 34.3737 170.88 34.3737H170.118V33.3938L172.513 30.3746H167.928V29.1575H174.213V30.1081L171.724 33.2687C173.628 33.4507 174.594 34.5557 174.594 36.0653Z" fill="black"/>
<path fill-rule="evenodd" clip-rule="evenodd" d="M182.401 36.0099C182.401 37.7015 181.231 39.0584 178.798 39.0584C177.45 39.0584 176.118 38.6115 175.302 37.8705L175.927 36.7655C176.567 37.3797 177.627 37.8136 178.784 37.8136C180.225 37.8136 181.042 37.1279 181.042 36.0651C181.042 34.9601 180.361 34.276 178.156 34.276H175.994L176.499 29.1572H181.87V30.3744H177.641L177.382 33.0589H178.444C181.285 33.0589 182.401 34.276 182.401 36.0099Z" fill="black"/>
<path fill-rule="evenodd" clip-rule="evenodd" d="M224.563 29.4319V38.787H223.277V30.5954H221.222V29.4319H224.563Z" fill="black"/>
<path fill-rule="evenodd" clip-rule="evenodd" d="M232.677 34.1102C232.677 31.7182 231.689 30.5157 230.274 30.5157C228.842 30.5157 227.854 31.7182 227.854 34.1102C227.854 36.5022 228.842 37.7047 230.274 37.7047C231.689 37.7047 232.677 36.5022 232.677 34.1102ZM226.555 34.1102C226.555 31.0633 228.142 29.3262 230.274 29.3262C232.391 29.3262 233.976 31.0633 233.976 34.1102C233.976 37.157 232.391 38.8942 230.274 38.8942C228.142 38.8942 226.555 37.157 226.555 34.1102Z" fill="black"/>
<path fill-rule="evenodd" clip-rule="evenodd" d="M241.351 34.1102C241.351 31.7182 240.364 30.5157 238.948 30.5157C237.518 30.5157 236.529 31.7182 236.529 34.1102C236.529 36.5022 237.518 37.7047 238.948 37.7047C240.364 37.7047 241.351 36.5022 241.351 34.1102ZM235.23 34.1102C235.23 31.0633 236.816 29.3262 238.948 29.3262C241.065 29.3262 242.65 31.0633 242.65 34.1102C242.65 37.157 241.065 38.8942 238.948 38.8942C236.816 38.8942 235.23 37.157 235.23 34.1102Z" fill="black"/>
<path fill-rule="evenodd" clip-rule="evenodd" d="M252.913 36.3154C252.913 35.2055 252.42 34.5247 251.638 34.5247C250.846 34.5247 250.366 35.1925 250.366 36.3154C250.366 37.4383 250.846 38.1062 251.638 38.1062C252.42 38.1062 252.913 37.4253 252.913 36.3154ZM249.533 36.3154C249.533 34.7928 250.378 33.7625 251.638 33.7625C252.899 33.7625 253.757 34.7928 253.757 36.3154C253.757 37.838 252.899 38.8683 251.638 38.8683C250.378 38.8683 249.533 37.838 249.533 36.3154ZM251.366 29.4319H252.366L246.154 38.787H245.154L251.366 29.4319ZM247.155 31.9052C247.155 30.7823 246.674 30.1144 245.881 30.1144C245.102 30.1144 244.607 30.7953 244.607 31.9052C244.607 33.0134 245.102 33.6959 245.881 33.6959C246.674 33.6959 247.155 33.028 247.155 31.9052ZM243.764 31.9052C243.764 30.3809 244.62 29.3523 245.881 29.3523C247.142 29.3523 247.988 30.3679 247.988 31.9052C247.988 33.4424 247.142 34.458 245.881 34.458C244.62 34.458 243.764 33.4294 243.764 31.9052Z" fill="black"/>
<path fill-rule="evenodd" clip-rule="evenodd" d="M36.3037 38.9487H33.8653C33.5856 38.9487 33.3612 38.7164 33.3612 38.4304V33.1231C33.3612 32.8355 33.5856 32.6047 33.8653 32.6047H36.3037C36.5818 32.6047 36.8078 32.8355 36.8078 33.1231V38.4304C36.8078 38.7164 36.5818 38.9487 36.3037 38.9487Z" fill="black"/>
<path fill-rule="evenodd" clip-rule="evenodd" d="M41.0674 38.9487H38.6291C38.3494 38.9487 38.1234 38.7164 38.1234 38.4304V31.9092C38.1234 31.6232 38.3494 31.3909 38.6291 31.3909H41.0674C41.3456 31.3909 41.5715 31.6232 41.5715 31.9092V38.4304C41.5715 38.7164 41.3456 38.9487 41.0674 38.9487Z" fill="black"/>
<path fill-rule="evenodd" clip-rule="evenodd" d="M60.3978 35.2013C60.3457 35.3313 60.4673 35.4808 60.4673 35.4808L62.8772 38.5975C63.0479 38.8169 63.4698 38.8169 63.6405 38.5975L65.9603 35.5961C65.9603 35.5961 66.0946 35.4223 66.0456 35.2776C65.9935 35.1265 65.8117 35.0306 65.777 35.0144C64.9189 34.6293 64.0687 34.4993 63.2201 34.4993C62.4111 34.4993 61.4755 34.6179 60.6522 35.0063C60.6127 35.0241 60.4389 35.0956 60.3978 35.2013Z" fill="black"/>
<path fill-rule="evenodd" clip-rule="evenodd" d="M58.6886 32.9384C58.6238 33.0928 58.7613 33.2748 58.7613 33.2748L59.3128 33.9865C59.3128 33.9865 59.6178 34.3928 59.7837 34.4724C59.9813 34.5699 60.1851 34.4513 60.4237 34.3652C61.2976 34.0483 62.2631 33.8549 63.2587 33.8549C64.2242 33.8549 65.1708 34.0174 66.0162 34.3408C66.2928 34.448 66.5835 34.6105 66.7858 34.461L67.1129 34.1052L67.685 33.3642C67.685 33.3642 67.8793 33.1269 67.8335 32.9855C67.7735 32.8019 67.6692 32.7532 67.4843 32.6719C66.2327 32.1227 64.7852 31.7327 63.2492 31.7327C61.6532 31.7327 60.2499 32.1405 58.9667 32.7044C58.8324 32.7645 58.7439 32.8035 58.6886 32.9384Z" fill="black"/>
<path fill-rule="evenodd" clip-rule="evenodd" d="M63.2203 31.104C64.957 31.104 66.5594 31.4989 67.9121 32.1587C68.0448 32.2237 68.1459 32.2643 68.2913 32.2529C68.4004 32.2448 68.5284 32.0985 68.5284 32.0985L69.7831 30.6198C69.7831 30.6198 69.9158 30.4735 69.8763 30.3468C69.8289 30.1892 69.7578 30.1567 69.6045 30.0917C67.7066 29.3068 65.5448 28.686 63.2203 28.686C60.891 28.686 58.7245 29.31 56.825 30.0998C56.6939 30.155 56.6591 30.1794 56.6133 30.2867C56.5627 30.4102 56.6623 30.545 56.6623 30.545L57.8317 31.9848C57.8317 31.9848 58.0134 32.2204 58.1319 32.2448C58.271 32.2724 58.3879 32.2269 58.5175 32.1635C59.8718 31.5005 61.4789 31.104 63.2203 31.104Z" fill="black"/>
<path fill-rule="evenodd" clip-rule="evenodd" d="M262.191 29.028C261.461 29.028 260.867 29.6374 260.867 30.3882V37.361C260.867 38.1118 261.461 38.7212 262.191 38.7212H284.828C285.56 38.7212 286.152 38.1118 286.152 37.361V30.3882C286.152 29.6374 285.56 29.028 284.828 29.028H262.191ZM284.828 39.1989H262.191C261.205 39.1989 260.402 38.375 260.402 37.361V30.3882C260.402 29.3742 261.205 28.5503 262.191 28.5503H284.828C285.816 28.5503 286.617 29.3742 286.617 30.3882V37.361C286.617 38.375 285.816 39.1989 284.828 39.1989Z" fill="black"/>
<path fill-rule="evenodd" clip-rule="evenodd" d="M259.242 31.9831L259.223 35.0446L259.242 35.0625H260.386V31.9831H259.242ZM260.852 35.5386H259.242C258.975 35.5386 258.758 35.3176 258.758 35.0446V32.001C258.758 31.728 258.975 31.5054 259.242 31.5054H260.852V35.5386Z" fill="black"/>
<path fill-rule="evenodd" clip-rule="evenodd" d="M262.708 37.8831H284.312C284.854 37.8831 285.296 37.4264 285.296 36.8691V30.8793C285.296 30.3236 284.854 29.8669 284.312 29.8669H262.708C262.166 29.8669 261.724 30.3236 261.724 30.8793V36.8691C261.724 37.4264 262.166 37.8831 262.708 37.8831Z" fill="black"/>
<defs>
<linearGradient id="paint0_linear" x1="111.06" y1="73.5375" x2="92.594" y2="139.12" gradientUnits="userSpaceOnUse">
<stop stop-color="#56B3E9"/>
<stop offset="1" stop-color="#2B7CCF"/>
</linearGradient>
<linearGradient id="paint1_linear" x1="246.651" y1="-74.5021" x2="48.0381" y2="-64.5343" gradientUnits="userSpaceOnUse">
<stop stop-color="#56B3E9"/>
<stop offset="1" stop-color="#2B7CCF"/>
</linearGradient>
<linearGradient id="paint2_linear" x1="283.981" y1="-20.2057" x2="85.55" y2="-8.57074" gradientUnits="userSpaceOnUse">
<stop stop-color="#7456E9"/>
<stop offset="0.755922" stop-color="#56B3E9"/>
<stop offset="1" stop-color="#2B7CCF"/>
</linearGradient>
<linearGradient id="paint3_linear" x1="321.313" y1="-107.95" x2="122.622" y2="-98.7908" gradientUnits="userSpaceOnUse">
<stop stop-color="#7456E9"/>
<stop offset="0.755922" stop-color="#56B3E9"/>
<stop offset="1" stop-color="#2B7CCF"/>
</linearGradient>
<linearGradient id="paint4_linear" x1="358.644" y1="-168.429" x2="159.852" y2="-160.442" gradientUnits="userSpaceOnUse">
<stop stop-color="#7456E9"/>
<stop offset="0.755922" stop-color="#56B3E9"/>
<stop offset="1" stop-color="#2B7CCF"/>
</linearGradient>
<linearGradient id="paint5_linear" x1="395.975" y1="-282.707" x2="197.07" y2="-276.277" gradientUnits="userSpaceOnUse">
<stop stop-color="#7456E9"/>
<stop offset="0.755922" stop-color="#56B3E9"/>
<stop offset="1" stop-color="#2B7CCF"/>
</linearGradient>
<linearGradient id="paint6_linear" x1="433.306" y1="-155.631" x2="234.532" y2="-147.422" gradientUnits="userSpaceOnUse">
<stop stop-color="#7456E9"/>
<stop offset="0.755922" stop-color="#56B3E9"/>
<stop offset="1" stop-color="#2B7CCF"/>
</linearGradient>
<linearGradient id="paint7_linear" x1="164.23" y1="266.575" x2="59.7659" y2="458.031" gradientUnits="userSpaceOnUse">
<stop stop-color="#FFE500"/>
<stop offset="1" stop-color="#FFC600"/>
</linearGradient>
<linearGradient id="paint8_linear" x1="170.137" y1="520.135" x2="150.531" y2="582.042" gradientUnits="userSpaceOnUse">
<stop stop-color="#56B3E9"/>
<stop offset="1" stop-color="#2B7CCF"/>
</linearGradient>
<radialGradient id="paint9_radial" cx="0" cy="0" r="1" gradientUnits="userSpaceOnUse" gradientTransform="translate(158.31 6.66163) rotate(57.4021) scale(17.0258 17.2338)">
<stop stop-color="#737376"/>
<stop offset="1" stop-color="#3D3D3A"/>
</radialGradient>
<radialGradient id="paint10_radial" cx="0" cy="0" r="1" gradientUnits="userSpaceOnUse" gradientTransform="translate(159.184 7.35349) rotate(61.9841) scale(13.0118 13.2629)">
<stop stop-color="#737376"/>
<stop offset="1" stop-color="#302D29"/>
</radialGradient>
</defs>
</svg>
