<svg width="106" height="106" viewBox="0 0 106 106" fill="none" xmlns="http://www.w3.org/2000/svg">
<circle cx="53" cy="53" r="53" fill="#4E7BCA"/>
<path d="M31 35H35.717L41.7601 58.9779L38.6652 66H68" stroke="white" stroke-width="2" stroke-linecap="round"/>
<path d="M37 41.5H48" stroke="white" stroke-width="2" stroke-linecap="round"/>
<path d="M42 59H63.0952L65 53" stroke="white" stroke-width="2" stroke-linecap="round"/>
<path d="M58 40.8418L61.2313 44L68 38" stroke="white" stroke-width="2" stroke-linecap="round"/>
<path fill-rule="evenodd" clip-rule="evenodd" d="M74.9095 40.9721C74.9095 47.4748 69.7103 52.7457 63.2942 52.7457C56.8795 52.7457 51.679 47.4748 51.679 40.9721C51.679 34.4707 56.8795 29.1998 63.2942 29.1998C69.7103 29.1998 74.9095 34.4707 74.9095 40.9721Z" stroke="white" stroke-width="2" stroke-linecap="round"/>
<path fill-rule="evenodd" clip-rule="evenodd" d="M47.5744 73.7114C47.5744 76.0794 45.6805 78.0003 43.3427 78.0003C41.0062 78.0003 39.111 76.0794 39.111 73.7114C39.111 71.3433 41.0062 69.4225 43.3427 69.4225C45.6805 69.4225 47.5744 71.3433 47.5744 73.7114Z" stroke="white" stroke-width="2" stroke-linecap="round"/>
<path fill-rule="evenodd" clip-rule="evenodd" d="M67.5263 73.7114C67.5263 76.0794 65.6311 78.0003 63.2946 78.0003C60.9581 78.0003 59.0629 76.0794 59.0629 73.7114C59.0629 71.3433 60.9581 69.4225 63.2946 69.4225C65.6311 69.4225 67.5263 71.3433 67.5263 73.7114Z" stroke="white" stroke-width="2" stroke-linecap="round"/>
</svg>
