<svg width="40" height="40" viewBox="0 0 40 40" fill="none" xmlns="http://www.w3.org/2000/svg">
<circle cx="20" cy="20" r="20" fill="#4E7BCA"/>
<path fill-rule="evenodd" clip-rule="evenodd" d="M18.2397 16.5698V23.4302C20.2375 22.2768 22.1809 21.1549 24.1839 19.9985C22.1684 18.8362 20.231 17.7184 18.2397 16.5698ZM9 21.4805V18.5183C9.02601 18.3541 9.06149 18.1904 9.07627 18.025C9.15431 17.1447 9.20457 16.2609 9.30685 15.3836C9.50018 13.7219 10.3155 12.6929 11.6599 12.4156C12.208 12.3019 12.7697 12.2096 13.3272 12.1942C16.4418 12.1079 19.5576 11.9805 22.6716 12.0025C24.8461 12.0174 27.0195 12.2275 29.1899 12.3953C29.991 12.4578 30.6833 12.8792 31.067 13.5773C31.378 14.1421 31.579 14.7974 31.6837 15.4366C31.8516 16.4543 31.9007 17.4905 32 18.5183V21.4805C31.974 21.6453 31.9391 21.809 31.9243 21.9744C31.8463 22.8553 31.796 23.7379 31.6937 24.6158C31.5034 26.2602 30.7135 27.2779 29.3891 27.5702C28.8269 27.6945 28.2481 27.7886 27.6734 27.8041C24.5759 27.8921 21.4773 28.0195 18.3799 27.9975C16.1888 27.9814 13.9983 27.7719 11.8107 27.6035C11.0096 27.5422 10.3173 27.1202 9.93296 26.4221C9.62316 25.8573 9.42214 25.2014 9.31631 24.5622C9.1484 23.5457 9.09933 22.5089 9 21.4805Z" fill="white"/>
<mask id="mask0" mask-type="alpha" maskUnits="userSpaceOnUse" x="8" y="12" width="24" height="16">
<path fill-rule="evenodd" clip-rule="evenodd" d="M12.74 12.4919C12.1742 12.5074 11.6042 12.5954 11.048 12.7045C9.68363 12.9708 8.85623 13.9588 8.66003 15.5548C8.55623 16.3965 8.50523 17.2451 8.42603 18.0902C8.41103 18.2491 8.37503 18.4068 8.34863 18.5645V21.4085C8.45003 22.396 8.49923 23.3908 8.67023 24.3674C8.77703 24.9811 8.98103 25.6108 9.29543 26.1525C9.68543 26.8234 10.3886 27.228 11.201 27.2874C13.421 27.4485 15.644 27.6502 17.8682 27.6651C21.0104 27.6862 24.1556 27.5639 27.299 27.4799C27.8822 27.4645 28.4696 27.3748 29.0408 27.2548C30.3842 26.9748 31.1852 25.9971 31.379 24.4182C31.4828 23.5754 31.5338 22.7279 31.6136 21.8828C31.628 21.7234 31.664 21.5662 31.6904 21.4085V18.5645C31.5896 17.5777 31.5398 16.5822 31.3688 15.6051C31.2626 14.9919 31.0586 14.3622 30.743 13.8199C30.3536 13.1502 29.651 12.7451 28.8386 12.6857C26.6354 12.5239 24.4298 12.3222 22.223 12.3079C21.9788 12.3062 21.7346 12.3057 21.4904 12.3057C18.5738 12.3057 15.656 12.4159 12.74 12.4919ZM17.7254 16.6937C19.7468 17.7959 21.7124 18.8691 23.7578 19.9857C21.725 21.096 19.7528 22.1725 17.7254 23.2799V16.6937Z" fill="white"/>
</mask>
<g mask="url(#mask0)">
<path fill-rule="evenodd" clip-rule="evenodd" d="M8.34863 27.6675H31.6898V12.3052H8.34863V27.6675Z" fill="#E5190A"/>
</g>
<mask id="mask1" mask-type="alpha" maskUnits="userSpaceOnUse" x="8" y="12" width="24" height="16">
<path fill-rule="evenodd" clip-rule="evenodd" d="M12.74 12.4919C12.1742 12.5074 11.6042 12.5954 11.048 12.7045C9.68363 12.9708 8.85623 13.9588 8.66003 15.5548C8.55623 16.3965 8.50523 17.2451 8.42603 18.0902C8.41103 18.2491 8.37503 18.4068 8.34863 18.5645V21.4085C8.45003 22.396 8.49923 23.3908 8.67023 24.3674C8.77703 24.9811 8.98103 25.6108 9.29543 26.1525C9.68543 26.8234 10.3886 27.228 11.201 27.2874C13.421 27.4485 15.644 27.6502 17.8682 27.6651C21.0104 27.6862 24.1556 27.5639 27.299 27.4799C27.8822 27.4645 28.4696 27.3748 29.0408 27.2548C30.3842 26.9748 31.1852 25.9971 31.379 24.4182C31.4828 23.5754 31.5338 22.7279 31.6136 21.8828C31.628 21.7234 31.664 21.5662 31.6904 21.4085V18.5645C31.5896 17.5777 31.5398 16.5822 31.3688 15.6051C31.2626 14.9919 31.0586 14.3622 30.743 13.8199C30.3536 13.1502 29.651 12.7451 28.8386 12.6857C26.6354 12.5239 24.4298 12.3222 22.223 12.3079C21.9782 12.3068 21.7346 12.3057 21.4904 12.3057C18.5738 12.3057 15.656 12.4154 12.74 12.4919ZM17.7254 16.6937C19.7468 17.7959 21.7124 18.8691 23.7578 19.9857C21.725 21.096 19.7528 22.1725 17.7254 23.2799V16.6937Z" fill="white"/>
</mask>
<g mask="url(#mask1)">
<path fill-rule="evenodd" clip-rule="evenodd" d="M7.40002 28.5715H32.639V11.4023H7.40002V28.5715Z" fill="white"/>
</g>
</svg>
